<svg width="45" height="36" viewBox="0 0 45 36" fill="none" xmlns="http://www.w3.org/2000/svg">
<g clip-path="url(#clip0_781_290)">
<mask id="mask0_781_290" style="mask-type:luminance" maskUnits="userSpaceOnUse" x="0" y="0" width="45" height="36">
<path d="M45 0H0V36H45V0Z" fill="white"/>
</mask>
<g mask="url(#mask0_781_290)">
<path d="M40.2999 27.9V23.9C40.2999 22.9 40.6999 22 41.3999 21.3C42.0999 20.6 42.9999 20.2 43.8999 20.2H44.9999V15.7H43.8999C41.7999 15.7 39.7999 16.6 38.2999 18.1C36.7999 19.6 35.9999 21.7 35.9999 23.8V27.8C35.9999 28.8 35.5999 29.7 34.9999 30.4C34.3999 31.1 33.3999 31.5 32.4999 31.5H31.3999V36H32.4999C34.5999 36 36.5999 35.0999 38.0999 33.5999C39.4999 32.0999 40.2999 30 40.2999 27.9Z" fill="#37384F"/>
<path d="M4.7 12.1C4.7 13.1 4.3 14 3.7 14.7C3 15.4 2.1 15.8 1.2 15.8H0V20.3H1.1C3.2 20.3 5.2 19.4 6.7 17.9C8.2 16.4 9 14.3 9 12.2V8.2C9 7.2 9.4 6.3 10 5.6C10.7 4.9 11.6 4.5 12.5 4.5H13.6V0H12.5C10.5 0 8.5 0.9 7 2.4C5.5 3.9 4.7 6 4.6 8.1L4.7 12.1Z" fill="#37384F"/>
<path d="M9.10005 27.9V23.9C9.10005 21.9 8.40005 19.9 7.00005 18.5C5.80005 19.6 4.40005 20.4 2.80005 20.7C3.40005 21 3.80005 21.5 4.20005 22C4.50005 22.6 4.70005 23.2 4.70005 23.9V27.9C4.70005 30.1 5.50005 32.1 7.00005 33.6C8.50005 35.1 10.5 36 12.6 36H13.7V31.5H12.6C11.7 31.5 10.7 31.1 10.1 30.4C9.40005 29.8 9.10005 28.8 9.10005 27.9Z" fill="#37384F"/>
<path d="M35.9001 8.1V12.1C35.9001 14.1 36.6 16 38 17.5C39.2 16.4 40.6001 15.6 42.2001 15.3C41.6001 15 41.2 14.5 40.8 14C40.5 13.4 40.3 12.8 40.3 12.1V8.1C40.3 5.9 39.5 3.9 38 2.4C36.5 0.9 34.5001 0 32.4001 0H31.3V4.5H32.4001C32.9001 4.5 33.3 4.6 33.8 4.8C34.2 5 34.6 5.3 35 5.6C35.3 5.9 35.6 6.3 35.8 6.8C35.9 7.2 35.9001 7.6 35.9001 8.1Z" fill="#37384F"/>
</g>
<path d="M22.4999 23.6C25.5927 23.6 28.0999 21.0928 28.0999 18C28.0999 14.9072 25.5927 12.4 22.4999 12.4C19.4071 12.4 16.8999 14.9072 16.8999 18C16.8999 21.0928 19.4071 23.6 22.4999 23.6Z" fill="#2970F1"/>
</g>
<defs>
<clipPath id="clip0_781_290">
<rect width="45" height="36" fill="white"/>
</clipPath>
</defs>
</svg>
