<?xml version="1.0" encoding="utf-8"?>
<!-- Generator: Adobe Illustrator 25.4.1, SVG Export Plug-In . SVG Version: 6.00 Build 0)  -->
<svg version="1.1" id="Layer_1" xmlns="http://www.w3.org/2000/svg" xmlns:xlink="http://www.w3.org/1999/xlink" x="0px" y="0px"
	 viewBox="0 0 45 36" style="enable-background:new 0 0 45 36;" xml:space="preserve">
<style type="text/css">
	.st0{clip-path:url(#SVGID_00000035523009493538750940000010295180048637674933_);}
	.st1{fill:#37384F;}
	.st2{fill:#EE4A4E;}
</style>
<g>
	<g>
		<defs>
			<rect id="SVGID_1_" width="45" height="36"/>
		</defs>
		<clipPath id="SVGID_00000172399189454903555000000010635988915668744068_">
			<use xlink:href="#SVGID_1_"  style="overflow:visible;"/>
		</clipPath>
		<g style="clip-path:url(#SVGID_00000172399189454903555000000010635988915668744068_);">
			<path class="st1" d="M40.3,27.9v-4c0-1,0.4-1.9,1.1-2.6c0.7-0.7,1.6-1.1,2.5-1.1H45v-4.5h-1.1c-2.1,0-4.1,0.9-5.6,2.4
				S36,21.7,36,23.8v4c0,1-0.4,1.9-1,2.6s-1.6,1.1-2.5,1.1h-1.1V36h1.1c2.1,0,4.1-0.9,5.6-2.4C39.5,32.1,40.3,30,40.3,27.9z"/>
			<path class="st1" d="M4.7,12.1c0,1-0.4,1.9-1,2.6c-0.7,0.7-1.6,1.1-2.5,1.1H0v4.5h1.1c2.1,0,4.1-0.9,5.6-2.4S9,14.3,9,12.2v-4
				c0-1,0.4-1.9,1-2.6c0.7-0.7,1.6-1.1,2.5-1.1h1.1V0h-1.1c-2,0-4,0.9-5.5,2.4S4.7,6,4.6,8.1L4.7,12.1z"/>
			<path class="st1" d="M9.1,27.9v-4c0-2-0.7-4-2.1-5.4c-1.2,1.1-2.6,1.9-4.2,2.2c0.6,0.3,1,0.8,1.4,1.3c0.3,0.6,0.5,1.2,0.5,1.9v4
				c0,2.2,0.8,4.2,2.3,5.7s3.5,2.4,5.6,2.4h1.1v-4.5h-1.1c-0.9,0-1.9-0.4-2.5-1.1C9.4,29.8,9.1,28.8,9.1,27.9z"/>
			<path class="st1" d="M35.9,8.1v4c0,2,0.7,3.9,2.1,5.4c1.2-1.1,2.6-1.9,4.2-2.2c-0.6-0.3-1-0.8-1.4-1.3c-0.3-0.6-0.5-1.2-0.5-1.9
				v-4c0-2.2-0.8-4.2-2.3-5.7S34.5,0,32.4,0h-1.1v4.5h1.1c0.5,0,0.9,0.1,1.4,0.3C34.2,5,34.6,5.3,35,5.6c0.3,0.3,0.6,0.7,0.8,1.2
				C35.9,7.2,35.9,7.6,35.9,8.1z"/>
		</g>
	</g>
</g>
<g>
	<g>
		<path class="st2" d="M18.6,10.4c-2,0-3.7,1.7-3.7,3.7c0,2,1.7,3.7,3.7,3.7c2,0,3.7-1.7,3.7-3.7C22.3,12,20.6,10.4,18.6,10.4z
			 M20.8,14.4h-2.2c-0.2,0-0.3-0.1-0.3-0.3V11h0.6v2.8h1.9L20.8,14.4L20.8,14.4z"/>
	</g>
</g>
<g>
	<g>
		<path class="st2" d="M31.6,23.6c-1.4-1.8-2.2-4.4-2.2-6.8v-2c0-2.7-2-4.8-4.6-5c-0.6,0-1.2,0.1-1.7,0.2c0.9,1.1,1.5,2.5,1.5,4
			c0,3.1-2.4,5.7-5.4,6c-0.4,1.2-0.9,2.6-1.7,3.6c-0.2,0.3-0.3,0.7-0.1,1c0.2,0.3,0.5,0.5,0.8,0.5h3.9c0.1,1.2,1.2,2.1,2.4,2.1
			c1.2,0,2.3-0.9,2.4-2.1h3.9c0.4,0,0.7-0.2,0.8-0.5C31.9,24.3,31.9,23.9,31.6,23.6z M29.7,23.9c-1.3-2-2-4.6-2-7v-2
			c0-1.7-1.3-3.1-2.9-3.2c0,0-0.1,0-0.1,0V11c0.1,0,0.1,0,0.2,0c1.9,0.1,3.5,1.8,3.5,3.8v2c0,2.3,0.7,4.8,1.9,6.7L29.7,23.9z"/>
	</g>
</g>
<g>
	<g>
		<path class="st2" d="M18.6,8.6c-3,0-5.4,2.4-5.4,5.4c0,3,2.4,5.4,5.4,5.4c3,0,5.4-2.4,5.4-5.4C24.1,11.1,21.6,8.6,18.6,8.6z
			 M18.6,18.4c-2.4,0-4.3-1.9-4.3-4.3s1.9-4.3,4.3-4.3s4.3,1.9,4.3,4.3S21,18.4,18.6,18.4z"/>
	</g>
</g>
</svg>
