<svg width="191" height="34" viewBox="0 0 191 34" fill="none" xmlns="http://www.w3.org/2000/svg">
<path fill-rule="evenodd" clip-rule="evenodd" d="M73.8029 26.3944C73.124 26.3944 69.3658 26.3055 68.4066 26.3055C67.4466 26.3055 62.4449 24.7455 62.4449 19.2427C62.4449 18.2627 62.4442 17.2774 62.4416 16.296C62.4376 15.3816 62.4182 14.4685 62.4155 13.56C62.4148 13.2951 62.4135 13.0295 62.4121 12.7646C62.4054 11.3786 62.2884 9.81861 62.7339 8.48673C63.0751 7.47194 63.8818 7.06522 64.8752 7.06522C67.2794 7.06522 67.4399 9.51691 67.4466 11.978H74.395C75.4954 11.978 76.3169 13.0938 76.3169 14.8016C76.3169 16.5081 74.5368 16.8907 73.6043 16.8907H67.3697C67.3383 17.9356 67.3048 18.7865 67.3048 19.3036C67.3048 20.3906 67.7289 21.568 70.384 21.568H74.1153C75.0465 21.568 76.4299 22.2737 76.4299 24.2451C76.4299 26.2138 74.4813 26.3944 73.8029 26.3944ZM69.3756 0.326172C60.2773 0.326172 52.9028 7.70331 52.9028 16.799C52.9028 25.8966 60.2773 33.2704 69.3756 33.2704C78.4733 33.2704 85.8478 25.8966 85.8478 16.799C85.8478 7.70331 78.4733 0.326172 69.3756 0.326172Z" fill="#231F20"/>
<mask id="mask0_48_390" style="mask-type:alpha" maskUnits="userSpaceOnUse" x="0" y="0" width="34" height="34">
<path fill-rule="evenodd" clip-rule="evenodd" d="M0.741211 0.326172H33.6865V33.2704H0.741211V0.326172Z" fill="white"/>
</mask>
<g mask="url(#mask0_48_390)">
<path fill-rule="evenodd" clip-rule="evenodd" d="M21.5749 16.7294H18.7225V26.9021H14.4941V16.7294H12.484V13.1378H14.4941V10.8106C14.4941 9.14489 15.2855 6.54469 18.7613 6.54469L21.892 6.55674V10.0453H19.6183C19.2477 10.0453 18.7225 10.2306 18.7225 11.0226V13.1378H21.9455L21.5749 16.7294ZM17.214 0.326172C8.11701 0.326172 0.741211 7.70264 0.741211 16.799C0.741211 25.896 8.11701 33.2704 17.214 33.2704C26.3117 33.2704 33.6868 25.896 33.6868 16.799C33.6868 7.70264 26.3117 0.326172 17.214 0.326172Z" fill="#231F20"/>
</g>
<mask id="mask1_48_390" style="mask-type:alpha" maskUnits="userSpaceOnUse" x="105" y="0" width="34" height="34">
<path fill-rule="evenodd" clip-rule="evenodd" d="M105.064 0.325684H138.009V33.2712H105.064V0.325684Z" fill="white"/>
</mask>
<g mask="url(#mask1_48_390)">
<path fill-rule="evenodd" clip-rule="evenodd" d="M130.711 24.7993C130.711 25.5324 130.103 26.1251 129.353 26.1251H113.689C112.938 26.1251 112.329 25.5324 112.329 24.7993V8.95258C112.329 8.22075 112.938 7.62606 113.689 7.62606H129.353C130.103 7.62606 130.711 8.22075 130.711 8.95258V24.7993ZM121.537 0.325684C112.44 0.325684 105.064 7.70082 105.064 16.7985C105.064 25.8975 112.44 33.2713 121.537 33.2713C130.634 33.2713 138.009 25.8975 138.009 16.7985C138.009 7.70082 130.634 0.325684 121.537 0.325684Z" fill="#231F20"/>
</g>
<path fill-rule="evenodd" clip-rule="evenodd" d="M124.716 14.564C123.243 14.564 122.583 15.3727 122.214 15.9427V15.9701H122.195C122.202 15.9621 122.208 15.9514 122.214 15.9427V14.76H119.438C119.474 15.5426 119.438 23.1111 119.438 23.1111H122.214V18.4472C122.214 18.1963 122.232 17.9495 122.305 17.7702C122.506 17.2725 122.964 16.7534 123.729 16.7534C124.735 16.7534 125.136 17.5207 125.136 18.6432V23.1111H127.912V18.3228C127.912 15.7567 126.542 14.564 124.716 14.564Z" fill="#231F20"/>
<path fill-rule="evenodd" clip-rule="evenodd" d="M116.531 10.7319C115.582 10.7319 114.96 11.3567 114.96 12.1755C114.96 12.9762 115.563 13.6191 116.494 13.6191H116.513C117.481 13.6191 118.084 12.9762 118.084 12.1755C118.066 11.3567 117.481 10.7319 116.531 10.7319Z" fill="#231F20"/>
<mask id="mask2_48_390" style="mask-type:alpha" maskUnits="userSpaceOnUse" x="0" y="0" width="191" height="34">
<path fill-rule="evenodd" clip-rule="evenodd" d="M0.741211 33.2713H190.17V0.325684H0.741211V33.2713Z" fill="white"/>
</mask>
<g mask="url(#mask2_48_390)">
<path fill-rule="evenodd" clip-rule="evenodd" d="M115.125 23.1114H117.902V14.7603H115.125V23.1114Z" fill="#231F20"/>
<path fill-rule="evenodd" clip-rule="evenodd" d="M183.14 22.8579C183.14 23.6405 182.503 24.2767 181.721 24.2767H165.674C165.475 24.2767 165.285 24.2346 165.112 24.1596L182.13 13.7977C182.206 13.7515 182.234 13.6599 182.208 13.5782C182.202 13.5709 182.195 13.5649 182.189 13.5582C182.162 13.5307 182.139 13.4993 182.109 13.4772L182.074 13.4525L179.179 11.3634L179.721 10.8215L182.551 12.8638C182.789 13.0351 182.965 13.2786 183.061 13.5689H183.062C183.115 13.7288 183.14 13.8739 183.14 14.0144V22.8579ZM164.255 22.8573V14.0138C164.255 13.8727 164.281 13.7275 164.333 13.5683L164.334 13.5677C164.43 13.278 164.607 13.0345 164.844 12.8633L172.867 7.07353C173.364 6.71497 174.031 6.71497 174.528 7.07353L177.456 9.18606L176.914 9.72858L174.085 7.68762C173.853 7.51972 173.542 7.51972 173.31 7.68762L165.287 13.4767C165.256 13.4988 165.232 13.5302 165.206 13.5576L173.501 18.6082L164.758 23.9316C164.453 23.6708 164.255 23.2888 164.255 22.8573ZM179.333 7.92281C179.383 7.92281 179.431 7.94288 179.467 7.97833L180.614 9.12558C180.688 9.19916 180.688 9.3189 180.614 9.39316L173.896 16.1114C173.859 16.1482 173.81 16.1662 173.762 16.1662C173.714 16.1662 173.665 16.1482 173.628 16.1114L170.267 12.7499C170.231 12.7145 170.211 12.6663 170.211 12.6161C170.211 12.566 170.231 12.5178 170.267 12.4824L171.414 11.3351C171.488 11.2615 171.608 11.2615 171.682 11.3351L173.762 13.4155L179.199 7.97833C179.235 7.94288 179.283 7.92281 179.333 7.92281ZM173.698 0.326172C164.6 0.326172 157.225 7.69997 157.225 16.7976C157.225 25.8946 164.6 33.2704 173.698 33.2704C182.795 33.2704 190.17 25.8946 190.17 16.7976C190.17 7.69997 182.795 0.326172 173.698 0.326172Z" fill="#231F20"/>
</g>
</svg>
