<svg width="86" height="87" viewBox="0 0 86 87" fill="none" xmlns="http://www.w3.org/2000/svg">
<mask id="mask0_136_1781" style="mask-type:alpha" maskUnits="userSpaceOnUse" x="0" y="0" width="86" height="87">
<path fill-rule="evenodd" clip-rule="evenodd" d="M0.430664 0.739746H85.9008V86.1947H0.430664V0.739746Z" fill="white"/>
</mask>
<g mask="url(#mask0_136_1781)">
<path fill-rule="evenodd" clip-rule="evenodd" d="M70.3146 32.0323V64.3594H15.9438V32.0323V21.9728H70.3146V32.0323ZM43.166 0.739746C19.5648 0.739746 0.430176 19.8698 0.430176 43.4669C0.430176 67.0639 19.5648 86.1952 43.166 86.1952C66.7684 86.1952 85.9006 67.0639 85.9006 43.4669C85.9006 19.8698 66.7684 0.739746 43.166 0.739746Z" fill="#42CF5A"/>
</g>
<mask id="mask1_136_1781" style="mask-type:alpha" maskUnits="userSpaceOnUse" x="0" y="0" width="86" height="87">
<path fill-rule="evenodd" clip-rule="evenodd" d="M0.430664 86.1946H85.9012V0.739258H0.430664V86.1946Z" fill="white"/>
</mask>
<g mask="url(#mask1_136_1781)">
<path fill-rule="evenodd" clip-rule="evenodd" d="M27.9208 45.4817H58.3393V42.4364H27.9208V45.4817ZM18.4463 61.8556H67.8104V32.0327H18.4463V61.8556Z" fill="#42CF5A"/>
<path fill-rule="evenodd" clip-rule="evenodd" d="M27.9209 45.4818H58.3394V42.4365H27.9209V45.4818Z" fill="white"/>
<path fill-rule="evenodd" clip-rule="evenodd" d="M20.2949 25.0953C21.3483 25.0953 22.2022 25.949 22.2022 27.0022C22.2022 28.0543 21.3483 28.9092 20.2949 28.9092C19.2415 28.9092 18.3864 28.0543 18.3864 27.0022C18.3864 25.949 19.2415 25.0953 20.2949 25.0953ZM27.1938 25.0953C28.2471 25.0953 29.101 25.949 29.101 27.0022C29.101 28.0543 28.2471 28.9092 27.1938 28.9092C26.1404 28.9092 25.2853 28.0543 25.2853 27.0022C25.2853 25.949 26.1404 25.0953 27.1938 25.0953ZM34.0927 25.0953C35.146 25.0953 35.9999 25.949 35.9999 27.0022C35.9999 28.0543 35.146 28.9092 34.0927 28.9092C33.0393 28.9092 32.1854 28.0543 32.1854 27.0022C32.1854 25.949 33.0393 25.0953 34.0927 25.0953ZM18.4472 61.8556H67.8113V32.0327H18.4472V61.8556ZM15.9438 32.0327V64.3597H70.3147V32.0327V21.9731H15.9438V32.0327Z" fill="white"/>
<path fill-rule="evenodd" clip-rule="evenodd" d="M20.2951 28.9091C21.3485 28.9091 22.2024 28.0542 22.2024 27.0022C22.2024 25.949 21.3485 25.0952 20.2951 25.0952C19.2418 25.0952 18.3867 25.949 18.3867 27.0022C18.3867 28.0542 19.2418 28.9091 20.2951 28.9091Z" fill="#42CF5A"/>
<path fill-rule="evenodd" clip-rule="evenodd" d="M27.1941 28.9091C28.2474 28.9091 29.1013 28.0542 29.1013 27.0022C29.1013 25.949 28.2474 25.0952 27.1941 25.0952C26.1407 25.0952 25.2856 25.949 25.2856 27.0022C25.2856 28.0542 26.1407 28.9091 27.1941 28.9091Z" fill="#42CF5A"/>
<path fill-rule="evenodd" clip-rule="evenodd" d="M34.0928 28.9091C35.1462 28.9091 36.0001 28.0542 36.0001 27.0022C36.0001 25.949 35.1462 25.0952 34.0928 25.0952C33.0395 25.0952 32.1855 25.949 32.1855 27.0022C32.1855 28.0542 33.0395 28.9091 34.0928 28.9091Z" fill="#42CF5A"/>
</g>
</svg>
