<?xml version="1.0" encoding="utf-8"?>
<!-- Generator: Adobe Illustrator 25.4.1, SVG Export Plug-In . SVG Version: 6.00 Build 0)  -->
<svg version="1.1" id="Layer_1" xmlns="http://www.w3.org/2000/svg" xmlns:xlink="http://www.w3.org/1999/xlink" x="0px" y="0px"
	 viewBox="0 0 45 36" style="enable-background:new 0 0 45 36;" xml:space="preserve">
<style type="text/css">
	.st0{clip-path:url(#SVGID_00000011715840063523967160000003298248782921582773_);}
	.st1{fill:#37384F;}
	.st2{fill:none;}
	.st3{fill:#F77643;}
</style>
<g>
	<g>
		<defs>
			<rect id="SVGID_1_" width="45" height="36"/>
		</defs>
		<clipPath id="SVGID_00000169538638898429899100000008552656579007083185_">
			<use xlink:href="#SVGID_1_"  style="overflow:visible;"/>
		</clipPath>
		<g style="clip-path:url(#SVGID_00000169538638898429899100000008552656579007083185_);">
			<path class="st1" d="M40.3,27.9v-4c0-1,0.4-1.9,1.1-2.6c0.7-0.7,1.6-1.1,2.5-1.1H45v-4.5h-1.1c-2.1,0-4.1,0.9-5.6,2.4
				S36,21.7,36,23.8v4c0,1-0.4,1.9-1,2.6s-1.6,1.1-2.5,1.1h-1.1V36h1.1c2.1,0,4.1-0.9,5.6-2.4C39.5,32.1,40.3,30,40.3,27.9z"/>
			<path class="st1" d="M4.7,12.1c0,1-0.4,1.9-1,2.6c-0.7,0.7-1.6,1.1-2.5,1.1H0v4.5h1.1c2.1,0,4.1-0.9,5.6-2.4S9,14.3,9,12.2v-4
				c0-1,0.4-1.9,1-2.6c0.7-0.7,1.6-1.1,2.5-1.1h1.1V0h-1.1c-2,0-4,0.9-5.5,2.4S4.7,6,4.6,8.1L4.7,12.1z"/>
			<path class="st1" d="M9.1,27.9v-4c0-2-0.7-4-2.1-5.4c-1.2,1.1-2.6,1.9-4.2,2.2c0.6,0.3,1,0.8,1.4,1.3c0.3,0.6,0.5,1.2,0.5,1.9v4
				c0,2.2,0.8,4.2,2.3,5.7s3.5,2.4,5.6,2.4h1.1v-4.5h-1.1c-0.9,0-1.9-0.4-2.5-1.1C9.4,29.8,9.1,28.8,9.1,27.9z"/>
			<path class="st1" d="M35.9,8.1v4c0,2,0.7,3.9,2.1,5.4c1.2-1.1,2.6-1.9,4.2-2.2c-0.6-0.3-1-0.8-1.4-1.3c-0.3-0.6-0.5-1.2-0.5-1.9
				v-4c0-2.2-0.8-4.2-2.3-5.7S34.5,0,32.4,0h-1.1v4.5h1.1c0.5,0,0.9,0.1,1.4,0.3C34.2,5,34.6,5.3,35,5.6c0.3,0.3,0.6,0.7,0.8,1.2
				C35.9,7.2,35.9,7.6,35.9,8.1z"/>
		</g>
	</g>
</g>
<g>
	<path class="st2" d="M12.3,18h20.3v20.3H12.3V18z"/>
	<path class="st3" d="M17.8,24.1l-3.8,3V11.4c0-0.5,0.4-0.8,0.8-0.8h15.2c0.5,0,0.8,0.4,0.8,0.8v11.9c0,0.5-0.4,0.8-0.8,0.8H17.8z
		 M21.7,19.9v1.7h1.7v-1.7H21.7z M19.6,15.5l1.7,0.3c0.1-0.7,0.8-1.1,1.5-1c0.7,0.1,1.1,0.8,1,1.5c-0.1,0.6-0.6,1-1.2,1h-0.8V19h0.8
		c1.6,0,3-1.3,3-3s-1.3-3-3-3C21.1,13.1,19.9,14.1,19.6,15.5z"/>
</g>
</svg>
