<svg width="46" height="37" viewBox="0 0 46 37" fill="none" xmlns="http://www.w3.org/2000/svg">
<g clip-path="url(#clip0_68_1261)">
<path d="M41.2438 28.4842V24.3993C41.2447 23.4125 41.6307 22.4664 42.3172 21.7686C43.0036 21.0708 43.9343 20.6784 44.9051 20.6775H45.9964V16.103H44.9051C42.7414 16.1057 40.6671 16.9807 39.1372 18.536C37.6072 20.0912 36.7465 22.1999 36.7439 24.3993V28.4842C36.743 29.471 36.3569 30.4171 35.6705 31.1149C34.9841 31.8127 34.0533 32.2051 33.0826 32.206H31.9879V36.7805H33.0826C35.2463 36.7778 37.3206 35.9028 38.8505 34.3476C40.3805 32.7923 41.2412 30.6836 41.2438 28.4842V28.4842Z" fill="#37384F"/>
<path d="M4.75595 12.3811C4.75506 13.368 4.36903 14.3141 3.6826 15.0119C2.99617 15.7097 2.06543 16.1021 1.09468 16.103H0V20.6775H1.09468C3.25777 20.6738 5.33119 19.7985 6.86041 18.2433C8.38963 16.6881 9.24987 14.58 9.25255 12.3811V8.29632C9.25433 7.30977 9.64064 6.36415 10.3269 5.66655C11.0131 4.96896 11.9433 4.57625 12.9138 4.57444H14.0085V0H12.9138C10.7505 0.00271988 8.67651 0.877773 7.1471 2.43315C5.61769 3.98852 4.75773 6.09715 4.75595 8.29632V12.3811Z" fill="#37384F"/>
<path d="M9.25289 28.4841V24.3993C9.25479 22.3439 8.49888 20.3623 7.13427 18.8456C5.94397 20.0031 4.45666 20.7958 2.84314 21.1328C3.42139 21.4522 3.90425 21.9242 4.24092 22.499C4.5776 23.0738 4.75563 23.7303 4.7563 24.3993V28.4841C4.75808 30.6833 5.61803 32.7919 7.14745 34.3473C8.67686 35.9027 10.7508 36.7777 12.9142 36.7804H14.0088V32.206H12.9142C11.9434 32.2051 11.0127 31.8127 10.3262 31.1149C9.63981 30.4171 9.25378 29.4709 9.25289 28.4841V28.4841Z" fill="#37384F"/>
<path d="M36.7439 8.29632V12.3811C36.742 14.4366 37.4979 16.4181 38.8625 17.9348C40.0532 16.7786 41.5405 15.9871 43.1536 15.6511C42.5755 15.3309 42.093 14.8582 41.7569 14.2828C41.4208 13.7073 41.2436 13.0504 41.2438 12.3811V8.29632C41.2412 6.09683 40.3805 3.98821 38.8505 2.43294C37.3206 0.877662 35.2463 0.00271822 33.0826 0H31.9879V4.57444H33.0826C34.0531 4.57625 34.9833 4.96896 35.6695 5.66655C36.3558 6.36415 36.7421 7.30977 36.7439 8.29632V8.29632Z" fill="#37384F"/>
<path fill-rule="evenodd" clip-rule="evenodd" d="M23 8V13.6475L23 13.7019C22.9999 14.126 22.9998 14.5381 23.0455 14.878C23.097 15.2612 23.2226 15.6985 23.5858 16.0617C23.949 16.4249 24.3863 16.5505 24.7695 16.602C25.1094 16.6477 25.5215 16.6476 25.9456 16.6475H25.9456H25.9456H25.9456L26 16.6475H31V23.295C31 26.3851 31 27.9301 30.1213 28.89C29.2426 29.85 27.8284 29.85 25 29.85H21C18.1716 29.85 16.7574 29.85 15.8787 28.89C15 27.9301 15 26.3851 15 23.295V14.555C15 11.4649 15 9.91991 15.8787 8.95996C16.7574 8 18.1716 8 21 8H23ZM25 8.00505V13.6475C25 14.1472 25.0021 14.4213 25.0277 14.6115L25.0287 14.6188L25.036 14.6198C25.2262 14.6454 25.5003 14.6475 26 14.6475H30.9971C30.9892 14.1453 30.9595 13.8262 30.8478 13.5314C30.6955 13.1299 30.4065 12.8141 29.8284 12.1826L27.1716 9.27994C26.5935 8.64841 26.3045 8.33265 25.9369 8.16632C25.684 8.05188 25.4116 8.01618 25 8.00505ZM19 20.0175C19 19.4652 19.4477 19.0175 20 19.0175L26 19.0175C26.5523 19.0175 27 19.4652 27 20.0175C27 20.5698 26.5523 21.0175 26 21.0175L20 21.0175C19.4477 21.0175 19 20.5698 19 20.0175ZM20 23.3875C19.4477 23.3875 19 23.8352 19 24.3875C19 24.9398 19.4477 25.3875 20 25.3875H24C24.5523 25.3875 25 24.9398 25 24.3875C25 23.8352 24.5523 23.3875 24 23.3875H20Z" fill="#EE4A4E"/>
</g>
<defs>
<clipPath id="clip0_68_1261">
<rect width="46" height="36.7805" fill="white"/>
</clipPath>
</defs>
</svg>
