<svg width="29" height="28" viewBox="0 0 29 28" fill="none" xmlns="http://www.w3.org/2000/svg">
<mask id="mask0_48_783" style="mask-type:alpha" maskUnits="userSpaceOnUse" x="0" y="0" width="29" height="28">
<path fill-rule="evenodd" clip-rule="evenodd" d="M0.741211 0.327148H28.4148V27.9999H0.741211V0.327148Z" fill="white"/>
</mask>
<g mask="url(#mask0_48_783)">
<path fill-rule="evenodd" clip-rule="evenodd" d="M18.2412 14.1057H15.8452V22.6505H12.2934V14.1057H10.6049V11.0888H12.2934V9.13392C12.2934 7.73478 12.9581 5.55065 15.8778 5.55065L18.5075 5.56076V8.4911H16.5976C16.2863 8.4911 15.8452 8.64675 15.8452 9.31204V11.0888H18.5525L18.2412 14.1057ZM14.5781 0.327148C6.93678 0.327148 0.741211 6.52328 0.741211 14.1641C0.741211 21.8054 6.93678 27.9999 14.5781 27.9999C22.22 27.9999 28.415 21.8054 28.415 14.1641C28.415 6.52328 22.22 0.327148 14.5781 0.327148Z" fill="#231F20"/>
</g>
</svg>
