<svg width="50" height="50" viewBox="0 0 50 50" fill="none" xmlns="http://www.w3.org/2000/svg">
<mask id="mask0_194_3786" style="mask-type:alpha" maskUnits="userSpaceOnUse" x="0" y="0" width="50" height="50">
<path fill-rule="evenodd" clip-rule="evenodd" d="M0.433594 0.25293H49.7673V49.3538H0.433594V0.25293Z" fill="white"/>
</mask>
<g mask="url(#mask0_194_3786)">
<path fill-rule="evenodd" clip-rule="evenodd" d="M33.8375 44.357C35.3406 42.3313 36.5929 39.7697 37.5124 36.8174H42.9013C40.6582 40.1009 37.5155 42.722 33.8375 44.357ZM7.29823 36.8174H13.1784C14.1441 39.9201 15.4771 42.5925 17.0841 44.6631C13.0934 43.0616 9.68829 40.314 7.29823 36.8174ZM17.0841 4.94482C15.4771 7.01542 14.1441 9.68776 13.1784 12.7895H7.29823C9.68829 9.29391 13.0934 6.54635 17.0841 4.94482ZM42.9013 12.7895H37.5124C36.5929 9.83825 35.3406 7.27665 33.8375 5.25098C37.5155 6.88593 40.6582 9.50708 42.9013 12.7895ZM39.206 26.3706H46.5388C46.3488 28.9646 45.696 31.427 44.6579 33.6835H38.3284C38.8155 31.4008 39.1188 28.9458 39.206 26.3706ZM26.6748 33.6835V26.3706H36.0451C35.9464 28.9521 35.6063 31.4165 35.071 33.6835H26.6748ZM26.6748 46.0285V36.8174H34.1714C32.4574 41.7452 29.7451 45.2324 26.6748 46.0285ZM23.525 36.8174V45.8749C20.6573 44.8501 18.1403 41.4809 16.5175 36.8174H23.525ZM14.6454 26.3706H23.5265V33.6835H15.6205C15.0842 31.4165 14.7451 28.9521 14.6454 26.3706ZM11.4859 23.2362H3.66389C3.85388 20.6433 4.50571 18.1809 5.54487 15.9233H12.3645C11.8764 18.2071 11.5741 20.6621 11.4859 23.2362ZM23.5265 15.9233V23.2362H14.6454C14.7451 20.6558 15.0842 18.1914 15.6205 15.9233H23.5265ZM23.525 3.73291V12.7894H16.5175C18.1403 8.12587 20.6573 4.75776 23.525 3.73291ZM26.6748 12.7897V3.57959C29.7451 4.37565 32.4574 7.86182 34.1714 12.7897H26.6748ZM36.0451 23.2362H26.6748V15.9233H35.071C35.6063 18.1914 35.9464 20.6558 36.0451 23.2362ZM46.5388 23.2362H39.206C39.1188 20.6621 38.8155 18.2071 38.3284 15.9233H44.6579C45.696 18.1809 46.3488 20.6433 46.5388 23.2362ZM3.66389 26.3706H11.4859C11.5741 28.9458 11.8764 31.4008 12.3645 33.6835H5.54487C4.50571 31.427 3.85388 28.9646 3.66389 26.3706ZM49.7673 24.8034C49.7673 11.4626 39.0188 0.58201 25.6893 0.2686C25.5738 0.263377 25.4605 0.25293 25.345 0.25293C25.3146 0.25293 25.2852 0.257108 25.2547 0.257108C25.2033 0.257108 25.1519 0.25293 25.1004 0.25293C11.499 0.25293 0.433594 11.2662 0.433594 24.8034C0.433594 38.3406 11.499 49.3538 25.1004 49.3538C25.1519 49.3538 25.2033 49.3507 25.2547 49.3507C25.2852 49.3507 25.3146 49.3538 25.345 49.3538C25.4605 49.3538 25.5738 49.3444 25.6893 49.3392C39.0188 49.0258 49.7673 38.1442 49.7673 24.8034Z" fill="#4D4D4D"/>
</g>
</svg>
