<svg width="59" height="149" viewBox="0 0 59 149" fill="none" xmlns="http://www.w3.org/2000/svg">
<path fill-rule="evenodd" clip-rule="evenodd" d="M19.6046 98.2499V114.523C19.6046 122.372 13.1106 128.75 5.12237 128.75H0V148.179H5.12237C24.0171 148.179 39.3919 133.083 39.3919 114.523L39.3919 98.2499C39.3919 90.4014 45.8859 84.0238 53.8741 84.0238H59V64.5947H53.8741C53.8665 64.5947 53.8581 64.5954 53.8504 64.5954C45.8733 64.5823 39.3891 58.2075 39.3891 50.3707V34.0937C39.3891 15.5335 24.0178 0.437744 5.12307 0.437744H0.000694275L0.000694275 19.8669H5.12307C13.1113 19.8669 19.6053 26.2445 19.6053 34.0937V50.3707C19.6053 59.7292 23.5234 68.2001 29.8201 74.3051C23.5186 80.4115 19.6046 88.8887 19.6046 98.2499Z" fill="#2970F1"/>
</svg>
