<svg width="86" height="86" viewBox="0 0 86 86" fill="none" xmlns="http://www.w3.org/2000/svg">
<mask id="mask0_136_1801" style="mask-type:alpha" maskUnits="userSpaceOnUse" x="0" y="0" width="86" height="86">
<path fill-rule="evenodd" clip-rule="evenodd" d="M0.430664 0.186523H85.901V85.6415H0.430664V0.186523Z" fill="white"/>
</mask>
<g mask="url(#mask0_136_1801)">
<path fill-rule="evenodd" clip-rule="evenodd" d="M43.1667 73.4126C43.1667 73.4126 20.886 50.5725 20.886 38.2689C20.886 25.9654 30.8621 15.9909 43.1667 15.9909C55.4724 15.9909 65.4485 25.9654 65.4485 38.2689C65.4485 50.5725 43.1667 73.4126 43.1667 73.4126ZM43.1665 0.186035C19.5653 0.186035 0.430664 19.3172 0.430664 42.9143C0.430664 66.5114 19.5653 85.6414 43.1665 85.6414C66.7689 85.6414 85.9012 66.5114 85.9012 42.9143C85.9012 19.3172 66.7689 0.186035 43.1665 0.186035Z" fill="#FDBD2C"/>
</g>
<path fill-rule="evenodd" clip-rule="evenodd" d="M53.2752 38.8769C52.8144 39.7587 52.1238 40.4795 51.2034 41.0416C50.283 41.6026 49.1281 41.8849 47.7411 41.8849H44.0899V47.7107H40.9076V30.3966H47.7411C49.1281 30.3966 50.283 30.673 51.2034 31.227C52.1238 31.7798 52.8144 32.4983 53.2752 33.3789C53.7348 34.2606 53.9658 35.1762 53.9658 36.1291C53.9658 37.0796 53.7348 37.9952 53.2752 38.8769ZM34.823 47.7107H38.0053V30.3966H34.823V47.7107ZM43.166 15.9912C30.8614 15.9912 20.8853 25.9656 20.8853 38.2692C20.8853 50.5727 43.166 73.4128 43.166 73.4128C43.166 73.4128 65.4479 50.5727 65.4479 38.2692C65.4479 25.9656 55.4718 15.9912 43.166 15.9912Z" fill="white"/>
<path fill-rule="evenodd" clip-rule="evenodd" d="M49.4256 33.6016C48.9729 33.3053 48.4037 33.1572 47.7166 33.1572H44.0898V39.123H47.7166C48.4037 39.123 48.9729 38.9795 49.4256 38.6903C49.8782 38.4022 50.2176 38.0278 50.4428 37.5671C50.6691 37.1076 50.7822 36.6352 50.7822 36.1512C50.7822 35.6532 50.6691 35.1761 50.4428 34.7248C50.2176 34.2722 49.8782 33.899 49.4256 33.6016Z" fill="white"/>
<mask id="mask1_136_1801" style="mask-type:alpha" maskUnits="userSpaceOnUse" x="0" y="0" width="86" height="86">
<path fill-rule="evenodd" clip-rule="evenodd" d="M0.430664 85.6419H85.9012V0.186523H0.430664V85.6419Z" fill="white"/>
</mask>
<g mask="url(#mask1_136_1801)">
<path fill-rule="evenodd" clip-rule="evenodd" d="M34.8232 47.7106H38.0056V30.3965H34.8232V47.7106Z" fill="#FDBD2C"/>
<path fill-rule="evenodd" clip-rule="evenodd" d="M50.4429 37.5671C50.2177 38.0278 49.8783 38.4022 49.4257 38.6903C48.9731 38.9796 48.4038 39.123 47.7167 39.123H44.09V33.1573H47.7167C48.4038 33.1573 48.9731 33.3054 49.4257 33.6017C49.8783 33.8991 50.2177 34.2723 50.4429 34.7248C50.6692 35.1762 50.7823 35.6532 50.7823 36.1512C50.7823 36.6353 50.6692 37.1076 50.4429 37.5671ZM51.2035 31.2269C50.2831 30.6729 49.1283 30.3965 47.7413 30.3965H40.9077V47.7105H44.09V41.8848H47.7413C49.1283 41.8848 50.2831 41.6025 51.2035 41.0415C52.1239 40.4793 52.8145 39.7586 53.2753 38.8768C53.7349 37.9951 53.9659 37.0795 53.9659 36.129C53.9659 35.1761 53.7349 34.2605 53.2753 33.3788C52.8145 32.4982 52.1239 31.7797 51.2035 31.2269Z" fill="#FDBD2C"/>
</g>
</svg>
