<svg width="107" height="24" viewBox="0 0 107 24" fill="none" xmlns="http://www.w3.org/2000/svg">
<mask id="mask0_0_44" style="mask-type:alpha" maskUnits="userSpaceOnUse" x="0" y="0" width="107" height="24">
<path fill-rule="evenodd" clip-rule="evenodd" d="M0 0H107V24H0V0Z" fill="white"/>
</mask>
<g mask="url(#mask0_0_44)">
<path fill-rule="evenodd" clip-rule="evenodd" d="M0 8.9971L9.94982 8.99928L16 9V3L0 8.9971Z" fill="#E9A24E"/>
<path fill-rule="evenodd" clip-rule="evenodd" d="M16 2.83135V24L23 0L16 2.83135Z" fill="#4FBADC"/>
<path fill-rule="evenodd" clip-rule="evenodd" d="M16 9.00072L10 9L16 24V9.00072Z" fill="#006489"/>
<path fill-rule="evenodd" clip-rule="evenodd" d="M0 9L11 13L9.51616 9.00223L0 9Z" fill="#CF635D"/>
<path fill-rule="evenodd" clip-rule="evenodd" d="M103.704 14.5433H103.398C103.296 14.5433 103.194 14.5506 103.093 14.5649C102.729 14.5935 102.368 14.6358 102.012 14.6923C101.655 14.7489 101.339 14.848 101.063 14.9901C100.786 15.1318 100.561 15.3161 100.386 15.5426C100.211 15.7695 100.124 16.0599 100.124 16.4145C100.124 16.811 100.24 17.1475 100.473 17.424C100.706 17.7004 101.099 17.8386 101.652 17.8386C101.928 17.8386 102.19 17.8034 102.438 17.7322C102.685 17.6617 102.903 17.5692 103.093 17.4561C103.281 17.3426 103.431 17.2187 103.54 17.084C103.649 16.9496 103.704 16.8253 103.704 16.7119V14.5433ZM106.498 17.0096C106.498 18.129 106.665 18.9444 107 19.4544C106.738 19.5531 106.494 19.6244 106.269 19.6669C106.043 19.7092 105.807 19.7305 105.559 19.7305C105.035 19.7305 104.639 19.6313 104.369 19.4331C104.1 19.2348 103.929 18.951 103.857 18.5824C103.537 18.9088 103.114 19.1849 102.59 19.4121C102.067 19.6383 101.426 19.7521 100.67 19.7521C100.277 19.7521 99.8843 19.699 99.4908 19.5933C99.098 19.4868 98.741 19.314 98.4213 19.0743C98.1009 18.8338 97.8393 18.5123 97.6354 18.1098C97.4318 17.707 97.33 17.2163 97.33 16.6369C97.33 15.9164 97.5082 15.3297 97.8648 14.878C98.221 14.4257 98.6686 14.0693 99.2073 13.8075C99.7456 13.5464 100.328 13.3666 100.954 13.2675C101.579 13.1687 102.154 13.1052 102.678 13.0766C102.853 13.0623 103.023 13.0556 103.191 13.0556H103.66V12.6682C103.66 12.1237 103.511 11.7366 103.213 11.5073C102.914 11.278 102.43 11.1631 101.761 11.1631C101.135 11.1631 100.579 11.2626 100.091 11.4609C99.6033 11.6595 99.127 11.886 98.6618 12.1411C98.4575 11.9003 98.2937 11.6347 98.1701 11.3439C98.0468 11.0535 97.9848 10.8375 97.9848 10.6954C97.9848 10.4971 98.0974 10.3059 98.3231 10.1216C98.5486 9.93761 98.8578 9.77077 99.251 9.62173C99.6438 9.47303 100.095 9.35296 100.604 9.26046C101.113 9.16831 101.652 9.12224 102.219 9.12224C103.005 9.12224 103.671 9.20043 104.217 9.3561C104.763 9.51247 105.206 9.75297 105.548 10.079C105.89 10.4053 106.134 10.8123 106.28 11.3013C106.425 11.7904 106.498 12.361 106.498 13.0127V17.0096ZM92.3309 10.4092C92.4184 10.2825 92.5349 10.1418 92.6804 9.98718C92.8255 9.83255 93.004 9.69188 93.2151 9.56553C93.4258 9.43882 93.6591 9.33306 93.9139 9.24859C94.168 9.16447 94.4407 9.12224 94.7325 9.12224C94.9066 9.12224 95.0923 9.13655 95.2887 9.16447C95.4851 9.19275 95.6671 9.24545 95.8345 9.32259C96.0019 9.39973 96.1363 9.50514 96.2384 9.63883C96.3402 9.77216 96.3914 9.93761 96.3914 10.1341C96.3914 10.4434 96.3108 10.7984 96.1513 11.1994C95.9904 11.6008 95.8306 11.9429 95.6707 12.2263C95.4231 12.0277 95.1758 11.8755 94.9289 11.7691C94.6812 11.6629 94.3902 11.6095 94.0555 11.6095C93.6043 11.6095 93.2262 11.7376 92.9205 11.9935C92.6148 12.249 92.4621 12.5548 92.4621 12.9104V19.7922H89.4936V9.41998C89.5663 9.40601 89.6534 9.3917 89.7556 9.37739C89.8427 9.36343 89.9444 9.35261 90.0613 9.34528C90.1774 9.3383 90.3154 9.33481 90.4756 9.33481C90.9415 9.33481 91.3454 9.42277 91.6873 9.59834C92.0288 9.77356 92.2435 10.0441 92.3309 10.4092ZM83.891 10.4092C83.978 10.2825 84.0945 10.1418 84.24 9.98718C84.3855 9.83255 84.564 9.69188 84.7751 9.56553C84.9855 9.43882 85.2188 9.33306 85.4736 9.24859C85.728 9.16447 86.0008 9.12224 86.2921 9.12224C86.4667 9.12224 86.6523 9.13655 86.8487 9.16447C87.0447 9.19275 87.2268 9.24545 87.3942 9.32259C87.5615 9.39973 87.6963 9.50514 87.7981 9.63883C87.8999 9.77216 87.9511 9.93761 87.9511 10.1341C87.9511 10.4434 87.8708 10.7984 87.711 11.1994C87.5508 11.6008 87.3906 11.9429 87.2308 12.2263C86.9831 12.0277 86.7355 11.8755 86.4885 11.7691C86.2409 11.6629 85.9499 11.6095 85.6151 11.6095C85.1639 11.6095 84.7858 11.7376 84.4801 11.9935C84.1748 12.249 84.0218 12.5548 84.0218 12.9104V19.7922H81.0533V9.41998C81.126 9.40601 81.2131 9.3917 81.3149 9.37739C81.4023 9.36343 81.5045 9.35261 81.6209 9.34528C81.7371 9.3383 81.8754 9.33481 82.0356 9.33481C82.5011 9.33481 82.905 9.42277 83.2469 9.59834C83.5888 9.77356 83.8039 10.0441 83.891 10.4092ZM76.0398 13.3527C76.0398 12.6724 75.9043 12.1199 75.6338 11.6947C75.3628 11.2692 74.8758 11.0567 74.1737 11.0567C73.5738 11.0567 73.0942 11.2588 72.7359 11.6626C72.3771 12.0668 72.1983 12.6298 72.1983 13.3527H76.0398ZM75.0453 17.6683C75.4101 17.6683 75.7312 17.6299 76.0093 17.5514C76.2864 17.4739 76.5344 17.3782 76.7537 17.2644C76.9727 17.1514 77.1626 17.0274 77.3235 16.8927C77.4841 16.758 77.63 16.6341 77.7615 16.5206C77.9364 16.7329 78.1188 17.0062 78.3091 17.3388C78.4987 17.6721 78.5937 17.9447 78.5937 18.1577C78.5937 18.469 78.412 18.7528 78.0482 19.0076C77.7425 19.2348 77.3092 19.4296 76.7494 19.5926C76.1889 19.7556 75.5305 19.8366 74.774 19.8366C74.0895 19.8366 73.4168 19.7521 72.7545 19.5818C72.0925 19.4121 71.503 19.114 70.9869 18.6886C70.4698 18.2638 70.0515 17.6934 69.7315 16.9775C69.4111 16.262 69.2513 15.3583 69.2513 14.2668C69.2513 13.374 69.3936 12.6054 69.677 11.9603C69.9609 11.3156 70.339 10.7806 70.8124 10.3554C71.2847 9.93028 71.8195 9.61858 72.4162 9.41998C73.0129 9.22172 73.6243 9.12224 74.25 9.12224C75.065 9.12224 75.756 9.2465 76.3233 9.49432C76.891 9.7425 77.3533 10.0755 77.7099 10.4936C78.0661 10.9118 78.3242 11.39 78.4847 11.9286C78.6446 12.4675 78.7248 13.034 78.7248 13.6291V13.9269C78.7248 14.0407 78.7209 14.1607 78.7137 14.2881C78.7066 14.4159 78.699 14.5405 78.6922 14.6602C78.6843 14.781 78.6736 14.8763 78.6596 14.9475H72.2198C72.2782 15.7269 72.5266 16.3751 72.9645 16.8927C73.4021 17.4103 74.0959 17.6683 75.0453 17.6683ZM61.742 17.9447C61.6399 17.6617 61.5747 17.3639 61.5456 17.0519C61.5162 16.7402 61.5019 16.4288 61.5019 16.1164V6.25203C61.6033 6.23807 61.7126 6.22376 61.8291 6.20945C61.9305 6.19583 62.0402 6.18536 62.1567 6.17768C62.2728 6.1707 62.3896 6.16721 62.5057 6.16721C62.7383 6.16721 62.9716 6.1885 63.2046 6.23074C63.4368 6.27332 63.6479 6.35849 63.8379 6.48589C64.0264 6.61364 64.1794 6.78747 64.2959 7.00702C64.4124 7.22657 64.4704 7.51383 64.4704 7.86777V9.37739H67.5267V11.5244H64.4704V16.0578C64.4704 17.0466 64.8851 17.5409 65.7147 17.5409C65.9183 17.5409 66.1107 17.5091 66.2932 17.4453C66.4749 17.3814 66.6386 17.3109 66.7841 17.2323C66.93 17.1548 67.0572 17.0732 67.1665 16.9884C67.2755 16.9032 67.3518 16.8393 67.3952 16.7967C67.6138 17.1091 67.7812 17.3789 67.8977 17.6069C68.0138 17.8351 68.0722 18.0491 68.0722 18.2495C68.0722 18.4355 67.9958 18.6177 67.8428 18.7968C67.6901 18.9755 67.4751 19.1399 67.1992 19.2903C66.9225 19.4408 66.5878 19.5619 66.195 19.6551C65.8022 19.7479 65.3725 19.7943 64.9069 19.7943C64.0045 19.7943 63.3024 19.6247 62.8003 19.2844C62.2986 18.9444 61.9452 18.4976 61.742 17.9447ZM56.3512 14.2881C56.3512 13.863 56.3146 13.4665 56.2426 13.0979C56.1702 12.7293 56.0509 12.4103 55.8846 12.1411C55.7179 11.8717 55.4936 11.6626 55.2115 11.5139C54.9291 11.3649 54.5858 11.2905 54.1808 11.2905C53.573 11.2905 53.1497 11.4043 52.9107 11.6308C52.6724 11.8577 52.5527 12.1059 52.5527 12.375V16.8822C52.6688 16.9957 52.8745 17.1297 53.1712 17.2857C53.468 17.4418 53.8113 17.5196 54.2023 17.5196C54.9402 17.5196 55.4828 17.2365 55.8301 16.6693C56.1777 16.1025 56.3512 15.3087 56.3512 14.2881ZM52.4219 10.3551C52.6541 10.0863 53.0168 9.81335 53.5099 9.53691C54.003 9.26046 54.6266 9.12224 55.3814 9.12224C55.9183 9.12224 56.4297 9.2109 56.9156 9.38786C57.4013 9.56518 57.8331 9.85245 58.2101 10.249C58.5875 10.6458 58.8886 11.1704 59.1136 11.8221C59.3383 12.4741 59.4505 13.2752 59.4505 14.2243C59.4505 15.3297 59.3201 16.2407 59.0592 16.9562C58.7975 17.6721 58.4606 18.2393 58.0474 18.6571C57.6339 19.0753 57.173 19.3692 56.6655 19.5395C56.1577 19.7092 55.6498 19.7943 55.1424 19.7943C54.7216 19.7943 54.3553 19.7483 54.0435 19.6565C53.7314 19.564 53.4665 19.4617 53.2494 19.3479C53.0315 19.2348 52.8648 19.1217 52.7487 19.0076C52.6329 18.8945 52.5602 18.8163 52.5315 18.7737V24H49.5627V9.41998C49.6358 9.40601 49.7236 9.3917 49.8264 9.37739C49.9146 9.36343 50.0171 9.35261 50.1346 9.34528C50.2518 9.3383 50.3912 9.33481 50.5522 9.33481C51.036 9.33481 51.4463 9.413 51.7839 9.56867C52.1208 9.72469 52.3341 9.98683 52.4219 10.3551ZM44.193 14.5433H43.8876C43.7851 14.5433 43.6833 14.5506 43.5819 14.5649C43.2178 14.5935 42.8576 14.6358 42.501 14.6923C42.1444 14.7489 41.828 14.848 41.5517 14.9901C41.2754 15.1318 41.0499 15.3161 40.875 15.5426C40.7005 15.7695 40.6131 16.0599 40.6131 16.4145C40.6131 16.811 40.7295 17.1475 40.9625 17.424C41.1951 17.7004 41.5879 17.8386 42.1412 17.8386C42.4172 17.8386 42.6795 17.8034 42.9272 17.7322C43.1741 17.6617 43.3927 17.5692 43.5819 17.4561C43.7704 17.3426 43.9199 17.2187 44.0292 17.084C44.1385 16.9496 44.193 16.8253 44.193 16.7119V14.5433ZM46.9869 17.0096C46.9869 18.129 47.1543 18.9444 47.489 19.4544C47.2271 19.5531 46.9834 19.6244 46.7576 19.6669C46.5322 19.7092 46.2956 19.7305 46.0483 19.7305C45.5247 19.7305 45.128 19.6313 44.8588 19.4331C44.5897 19.2348 44.4184 18.951 44.346 18.5824C44.0252 18.9088 43.6038 19.1849 43.0798 19.4121C42.5559 19.6383 41.9154 19.7521 41.1589 19.7521C40.7661 19.7521 40.3729 19.699 39.9801 19.5933C39.5874 19.4868 39.2304 19.314 38.9104 19.0743C38.59 18.8338 38.3284 18.5123 38.1248 18.1098C37.9205 17.707 37.8191 17.2163 37.8191 16.6369C37.8191 15.9164 37.9972 15.3297 38.3538 14.878C38.7104 14.4257 39.1577 14.0693 39.6963 13.8075C40.2346 13.5464 40.8166 13.3666 41.4427 13.2675C42.0681 13.1687 42.6433 13.1052 43.1673 13.0766C43.3418 13.0623 43.5128 13.0556 43.6801 13.0556H44.1492V12.6682C44.1492 12.1237 43.9998 11.7366 43.702 11.5073C43.4034 11.278 42.9193 11.1631 42.2502 11.1631C41.6244 11.1631 41.0675 11.2626 40.5804 11.4609C40.0927 11.6595 39.6164 11.886 39.1508 12.1411C38.9466 11.9003 38.7828 11.6347 38.6595 11.3439C38.5359 11.0535 38.4739 10.8375 38.4739 10.6954C38.4739 10.4971 38.5867 10.3059 38.8122 10.1216C39.0376 9.93761 39.3472 9.77077 39.74 9.62173C40.1332 9.47303 40.584 9.35296 41.0937 9.26046C41.6029 9.16831 42.1412 9.12224 42.7089 9.12224C43.4945 9.12224 44.1604 9.20043 44.7062 9.3561C45.2516 9.51247 45.6957 9.75297 46.0376 10.079C46.3795 10.4053 46.6232 10.8123 46.769 11.3013C46.9142 11.7904 46.9869 12.361 46.9869 13.0127V17.0096ZM35.8053 18.6299C35.7186 18.7147 35.5738 18.8201 35.3713 18.9472C35.1685 19.0739 34.9047 19.2006 34.5793 19.3273C34.2542 19.4544 33.8557 19.5633 33.3862 19.6554C32.9157 19.7465 32.377 19.7922 31.7695 19.7922C30.598 19.7922 29.5852 19.609 28.7319 19.2428C27.8782 18.8767 27.1732 18.3657 26.6163 17.7112C26.0594 17.0561 25.6508 16.2812 25.3903 15.3862C25.1301 14.492 25 13.5091 25 12.4385C25 11.368 25.1408 10.3781 25.4229 9.46954C25.7049 8.56062 26.1282 7.77562 26.6923 7.11313C27.2564 6.45099 27.9617 5.93335 28.8078 5.55987C29.6544 5.18674 30.6485 5 31.7914 5C32.3555 5 32.8655 5.04922 33.321 5.14765C33.7769 5.24643 34.1743 5.36266 34.5144 5.49634C34.8542 5.63073 35.1362 5.77104 35.3609 5.91904C35.5849 6.06704 35.7544 6.1906 35.8705 6.28868C36.0006 6.40177 36.1125 6.53546 36.2071 6.69043C36.301 6.84576 36.3479 7.0147 36.3479 7.1976C36.3479 7.47963 36.2393 7.76131 36.0225 8.04299C35.8057 8.32467 35.567 8.58541 35.3061 8.82485C35.1326 8.65591 34.9377 8.48348 34.7205 8.30722C34.5037 8.13095 34.261 7.97632 33.9937 7.84229C33.726 7.7086 33.4221 7.59586 33.0823 7.50406C32.7422 7.41261 32.3627 7.36654 31.943 7.36654C31.2054 7.36654 30.5872 7.51139 30.0884 7.7997C29.5891 8.08871 29.1877 8.46568 28.8838 8.93061C28.5803 9.39554 28.3631 9.92714 28.233 10.5261C28.1029 11.1247 28.0377 11.7342 28.0377 12.3537C28.0377 13.0162 28.1029 13.6501 28.233 14.2557C28.3631 14.8613 28.5871 15.3974 28.9057 15.8616C29.2236 16.3266 29.6397 16.7 30.1532 16.9817C30.6664 17.2638 31.3065 17.4044 32.0735 17.4044C32.4784 17.4044 32.8508 17.3552 33.1909 17.2564C33.5303 17.1583 33.831 17.0383 34.0915 16.8969C34.3517 16.7566 34.5796 16.6086 34.7746 16.4536C34.9699 16.2986 35.1326 16.165 35.2631 16.0519C35.3495 16.1506 35.4509 16.2707 35.5666 16.4114C35.6831 16.5534 35.7921 16.7014 35.892 16.855C35.9931 17.0103 36.0798 17.165 36.1526 17.3196C36.225 17.4753 36.2608 17.6156 36.2608 17.7423C36.2608 17.9259 36.225 18.0805 36.1526 18.2072C36.0798 18.3343 35.9641 18.4753 35.8053 18.6299Z" fill="white"/>
</g>
</svg>
