<?xml version="1.0" encoding="utf-8"?>
<!-- Generator: Adobe Illustrator 25.4.1, SVG Export Plug-In . SVG Version: 6.00 Build 0)  -->
<svg version="1.1" id="Layer_1" xmlns="http://www.w3.org/2000/svg" xmlns:xlink="http://www.w3.org/1999/xlink" x="0px" y="0px"
	 viewBox="0 0 45 36" style="enable-background:new 0 0 45 36;" xml:space="preserve">
<style type="text/css">
	.st0{clip-path:url(#SVGID_00000183206504255401638850000009297227840262773168_);}
	.st1{fill:#37384F;}
	.st2{fill-rule:evenodd;clip-rule:evenodd;fill:#13C1C2;}
</style>
<g>
	<g>
		<defs>
			<rect id="SVGID_1_" width="45" height="36"/>
		</defs>
		<clipPath id="SVGID_00000127725259387754989900000006319090618517545650_">
			<use xlink:href="#SVGID_1_"  style="overflow:visible;"/>
		</clipPath>
		<g style="clip-path:url(#SVGID_00000127725259387754989900000006319090618517545650_);">
			<path class="st1" d="M40.3,27.9v-4c0-1,0.4-1.9,1.1-2.6c0.7-0.7,1.6-1.1,2.5-1.1H45v-4.5h-1.1c-2.1,0-4.1,0.9-5.6,2.4
				S36,21.7,36,23.8v4c0,1-0.4,1.9-1,2.6s-1.6,1.1-2.5,1.1h-1.1V36h1.1c2.1,0,4.1-0.9,5.6-2.4C39.5,32.1,40.3,30,40.3,27.9z"/>
			<path class="st1" d="M4.7,12.1c0,1-0.4,1.9-1,2.6c-0.7,0.7-1.6,1.1-2.5,1.1H0v4.5h1.1c2.1,0,4.1-0.9,5.6-2.4S9,14.3,9,12.2v-4
				c0-1,0.4-1.9,1-2.6c0.7-0.7,1.6-1.1,2.5-1.1h1.1V0h-1.1c-2,0-4,0.9-5.5,2.4S4.7,6,4.6,8.1L4.7,12.1z"/>
			<path class="st1" d="M9.1,27.9v-4c0-2-0.7-4-2.1-5.4c-1.2,1.1-2.6,1.9-4.2,2.2c0.6,0.3,1,0.8,1.4,1.3c0.3,0.6,0.5,1.2,0.5,1.9v4
				c0,2.2,0.8,4.2,2.3,5.7s3.5,2.4,5.6,2.4h1.1v-4.5h-1.1c-0.9,0-1.9-0.4-2.5-1.1C9.4,29.8,9.1,28.8,9.1,27.9z"/>
			<path class="st1" d="M35.9,8.1v4c0,2,0.7,3.9,2.1,5.4c1.2-1.1,2.6-1.9,4.2-2.2c-0.6-0.3-1-0.8-1.4-1.3c-0.3-0.6-0.5-1.2-0.5-1.9
				v-4c0-2.2-0.8-4.2-2.3-5.7S34.5,0,32.4,0h-1.1v4.5h1.1c0.5,0,0.9,0.1,1.4,0.3C34.2,5,34.6,5.3,35,5.6c0.3,0.3,0.6,0.7,0.8,1.2
				C35.9,7.2,35.9,7.6,35.9,8.1z"/>
		</g>
	</g>
</g>
<path class="st2" d="M19.5,9.8c-3.9,0-7.1,3.2-7.1,7.1c0,8.8,11.7,10.5,11.7,10.5V24h0.7c3.9,0,7.1-3.2,7.1-7.1s-3.2-7.1-7.1-7.1
	H19.5z M22.2,18.4c0.7,0,1.2-0.5,1.2-1.2c0-0.7-0.5-1.2-1.2-1.2c-0.7,0-1.2,0.5-1.2,1.2C21,17.8,21.5,18.4,22.2,18.4z M27.3,17.1
	c0,0.7-0.5,1.2-1.2,1.2c-0.7,0-1.2-0.5-1.2-1.2c0-0.7,0.5-1.2,1.2-1.2C26.8,15.9,27.3,16.5,27.3,17.1z M18.3,18.4
	c0.7,0,1.2-0.5,1.2-1.2c0-0.7-0.5-1.2-1.2-1.2c-0.7,0-1.2,0.5-1.2,1.2C17.1,17.8,17.6,18.4,18.3,18.4z"/>
</svg>
