<svg width="86" height="86" viewBox="0 0 86 86" fill="none" xmlns="http://www.w3.org/2000/svg">
<path fill-rule="evenodd" clip-rule="evenodd" d="M35.6889 45.7855C35.9409 45.971 36.061 45.7074 36.1917 45.5849C36.9324 44.8956 37.4072 44.0185 37.8727 43.1333C37.2311 43.4482 36.6501 43.8308 36.1322 44.2996C35.886 44.5224 35.6457 44.7603 35.5034 45.0683C35.3728 45.3493 35.4416 45.6048 35.6889 45.7855Z" fill="#13C1C2"/>
<mask id="mask0_738_541" style="mask-type:alpha" maskUnits="userSpaceOnUse" x="0" y="0" width="86" height="86">
<path fill-rule="evenodd" clip-rule="evenodd" d="M0.201172 0.0913086H85.6714V85.5463H0.201172V0.0913086Z" fill="white"/>
</mask>
<g mask="url(#mask0_738_541)">
<path fill-rule="evenodd" clip-rule="evenodd" d="M59.7069 67.3135C55.5763 67.3193 51.4444 67.3158 47.3137 67.3158C40.3274 67.3158 33.341 67.3147 26.3547 67.3182C25.9184 67.3193 25.4996 67.2785 25.0995 67.0861C24.3483 66.7257 23.9131 66.1903 23.9143 65.3016C23.9236 50.5663 23.9201 35.8309 23.9248 21.0956C23.9248 20.7469 23.9493 20.3912 24.017 20.0494C24.1954 19.156 24.7752 18.6125 25.6151 18.3186H50.8833C51.3488 18.5075 51.7104 18.8318 52.0615 19.1828C55.1015 22.2328 58.1426 25.2827 61.2001 28.314C61.6994 28.8097 61.963 29.3578 61.9537 30.0506C61.9513 30.2419 61.9583 30.4332 61.9583 30.6245C61.9583 42.1069 61.9583 53.5882 61.9583 65.0706C61.9583 66.4877 61.1429 67.3112 59.7069 67.3135ZM42.9358 0.0913086C19.3346 0.0913086 0.201172 19.2225 0.201172 42.8196C0.201172 66.4166 19.3346 85.5467 42.9358 85.5467C66.5383 85.5467 85.6717 66.4166 85.6717 42.8196C85.6717 19.2225 66.5383 0.0913086 42.9358 0.0913086Z" fill="#2970F1"/>
</g>
<path fill-rule="evenodd" clip-rule="evenodd" d="M34.9759 43.4422C35.9721 42.4509 37.1783 41.7651 38.4394 41.1807C38.8873 40.972 39.1509 40.6827 39.3469 40.2279C40.4773 37.6071 41.4117 34.9211 42.1664 32.1697C42.2434 31.8922 42.2224 31.6577 42.1092 31.3953C41.5726 30.1497 41.078 28.8912 41.015 27.5114C40.994 27.0449 41.043 26.5889 41.2157 26.1515C41.5283 25.3666 42.1862 24.9525 43.0215 25.0144C43.5044 25.0505 44.2638 25.9008 44.3746 26.5504C44.4248 26.8478 44.4388 27.1511 44.4551 27.319C44.3863 28.7477 44.1367 30.0132 43.8427 31.2693C43.789 31.4991 43.7995 31.6962 43.9104 31.9108C44.9847 33.9822 46.2306 35.9381 47.7832 37.6911C47.9792 37.9139 48.1437 38.0212 48.4657 37.9629C49.4059 37.7914 50.3566 37.6934 51.319 37.7401C51.6724 37.7564 52.0131 37.8182 52.3514 37.915C53.3604 38.2066 53.7489 39.058 53.3021 40.0028C52.7036 41.2682 51.5325 41.7651 50.2038 41.3102C49.3277 41.0093 48.6021 40.4646 47.9337 39.843C47.7016 39.6284 47.4916 39.5736 47.1696 39.6482C44.8867 40.1835 42.6645 40.9008 40.4936 41.7872C40.2206 41.898 40.062 42.0683 39.9337 42.3249C39.2933 43.6067 38.6692 44.9001 37.7383 46.0093C37.5143 46.2764 37.2775 46.5423 37.0104 46.7639C36.5029 47.185 35.9337 47.5057 35.2606 47.1896C34.535 46.8502 34.0777 46.2717 34.0252 45.4495C33.9716 44.6144 34.4218 43.9939 34.9759 43.4422ZM26.1594 51.2659C31.7436 51.2519 37.3266 51.2566 42.9096 51.2566C48.5089 51.2566 54.1083 51.2507 59.7076 51.2682C60.1812 51.2706 60.2745 51.1376 60.2734 50.6874C60.2582 44.0044 60.2629 37.3214 60.2629 30.6383C60.2629 30.5427 60.2582 30.4471 60.2629 30.3514C60.271 30.1776 60.2267 30.1193 60.0202 30.1205C56.8624 30.1403 53.7035 30.138 50.5457 30.1613C50.1596 30.1648 50.1117 30.019 50.1129 29.6878C50.1246 26.6414 50.1071 23.5949 50.1327 20.5497C50.1374 20.096 50.0161 20.0073 49.5915 20.0073C41.8702 20.019 34.1501 20.0155 26.4289 20.0167C25.7628 20.0167 25.6613 20.1111 25.6216 20.7701C25.6135 20.8972 25.617 21.0255 25.617 21.1527C25.617 31.0092 25.6205 40.867 25.6065 50.7235C25.6053 51.1714 25.7348 51.2671 26.1594 51.2659Z" fill="#13C1C2"/>
<path fill-rule="evenodd" clip-rule="evenodd" d="M51.9259 39.5597C52.0227 39.4 52.0647 39.2483 51.8267 39.2168C51.1093 39.12 50.393 39.1317 49.5566 39.2495C49.8984 39.5108 50.1306 39.7254 50.3965 39.884C50.8982 40.1814 51.6564 40.0041 51.9259 39.5597Z" fill="#13C1C2"/>
<path fill-rule="evenodd" clip-rule="evenodd" d="M42.9108 26.7975C42.8035 26.5736 42.6997 26.5083 42.5329 26.7765C42.0674 27.523 42.1538 28.4828 42.807 29.1838C43.1465 28.3744 43.2923 27.5965 42.9108 26.7975Z" fill="#13C1C2"/>
<path fill-rule="evenodd" clip-rule="evenodd" d="M52.2273 28.465C54.3469 28.4545 56.4677 28.4603 58.5873 28.4568C58.6701 28.4568 58.7833 28.5082 58.8089 28.4323C56.4828 26.1067 54.1766 23.7997 51.8424 21.4658C51.833 21.5451 51.8214 21.6069 51.8214 21.6699C51.8202 23.8055 51.8272 25.9411 51.812 28.0766C51.8109 28.4055 51.9322 28.4662 52.2273 28.465Z" fill="#13C1C2"/>
<path fill-rule="evenodd" clip-rule="evenodd" d="M43.7936 56.9195C43.0564 56.4961 42.2457 56.4973 41.4314 56.4751C41.0849 56.4658 41.0103 56.5836 41.0138 56.909C41.029 58.5803 41.0208 60.2517 41.0208 61.9231C41.0208 62.9168 41.0208 62.9168 42.0053 62.8981C42.2445 62.8981 42.4848 62.9144 42.7216 62.8958C43.7668 62.8083 44.4609 62.2765 44.7782 61.2629C45.064 60.3485 45.134 59.4213 44.9415 58.4835C44.8015 57.7931 44.4084 57.2717 43.7936 56.9195Z" fill="#13C1C2"/>
<path fill-rule="evenodd" clip-rule="evenodd" d="M34.8928 56.4844C34.7178 56.482 34.5405 56.4984 34.3679 56.4809C34.0634 56.4482 33.9362 56.5508 33.9549 56.8751C33.9806 57.3043 33.9607 57.7347 33.9607 58.1651V58.6899C33.9607 59.9356 33.9607 59.9367 35.2171 59.8469C35.7164 59.8108 36.1515 59.6545 36.4151 59.1868C37.1722 57.8467 36.4198 56.5089 34.8928 56.4844Z" fill="#13C1C2"/>
<path fill-rule="evenodd" clip-rule="evenodd" d="M44.7776 61.2628C44.4615 62.2763 43.7662 62.8093 42.721 62.8956C42.4842 62.9155 42.2439 62.898 42.0048 62.898C41.0202 62.9166 41.0202 62.9166 41.0202 61.9241C41.0202 60.2516 41.0284 58.5803 41.0132 56.9089C41.0097 56.5835 41.0844 56.4657 41.4308 56.4751C42.2451 56.4984 43.0558 56.4972 43.793 56.9194C44.409 57.2728 44.8009 57.793 44.9421 58.4835C45.1334 59.4212 45.0634 60.3484 44.7776 61.2628ZM42.4062 55.4498C41.6269 55.4171 40.8442 55.4579 40.0638 55.4241C39.6858 55.4078 39.6147 55.5512 39.6193 55.8906C39.6368 57.1503 39.6263 58.4087 39.6263 59.6683C39.6263 60.9595 39.6298 62.2494 39.6228 63.5405C39.6217 63.7983 39.6543 63.9569 39.9798 63.9511C40.9352 63.9324 41.8929 63.9557 42.8483 63.9359C43.3429 63.9266 43.8282 63.8204 44.2878 63.6222C45.6328 63.0402 46.1682 61.9042 46.4178 60.5536C46.9428 57.7183 45.27 55.5734 42.4062 55.4498Z" fill="white"/>
<path fill-rule="evenodd" clip-rule="evenodd" d="M36.4154 59.1871C36.1517 59.6547 35.7166 59.811 35.2173 59.8472C33.961 59.937 33.961 59.9358 33.961 58.6902V58.1654C33.961 57.735 33.9808 57.3035 33.9551 56.8754C33.9353 56.55 34.0636 56.4486 34.3681 56.4801C34.5407 56.4987 34.7181 56.4812 34.893 56.4847C36.42 56.5092 37.1724 57.8458 36.4154 59.1871ZM35.8053 55.5329C34.9094 55.3265 33.9937 55.4875 33.0908 55.4268C32.7023 55.4 32.5717 55.5038 32.581 55.9155C32.609 57.1576 32.5915 58.401 32.5915 59.6443V63.0383C32.5915 63.9515 32.5915 63.9352 33.4839 63.9527C33.8502 63.9608 33.9902 63.8722 33.9727 63.4803C33.9424 62.749 33.975 62.0142 33.9587 61.2818C33.9517 60.9809 34.0287 60.8479 34.3577 60.8642C34.7064 60.8817 35.0587 60.8526 35.4075 60.8234C36.8692 60.6998 37.8701 59.7492 37.9681 58.3998C38.0742 56.9489 37.2716 55.8723 35.8053 55.5329Z" fill="white"/>
<path fill-rule="evenodd" clip-rule="evenodd" d="M53.4661 55.4235C51.9519 55.4504 50.4378 55.4434 48.9236 55.4259C48.583 55.4224 48.4955 55.532 48.5002 55.8609C48.5165 57.1357 48.5072 58.4105 48.5072 59.6853C48.5072 60.7851 48.5072 61.8838 48.5072 62.9837C48.5072 63.9587 48.5072 63.9389 49.4929 63.9552C49.8708 63.961 49.9408 63.8292 49.9327 63.4875C49.9117 62.5008 49.9397 61.5118 49.9175 60.5239C49.9093 60.1821 50.0225 60.0958 50.3491 60.1028C51.2252 60.1238 52.1036 60.0888 52.9785 60.1192C53.3739 60.1332 53.4906 60.0212 53.4929 59.6211C53.4952 59.2281 53.3634 59.1453 53.0029 59.1546C52.0942 59.1779 51.1855 59.1546 50.2768 59.1674C50.0108 59.1709 49.9128 59.094 49.9198 58.8175C49.9373 58.1807 49.9432 57.5416 49.9187 56.9059C49.9047 56.5747 49.998 56.4686 50.3386 56.4756C51.3745 56.4977 52.4115 56.4627 53.4462 56.4931C53.8767 56.5059 53.8627 56.2738 53.844 55.9892C53.8265 55.7315 53.97 55.4142 53.4661 55.4235Z" fill="white"/>
<rect x="20" y="14" width="44" height="56" fill="#2970F1"/>
<circle cx="42.5" cy="37.5834" r="8.875" stroke="white" stroke-width="1.7" stroke-linecap="round"/>
<circle cx="42.5" cy="43.5" r="26.625" stroke="white" stroke-width="1.7"/>
<path d="M60.25 63.3383C59.203 60.1931 56.896 57.4139 53.6867 55.4317C50.4774 53.4494 46.5452 52.375 42.5 52.375C38.4548 52.375 34.5226 53.4494 31.3133 55.4316C28.104 57.4139 25.797 60.1931 24.75 63.3383" stroke="white" stroke-width="1.7" stroke-linecap="round"/>
</svg>
