<svg width="45" height="36" viewBox="0 0 45 36" fill="none" xmlns="http://www.w3.org/2000/svg">
<g clip-path="url(#clip0_782_429)">
<mask id="mask0_782_429" style="mask-type:luminance" maskUnits="userSpaceOnUse" x="0" y="0" width="45" height="36">
<path d="M45 0H0V36H45V0Z" fill="white"/>
</mask>
<g mask="url(#mask0_782_429)">
<path d="M40.2999 27.9V23.9C40.2999 22.9 40.6999 22 41.3999 21.3C42.0999 20.6 42.9999 20.2 43.8999 20.2H44.9999V15.7H43.8999C41.7999 15.7 39.7999 16.6 38.2999 18.1C36.7999 19.6 35.9999 21.7 35.9999 23.8V27.8C35.9999 28.8 35.5999 29.7 34.9999 30.4C34.3999 31.1 33.3999 31.5 32.4999 31.5H31.3999V36H32.4999C34.5999 36 36.5999 35.0999 38.0999 33.5999C39.4999 32.0999 40.2999 30 40.2999 27.9Z" fill="#37384F"/>
<path d="M4.7 12.1C4.7 13.1 4.3 14 3.7 14.7C3 15.4 2.1 15.8 1.2 15.8H0V20.3H1.1C3.2 20.3 5.2 19.4 6.7 17.9C8.2 16.4 9 14.3 9 12.2V8.2C9 7.2 9.4 6.3 10 5.6C10.7 4.9 11.6 4.5 12.5 4.5H13.6V0H12.5C10.5 0 8.5 0.9 7 2.4C5.5 3.9 4.7 6 4.6 8.1L4.7 12.1Z" fill="#37384F"/>
<path d="M9.10005 27.9V23.9C9.10005 21.9 8.40005 19.9 7.00005 18.5C5.80005 19.6 4.40005 20.4 2.80005 20.7C3.40005 21 3.80005 21.5 4.20005 22C4.50005 22.6 4.70005 23.2 4.70005 23.9V27.9C4.70005 30.1 5.50005 32.1 7.00005 33.6C8.50005 35.1 10.5 36 12.6 36H13.7V31.5H12.6C11.7 31.5 10.7 31.1 10.1 30.4C9.40005 29.8 9.10005 28.8 9.10005 27.9Z" fill="#37384F"/>
<path d="M35.9001 8.1V12.1C35.9001 14.1 36.6 16 38 17.5C39.2 16.4 40.6001 15.6 42.2001 15.3C41.6001 15 41.2 14.5 40.8 14C40.5 13.4 40.3 12.8 40.3 12.1V8.1C40.3 5.9 39.5 3.9 38 2.4C36.5 0.9 34.5001 0 32.4001 0H31.3V4.5H32.4001C32.9001 4.5 33.3 4.6 33.8 4.8C34.2 5 34.6 5.3 35 5.6C35.3 5.9 35.6 6.3 35.8 6.8C35.9 7.2 35.9001 7.6 35.9001 8.1Z" fill="#37384F"/>
</g>
<path fill-rule="evenodd" clip-rule="evenodd" d="M13.0132 15.1513C13 15.6902 13 16.3021 13 17V19C13 21.8284 13 23.2426 13.8787 24.1213C14.7574 25 16.1716 25 19 25H25C27.8284 25 29.2426 25 30.1213 24.1213C31 23.2426 31 21.8284 31 19V17C31 16.3021 31 15.6902 30.9868 15.1513L22.9713 19.6044C22.3672 19.9399 21.6328 19.9399 21.0287 19.6044L13.0132 15.1513ZM13.243 13.0297C13.3258 13.0505 13.4074 13.0824 13.4856 13.1258L22 17.856L30.5144 13.1258C30.5926 13.0824 30.6742 13.0505 30.757 13.0297C30.6271 12.5562 30.4276 12.1849 30.1213 11.8787C29.2426 11 27.8284 11 25 11H19C16.1716 11 14.7574 11 13.8787 11.8787C13.5724 12.1849 13.3729 12.5562 13.243 13.0297Z" fill="#EE4A4E"/>
</g>
<defs>
<clipPath id="clip0_782_429">
<rect width="45" height="36" fill="white"/>
</clipPath>
</defs>
</svg>
