<svg width="129" height="283" viewBox="0 0 129 283" fill="none" xmlns="http://www.w3.org/2000/svg">
<g clip-path="url(#clip0_1_143)">
<path d="M114.851 67.6921L105.988 91.196L24.7458 60.5592L33.6093 37.0554L44.6091 41.2035L39.8819 53.7389L99.1243 76.0794L103.851 63.544L114.851 67.6921Z" fill="#EE4A4E"/>
<path d="M94.8704 31.3669C97.1942 25.2047 94.0806 18.3247 87.916 16C81.7514 13.6753 74.8702 16.7862 72.5465 22.9484C70.2227 29.1106 73.3363 35.9905 79.5009 38.3152C85.6655 40.6399 92.5466 37.529 94.8704 31.3669Z" fill="#790FD6"/>
<path d="M49.4346 241.408C45.3654 252.199 37.1745 260.931 26.6641 265.682C16.1536 270.434 4.18443 270.816 -6.61043 266.745C-17.4053 262.675 -26.1416 254.484 -30.8974 243.975C-35.6531 233.467 -36.0388 221.501 -31.9696 210.71L-20.9428 214.869C-23.2699 222.578 -22.5805 230.884 -19.014 238.106C-15.4476 245.328 -9.27048 250.927 -1.73256 253.769C5.80537 256.612 14.1412 256.486 21.5883 253.417C29.0354 250.349 35.0377 244.566 38.3807 237.24L49.4346 241.408Z" fill="#FDBD2C"/>
<path d="M19.9332 215.595L53.1105 175.586L42.1647 171.458L18.6045 199.881L19.6786 162.979L8.7328 158.851L7.23066 210.805L19.9332 215.595Z" fill="#13C1C2"/>
<path d="M83.3809 151.144L13.1723 91.2494L7.9969 104.973L78.2156 164.842L83.3809 151.144Z" fill="#790FD6"/>
</g>
<defs>
<clipPath id="clip0_1_143">
<rect width="268" height="87" fill="white" transform="translate(-47.3125 251.396) rotate(-69.3383)"/>
</clipPath>
</defs>
</svg>
