<svg width="115" height="305" viewBox="0 0 115 305" fill="none" xmlns="http://www.w3.org/2000/svg">
<g clip-path="url(#clip0_1_150)">
<path d="M75.7962 304.56L69.2746 280.221L153.282 257.712L159.804 282.05L148.426 285.099L144.955 272.147L83.6756 288.566L87.1463 301.519L75.7962 304.56Z" fill="#FDBD2C"/>
<path d="M71.2841 141.455L70.5345 138.658L81.4653 135.729L82.2149 138.526C82.7835 140.648 84.1712 142.458 86.0726 143.556C87.9741 144.655 90.2337 144.953 92.3542 144.385L101.524 141.928C106.548 140.59 111.898 141.302 116.399 143.907C120.901 146.512 124.186 150.799 125.532 155.824L126.282 158.622L115.351 161.551L114.601 158.753C114.032 156.629 112.645 154.816 110.743 153.713C108.841 152.609 106.58 152.305 104.455 152.867L95.1733 155.353C90.1656 156.656 84.8458 155.926 80.3717 153.323C75.8977 150.72 72.6315 146.455 71.2841 141.455Z" fill="white"/>
<path d="M43.1482 180.927L42.3986 178.13C41.0587 173.1 41.7665 167.744 44.3668 163.236C46.9671 158.729 51.2477 155.437 56.2704 154.084L65.412 151.634C67.5351 151.065 69.346 149.677 70.4481 147.775C71.5501 145.872 71.8534 143.61 71.2915 141.483L70.5419 138.686L81.4727 135.757L82.2223 138.554C83.5615 143.582 82.852 148.935 80.2497 153.438C77.6475 157.942 73.3651 161.227 68.343 162.573L59.2014 165.022C57.0777 165.599 55.2685 166.993 54.1685 168.9C53.0684 170.807 52.7668 173.072 53.3294 175.201L54.079 177.998L43.1482 180.927Z" fill="white"/>
<path d="M98.8171 244.21L98.0675 241.412C96.7296 236.389 97.4363 231.041 100.033 226.541C102.629 222.04 106.904 218.753 111.919 217.401L121.088 214.944C122.138 214.663 123.123 214.178 123.985 213.516C124.847 212.854 125.571 212.028 126.114 211.086C126.657 210.144 127.01 209.104 127.152 208.026C127.293 206.948 127.221 205.852 126.94 204.801L126.19 202.003L137.121 199.075L137.871 201.872C139.209 206.895 138.502 212.243 135.905 216.744C133.309 221.245 129.035 224.531 124.019 225.883L114.738 228.37C112.622 228.945 110.819 230.334 109.723 232.234C108.626 234.134 108.326 236.392 108.887 238.513L109.636 241.311L98.8171 244.21Z" fill="white"/>
<path d="M54.7149 224.094L53.9653 221.296L64.8961 218.367L65.6457 221.165C66.2224 223.287 67.6162 225.095 69.5219 226.192C71.4276 227.289 73.6898 227.585 75.8129 227.016L84.9545 224.567C89.9766 223.221 95.3278 223.925 99.8331 226.523C104.338 229.122 107.629 233.404 108.983 238.427L109.733 241.225L98.8022 244.154L98.0526 241.356C97.476 239.234 96.0821 237.426 94.1764 236.329C92.2707 235.232 90.0085 234.936 87.8854 235.505L78.7439 237.954C73.7218 239.3 68.3705 238.596 63.8652 235.998C59.36 233.399 56.069 229.117 54.7149 224.094Z" fill="white"/>
<path d="M78.5778 193.053C80.2876 199.434 86.8429 203.222 93.2194 201.513C99.596 199.804 103.379 193.246 101.669 186.865C99.9596 180.484 93.4043 176.696 87.0277 178.405C80.6511 180.114 76.868 186.672 78.5778 193.053Z" fill="white"/>
<path d="M35.6414 13.0189L32.025 65.051L43.3471 62.0172L45.9066 25.0506L66.6065 55.7849L77.9286 52.7511L48.8086 9.49074L35.6414 13.0189Z" fill="#13C1C2"/>
<path d="M21.6894 102.631L113.815 110.419L110.015 96.2353L17.8889 88.4474L21.6894 102.631Z" fill="#790FD6"/>
</g>
<defs>
<clipPath id="clip0_1_150">
<rect width="292" height="87" fill="white" transform="translate(84.2285) rotate(75)"/>
</clipPath>
</defs>
</svg>
