<svg width="46" height="37" viewBox="0 0 46 37" fill="none" xmlns="http://www.w3.org/2000/svg">
<g clip-path="url(#clip0_68_1243)">
<path d="M41.2408 28.4876V24.3993C41.2426 23.4128 41.6289 22.4672 42.3152 21.7696C43.0014 21.072 43.9316 20.6793 44.9021 20.6775H45.9968V16.1064H44.9021C42.7391 16.1083 40.6651 16.9826 39.1356 18.5374C37.6061 20.0922 36.746 22.2005 36.7443 24.3993V28.4876C36.7425 29.4741 36.3562 30.4198 35.6699 31.1174C34.9837 31.815 34.0535 32.2077 33.083 32.2095H31.9816V36.7805H33.0762C35.2402 36.7796 37.3154 35.9058 38.8461 34.351C40.3769 32.7961 41.2382 30.6874 41.2408 28.4876V28.4876Z" fill="#37384F"/>
<path d="M4.75258 12.3811C4.75258 13.3686 4.36696 14.3156 3.68043 15.0141C2.99391 15.7126 2.06264 16.1055 1.09131 16.1064H0V20.6775H1.09131C3.25498 20.6747 5.32927 19.7998 6.85922 18.2445C8.38917 16.6893 9.24988 14.5806 9.25255 12.3811V8.29632C9.25434 7.30978 9.64064 6.36416 10.3269 5.66656C11.0131 4.96897 11.9433 4.57626 12.9138 4.57445H14.0051V0H12.9138C10.7502 0.00271822 8.67586 0.877667 7.14591 2.43294C5.61596 3.98821 4.75525 6.09684 4.75258 8.29632V12.3811Z" fill="#37384F"/>
<path d="M9.25267 28.4875V24.3993C9.25458 22.3439 8.49865 20.3623 7.13404 18.8456C5.9428 20.0036 4.45425 20.7964 2.83954 21.1328C3.41779 21.4522 3.90065 21.9242 4.23732 22.499C4.574 23.0738 4.75203 23.7303 4.75269 24.3993V28.4875C4.75626 30.6864 5.61736 32.7942 7.14722 34.3487C8.67707 35.9032 10.7509 36.7777 12.9139 36.7804H14.0052V32.2094H12.9139C11.9435 32.2076 11.0132 31.8149 10.327 31.1173C9.64076 30.4197 9.25445 29.4741 9.25267 28.4875V28.4875Z" fill="#37384F"/>
<path d="M36.7443 8.29632V12.3811C36.7424 14.4366 37.4983 16.4181 38.8629 17.9349C40.0536 16.7786 41.5409 15.9871 43.154 15.6511C42.5755 15.3311 42.0925 14.8585 41.7558 14.2831C41.4192 13.7077 41.2413 13.0507 41.2408 12.3811V8.29632C41.2391 6.09715 40.3791 3.98852 38.8497 2.43315C37.3203 0.877778 35.2463 0.00271988 33.083 0H31.9816V4.57445H33.0762C34.0479 4.57445 34.9799 4.96636 35.6675 5.66415C36.3552 6.36194 36.7425 7.30859 36.7443 8.29632Z" fill="#37384F"/>
<path fill-rule="evenodd" clip-rule="evenodd" d="M31.2208 11.3239L24.5194 8.32559C23.5491 7.89147 22.4509 7.89147 21.4806 8.32559L14.7792 11.3239C14.3065 11.5355 14 12.0207 14 12.5577V19.6085C14 22.2095 15.2032 24.6503 17.2304 26.1621L21.5054 29.35C22.3995 30.0167 23.6005 30.0167 24.4946 29.35L28.7696 26.1621C30.7968 24.6503 32 22.2095 32 19.6085V12.5577C32 12.0207 31.6935 11.5355 31.2208 11.3239ZM27.6512 16.3077C27.9871 15.8693 27.904 15.2416 27.4657 14.9057C27.0273 14.5698 26.3996 14.6528 26.0637 15.0912L21.6301 20.877L19.8653 19.0346C19.4833 18.6357 18.8502 18.6221 18.4514 19.0041C18.0526 19.3862 18.0389 20.0192 18.421 20.418L20.5891 22.6815C21.2252 23.3456 22.3036 23.2862 22.863 22.5563L27.6512 16.3077Z" fill="#13C1C2"/>
</g>
<defs>
<clipPath id="clip0_68_1243">
<rect width="46" height="36.7805" fill="white"/>
</clipPath>
</defs>
</svg>
