<svg width="75" height="75" viewBox="0 0 75 75" fill="none" xmlns="http://www.w3.org/2000/svg">
<path fill-rule="evenodd" clip-rule="evenodd" d="M74.927 37.4677C74.927 58.0278 58.2562 74.6957 37.6915 74.6957C17.1279 74.6957 0.457031 58.0278 0.457031 37.4677C0.457031 16.9077 17.1279 0.23877 37.6915 0.23877C58.2562 0.23877 74.927 16.9077 74.927 37.4677Z" fill="#790FD6"/>
<path fill-rule="evenodd" clip-rule="evenodd" d="M38.0207 9.13086C38.6976 9.453 38.9517 9.98143 38.9284 10.7324C38.8867 12.0586 38.9334 13.3857 38.907 14.7129C38.8989 15.1285 39.0127 15.2789 39.4406 15.3176C46.6956 15.9811 52.3335 19.3916 56.3656 25.4258C58.4288 28.5141 59.5672 31.953 59.8386 35.6642C59.8701 36.095 59.9809 36.2647 60.4494 36.2536C61.7758 36.221 63.1042 36.2729 64.4296 36.2302C65.1817 36.2058 65.7103 36.4578 66.0314 37.1367V37.8002C65.7082 38.4781 65.1807 38.7311 64.4276 38.7067C63.1002 38.664 61.7707 38.7118 60.4433 38.6843C60.0185 38.6752 59.8741 38.8022 59.8426 39.225C59.558 43.1343 58.315 46.7256 56.08 49.9399C52.303 55.3716 47.1306 58.5869 40.5597 59.5106C40.1948 59.5614 39.8268 59.6142 39.4599 59.6193C39.0483 59.6254 38.8968 59.7646 38.905 60.2067C38.9344 61.6629 38.9253 63.1202 38.909 64.5774C38.9019 65.2288 38.4506 65.7136 37.8408 65.7938C37.2655 65.87 36.6801 65.5001 36.5185 64.9321C36.4646 64.741 36.4636 64.5317 36.4626 64.3305C36.4585 62.9474 36.4423 61.5633 36.4717 60.1813C36.4799 59.7616 36.3325 59.6549 35.9473 59.6214C29.4231 59.0513 24.1307 56.1683 20.0926 51.0364C17.392 47.6036 15.8807 43.6719 15.5422 39.3093C15.5036 38.8134 15.3481 38.6691 14.8521 38.6823C13.4881 38.7179 12.1221 38.6976 10.757 38.6935C9.90327 38.6904 9.3534 38.2067 9.35035 37.473C9.34731 36.7383 9.89819 36.2464 10.7479 36.2434C12.1312 36.2383 13.5155 36.216 14.8978 36.2566C15.4009 36.2708 15.4924 36.0849 15.5392 35.6388C16.396 27.3861 20.5408 21.361 27.8731 17.5075C27.9219 17.4821 27.9706 17.4557 28.0215 17.4333C28.7268 17.1213 29.4109 17.3327 29.7259 17.9597C30.04 18.5867 29.8123 19.2838 29.1202 19.6344C27.7663 20.3183 26.4654 21.0866 25.3057 22.0662C19.9269 26.6138 17.387 32.4133 18.0273 39.4302C18.8506 48.4532 25.883 55.7293 34.8109 57.0371C45.4556 58.596 55.4213 51.325 57.1878 40.7097C58.9797 29.9419 51.6902 19.7554 40.9174 17.9648C39.8949 17.7951 38.8664 17.7382 37.8357 17.6904C36.8783 17.6447 36.4646 17.2199 36.4626 16.2667C36.4565 14.4223 36.4849 12.5768 36.4484 10.7334C36.4341 9.98245 36.677 9.45198 37.356 9.13086H38.0207Z" fill="white"/>
<path fill-rule="evenodd" clip-rule="evenodd" d="M33.9202 37.4625C33.9182 39.5468 35.5922 41.2316 37.6707 41.2377C39.7604 41.2438 41.4486 39.5783 41.4598 37.5001C41.472 35.3864 39.7919 33.6954 37.6808 33.6985C35.5983 33.7015 33.9223 35.3793 33.9202 37.4625Z" fill="white"/>
</svg>
