<svg width="86" height="86" viewBox="0 0 86 86" fill="none" xmlns="http://www.w3.org/2000/svg">
<path fill-rule="evenodd" clip-rule="evenodd" d="M68.3371 64.3468H57.7893V61.8438H65.8337V24.4631H58.5989V21.959H68.3371V64.3468ZM42.9369 57.5156C42.9358 57.5145 29.1567 45.4465 29.1567 38.0077C29.1567 34.1017 32.325 30.9351 36.2317 30.9351C39.3534 30.9351 41.9967 32.9587 42.9369 35.7637C43.876 32.9587 46.5194 30.9351 49.641 30.9351C53.5489 30.9351 56.7148 34.1017 56.7148 38.0077C56.7148 45.4465 42.9381 57.5145 42.9369 57.5156ZM28.0837 64.3468H17.5359V21.959H27.2729V24.4631H20.0393V61.8438H28.0837V64.3468ZM42.937 0.425293C19.3346 0.425293 0.201172 19.5553 0.201172 43.1524C0.201172 66.7495 19.3346 85.8807 42.937 85.8807C66.5383 85.8807 85.6706 66.7495 85.6706 43.1524C85.6706 19.5553 66.5383 0.425293 42.937 0.425293Z" fill="#EE4A4E"/>
<path fill-rule="evenodd" clip-rule="evenodd" d="M49.641 30.9355C46.5193 30.9355 43.876 32.9591 42.9369 35.7641C41.9967 32.9591 39.3534 30.9355 36.2317 30.9355C32.325 30.9355 29.1567 34.1021 29.1567 38.0081C29.1567 45.447 42.9358 57.5149 42.9369 57.5161C42.9381 57.5149 56.7148 45.447 56.7148 38.0081C56.7148 34.1021 53.5488 30.9355 49.641 30.9355Z" fill="white"/>
<path fill-rule="evenodd" clip-rule="evenodd" d="M20.039 24.4629H27.2726V21.96H17.5356V64.3465H28.0834V61.8436H20.039V24.4629Z" fill="white"/>
<path fill-rule="evenodd" clip-rule="evenodd" d="M58.5993 24.4629H65.8341V61.8436H57.7886V64.3465H68.3375V21.96H58.5993V24.4629Z" fill="white"/>
</svg>
