<svg width="20" height="20" viewBox="0 0 20 20" fill="none" xmlns="http://www.w3.org/2000/svg">
<path d="M17.5874 18.8866H2.41217C2.10289 18.8866 1.85547 19.134 1.85547 19.4433C1.85547 19.7526 2.10289 20 2.41217 20H17.5874C17.8967 20 18.1441 19.7526 18.1441 19.4433C18.1441 19.134 17.8967 18.8866 17.5874 18.8866Z" fill="black"/>
<path d="M9.60862 17.6165C9.71172 17.7196 9.85605 17.7814 10.0004 17.7814C10.1447 17.7814 10.289 17.7237 10.3921 17.6165L14.8251 13.1835C15.0437 12.965 15.0437 12.6144 14.8251 12.3959C14.6066 12.1773 14.256 12.1773 14.0375 12.3959L10.5571 15.8763V2.5567C10.5571 2.24742 10.3097 2 10.0004 2C9.6911 2 9.44368 2.24742 9.44368 2.5567V15.8763L5.96327 12.3959C5.74471 12.1773 5.39419 12.1773 5.17564 12.3959C4.95708 12.6144 4.95708 12.965 5.17564 13.1835L9.60862 17.6165Z" fill="black"/>
</svg>
