<?xml version="1.0" encoding="utf-8"?>
<!-- Generator: Adobe Illustrator 25.4.1, SVG Export Plug-In . SVG Version: 6.00 Build 0)  -->
<svg version="1.1" id="Layer_1" xmlns="http://www.w3.org/2000/svg" xmlns:xlink="http://www.w3.org/1999/xlink" x="0px" y="0px"
	 viewBox="0 0 45 36" style="enable-background:new 0 0 45 36;" xml:space="preserve">
<style type="text/css">
	.st0{clip-path:url(#SVGID_00000070800073840635131560000012852950862362605470_);}
	.st1{fill:#37384F;}
	.st2{fill:#2970F1;}
</style>
<g>
	<defs>
		<rect id="SVGID_1_" width="45" height="36"/>
	</defs>
	<clipPath id="SVGID_00000017480040531834419740000012925934952087789452_">
		<use xlink:href="#SVGID_1_"  style="overflow:visible;"/>
	</clipPath>
	<g style="clip-path:url(#SVGID_00000017480040531834419740000012925934952087789452_);">
		<path class="st1" d="M40.3,27.9v-4c0-1,0.4-1.9,1.1-2.6c0.7-0.7,1.6-1.1,2.5-1.1H45v-4.5h-1.1c-2.1,0-4.1,0.9-5.6,2.4
			c-1.5,1.5-2.3,3.6-2.3,5.7v4c0,1-0.4,1.9-1,2.6s-1.6,1.1-2.5,1.1h-1.1V36h1.1c2.1,0,4.1-0.9,5.6-2.4C39.5,32.1,40.3,30,40.3,27.9z
			"/>
		<path class="st1" d="M4.7,12.1c0,1-0.4,1.9-1,2.6c-0.7,0.7-1.6,1.1-2.5,1.1H0v4.5h1.1c2.1,0,4.1-0.9,5.6-2.4
			c1.5-1.5,2.3-3.6,2.3-5.7v-4c0-1,0.4-1.9,1-2.6c0.7-0.7,1.6-1.1,2.5-1.1h1.1V0h-1.1C10.5,0,8.5,0.9,7,2.4C5.5,3.9,4.7,6,4.6,8.1
			L4.7,12.1z"/>
		<path class="st1" d="M9.1,27.9v-4c0-2-0.7-4-2.1-5.4c-1.2,1.1-2.6,1.9-4.2,2.2c0.6,0.3,1,0.8,1.4,1.3c0.3,0.6,0.5,1.2,0.5,1.9v4
			c0,2.2,0.8,4.2,2.3,5.7c1.5,1.5,3.5,2.4,5.6,2.4h1.1v-4.5h-1.1c-0.9,0-1.9-0.4-2.5-1.1C9.4,29.8,9.1,28.8,9.1,27.9z"/>
		<path class="st1" d="M35.9,8.1v4c0,2,0.7,3.9,2.1,5.4c1.2-1.1,2.6-1.9,4.2-2.2c-0.6-0.3-1-0.8-1.4-1.3c-0.3-0.6-0.5-1.2-0.5-1.9
			v-4c0-2.2-0.8-4.2-2.3-5.7C36.5,0.9,34.5,0,32.4,0h-1.1v4.5h1.1c0.5,0,0.9,0.1,1.4,0.3c0.4,0.2,0.8,0.5,1.2,0.8
			c0.3,0.3,0.6,0.7,0.8,1.2C35.9,7.2,35.9,7.6,35.9,8.1z"/>
	</g>
</g>
<g id="XMLID_2_">
	<path id="XMLID_6_" class="st2" d="M28.9,17.9l0.2,3c0,0.4-0.2,0.8-0.8,1.2c-0.6,0.4-1.3,0.7-2.2,0.9c-1,0.2-2,0.3-3.1,0.3
		s-2.1-0.1-3.1-0.3c-1-0.2-1.7-0.5-2.2-0.9c-0.6-0.4-0.8-0.8-0.8-1.2l0.2-3l5.5,1.7c0.2,0,0.3,0.1,0.4,0.1s0.3,0,0.4-0.1L28.9,17.9z
		 M34,14.8c0,0.2-0.1,0.2-0.2,0.3l-10.7,3.4c0,0,0,0-0.1,0c0,0-0.1,0-0.1,0l-6.2-2c-0.3,0.2-0.5,0.6-0.7,1.1
		c-0.2,0.5-0.3,1.1-0.3,1.7c0.4,0.2,0.6,0.6,0.6,1c0,0.4-0.2,0.8-0.6,1l0.6,4.1c0,0.1,0,0.2-0.1,0.2c0,0.1-0.1,0.1-0.2,0.1h-1.8
		c-0.1,0-0.2,0-0.2-0.1c-0.1-0.1-0.1-0.2-0.1-0.2l0.6-4.1c-0.4-0.2-0.6-0.6-0.6-1c0-0.5,0.2-0.8,0.6-1c0.1-1.3,0.4-2.3,0.9-3.1
		l-3.1-1c-0.2,0-0.2-0.2-0.2-0.3c0-0.1,0.1-0.2,0.2-0.3l10.6-3.3c0,0,0,0,0.1,0c0,0,0.1,0,0.1,0l10.7,3.3C33.9,14.6,34,14.7,34,14.8
		z"/>
</g>
</svg>
