<svg width="87" height="87" viewBox="0 0 87 87" fill="none" xmlns="http://www.w3.org/2000/svg">
<mask id="mask0_136_1817" style="mask-type:alpha" maskUnits="userSpaceOnUse" x="0" y="0" width="87" height="87">
<path fill-rule="evenodd" clip-rule="evenodd" d="M0.661133 0.739746H86.1316V86.195H0.661133V0.739746Z" fill="white"/>
</mask>
<g mask="url(#mask0_136_1817)">
<path fill-rule="evenodd" clip-rule="evenodd" d="M59.3607 48.4798H59.3596V58.5219C59.3596 64.4258 54.5558 69.2287 48.652 69.2287H38.1416C32.2366 69.2287 27.4329 64.4258 27.4329 58.5219V40.0076H56.8573V30.0916C56.8573 22.6714 50.8182 16.6345 43.3956 16.6345C35.9742 16.6345 29.9362 22.6714 29.9362 30.0916V34.0221H27.4329V30.0916C27.4329 21.2905 34.5942 14.1316 43.3956 14.1316C52.1982 14.1316 59.3607 21.2905 59.3607 30.0916V48.4798ZM43.3969 0.739746C19.7957 0.739746 0.661133 19.871 0.661133 43.468C0.661133 67.0651 19.7957 86.1951 43.3969 86.1951C66.9993 86.1951 86.1316 67.0651 86.1316 43.468C86.1316 19.871 66.9993 0.739746 43.3969 0.739746Z" fill="#F77643"/>
</g>
<path fill-rule="evenodd" clip-rule="evenodd" d="M46.768 48.4796C46.845 48.7688 46.8998 49.0674 46.8998 49.38C46.8998 50.7026 46.166 51.8526 45.0835 52.4498L46.8998 62.1652H39.8934L41.7098 52.4498C40.6272 51.8526 39.8934 50.7026 39.8934 49.38C39.8934 49.0674 39.9483 48.7688 40.0253 48.4796C40.3566 47.2375 41.3446 46.2682 42.6033 45.9767C42.8588 45.9172 43.1225 45.8775 43.3966 45.8775C43.6707 45.8775 43.9332 45.9172 44.1887 45.9767C45.4474 46.2682 46.4355 47.2375 46.768 48.4796ZM43.3954 14.1313C34.5939 14.1313 27.4326 21.2902 27.4326 30.0913V34.0218H29.936V30.0913C29.936 22.6712 35.9739 16.6343 43.3954 16.6343C50.818 16.6343 56.8559 22.6712 56.8559 30.0913V40.0074H27.4326V58.5216C27.4326 64.4256 32.2364 69.2285 38.1413 69.2285H48.6518C54.5555 69.2285 59.3593 64.4256 59.3593 58.5216V48.4796H59.3605V30.0913C59.3605 21.2902 52.198 14.1313 43.3954 14.1313Z" fill="white"/>
<path fill-rule="evenodd" clip-rule="evenodd" d="M42.6035 45.9764C41.3448 46.2691 40.3567 47.2372 40.0254 48.4793C39.9484 48.7686 39.8936 49.0671 39.8936 49.3809C39.8936 50.7035 40.6273 51.8535 41.7099 52.4506L39.8936 62.1661H46.8999L45.0836 52.4506C46.1661 51.8535 46.8999 50.7035 46.8999 49.3809C46.8999 49.0671 46.8451 48.7686 46.7681 48.4793C46.4356 47.2372 45.4475 46.2691 44.1888 45.9764C43.9333 45.9169 43.6697 45.8784 43.3967 45.8784C43.1226 45.8784 42.8589 45.9169 42.6035 45.9764Z" fill="#F77643"/>
</svg>
