<svg width="210" height="34" viewBox="0 0 210 34" fill="none" xmlns="http://www.w3.org/2000/svg">
<path fill-rule="evenodd" clip-rule="evenodd" d="M60.2804 15.2329V18.6807C60.2804 20.3012 58.9387 21.6193 57.2892 21.6193H56.2053V25.8822H57.2892C61.3311 25.8822 64.6195 22.6516 64.6195 18.6807V15.2329C64.6195 13.6123 65.9611 12.2951 67.6106 12.2951H68.6954V8.03223H67.6106C63.5687 8.03223 60.2804 11.2628 60.2804 15.2329Z" fill="white"/>
<path fill-rule="evenodd" clip-rule="evenodd" d="M176.26 15.2329V18.6807C176.26 20.3012 174.919 21.6193 173.269 21.6193H172.184V25.8822H173.269C177.311 25.8822 180.599 22.6516 180.599 18.6807V15.2329C180.599 13.6123 181.941 12.2951 183.59 12.2951H184.674V8.03223H183.59C179.549 8.03223 176.26 11.2628 176.26 15.2329Z" fill="white"/>
<path fill-rule="evenodd" clip-rule="evenodd" d="M71.3718 25.8822H80.2933V21.6193H75.5418V12.2951H80.2933V8.03223H71.3718V25.8822Z" fill="white"/>
<path fill-rule="evenodd" clip-rule="evenodd" d="M187.351 25.8822H196.272V21.6193H191.521V12.2951H196.272V8.03223H187.351V25.8822Z" fill="white"/>
<path fill-rule="evenodd" clip-rule="evenodd" d="M82.0776 16.9572C82.0776 21.8787 86.0796 25.8822 90.9991 25.8822V21.6193C88.429 21.6193 86.3389 19.5274 86.3389 16.9572C86.3389 14.387 88.429 12.2951 90.9991 12.2951V8.03223C86.0796 8.03223 82.0776 12.0357 82.0776 16.9572Z" fill="white"/>
<path fill-rule="evenodd" clip-rule="evenodd" d="M113.303 16.9572V25.8822H117.428V16.9572C117.428 14.387 119.451 12.2951 121.939 12.2951H123.116V8.03223H121.939C117.177 8.03223 113.303 12.0357 113.303 16.9572Z" fill="white"/>
<path fill-rule="evenodd" clip-rule="evenodd" d="M208.476 8.03223C203.715 8.03223 199.841 12.0357 199.841 16.9572V25.8822H203.966V16.9572C203.966 14.387 205.989 12.2951 208.476 12.2951H209.655V8.03223H208.476Z" fill="white"/>
<path fill-rule="evenodd" clip-rule="evenodd" d="M105.545 18.1654C105.545 20.07 104.022 21.6193 102.15 21.6193C100.279 21.6193 98.757 20.07 98.757 18.1654V8.03223H94.5676V18.1654C94.5676 22.4204 97.9689 25.8822 102.15 25.8822C106.332 25.8822 109.734 22.4204 109.734 18.1654V8.03223H105.545V18.1654Z" fill="white"/>
<mask id="mask0_133_1520" style="mask-type:alpha" maskUnits="userSpaceOnUse" x="0" y="0" width="210" height="34">
<path d="M0 33.915H209.655V0H0V33.915Z" fill="white"/>
</mask>
<g mask="url(#mask0_133_1520)">
<path fill-rule="evenodd" clip-rule="evenodd" d="M125.793 25.8822H130.254V8.03223H125.793V25.8822Z" fill="white"/>
<path fill-rule="evenodd" clip-rule="evenodd" d="M128.023 5.35508C129.255 5.35508 130.254 4.35635 130.254 3.12383C130.254 1.89222 129.255 0.892578 128.023 0.892578C126.791 0.892578 125.793 1.89222 125.793 3.12383C125.793 4.35635 126.791 5.35508 128.023 5.35508Z" fill="white"/>
<path fill-rule="evenodd" clip-rule="evenodd" d="M165.047 25.8822H169.508V8.03223H165.047V25.8822Z" fill="white"/>
<path fill-rule="evenodd" clip-rule="evenodd" d="M167.278 5.35508C168.51 5.35508 169.508 4.35635 169.508 3.12383C169.508 1.89222 168.51 0.892578 167.278 0.892578C166.046 0.892578 165.047 1.89222 165.047 3.12383C165.047 4.35635 166.046 5.35508 167.278 5.35508Z" fill="white"/>
<path fill-rule="evenodd" clip-rule="evenodd" d="M153.966 20.7107L149.724 8.07971L149.74 8.03223H149.708H145.592H145.561L145.577 8.07971L141.334 20.7107L137.077 8.03223H132.93L138.924 25.8822H143.746L147.651 14.2545L151.555 25.8822H156.376L162.371 8.03223H158.224L153.966 20.7107Z" fill="white"/>
<path fill-rule="evenodd" clip-rule="evenodd" d="M26.7646 16.5113C26.7646 19.2225 24.5679 21.42 21.8577 21.42C19.1476 21.42 16.9509 19.2225 16.9509 16.5113C16.9509 13.8 19.1476 11.6025 21.8577 11.6025C24.5679 11.6025 26.7646 13.8 26.7646 16.5113Z" fill="white"/>
<path fill-rule="evenodd" clip-rule="evenodd" d="M4.54225 11.223C4.54225 13.0834 2.97274 14.5972 1.04397 14.5972H0V18.7425H1.04397C5.34346 18.7425 8.84085 15.3692 8.84085 11.223V7.51947C8.84085 5.65912 10.4095 4.14527 12.3382 4.14527H13.3822V0H12.3382C8.03964 0 4.54225 3.37334 4.54225 7.51947V11.223Z" fill="white"/>
<path fill-rule="evenodd" clip-rule="evenodd" d="M8.82419 26.4843V22.8246C8.82419 20.9668 8.10125 19.2201 6.79281 17.8496C5.66824 18.865 4.2536 19.5938 2.67651 19.8973C3.76717 20.4634 4.50975 21.5635 4.50975 22.8246V26.4843C4.50975 30.5813 8.02003 33.9146 12.3354 33.9146H13.3823V29.8185H12.3354C10.3995 29.8185 8.82419 28.3226 8.82419 26.4843Z" fill="white"/>
<path fill-rule="evenodd" clip-rule="evenodd" d="M38.2803 26.3959V22.6923C38.2803 20.832 39.8497 19.3181 41.7783 19.3181H42.8231V15.1729H41.7783C37.4791 15.1729 33.982 18.5462 33.982 22.6923V26.3959C33.982 28.2562 32.4135 29.7701 30.4848 29.7701H29.4409V33.9154H30.4848C34.7831 33.9154 38.2803 30.542 38.2803 26.3959Z" fill="white"/>
<path fill-rule="evenodd" clip-rule="evenodd" d="M33.999 7.43072V11.0906C33.999 12.9476 34.722 14.6953 36.0313 16.065C37.1559 15.0496 38.5696 14.3215 40.1467 14.0181C39.0551 13.4519 38.3135 12.3518 38.3135 11.0906V7.43072C38.3135 3.33353 34.8032 0 30.4887 0H29.4409V4.09635H30.4887C32.4246 4.09635 33.999 5.59232 33.999 7.43072Z" fill="white"/>
</g>
</svg>
