<svg width="87" height="15" viewBox="0 0 87 15" fill="none" xmlns="http://www.w3.org/2000/svg">
<path fill-rule="evenodd" clip-rule="evenodd" d="M6.63049 0L4.5803 4.94064L0 5.73059L3.31333 9.57534L2.53395 15L6.63049 12.4384L10.727 15L9.94382 9.57534L13.2571 5.73059L8.68068 4.94064L6.63049 0Z" fill="#FDCB00"/>
<path fill-rule="evenodd" clip-rule="evenodd" d="M24.8571 0L22.8075 4.94064L18.2285 5.73059L21.5447 9.57534L20.7617 15L24.8571 12.4384L28.9524 15L28.1695 9.57534L31.4857 5.73059L26.9067 4.94064L24.8571 0Z" fill="#FDCB00"/>
<path fill-rule="evenodd" clip-rule="evenodd" d="M43.0837 0L41.0335 4.94064L36.457 5.73059L39.7704 9.57534L38.991 15L43.0837 12.4384L47.1802 15L46.4008 9.57534L49.7142 5.73059L45.1339 4.94064L43.0837 0Z" fill="#FDCB00"/>
<path fill-rule="evenodd" clip-rule="evenodd" d="M62.1449 0L60.0947 4.94064L55.5144 5.73059L58.8277 9.57534L58.0484 15L62.1449 12.4384L66.2414 15L65.4582 9.57534L68.7715 5.73059L64.1951 4.94064L62.1449 0Z" fill="#FDCB00"/>
<path fill-rule="evenodd" clip-rule="evenodd" d="M80.3715 0L78.3219 4.94064L73.7429 5.73059L77.0591 9.57534L76.2761 15L80.3715 12.4384L84.4669 15L83.6839 9.57534L87.0001 5.73059L82.4211 4.94064L80.3715 0Z" fill="#FDCB00"/>
</svg>
