<svg width="240" height="146" viewBox="0 0 240 146" fill="none" xmlns="http://www.w3.org/2000/svg">
<path d="M12.0881 130.374C10.7681 130.374 9.59482 130.154 8.56815 129.714C7.55615 129.274 6.70548 128.673 6.01615 127.91C5.32682 127.133 4.79882 126.245 4.43215 125.248C4.08015 124.236 3.90415 123.173 3.90415 122.058V121.662C3.90415 120.635 4.07282 119.638 4.41015 118.67C4.76215 117.702 5.26815 116.829 5.92815 116.052C6.58815 115.275 7.40948 114.659 8.39215 114.204C9.37482 113.749 10.4895 113.522 11.7361 113.522C13.0415 113.522 14.2002 113.771 15.2122 114.27C16.2242 114.754 17.0382 115.436 17.6542 116.316C18.2848 117.196 18.6515 118.215 18.7542 119.374H17.0601C16.9428 118.435 16.6275 117.643 16.1142 116.998C15.6155 116.353 14.9848 115.869 14.2221 115.546C13.4595 115.223 12.6308 115.062 11.7361 115.062C10.7975 115.062 9.94682 115.231 9.18415 115.568C8.42148 115.905 7.77615 116.382 7.24815 116.998C6.72015 117.614 6.30948 118.34 6.01615 119.176C5.73748 119.997 5.59815 120.899 5.59815 121.882C5.59815 122.923 5.74482 123.877 6.03815 124.742C6.33148 125.593 6.75682 126.326 7.31415 126.942C7.87148 127.558 8.54615 128.035 9.33815 128.372C10.1448 128.709 11.0615 128.878 12.0881 128.878C13.3495 128.878 14.4568 128.636 15.4102 128.152C16.3781 127.653 17.1261 127.001 17.6542 126.194L16.9941 128.262V123.51H18.5782V127.514C17.8888 128.409 16.9941 129.113 15.8941 129.626C14.7941 130.125 13.5255 130.374 12.0881 130.374ZM11.4941 123.862V122.454H20.0081V123.862H11.4941ZM28.6212 130.374C27.6239 130.374 26.7586 130.205 26.0252 129.868C25.2919 129.516 24.6906 129.054 24.2212 128.482C23.7519 127.895 23.3999 127.243 23.1652 126.524C22.9452 125.805 22.8352 125.065 22.8352 124.302V123.994C22.8352 123.246 22.9452 122.513 23.1652 121.794C23.3999 121.075 23.7519 120.43 24.2212 119.858C24.6906 119.286 25.2772 118.831 25.9812 118.494C26.6999 118.142 27.5359 117.966 28.4892 117.966C29.7066 117.966 30.7186 118.237 31.5252 118.78C32.3466 119.323 32.9626 120.019 33.3732 120.87C33.7839 121.706 33.9892 122.608 33.9892 123.576V124.434H23.5832V123.158H32.8452L32.4272 123.796C32.4272 122.931 32.2732 122.175 31.9652 121.53C31.6719 120.87 31.2319 120.357 30.6452 119.99C30.0732 119.609 29.3546 119.418 28.4892 119.418C27.5799 119.418 26.8246 119.631 26.2232 120.056C25.6219 120.481 25.1672 121.046 24.8592 121.75C24.5659 122.454 24.4192 123.253 24.4192 124.148C24.4192 125.028 24.5659 125.835 24.8592 126.568C25.1672 127.287 25.6292 127.859 26.2452 128.284C26.8759 128.709 27.6679 128.922 28.6212 128.922C29.6332 128.922 30.4546 128.695 31.0852 128.24C31.7159 127.771 32.1046 127.221 32.2512 126.59H33.7912C33.6446 127.367 33.3366 128.042 32.8672 128.614C32.3979 129.171 31.8039 129.604 31.0852 129.912C30.3666 130.22 29.5452 130.374 28.6212 130.374ZM42.1694 130.132C41.3627 130.132 40.666 130.015 40.0794 129.78C39.4927 129.545 39.038 129.149 38.7154 128.592C38.3927 128.02 38.2314 127.257 38.2314 126.304V114.688H39.8154V126.546C39.8154 127.221 39.9987 127.741 40.3654 128.108C40.732 128.46 41.2527 128.636 41.9274 128.636H44.0174V130.132H42.1694ZM36.1414 119.616V118.362H44.0174V119.616H36.1414ZM52.8656 134.532V133.058H54.3616C54.875 133.058 55.315 132.992 55.6816 132.86C56.0483 132.743 56.3563 132.53 56.6056 132.222C56.855 131.914 57.0676 131.489 57.2436 130.946L61.1596 118.362H62.7656L58.6736 131.408C58.439 132.156 58.1163 132.757 57.7056 133.212C57.295 133.681 56.8036 134.019 56.2316 134.224C55.6596 134.429 55.007 134.532 54.2736 134.532H52.8656ZM56.6496 129.714V128.328H58.7396V129.714H56.6496ZM56.4516 129.714L52.2276 118.362H53.9216L57.9916 129.714H56.4516ZM71.4521 130.374C70.4548 130.374 69.5748 130.205 68.8121 129.868C68.0641 129.516 67.4261 129.054 66.8981 128.482C66.3848 127.895 65.9888 127.243 65.7101 126.524C65.4461 125.805 65.3141 125.072 65.3141 124.324V124.016C65.3141 123.268 65.4535 122.535 65.7321 121.816C66.0108 121.083 66.4141 120.43 66.9421 119.858C67.4701 119.286 68.1081 118.831 68.8561 118.494C69.6188 118.142 70.4841 117.966 71.4521 117.966C72.4348 117.966 73.3001 118.142 74.0481 118.494C74.8108 118.831 75.4561 119.286 75.9841 119.858C76.5121 120.43 76.9081 121.083 77.1721 121.816C77.4508 122.535 77.5901 123.268 77.5901 124.016V124.324C77.5901 125.072 77.4581 125.805 77.1941 126.524C76.9301 127.243 76.5341 127.895 76.0061 128.482C75.4928 129.054 74.8548 129.516 74.0921 129.868C73.3295 130.205 72.4495 130.374 71.4521 130.374ZM71.4521 128.9C72.4201 128.9 73.2341 128.687 73.8941 128.262C74.5688 127.822 75.0821 127.25 75.4341 126.546C75.7861 125.827 75.9621 125.035 75.9621 124.17C75.9621 123.29 75.7788 122.498 75.4121 121.794C75.0601 121.075 74.5468 120.511 73.8721 120.1C73.1975 119.675 72.3908 119.462 71.4521 119.462C70.5281 119.462 69.7288 119.675 69.0541 120.1C68.3795 120.511 67.8588 121.075 67.4921 121.794C67.1401 122.498 66.9641 123.29 66.9641 124.17C66.9641 125.035 67.1401 125.827 67.4921 126.546C67.8441 127.25 68.3501 127.822 69.0101 128.262C69.6848 128.687 70.4988 128.9 71.4521 128.9ZM85.7608 130.33C84.3675 130.33 83.3041 129.883 82.5708 128.988C81.8375 128.079 81.4708 126.817 81.4708 125.204V118.34H83.0988V125.534C83.0988 126.546 83.3628 127.353 83.8908 127.954C84.4335 128.541 85.1815 128.834 86.1348 128.834C87.1321 128.834 87.9241 128.519 88.5108 127.888C89.1121 127.257 89.4128 126.414 89.4128 125.358V118.34H91.0628V130H89.7428V125.138H90.0068C90.0068 126.223 89.8528 127.155 89.5448 127.932C89.2368 128.695 88.7748 129.289 88.1588 129.714C87.5428 130.125 86.7655 130.33 85.8268 130.33H85.7608ZM96.1572 130V118.362H97.4772V123.224H97.3452C97.3452 121.523 97.7192 120.269 98.4672 119.462C99.2152 118.641 100.389 118.23 101.987 118.23H102.361V119.726H101.679C100.418 119.726 99.4572 120.056 98.7972 120.716C98.1372 121.361 97.8072 122.315 97.8072 123.576V130H96.1572ZM112.099 130V113.94H113.771V130H112.099ZM113.331 122.586V121.068L120.437 121.046V122.564L113.331 122.586ZM113.331 115.436V113.94H120.855V115.436H113.331ZM125.189 130V113.874H126.861V130H125.189ZM135.155 130L129.677 122.894H131.635L137.201 130H135.155ZM126.179 123.906V122.41H130.491C131.283 122.41 131.943 122.256 132.471 121.948C132.999 121.64 133.395 121.222 133.659 120.694C133.923 120.166 134.055 119.565 134.055 118.89C134.055 118.215 133.923 117.614 133.659 117.086C133.395 116.558 132.999 116.14 132.471 115.832C131.943 115.509 131.283 115.348 130.491 115.348H126.179V113.874H130.205C131.393 113.874 132.398 114.065 133.219 114.446C134.055 114.813 134.686 115.363 135.111 116.096C135.551 116.815 135.771 117.695 135.771 118.736V119.044C135.771 120.085 135.551 120.973 135.111 121.706C134.671 122.425 134.041 122.975 133.219 123.356C132.398 123.723 131.393 123.906 130.205 123.906H126.179ZM141.073 130V113.94H142.745V130H141.073ZM142.349 130V128.482H150.379V130H142.349ZM142.349 122.586V121.09H149.631V122.586H142.349ZM142.349 115.458V113.94H150.137V115.458H142.349ZM155.108 130V113.94H156.78V130H155.108ZM156.384 130V128.482H164.414V130H156.384ZM156.384 122.586V121.09H163.666V122.586H156.384ZM156.384 115.458V113.94H164.172V115.458H156.384ZM178.359 130.33C176.863 130.33 175.711 130.007 174.905 129.362C174.098 128.702 173.687 127.822 173.673 126.722H175.213C175.242 127.279 175.491 127.785 175.961 128.24C176.445 128.695 177.244 128.922 178.359 128.922C179.4 128.922 180.177 128.709 180.691 128.284C181.219 127.844 181.483 127.316 181.483 126.7C181.483 126.128 181.263 125.688 180.823 125.38C180.397 125.057 179.774 124.852 178.953 124.764L177.633 124.632C176.577 124.515 175.719 124.192 175.059 123.664C174.413 123.121 174.091 122.381 174.091 121.442C174.091 120.753 174.267 120.151 174.619 119.638C174.971 119.125 175.462 118.729 176.093 118.45C176.738 118.157 177.493 118.01 178.359 118.01C179.605 118.01 180.617 118.303 181.395 118.89C182.187 119.477 182.59 120.313 182.605 121.398H181.065C181.05 120.841 180.815 120.371 180.361 119.99C179.906 119.609 179.239 119.418 178.359 119.418C177.449 119.418 176.767 119.616 176.313 120.012C175.873 120.408 175.653 120.892 175.653 121.464C175.653 121.948 175.821 122.351 176.159 122.674C176.496 122.982 177.024 123.173 177.743 123.246L179.063 123.378C180.236 123.51 181.189 123.847 181.923 124.39C182.671 124.933 183.045 125.71 183.045 126.722C183.045 127.411 182.847 128.035 182.451 128.592C182.069 129.135 181.527 129.56 180.823 129.868C180.119 130.176 179.297 130.33 178.359 130.33ZM192.015 130.374C191.032 130.374 190.174 130.205 189.441 129.868C188.722 129.516 188.121 129.047 187.637 128.46C187.153 127.859 186.786 127.199 186.537 126.48C186.302 125.761 186.185 125.035 186.185 124.302V123.994C186.185 123.246 186.302 122.52 186.537 121.816C186.786 121.097 187.153 120.452 187.637 119.88C188.121 119.293 188.722 118.831 189.441 118.494C190.174 118.142 191.018 117.966 191.971 117.966C192.939 117.966 193.797 118.142 194.545 118.494C195.308 118.846 195.924 119.345 196.393 119.99C196.862 120.635 197.141 121.398 197.229 122.278H195.645C195.513 121.471 195.132 120.804 194.501 120.276C193.885 119.733 193.042 119.462 191.971 119.462C191.047 119.462 190.277 119.675 189.661 120.1C189.06 120.511 188.605 121.075 188.297 121.794C187.989 122.498 187.835 123.283 187.835 124.148C187.835 124.999 187.989 125.791 188.297 126.524C188.605 127.243 189.067 127.822 189.683 128.262C190.299 128.687 191.076 128.9 192.015 128.9C192.734 128.9 193.357 128.775 193.885 128.526C194.428 128.262 194.86 127.91 195.183 127.47C195.52 127.03 195.718 126.546 195.777 126.018H197.361C197.302 126.898 197.024 127.668 196.525 128.328C196.041 128.973 195.41 129.479 194.633 129.846C193.856 130.198 192.983 130.374 192.015 130.374ZM206.38 130.374C205.383 130.374 204.503 130.205 203.74 129.868C202.992 129.516 202.354 129.054 201.826 128.482C201.313 127.895 200.917 127.243 200.638 126.524C200.374 125.805 200.242 125.072 200.242 124.324V124.016C200.242 123.268 200.382 122.535 200.66 121.816C200.939 121.083 201.342 120.43 201.87 119.858C202.398 119.286 203.036 118.831 203.784 118.494C204.547 118.142 205.412 117.966 206.38 117.966C207.363 117.966 208.228 118.142 208.976 118.494C209.739 118.831 210.384 119.286 210.912 119.858C211.44 120.43 211.836 121.083 212.1 121.816C212.379 122.535 212.518 123.268 212.518 124.016V124.324C212.518 125.072 212.386 125.805 212.122 126.524C211.858 127.243 211.462 127.895 210.934 128.482C210.421 129.054 209.783 129.516 209.02 129.868C208.258 130.205 207.378 130.374 206.38 130.374ZM206.38 128.9C207.348 128.9 208.162 128.687 208.822 128.262C209.497 127.822 210.01 127.25 210.362 126.546C210.714 125.827 210.89 125.035 210.89 124.17C210.89 123.29 210.707 122.498 210.34 121.794C209.988 121.075 209.475 120.511 208.8 120.1C208.126 119.675 207.319 119.462 206.38 119.462C205.456 119.462 204.657 119.675 203.982 120.1C203.308 120.511 202.787 121.075 202.42 121.794C202.068 122.498 201.892 123.29 201.892 124.17C201.892 125.035 202.068 125.827 202.42 126.546C202.772 127.25 203.278 127.822 203.938 128.262C204.613 128.687 205.427 128.9 206.38 128.9ZM216.663 130V118.362H217.983V123.224H217.851C217.851 121.523 218.225 120.269 218.973 119.462C219.721 118.641 220.894 118.23 222.493 118.23H222.867V119.726H222.185C220.924 119.726 219.963 120.056 219.303 120.716C218.643 121.361 218.313 122.315 218.313 123.576V130H216.663ZM231.028 130.374C230.03 130.374 229.165 130.205 228.432 129.868C227.698 129.516 227.097 129.054 226.628 128.482C226.158 127.895 225.806 127.243 225.572 126.524C225.352 125.805 225.242 125.065 225.242 124.302V123.994C225.242 123.246 225.352 122.513 225.572 121.794C225.806 121.075 226.158 120.43 226.628 119.858C227.097 119.286 227.684 118.831 228.388 118.494C229.106 118.142 229.942 117.966 230.896 117.966C232.113 117.966 233.125 118.237 233.932 118.78C234.753 119.323 235.369 120.019 235.78 120.87C236.19 121.706 236.396 122.608 236.396 123.576V124.434H225.99V123.158H235.252L234.834 123.796C234.834 122.931 234.68 122.175 234.372 121.53C234.078 120.87 233.638 120.357 233.052 119.99C232.48 119.609 231.761 119.418 230.896 119.418C229.986 119.418 229.231 119.631 228.63 120.056C228.028 120.481 227.574 121.046 227.266 121.75C226.972 122.454 226.826 123.253 226.826 124.148C226.826 125.028 226.972 125.835 227.266 126.568C227.574 127.287 228.036 127.859 228.652 128.284C229.282 128.709 230.074 128.922 231.028 128.922C232.04 128.922 232.861 128.695 233.492 128.24C234.122 127.771 234.511 127.221 234.658 126.59H236.198C236.051 127.367 235.743 128.042 235.274 128.614C234.804 129.171 234.21 129.604 233.492 129.912C232.773 130.22 231.952 130.374 231.028 130.374Z" fill="#37384F"/>
<path d="M80.6692 54.3757C70.3931 64.6341 64.2274 78.5857 64.2274 93.7682H26C26 67.9168 36.6872 44.5275 53.5401 27.7036L80.6692 54.3757Z" fill="url(#paint0_linear_1256_113)"/>
<path d="M119.718 0.210938V38.3725C104.509 38.3725 90.5333 44.5276 80.6682 54.3757L53.5391 27.7037C70.392 10.8798 93.8217 0.210938 119.718 0.210938Z" fill="url(#paint1_linear_1256_113)"/>
<path d="M185.9 27.7037L158.771 54.786C148.906 44.9379 134.93 38.3725 119.311 38.3725V0.210938C145.618 0.210938 169.047 10.8798 185.9 27.7037Z" fill="url(#paint2_linear_1256_113)"/>
<path d="M213.441 93.7683H175.213C175.213 78.5857 169.048 64.6342 158.771 54.3757L185.901 27.2933C202.754 44.5276 213.441 67.9169 213.441 93.7683Z" fill="url(#paint3_linear_1256_113)"/>
<path d="M119.716 102.385C118.894 102.385 118.072 101.565 118.072 100.744C118.072 99.9234 118.894 99.1027 119.716 99.1027C126.704 99.1027 132.459 93.358 132.459 86.3822C132.459 79.4064 126.704 73.6617 119.716 73.6617C112.729 73.6617 106.974 79.4064 106.974 86.3822C106.974 87.2029 106.152 88.0235 105.33 88.0235C104.508 88.0235 103.686 87.2029 103.686 86.3822C103.686 77.3547 111.084 69.9686 120.127 69.9686C129.17 69.9686 136.569 77.3547 136.569 86.3822C136.158 94.9993 128.759 102.385 119.716 102.385Z" fill="#588DF3"/>
<path d="M120.133 87.2026C119.722 87.2026 119.311 87.2026 118.9 86.7922C118.078 85.9716 118.078 85.1509 118.9 84.3302L158.771 40.8343C159.593 40.0136 160.416 40.0136 161.238 40.8343C162.06 41.6549 162.06 42.4756 161.238 43.2963L121.366 86.7922C120.955 86.7922 120.544 87.2026 120.133 87.2026Z" fill="#ABC5F9"/>
<ellipse cx="118.894" cy="86.7922" rx="4.11047" ry="4.10339" fill="#ABC5F9"/>
<path d="M150.543 36.3208C150.132 36.3208 149.721 36.3208 149.721 35.9104C133.69 27.2933 115.604 25.6519 97.9291 30.9864C96.696 31.3967 95.8739 30.576 95.4628 29.7553C95.0518 28.5243 95.8739 27.7036 96.696 27.2933C115.193 21.5486 134.512 23.6003 151.365 32.6277C152.187 33.0381 152.598 34.2691 152.187 35.5001C151.776 35.9104 150.954 36.3208 150.543 36.3208Z" fill="white"/>
<path d="M144.792 21.5487C144.381 21.5487 144.381 21.5487 143.969 21.5487C135.338 18.266 126.294 16.6246 116.84 17.0349C115.607 17.0349 114.785 16.2143 114.785 14.9832C114.785 13.7522 115.607 12.9315 116.84 12.9315C126.706 12.5212 136.16 14.1626 145.614 17.8556C146.847 18.266 147.258 19.497 146.847 20.3176C146.436 21.1383 145.614 21.5487 144.792 21.5487Z" fill="white"/>
<defs>
<linearGradient id="paint0_linear_1256_113" x1="14.2001" y1="74.1305" x2="58.3086" y2="104.283" gradientUnits="userSpaceOnUse">
<stop stop-color="#ABC5F9"/>
<stop stop-color="#FF3547"/>
<stop offset="1" stop-color="#FF6B68"/>
</linearGradient>
<linearGradient id="paint1_linear_1256_113" x1="46.4733" y1="29.4378" x2="92.0795" y2="82.9558" gradientUnits="userSpaceOnUse">
<stop stop-color="#A300DF"/>
<stop offset="1" stop-color="#8300DF"/>
</linearGradient>
<linearGradient id="paint2_linear_1256_113" x1="129.542" y1="3.55222" x2="119.321" y2="45.3646" gradientUnits="userSpaceOnUse">
<stop stop-color="#FCB702"/>
<stop offset="0.8655" stop-color="#FDD701"/>
</linearGradient>
<linearGradient id="paint3_linear_1256_113" x1="158.982" y1="93.7684" x2="213.386" y2="93.7684" gradientUnits="userSpaceOnUse">
<stop stop-color="#189190"/>
<stop offset="1" stop-color="#00C4C2"/>
</linearGradient>
</defs>
</svg>
