<svg width="59" height="151" viewBox="0 0 59 151" fill="none" xmlns="http://www.w3.org/2000/svg">
<path fill-rule="evenodd" clip-rule="evenodd" d="M39.3954 51.0443V34.5523C39.3954 26.5984 45.8894 20.1353 53.8776 20.1353H59V0.445312H53.8776C34.9829 0.445312 19.6081 15.7437 19.6081 34.5523V51.0443C19.6081 58.9982 13.1141 65.4613 5.12586 65.4613H0V85.1513H5.12586C5.13353 85.1513 5.14189 85.1506 5.14957 85.1506C13.1267 85.1638 19.6109 91.6242 19.6109 99.5662V116.062C19.6109 134.871 34.9822 150.169 53.8769 150.169H58.9993V130.479H53.8769C45.8887 130.479 39.3947 124.016 39.3947 116.062V99.5662C39.3947 90.0821 35.4766 81.4974 29.1799 75.3105C35.4814 69.1222 39.3954 60.5312 39.3954 51.0443Z" fill="#2970F1"/>
</svg>
