<?xml version="1.0" encoding="utf-8"?>
<!-- Generator: Adobe Illustrator 25.4.1, SVG Export Plug-In . SVG Version: 6.00 Build 0)  -->
<svg version="1.1" id="Layer_1" xmlns="http://www.w3.org/2000/svg" xmlns:xlink="http://www.w3.org/1999/xlink" x="0px" y="0px"
	 viewBox="0 0 109 85" style="enable-background:new 0 0 109 85;" xml:space="preserve">
<style type="text/css">
	.st0{fill:#EBF1FD;}
	.st1{fill:#37384F;}
	.st2{fill:url(#SVGID_1_);}
	.st3{fill:#FFFFFF;}
	.st4{fill:url(#SVGID_00000062156176123621321920000007952652327246051253_);}
	.st5{fill:url(#SVGID_00000086663390485841633100000012475926118803413123_);}
	.st6{fill:url(#SVGID_00000044145300977271968310000016344579411139806849_);}
	.st7{fill:url(#SVGID_00000050634535849179447930000013310373039984247436_);}
	.st8{fill:url(#SVGID_00000078028833477767903730000012175398896341317775_);}
	.st9{fill:url(#SVGID_00000011012547541776204240000013867188065159620750_);}
	.st10{fill:url(#SVGID_00000163057429310385074490000009701087181978469045_);}
	.st11{fill:url(#SVGID_00000020357623248124257160000005267953863941288088_);}
	.st12{fill:url(#SVGID_00000158019950427713192370000002873344983817142661_);}
	.st13{fill:#DDE7FC;}
	.st14{fill:url(#SVGID_00000039815229448353185080000008394706611589426092_);}
	.st15{fill:url(#SVGID_00000160901646369577730190000002249959765479586451_);}
	.st16{fill:#2870EF;}
	.st17{fill:none;stroke:url(#SVGID_00000149380401071247525650000012744518858307937686_);stroke-width:0.5;stroke-miterlimit:10;}
	.st18{fill:url(#SVGID_00000077314924097751024940000014894389288520031128_);}
	.st19{fill:url(#SVGID_00000000908801014927603950000010547655686524471719_);}
	.st20{fill:url(#SVGID_00000158025571157778602000000012754266737091508098_);}
	.st21{fill:url(#SVGID_00000106122076161392733120000006176706352426507929_);}
	.st22{fill:#588DF3;}
	.st23{fill:#ABC5F9;}
	.st24{fill:none;stroke:#EBF1FD;stroke-linecap:round;stroke-linejoin:round;stroke-miterlimit:10;}
	.st25{fill:url(#SVGID_00000097501576426145123350000014289220864603377071_);}
	.st26{fill:url(#SVGID_00000087399808078436230110000007826012171880327326_);}
	.st27{opacity:0.71;}
	.st28{fill:url(#SVGID_00000070829729150423398910000006857454982852236936_);}
	.st29{fill:url(#SVGID_00000043451087558273501680000006675346302754879374_);}
	.st30{fill:url(#SVGID_00000021119349502453923010000002592051850360302510_);}
	.st31{fill:url(#SVGID_00000173127829858115772880000006194498687488713653_);}
	.st32{fill:url(#SVGID_00000042015787833864611570000010512425890664545212_);}
	.st33{fill:url(#SVGID_00000062871697000162291540000007054613576955883924_);}
	.st34{fill:#2A70F2;}
	.st35{fill:#373851;}
	.st36{fill:#14C1C1;}
	.st37{fill:url(#SVGID_00000050638881843114516540000000538735702313472136_);}
	.st38{fill:url(#SVGID_00000149373121538121550870000009623944699094938787_);}
	.st39{fill:url(#SVGID_00000005980760440195079380000003448135262914000553_);}
	.st40{fill:url(#SVGID_00000020357011804765091140000002029033614258343087_);}
	.st41{fill:url(#SVGID_00000117676895618946992180000014427501032882589830_);}
	.st42{fill:url(#SVGID_00000124861305654731991900000006084358098827767727_);}
	.st43{fill:url(#SVGID_00000013160031527131635800000002717913385779799967_);}
	.st44{fill:url(#SVGID_00000081638512465692554580000017833761481324208570_);}
	.st45{fill:url(#SVGID_00000166642045858202391420000017423399865032803242_);}
	.st46{fill:url(#SVGID_00000054960288676052217300000000424526551283996859_);}
	.st47{fill:url(#SVGID_00000146463837902661214000000002857986463278732938_);}
	.st48{fill:url(#SVGID_00000046315465899036591850000000956185964618931074_);}
	.st49{fill:url(#SVGID_00000010994595041500354700000016190056647399971490_);}
	.st50{fill:url(#SVGID_00000014614132622416164630000007261669417362544783_);}
	.st51{fill:url(#SVGID_00000064319631570326128430000010498179532428359064_);}
	.st52{fill:url(#SVGID_00000088811909188677746590000005664522543396616101_);}
	.st53{fill:url(#SVGID_00000153666182875736813870000002200743604231639481_);}
	.st54{fill:url(#SVGID_00000065778448509139228410000003290218973617141420_);}
	.st55{fill:url(#SVGID_00000035509660033747163540000008690923325501007801_);}
	
		.st56{clip-path:url(#SVGID_00000120519558123259416630000008260895683195082373_);fill:url(#SVGID_00000098221254764800533900000001449413727126215297_);}
	.st57{clip-path:url(#SVGID_00000120519558123259416630000008260895683195082373_);}
	.st58{clip-path:url(#SVGID_00000120519558123259416630000008260895683195082373_);fill:#FFFFFF;stroke:#FFFFFF;}
	
		.st59{clip-path:url(#SVGID_00000120519558123259416630000008260895683195082373_);fill:url(#SVGID_00000136412630276606594760000011351919895403368372_);}
	
		.st60{clip-path:url(#SVGID_00000120519558123259416630000008260895683195082373_);fill:url(#SVGID_00000140699808878062412080000000128214447237245347_);}
	
		.st61{clip-path:url(#SVGID_00000120519558123259416630000008260895683195082373_);fill:url(#SVGID_00000047028289400893961440000011537523001416465070_);}
	
		.st62{clip-path:url(#SVGID_00000120519558123259416630000008260895683195082373_);fill:url(#SVGID_00000087372155002117327580000004185196736706341046_);}
	
		.st63{clip-path:url(#SVGID_00000120519558123259416630000008260895683195082373_);fill:none;stroke:#EBF1FD;stroke-linecap:round;stroke-linejoin:round;stroke-miterlimit:10;}
	.st64{fill:url(#SVGID_00000065057590660721978860000006929051583063948460_);}
	.st65{fill:url(#SVGID_00000048480962660690544780000014941154509405880992_);}
	.st66{fill:url(#SVGID_00000113336918386274238560000016178762017854994829_);}
	.st67{fill:url(#SVGID_00000176758785479919604200000005943496507370676132_);}
	.st68{fill:url(#SVGID_00000058582140892972672430000013555446640325786501_);}
	.st69{fill:url(#SVGID_00000111155076339759569980000010046899504245258633_);}
	.st70{fill:url(#SVGID_00000027589366964648331720000000842124038212623246_);}
	.st71{fill:url(#SVGID_00000126302737815778600980000012591468400470975678_);}
	.st72{fill:url(#SVGID_00000052816504351092851130000002169102951770559646_);}
	.st73{fill:url(#SVGID_00000083052364464174843500000015206560847644170891_);}
	.st74{fill:url(#SVGID_00000091729427545562643190000000971810924665901218_);}
	.st75{fill:#FDBD2C;}
	.st76{fill:#13C1C2;}
	.st77{fill:#2970F1;}
	.st78{fill:#42CF5A;}
	.st79{fill:#EE4A4E;}
	.st80{fill:#F77643;}
</style>
<path class="st0" d="M99.37,47.61c-0.7-6.89-5.59-12.99-12.91-16.06l-1-0.42l3.52-6.41h-6.63c0.23-0.84,0.34-1.71,0.34-2.62v-1.81
	c4.48-0.87,7.41-2.32,7.41-3.96c0-1.73-3.24-3.25-8.13-4.12L77.83,0.58l-5.14,1.24l-5.14-1.24L63.4,12.21
	c-4.89,0.86-8.13,2.38-8.13,4.12c0,1.65,2.93,3.09,7.41,3.96v1.81c0,0.9,0.12,1.78,0.34,2.62h-6.64l3.52,6.41l-0.99,0.42
	c-7.31,3.07-12.21,9.17-12.91,16.06l-3.53,34.72h60.41L99.37,47.61z"/>
<path class="st1" d="M52.83,21.22c-0.48,0.5-1.16,0.81-1.92,0.81c-1.48,0-2.68-1.21-2.68-2.69c0-0.08,0-0.16,0.01-0.23L52.83,21.22z
	"/>
<path class="st1" d="M61.4,19.34c0,1.48-1.2,2.69-2.69,2.69c-0.75,0-1.43-0.31-1.92-0.81l4.6-2.11C61.4,19.18,61.4,19.26,61.4,19.34
	z"/>
<linearGradient id="SVGID_1_" gradientUnits="userSpaceOnUse" x1="54.81" y1="76.07" x2="54.81" y2="0.19">
	<stop  offset="0" style="stop-color:#ABC5F9"/>
	<stop  offset="0.5026" style="stop-color:#37384F"/>
	<stop  offset="0.9204" style="stop-color:#373989"/>
</linearGradient>
<path class="st2" d="M79.58,43.84c-0.65-6.4-5.19-12.06-11.98-14.91l-0.93-0.39l3.27-5.95h-6.15c0.21-0.78,0.32-1.59,0.32-2.43
	v-1.68c4.16-0.81,6.88-2.15,6.88-3.68c0-1.61-3.01-3.02-7.55-3.82L59.58,0.19l-4.77,1.15l-4.77-1.15l-3.85,10.79
	c-4.54,0.8-7.55,2.21-7.55,3.82c0,1.53,2.72,2.87,6.88,3.68v1.68c0,0.84,0.11,1.65,0.32,2.43h-6.16l3.27,5.95l-0.92,0.39
	c-6.79,2.85-11.33,8.51-11.98,14.91l-3.28,32.23h56.08L79.58,43.84z"/>
<path class="st3" d="M61.39,19.11c0.01,0.07,0.01,0.15,0.01,0.23c0,1.48-1.2,2.69-2.69,2.69c-0.75,0-1.43-0.31-1.92-0.81
	L61.39,19.11z"/>
<path class="st3" d="M50.91,22.03c-1.48,0-2.68-1.21-2.68-2.69c0-0.08,0-0.16,0.01-0.23l4.59,2.11
	C52.35,21.72,51.67,22.03,50.91,22.03z"/>
<linearGradient id="SVGID_00000123413521094610405120000007836517104011106185_" gradientUnits="userSpaceOnUse" x1="9.1836" y1="76.0711" x2="9.1836" y2="51.5844">
	<stop  offset="0" style="stop-color:#189190"/>
	<stop  offset="1" style="stop-color:#00C4C2"/>
</linearGradient>
<path style="fill:url(#SVGID_00000123413521094610405120000007836517104011106185_);" d="M13.43,62.03
	c1.95,4.62,2.16,9.55,0.91,14.04c-4.08-2.24-7.47-5.83-9.42-10.45s-2.16-9.55-0.91-14.03C8.1,53.83,11.48,57.41,13.43,62.03z"/>
<linearGradient id="SVGID_00000025420981969170143090000014678446583721686685_" gradientUnits="userSpaceOnUse" x1="18.6291" y1="76.0711" x2="18.6291" y2="51.4553">
	<stop  offset="0" style="stop-color:#189190"/>
	<stop  offset="1" style="stop-color:#00C4C2"/>
</linearGradient>
<path style="fill:url(#SVGID_00000025420981969170143090000014678446583721686685_);" d="M22.9,65.5
	c-1.89,4.65-5.23,8.28-9.28,10.57c-1.3-4.47-1.16-9.4,0.73-14.05c1.89-4.65,5.23-8.27,9.28-10.57C24.94,55.93,24.79,60.85,22.9,65.5
	z"/>
<linearGradient id="SVGID_00000000943160176285008890000004257637760744742044_" gradientUnits="userSpaceOnUse" x1="13.9064" y1="76.0711" x2="13.9064" y2="49.4965">
	<stop  offset="0" style="stop-color:#0C4948"/>
	<stop  offset="1" style="stop-color:#00C4C2"/>
</linearGradient>
<path style="fill:url(#SVGID_00000000943160176285008890000004257637760744742044_);" d="M18.52,62.78c0,5.02-1.72,9.64-4.61,13.29
	c-2.89-3.65-4.61-8.27-4.61-13.29s1.72-9.63,4.61-13.29C16.8,53.15,18.52,57.76,18.52,62.78z"/>
<linearGradient id="SVGID_00000107546706373979491480000003052941025351157160_" gradientUnits="userSpaceOnUse" x1="13.6765" y1="82.3248" x2="13.6765" y2="65.8655">
	<stop  offset="0" style="stop-color:#BF8B00"/>
	<stop  offset="1" style="stop-color:#FFB900"/>
</linearGradient>
<path style="fill:url(#SVGID_00000107546706373979491480000003052941025351157160_);" d="M25.22,72.71c0,4.01-2.05,7.55-5.15,9.62
	H7.28c-3.11-2.07-5.15-5.6-5.15-9.62c0-2.56,0.83-4.93,2.25-6.84h18.6C24.39,67.78,25.22,70.15,25.22,72.71z"/>
<linearGradient id="SVGID_00000065782009393981556520000000028970008776640954_" gradientUnits="userSpaceOnUse" x1="19.6441" y1="79.8259" x2="90.9822" y2="79.8259">
	<stop  offset="0" style="stop-color:#ABC5F9"/>
	<stop  offset="0.7163" style="stop-color:#CFD6FF"/>
	<stop  offset="1" style="stop-color:#8FAFFB"/>
</linearGradient>
<path style="fill:url(#SVGID_00000065782009393981556520000000028970008776640954_);" d="M19.64,77.31v1.92
	c0,1.72,1.39,3.11,3.11,3.11h65.13c1.72,0,3.11-1.39,3.11-3.11v-1.92H19.64z"/>
<linearGradient id="SVGID_00000137113323792469158380000012116371782190669979_" gradientUnits="userSpaceOnUse" x1="55.3131" y1="77.3118" x2="55.3131" y2="34.9876">
	<stop  offset="0" style="stop-color:#2661F5"/>
	<stop  offset="1" style="stop-color:#588DF3"/>
</linearGradient>
<path style="fill:url(#SVGID_00000137113323792469158380000012116371782190669979_);" d="M86,34.99H24.63
	c-1.3,0-2.35,1.05-2.35,2.35v39.97h66.07V37.34C88.35,36.04,87.29,34.99,86,34.99z"/>
<linearGradient id="SVGID_00000041277469573421069190000014522655806904413076_" gradientUnits="userSpaceOnUse" x1="55.3131" y1="75.6074" x2="55.3131" y2="36.7624">
	<stop  offset="0" style="stop-color:#0C4948"/>
	<stop  offset="0" style="stop-color:#FFFFFF"/>
	<stop  offset="1" style="stop-color:#87B4FF"/>
</linearGradient>
<path style="fill:url(#SVGID_00000041277469573421069190000014522655806904413076_);" d="M85.02,36.76H25.61
	c-0.62,0-1.13,0.5-1.13,1.13v36.59c0,0.62,0.5,1.13,1.13,1.13h59.42c0.62,0,1.13-0.5,1.13-1.13V37.89
	C86.15,37.27,85.64,36.76,85.02,36.76z"/>
<linearGradient id="SVGID_00000118359904377710502170000005224165242155346318_" gradientUnits="userSpaceOnUse" x1="49.8432" y1="78.6353" x2="60.7831" y2="78.6353">
	<stop  offset="0" style="stop-color:#2661F5"/>
	<stop  offset="1" style="stop-color:#588DF3"/>
</linearGradient>
<path style="fill:url(#SVGID_00000118359904377710502170000005224165242155346318_);" d="M58.14,79.96h-5.65
	c-1.46,0-2.65-1.19-2.65-2.65l0,0h10.94l0,0C60.78,78.77,59.6,79.96,58.14,79.96z"/>
<linearGradient id="SVGID_00000093159853936719516580000009897107958695156127_" gradientUnits="userSpaceOnUse" x1="100.1889" y1="82.5809" x2="100.1889" y2="66.6563">
	<stop  offset="0" style="stop-color:#ABC5F9"/>
	<stop  offset="0" style="stop-color:#FF3547"/>
	<stop  offset="1" style="stop-color:#FF6B68"/>
</linearGradient>
<path style="fill:url(#SVGID_00000093159853936719516580000009897107958695156127_);" d="M108.11,74.62c0-2.17-1.76-3.93-3.93-3.94
	v-2.74c0-0.71-0.57-1.28-1.28-1.28h-9.36c-0.71,0-1.28,0.57-1.28,1.28V81.3c0,0.71,0.57,1.28,1.28,1.28h9.36
	c0.71,0,1.28-0.57,1.28-1.28v-2.74C106.35,78.55,108.11,76.79,108.11,74.62z M104.18,76.67v-4.11c1.12,0.01,2.04,0.93,2.04,2.05
	C106.22,75.75,105.31,76.66,104.18,76.67z"/>
<path class="st13" d="M107.6,82.32H2.45c-0.49,0-0.89,0.4-0.89,0.89c0,0.49,0.4,0.89,0.89,0.89H107.6c0.49,0,0.89-0.4,0.89-0.89
	C108.49,82.72,108.09,82.32,107.6,82.32z"/>
<g>
	
		<linearGradient id="SVGID_00000173148164149485344180000003746835394089067904_" gradientUnits="userSpaceOnUse" x1="55.2387" y1="36.7624" x2="55.2387" y2="75.6074">
		<stop  offset="0" style="stop-color:#0C4948"/>
		<stop  offset="0" style="stop-color:#FFFFFF"/>
		<stop  offset="1" style="stop-color:#87B4FF"/>
	</linearGradient>
	<path style="fill:url(#SVGID_00000173148164149485344180000003746835394089067904_);" d="M85.02,37.51c0.21,0,0.38,0.17,0.38,0.38
		v36.59c0,0.21-0.17,0.38-0.38,0.38H25.46c-0.21,0-0.38-0.17-0.38-0.38V37.89c0-0.21,0.17-0.38,0.38-0.38H85.02 M85.02,36.76H25.46
		c-0.62,0-1.13,0.5-1.13,1.13v36.59c0,0.62,0.51,1.13,1.13,1.13h59.56c0.62,0,1.13-0.5,1.13-1.13V37.89
		C86.15,37.27,85.64,36.76,85.02,36.76L85.02,36.76z"/>
</g>
<linearGradient id="SVGID_00000121278861704048984720000004598375102374956946_" gradientUnits="userSpaceOnUse" x1="31.374" y1="41.3839" x2="31.374" y2="32.4847">
	<stop  offset="0.0179" style="stop-color:#323887"/>
	<stop  offset="1" style="stop-color:#5D619D"/>
</linearGradient>
<path style="fill:url(#SVGID_00000121278861704048984720000004598375102374956946_);" d="M35.31,32.48c-0.65,0-1.2,0.39-1.45,0.94
	c-0.25-0.55-0.8-0.94-1.45-0.94s-1.2,0.39-1.45,0.94c-0.25-0.55-0.8-0.94-1.45-0.94c-0.57,0-1.07,0.3-1.35,0.75
	c-0.22-0.11-0.47-0.19-0.73-0.19c-0.88,0-1.59,0.71-1.59,1.59v1.71c0,0.88,0.71,1.59,1.59,1.59c0.17,0,0.33-0.03,0.49-0.08v0.92
	c0,0.88,0.71,1.59,1.59,1.59c0.54,0,1.02-0.27,1.3-0.68v0.09c0,0.88,0.71,1.59,1.59,1.59s1.59-0.71,1.59-1.59V39.7
	c0.29,0.41,0.76,0.68,1.3,0.68c0.88,0,1.59-0.71,1.59-1.59v-4.71C36.9,33.2,36.19,32.48,35.31,32.48z"/>
<g>
	<g>
		<g>
			<path class="st16" d="M82.67,42.13c-0.05,0-0.1,0-0.15,0.01l-0.16-0.08c-0.2-0.11-0.33-0.32-0.33-0.55v-0.79
				c0-0.93-0.76-1.69-1.69-1.69h-0.3v1.06h0.3c0.35,0,0.63,0.28,0.63,0.63v0.79c0,0.42,0.16,0.82,0.44,1.13l0.03,0.03
				c-0.29,0.3-0.47,0.71-0.47,1.16v0.79c0,0.35-0.28,0.63-0.63,0.63h-0.3v1.06h0.3c0.93,0,1.69-0.76,1.69-1.69v-0.79
				c0-0.35,0.28-0.63,0.63-0.63h0.3v-1.06H82.67z"/>
			<path class="st16" d="M72.71,40.71l0,0.79c0,0.35-0.28,0.63-0.63,0.63h-0.3v1.06h0.09h0.21c0.05,0,0.1,0,0.15-0.01l0.15,0.08
				c0.2,0.11,0.33,0.32,0.33,0.56v0.79c0,0.93,0.76,1.69,1.69,1.69h0.3v-1.06h-0.3c-0.35,0-0.63-0.28-0.63-0.63v-0.79
				c0-0.42-0.16-0.82-0.44-1.13l-0.03-0.03c0.29-0.3,0.46-0.71,0.46-1.16v-0.79c0-0.35,0.28-0.63,0.63-0.63h0.3v-1.06h-0.3
				C73.47,39.02,72.71,39.78,72.71,40.71z"/>
		</g>
		<g>
			<path class="st3" d="M76.07,41.28c0.2,0,0.37,0.03,0.51,0.1c0.14,0.06,0.26,0.15,0.36,0.27c0.09,0.12,0.16,0.25,0.21,0.4
				c0.04,0.15,0.07,0.32,0.07,0.5v0.14c0,0.45-0.11,0.78-0.34,1c-0.23,0.22-0.57,0.33-1.02,0.33c-0.09,0-0.18,0-0.28-0.01
				c-0.09,0-0.18-0.01-0.26-0.02v-0.57c0.08,0.01,0.17,0.01,0.27,0.02c0.1,0.01,0.2,0.01,0.29,0.01c0.19,0,0.33-0.03,0.44-0.09
				c0.11-0.06,0.18-0.15,0.22-0.26c0.04-0.12,0.06-0.27,0.06-0.45v-0.31l0.15-0.01c0,0.18-0.04,0.33-0.11,0.45
				c-0.07,0.12-0.17,0.21-0.3,0.27c-0.13,0.06-0.27,0.09-0.44,0.09c-0.19,0-0.35-0.04-0.48-0.11c-0.14-0.07-0.24-0.18-0.32-0.31
				c-0.07-0.13-0.11-0.29-0.11-0.48c0-0.2,0.05-0.37,0.14-0.52c0.09-0.15,0.22-0.26,0.39-0.34C75.66,41.32,75.85,41.28,76.07,41.28z
				 M76.09,41.84c-0.1,0-0.18,0.02-0.25,0.05c-0.07,0.03-0.12,0.08-0.16,0.14c-0.04,0.06-0.06,0.13-0.06,0.21
				c0,0.08,0.02,0.15,0.05,0.21c0.04,0.06,0.09,0.11,0.16,0.14c0.07,0.03,0.15,0.05,0.24,0.05c0.08,0,0.16-0.01,0.24-0.04
				c0.07-0.03,0.13-0.07,0.17-0.13c0.04-0.06,0.07-0.13,0.07-0.23c0-0.08-0.02-0.15-0.05-0.21c-0.04-0.06-0.09-0.11-0.16-0.14
				C76.27,41.86,76.19,41.84,76.09,41.84z"/>
			<path class="st3" d="M77.48,43.54v-0.69l0.97-1.57l0.53,0.34l-0.8,1.31l0.05,0.08h1.54v0.54H77.48z M78.87,44.01v-1.92h0.62v1.92
				H78.87z"/>
		</g>
	</g>
	<g>
		<path class="st16" d="M74.5,48.19c-0.1,0-0.19-0.01-0.26-0.04c-0.07-0.03-0.13-0.07-0.16-0.12c-0.04-0.05-0.06-0.11-0.06-0.17
			h0.25c0,0.03,0.01,0.05,0.02,0.07c0.02,0.02,0.04,0.04,0.07,0.05C74.4,48,74.45,48,74.5,48c0.05,0,0.09-0.01,0.12-0.02
			c0.03-0.01,0.06-0.03,0.07-0.05c0.02-0.02,0.02-0.04,0.02-0.07c0-0.03-0.02-0.06-0.05-0.08c-0.03-0.02-0.08-0.03-0.15-0.04
			l-0.09-0.01c-0.11-0.01-0.21-0.04-0.27-0.09c-0.07-0.05-0.1-0.13-0.1-0.21c0-0.06,0.02-0.12,0.05-0.17
			c0.04-0.05,0.08-0.08,0.15-0.11c0.06-0.03,0.14-0.04,0.22-0.04c0.09,0,0.17,0.01,0.23,0.04c0.06,0.03,0.11,0.07,0.15,0.11
			c0.03,0.05,0.05,0.11,0.05,0.17h-0.25c0-0.02-0.01-0.05-0.02-0.07c-0.01-0.02-0.03-0.04-0.06-0.05c-0.03-0.01-0.06-0.02-0.1-0.02
			c-0.04,0-0.07,0.01-0.1,0.02c-0.03,0.01-0.04,0.03-0.06,0.04c-0.01,0.02-0.02,0.04-0.02,0.06c0,0.03,0.01,0.05,0.03,0.07
			c0.02,0.02,0.06,0.03,0.11,0.04l0.09,0.01c0.08,0.01,0.16,0.02,0.22,0.05c0.06,0.03,0.11,0.06,0.15,0.1
			c0.04,0.04,0.05,0.1,0.05,0.16c0,0.06-0.02,0.12-0.06,0.17c-0.04,0.05-0.09,0.09-0.16,0.11S74.6,48.19,74.5,48.19z"/>
		<path class="st16" d="M75.53,48.19c-0.07,0-0.14-0.01-0.19-0.03c-0.06-0.02-0.1-0.05-0.14-0.09c-0.04-0.04-0.07-0.08-0.08-0.13
			c-0.02-0.05-0.03-0.09-0.03-0.14v-0.03c0-0.05,0.01-0.1,0.03-0.15c0.02-0.05,0.05-0.09,0.08-0.12c0.04-0.04,0.08-0.07,0.14-0.09
			c0.05-0.02,0.12-0.03,0.19-0.03c0.09,0,0.17,0.02,0.23,0.05c0.06,0.04,0.11,0.08,0.15,0.14c0.03,0.06,0.05,0.12,0.05,0.19v0.07
			h-0.76v-0.13h0.61l-0.08,0.06c0-0.04-0.01-0.08-0.02-0.12c-0.01-0.03-0.04-0.06-0.07-0.07c-0.03-0.02-0.06-0.03-0.11-0.03
			c-0.04,0-0.08,0.01-0.11,0.03c-0.03,0.02-0.05,0.04-0.07,0.08c-0.02,0.03-0.02,0.07-0.02,0.12c0,0.04,0.01,0.08,0.02,0.12
			s0.04,0.06,0.07,0.08c0.03,0.02,0.07,0.03,0.12,0.03c0.05,0,0.08-0.01,0.11-0.02c0.03-0.02,0.05-0.03,0.06-0.06h0.23
			c-0.01,0.05-0.04,0.1-0.07,0.13c-0.04,0.04-0.08,0.07-0.14,0.09C75.67,48.18,75.6,48.19,75.53,48.19z"/>
		<path class="st16" d="M76.51,48.19c-0.07,0-0.14-0.01-0.19-0.03c-0.06-0.02-0.1-0.05-0.14-0.09c-0.04-0.04-0.06-0.08-0.08-0.12
			c-0.02-0.05-0.03-0.09-0.03-0.14v-0.03c0-0.05,0.01-0.1,0.03-0.15c0.02-0.05,0.05-0.09,0.08-0.13c0.04-0.04,0.08-0.07,0.14-0.09
			c0.05-0.02,0.12-0.03,0.19-0.03c0.08,0,0.15,0.01,0.21,0.04c0.06,0.03,0.11,0.06,0.14,0.11c0.04,0.05,0.06,0.1,0.06,0.16h-0.25
			c0-0.03-0.02-0.06-0.05-0.09c-0.03-0.02-0.07-0.04-0.12-0.04c-0.04,0-0.08,0.01-0.1,0.03c-0.03,0.02-0.05,0.04-0.06,0.08
			c-0.01,0.03-0.02,0.07-0.02,0.11c0,0.04,0.01,0.08,0.02,0.11c0.01,0.03,0.03,0.06,0.06,0.08C76.42,48,76.46,48,76.51,48
			c0.03,0,0.06-0.01,0.09-0.02c0.02-0.01,0.04-0.03,0.06-0.04s0.02-0.04,0.03-0.07h0.25c0,0.06-0.02,0.12-0.06,0.16
			c-0.04,0.05-0.09,0.08-0.15,0.11C76.65,48.18,76.58,48.19,76.51,48.19z"/>
		<path class="st16" d="M77.37,48.19c-0.1,0-0.18-0.03-0.23-0.08c-0.05-0.06-0.08-0.14-0.08-0.26v-0.44h0.25v0.45
			c0,0.04,0.01,0.07,0.04,0.1c0.03,0.02,0.06,0.04,0.11,0.04c0.05,0,0.08-0.01,0.11-0.04c0.03-0.02,0.04-0.06,0.04-0.1v-0.44h0.25
			v0.75h-0.2v-0.32h0.02c0,0.08-0.01,0.14-0.03,0.19c-0.02,0.05-0.06,0.09-0.1,0.11c-0.04,0.02-0.1,0.04-0.16,0.04H77.37z"/>
		<path class="st16" d="M78.1,48.17v-0.75h0.2v0.32h0c0-0.11,0.03-0.19,0.08-0.25c0.05-0.06,0.13-0.09,0.23-0.09h0.03v0.19h-0.06
			c-0.07,0-0.12,0.02-0.16,0.05c-0.04,0.03-0.06,0.08-0.06,0.14v0.38H78.1z"/>
		<path class="st16" d="M78.68,47.58v-0.16h0.37v0.16H78.68z M78.9,47.34c-0.05,0-0.08-0.01-0.1-0.03s-0.03-0.05-0.03-0.08
			c0-0.03,0.01-0.06,0.03-0.08s0.06-0.03,0.1-0.03s0.08,0.01,0.1,0.03c0.02,0.02,0.03,0.05,0.03,0.08c0,0.03-0.01,0.06-0.03,0.08
			C78.98,47.33,78.94,47.34,78.9,47.34z M78.8,48.17v-0.75h0.25v0.75H78.8z"/>
		<path class="st16" d="M79.18,47.57v-0.16h0.62v0.16H79.18z M79.68,48.18c-0.09,0-0.16-0.01-0.21-0.03
			c-0.05-0.02-0.09-0.05-0.12-0.09c-0.02-0.04-0.04-0.1-0.04-0.18v-0.66h0.23v0.67c0,0.04,0.01,0.06,0.03,0.08
			c0.02,0.02,0.05,0.03,0.09,0.03h0.13v0.19H79.68z"/>
		<path class="st16" d="M80.13,48.15l-0.26-0.74h0.25l0.25,0.74H80.13z M79.96,48.47v-0.19h0.18c0.03,0,0.05,0,0.07-0.01
			c0.02-0.01,0.03-0.02,0.05-0.03s0.02-0.03,0.03-0.06l0.21-0.77h0.24l-0.24,0.82c-0.02,0.06-0.04,0.11-0.07,0.14
			c-0.03,0.03-0.07,0.06-0.12,0.07c-0.05,0.02-0.11,0.02-0.19,0.02H79.96z M80.23,48.15v-0.17h0.18v0.17H80.23z"/>
		<path class="st16" d="M75.53,49.57c-0.1,0-0.19-0.01-0.26-0.04c-0.07-0.03-0.13-0.07-0.16-0.12c-0.04-0.05-0.06-0.11-0.06-0.17
			h0.25c0,0.03,0.01,0.05,0.02,0.07s0.04,0.04,0.07,0.05c0.03,0.01,0.08,0.02,0.13,0.02c0.05,0,0.09-0.01,0.12-0.02
			c0.03-0.01,0.06-0.03,0.07-0.05c0.02-0.02,0.03-0.04,0.03-0.07c0-0.03-0.02-0.06-0.05-0.08c-0.03-0.02-0.08-0.03-0.15-0.04
			l-0.09-0.01c-0.11-0.01-0.21-0.04-0.27-0.09c-0.07-0.05-0.1-0.13-0.1-0.21c0-0.06,0.02-0.12,0.05-0.17
			c0.03-0.05,0.08-0.08,0.15-0.11c0.06-0.03,0.14-0.04,0.22-0.04c0.09,0,0.17,0.01,0.23,0.04c0.06,0.03,0.11,0.07,0.15,0.11
			c0.03,0.05,0.05,0.11,0.05,0.17h-0.25c0-0.02-0.01-0.05-0.02-0.07c-0.01-0.02-0.03-0.04-0.06-0.05c-0.03-0.01-0.06-0.02-0.1-0.02
			c-0.04,0-0.07,0.01-0.09,0.02c-0.03,0.01-0.04,0.03-0.06,0.04s-0.02,0.04-0.02,0.06c0,0.03,0.01,0.05,0.03,0.07
			c0.02,0.02,0.06,0.03,0.11,0.04l0.09,0.01c0.08,0.01,0.16,0.02,0.22,0.05c0.06,0.03,0.11,0.06,0.15,0.1
			c0.04,0.04,0.05,0.1,0.05,0.16c0,0.06-0.02,0.12-0.06,0.17c-0.04,0.05-0.09,0.09-0.16,0.11S75.63,49.57,75.53,49.57z"/>
		<path class="st16" d="M76.55,49.57c-0.07,0-0.14-0.01-0.19-0.03c-0.05-0.02-0.1-0.05-0.14-0.09c-0.04-0.04-0.06-0.08-0.08-0.12
			c-0.02-0.05-0.03-0.09-0.03-0.14v-0.03c0-0.05,0.01-0.1,0.03-0.15c0.02-0.05,0.05-0.09,0.08-0.13c0.04-0.04,0.08-0.07,0.14-0.09
			c0.06-0.02,0.12-0.03,0.19-0.03c0.08,0,0.15,0.01,0.21,0.04c0.06,0.03,0.11,0.06,0.14,0.11c0.04,0.05,0.06,0.1,0.06,0.16h-0.25
			c0-0.03-0.02-0.06-0.05-0.09c-0.03-0.02-0.07-0.04-0.12-0.04c-0.04,0-0.08,0.01-0.1,0.03c-0.03,0.02-0.05,0.04-0.06,0.08
			c-0.01,0.03-0.02,0.07-0.02,0.11c0,0.04,0.01,0.08,0.02,0.11c0.01,0.03,0.03,0.06,0.06,0.08c0.03,0.02,0.06,0.03,0.11,0.03
			c0.03,0,0.06-0.01,0.09-0.02c0.02-0.01,0.04-0.03,0.06-0.04c0.01-0.02,0.02-0.04,0.03-0.07h0.25c0,0.06-0.02,0.12-0.06,0.16
			c-0.04,0.05-0.09,0.08-0.15,0.11C76.7,49.56,76.63,49.57,76.55,49.57z"/>
		<path class="st16" d="M77.55,49.57c-0.08,0-0.14-0.01-0.2-0.03s-0.11-0.05-0.15-0.08c-0.04-0.04-0.07-0.08-0.09-0.12
			c-0.02-0.05-0.03-0.1-0.03-0.15v-0.03c0-0.05,0.01-0.1,0.03-0.15c0.02-0.05,0.05-0.09,0.09-0.12c0.04-0.04,0.09-0.06,0.15-0.08
			c0.06-0.02,0.12-0.03,0.2-0.03c0.07,0,0.14,0.01,0.2,0.03c0.06,0.02,0.11,0.05,0.15,0.08c0.04,0.04,0.07,0.08,0.09,0.12
			c0.02,0.05,0.03,0.1,0.03,0.15v0.03c0,0.05-0.01,0.1-0.03,0.15c-0.02,0.05-0.05,0.09-0.09,0.12s-0.09,0.06-0.15,0.08
			C77.69,49.56,77.62,49.57,77.55,49.57z M77.55,49.38c0.05,0,0.09-0.01,0.12-0.03c0.03-0.02,0.06-0.04,0.07-0.08
			c0.02-0.03,0.03-0.07,0.03-0.11c0-0.04-0.01-0.08-0.03-0.11c-0.02-0.03-0.04-0.06-0.08-0.08s-0.07-0.03-0.12-0.03
			c-0.05,0-0.09,0.01-0.12,0.03c-0.03,0.02-0.06,0.05-0.08,0.08c-0.02,0.03-0.03,0.07-0.03,0.11c0,0.04,0.01,0.08,0.02,0.11
			c0.02,0.03,0.04,0.06,0.08,0.08C77.46,49.38,77.5,49.38,77.55,49.38z"/>
		<path class="st16" d="M78.2,49.54v-0.75h0.2v0.32h0c0-0.11,0.03-0.19,0.08-0.25c0.05-0.06,0.13-0.09,0.23-0.09h0.03v0.19h-0.06
			c-0.07,0-0.12,0.02-0.16,0.05c-0.04,0.03-0.06,0.08-0.06,0.14v0.38H78.2z"/>
		<path class="st16" d="M79.25,49.57c-0.07,0-0.14-0.01-0.19-0.03c-0.06-0.02-0.1-0.05-0.14-0.09c-0.04-0.04-0.07-0.08-0.08-0.13
			c-0.02-0.05-0.03-0.09-0.03-0.14v-0.03c0-0.05,0.01-0.1,0.03-0.15c0.02-0.05,0.05-0.09,0.08-0.12c0.04-0.04,0.08-0.07,0.14-0.09
			c0.05-0.02,0.12-0.03,0.19-0.03c0.09,0,0.17,0.02,0.23,0.05c0.06,0.04,0.11,0.08,0.15,0.14c0.03,0.06,0.05,0.12,0.05,0.19v0.07
			h-0.76V49.1h0.61l-0.08,0.06c0-0.04-0.01-0.08-0.02-0.12c-0.01-0.03-0.04-0.06-0.07-0.07s-0.06-0.03-0.11-0.03
			c-0.04,0-0.08,0.01-0.11,0.03c-0.03,0.02-0.05,0.04-0.07,0.08c-0.02,0.03-0.02,0.07-0.02,0.12c0,0.04,0.01,0.08,0.02,0.12
			c0.01,0.03,0.04,0.06,0.07,0.08c0.03,0.02,0.07,0.03,0.12,0.03c0.05,0,0.08-0.01,0.11-0.02c0.03-0.02,0.05-0.03,0.06-0.06h0.23
			c-0.01,0.05-0.04,0.1-0.07,0.13c-0.04,0.04-0.08,0.07-0.14,0.09C79.39,49.56,79.32,49.57,79.25,49.57z"/>
	</g>
</g>
<linearGradient id="SVGID_00000180341846912887317670000010337981361280888507_" gradientUnits="userSpaceOnUse" x1="55.3933" y1="67.8347" x2="55.3933" y2="44.5351">
	<stop  offset="0" style="stop-color:#0C4948"/>
	<stop  offset="0" style="stop-color:#FFFFFF"/>
	<stop  offset="1" style="stop-color:#87B4FF"/>
</linearGradient>
<path style="fill:none;stroke:url(#SVGID_00000180341846912887317670000010337981361280888507_);stroke-width:0.5;stroke-miterlimit:10;" d="
	M71.52,51.46L71.52,51.46c-4.13-4.13-9.83-6.68-16.12-6.68c-6.29,0-11.99,2.55-16.12,6.68c-4.13,4.12-6.68,9.83-6.68,16.12h9.27
	c0-3.76,1.54-7.17,4.02-9.62c2.44-2.41,5.8-3.91,9.51-3.91c3.73,0,7.12,1.51,9.56,3.96c2.45,2.45,3.96,5.83,3.96,9.56h9.27
	C78.19,61.29,75.64,55.59,71.52,51.46z"/>
<g>
	
		<linearGradient id="SVGID_00000180355437403104690980000017375625900700836752_" gradientUnits="userSpaceOnUse" x1="33.5202" y1="57.0995" x2="42.879" y2="66.4583">
		<stop  offset="0" style="stop-color:#ABC5F9"/>
		<stop  offset="0" style="stop-color:#FF3547"/>
		<stop  offset="1" style="stop-color:#FF6B68"/>
	</linearGradient>
	<path style="fill:url(#SVGID_00000180355437403104690980000017375625900700836752_);" d="M45.81,57.93
		c-2.48,2.45-4.02,5.86-4.02,9.62h-9.27c0-6.3,2.55-12,6.68-16.12L45.81,57.93z"/>
	
		<linearGradient id="SVGID_00000157300303647192070700000014669627322138218683_" gradientUnits="userSpaceOnUse" x1="44.0945" y1="46.2485" x2="57.8131" y2="57.0513">
		<stop  offset="0" style="stop-color:#A300DF"/>
		<stop  offset="1" style="stop-color:#8300DF"/>
	</linearGradient>
	<path style="fill:url(#SVGID_00000157300303647192070700000014669627322138218683_);" d="M55.31,44.75v9.27
		c-3.71,0-7.06,1.49-9.51,3.91l-6.61-6.5C43.32,47.3,49.02,44.75,55.31,44.75z"/>
	
		<linearGradient id="SVGID_00000104697767062153185690000013181781770163734937_" gradientUnits="userSpaceOnUse" x1="63.7538" y1="47.0429" x2="60.151" y2="56.9593">
		<stop  offset="0" style="stop-color:#FCB702"/>
		<stop  offset="0.8655" style="stop-color:#FDD701"/>
	</linearGradient>
	<path style="fill:url(#SVGID_00000104697767062153185690000013181781770163734937_);" d="M71.43,51.43l-6.56,6.56
		c-2.45-2.45-5.83-3.96-9.56-3.96v-9.27C61.61,44.75,67.31,47.3,71.43,51.43z"/>
	
		<linearGradient id="SVGID_00000147926836570808296090000011685828049661849481_" gradientUnits="userSpaceOnUse" x1="64.8764" y1="59.4889" x2="78.1121" y2="59.4889">
		<stop  offset="0" style="stop-color:#189190"/>
		<stop  offset="1" style="stop-color:#00C4C2"/>
	</linearGradient>
	<path style="fill:url(#SVGID_00000147926836570808296090000011685828049661849481_);" d="M78.11,67.55h-9.27
		c0-3.73-1.51-7.12-3.96-9.56l6.56-6.56h0C75.56,55.55,78.11,61.25,78.11,67.55z"/>
	<g>
		<path class="st22" d="M55.31,69.67c-0.24,0-0.43-0.19-0.43-0.43s0.19-0.43,0.43-0.43c1.71,0,3.11-1.39,3.11-3.11
			s-1.39-3.11-3.11-3.11c-1.71,0-3.11,1.39-3.11,3.11c0,0.24-0.19,0.43-0.43,0.43s-0.43-0.19-0.43-0.43c0-2.19,1.78-3.97,3.97-3.97
			s3.97,1.78,3.97,3.97S57.5,69.67,55.31,69.67z"/>
	</g>
	<g>
		<g>
			<path class="st23" d="M55.38,65.91c-0.1,0-0.21-0.04-0.29-0.11c-0.17-0.16-0.19-0.43-0.03-0.61l9.73-10.58
				c0.16-0.17,0.43-0.19,0.61-0.03c0.17,0.16,0.19,0.43,0.03,0.61L55.7,65.77C55.61,65.86,55.49,65.91,55.38,65.91z"/>
		</g>
		<g>
			<circle class="st23" cx="55.16" cy="65.87" r="1"/>
		</g>
	</g>
	<g>
		<path class="st3" d="M62.78,53.53c-0.08,0-0.16-0.02-0.24-0.06c-3.89-2.07-8.35-2.51-12.56-1.23c-0.27,0.08-0.54-0.07-0.62-0.33
			c-0.08-0.26,0.07-0.54,0.33-0.62c4.47-1.36,9.2-0.9,13.32,1.3c0.24,0.13,0.34,0.43,0.21,0.68C63.13,53.43,62.96,53.53,62.78,53.53
			z"/>
	</g>
	<g>
		<path class="st3" d="M61.41,49.98c-0.06,0-0.12-0.01-0.18-0.03c-2.11-0.83-4.32-1.22-6.59-1.14c-0.27-0.02-0.51-0.21-0.52-0.48
			c-0.01-0.28,0.21-0.51,0.48-0.52c2.39-0.08,4.75,0.32,6.99,1.2c0.26,0.1,0.38,0.39,0.28,0.65C61.8,49.86,61.61,49.98,61.41,49.98z
			"/>
	</g>
</g>
</svg>
