<svg width="25" height="25" viewBox="0 0 25 25" fill="none" xmlns="http://www.w3.org/2000/svg">
<path d="M12.5 25C19.4036 25 25 19.4036 25 12.5C25 5.59644 19.4036 0 12.5 0C5.59644 0 0 5.59644 0 12.5C0 19.4036 5.59644 25 12.5 25Z" fill="#5ABEC0"/>
<mask id="mask0_1_322" style="mask-type:alpha" maskUnits="userSpaceOnUse" x="6" y="7" width="13" height="12">
<path d="M10.3174 17.9244L7.01882 15.3202C6.32438 14.7994 6.23757 13.7577 6.75841 13.0633C7.27924 12.4556 8.32091 12.282 9.01535 12.8897L11.0119 14.4522L15.6994 7.94174C16.2202 7.2473 17.1751 7.07369 17.9563 7.59452C18.6508 8.11536 18.8244 9.07022 18.3035 9.85147L12.6612 17.7508C12.4008 18.098 12.0535 18.3584 11.6195 18.3584C11.1855 18.3584 10.5778 18.1848 10.3174 17.9244Z" fill="white"/>
</mask>
<g mask="url(#mask0_1_322)">
<path d="M10.3174 17.9244L7.01882 15.3202C6.32438 14.7994 6.23757 13.7577 6.75841 13.0633C7.27924 12.4556 8.32091 12.282 9.01535 12.8897L11.0119 14.4522L15.6994 7.94174C16.2202 7.2473 17.1751 7.07369 17.9563 7.59452C18.6508 8.11536 18.8244 9.07022 18.3035 9.85147L12.6612 17.7508C12.4008 18.098 12.0535 18.3584 11.6195 18.3584C11.1855 18.3584 10.5778 18.1848 10.3174 17.9244Z" fill="#7786A0"/>
<path d="M19.4443 5.5556H5.55542V19.4445H19.4443V5.5556Z" fill="white"/>
</g>
</svg>
