<svg width="25" height="25" viewBox="0 0 25 25" fill="none" xmlns="http://www.w3.org/2000/svg">
<mask id="mask0_86_296" style="mask-type:alpha" maskUnits="userSpaceOnUse" x="0" y="0" width="25" height="25">
<path fill-rule="evenodd" clip-rule="evenodd" d="M0 0H25V25H0V0Z" fill="white"/>
</mask>
<g mask="url(#mask0_86_296)">
<path fill-rule="evenodd" clip-rule="evenodd" d="M19.4627 18.5713C19.4627 19.1276 19.0013 19.5774 18.4317 19.5774H6.54517C5.9751 19.5774 5.51367 19.1276 5.51367 18.5713V6.54636C5.51367 5.99103 5.9751 5.53976 6.54517 5.53976H18.4317C19.0013 5.53976 19.4627 5.99103 19.4627 6.54636V18.5713ZM12.5003 0C5.59707 0 0 5.59646 0 12.5C0 19.4046 5.59707 25.0001 12.5003 25.0001C19.4034 25.0001 25 19.4046 25 12.5C25 5.59646 19.4034 0 12.5003 0Z" fill="#231F20"/>
</g>
<path fill-rule="evenodd" clip-rule="evenodd" d="M14.9129 10.8046C13.7951 10.8046 13.2941 11.4183 13.0139 11.8508V11.8716H12.9997C13.0047 11.8655 13.0098 11.8574 13.0139 11.8508V10.9533H10.9072C10.9346 11.5472 10.9072 17.2904 10.9072 17.2904H13.0139V13.7513C13.0139 13.5609 13.0276 13.3736 13.0829 13.2376C13.2357 12.8599 13.5829 12.466 14.1641 12.466C14.9271 12.466 15.2317 13.0482 15.2317 13.9V17.2904H17.3383V13.6569C17.3383 11.7096 16.2987 10.8046 14.9129 10.8046Z" fill="#231F20"/>
<path fill-rule="evenodd" clip-rule="evenodd" d="M8.70167 7.89673C7.98135 7.89673 7.50977 8.37084 7.50977 8.99216C7.50977 9.59978 7.96714 10.0876 8.67375 10.0876H8.68796C9.42249 10.0876 9.87986 9.59978 9.87986 8.99216C9.86616 8.37084 9.42249 7.89673 8.70167 7.89673Z" fill="#231F20"/>
<path fill-rule="evenodd" clip-rule="evenodd" d="M7.63477 17.2903H9.74191V10.9532H7.63477V17.2903Z" fill="#231F20"/>
</svg>
