<svg width="34" height="35" viewBox="0 0 34 35" fill="none" xmlns="http://www.w3.org/2000/svg">
<path fill-rule="evenodd" clip-rule="evenodd" d="M17.0324 14.6628C15.4022 14.6628 14.0762 15.99 14.0762 17.6217C14.0762 19.2526 15.4022 20.5805 17.0324 20.5805C18.6626 20.5805 19.9886 19.2526 19.9886 17.6217C19.9886 15.99 18.6626 14.6628 17.0324 14.6628Z" fill="#FEFEFE"/>
<path fill-rule="evenodd" clip-rule="evenodd" d="M21.8082 13.9481C21.2313 13.9481 20.7628 13.4799 20.7628 12.9019C20.7628 12.3245 21.2313 11.8563 21.8082 11.8563C22.3858 11.8563 22.8536 12.3245 22.8536 12.9019C22.8536 13.4799 22.3858 13.9481 21.8082 13.9481ZM17.0318 22.2284C14.4935 22.2284 12.4283 20.1615 12.4283 17.6217C12.4283 15.0813 14.4935 13.0144 17.0318 13.0144C19.5701 13.0144 21.6353 15.0813 21.6353 17.6217C21.6353 20.1615 19.5701 22.2284 17.0318 22.2284ZM20.7468 10.3667H13.3168C12.2311 10.3667 11.325 10.6975 10.697 11.3227C10.0663 11.9505 9.73242 12.8607 9.73242 13.9541V21.3491C9.73242 22.4587 10.0804 23.3829 10.7387 24.0223C11.3816 24.6468 12.2876 24.9776 13.3579 24.9776H20.7057C21.8029 24.9776 22.7184 24.6495 23.3531 24.029C23.9926 23.4038 24.3312 22.491 24.3312 21.3902V13.9541C24.3312 12.8836 23.9973 11.9815 23.3666 11.3449C22.7318 10.7049 21.8258 10.3667 20.7468 10.3667Z" fill="#FEFEFE"/>
<mask id="mask0_660_415" style="mask-type:alpha" maskUnits="userSpaceOnUse" x="0" y="0" width="34" height="35">
<path fill-rule="evenodd" clip-rule="evenodd" d="M0.603516 0.884277H33.7539V34.0617H0.603516V0.884277Z" fill="white"/>
</mask>
<g mask="url(#mask0_660_415)">
<path fill-rule="evenodd" clip-rule="evenodd" d="M25.9786 21.3903C25.9786 22.9459 25.4691 24.2656 24.5045 25.2088C23.5554 26.1358 22.2421 26.6255 20.7068 26.6255H13.3583C11.8512 26.6255 10.5494 26.1344 9.5922 25.2054C8.60742 24.2481 8.08643 22.9142 8.08643 21.3493V13.9542C8.08643 10.8223 10.1886 8.71834 13.3172 8.71834H20.7478C22.2751 8.71834 23.585 9.22495 24.5361 10.1843C25.4799 11.1355 25.9786 12.4398 25.9786 13.9542V21.3903ZM17.1791 0.884033C8.02467 0.884033 0.603516 8.31073 0.603516 17.4722C0.603516 26.6343 8.02467 34.0616 17.1791 34.0616C26.3322 34.0616 33.754 26.6343 33.754 17.4722C33.754 8.31073 26.3322 0.884033 17.1791 0.884033Z" fill="#FEFEFE"/>
</g>
</svg>
