<svg width="45" height="37" viewBox="0 0 45 37" fill="none" xmlns="http://www.w3.org/2000/svg">
<g clip-path="url(#clip0_68_1251)">
<path d="M40.3477 28.4876V24.3993C40.3494 23.4116 40.7282 22.465 41.401 21.7672C42.0737 21.0694 42.9854 20.6775 43.9359 20.6775H45.0068V16.1064H43.9359C41.8196 16.1083 39.7904 16.9824 38.2936 18.5372C36.7968 20.0919 35.9547 22.2002 35.9521 24.3993V28.4876C35.9512 29.4744 35.5736 30.4206 34.9021 31.1184C34.2306 31.8161 33.3201 32.2086 32.3704 32.2095H31.3029V36.7805H32.3704C34.4854 36.776 36.5124 35.9007 38.0075 34.3464C39.5027 32.792 40.3442 30.6853 40.3477 28.4876V28.4876Z" fill="#37384F"/>
<path d="M4.65256 12.3811C4.65169 13.3683 4.27416 14.3148 3.60274 15.0131C2.93133 15.7115 2.02083 16.1046 1.07088 16.1064H0V20.6775H1.07088C3.18752 20.6747 5.21671 19.7998 6.7134 18.2445C8.21009 16.6893 9.05208 14.5806 9.0547 12.3811V8.29632C9.05557 7.31009 9.43274 6.36446 10.1035 5.66677C10.7743 4.96908 11.684 4.57626 12.6331 4.57445H13.7007V0H12.6331C10.5164 0.00271822 8.48725 0.877667 6.99056 2.43294C5.49387 3.98821 4.65187 6.09684 4.64926 8.29632L4.65256 12.3811Z" fill="#37384F"/>
<path d="M9.05484 28.4875V24.3993C9.0567 22.3439 8.31722 20.3623 6.98227 18.8456C5.81693 20.0036 4.36074 20.7964 2.78113 21.1328C3.34681 21.4522 3.81917 21.9242 4.14853 22.499C4.47788 23.0738 4.65204 23.7303 4.65269 24.3993V28.4875C4.65618 30.6858 5.4981 32.7931 6.99399 34.3475C8.48987 35.9019 10.5177 36.7768 12.6332 36.7804H13.7008V32.2094H12.6332C11.6841 32.2076 10.7745 31.8148 10.1037 31.1171C9.43288 30.4194 9.05571 29.4738 9.05484 28.4875Z" fill="#37384F"/>
<path d="M35.9456 8.29632V12.3811C35.9402 14.4347 36.6749 16.416 38.005 17.9349C39.1708 16.7781 40.6269 15.9865 42.2062 15.6511C41.6402 15.3311 41.1677 14.8585 40.8384 14.2831C40.509 13.7077 40.335 13.0507 40.3346 12.3811V8.29632C40.332 6.09684 39.49 3.98822 37.9933 2.43294C36.4966 0.877667 34.4674 0.00271822 32.3508 0H31.2832V4.57445H32.3508C32.8221 4.5731 33.2891 4.66835 33.725 4.85474C34.1608 5.04114 34.5571 5.31502 34.891 5.66072C35.2249 6.00641 35.4899 6.41714 35.6709 6.86939C35.8518 7.32164 35.9452 7.80653 35.9456 8.29632V8.29632Z" fill="#37384F"/>
<path d="M14 26.8889H20.5556C21.9056 26.8889 23 27.9833 23 29.3333V17C23 14.1716 23 12.7574 22.1213 11.8787C21.2426 11 19.8284 11 17 11H14C13.0572 11 12.5858 11 12.2929 11.2929C12 11.5858 12 12.0572 12 13V24.8889C12 25.8317 12 26.3031 12.2929 26.596C12.5858 26.8889 13.0572 26.8889 14 26.8889Z" fill="#790FD6"/>
<path d="M32 26.8889H25.4444C24.0944 26.8889 23 27.9833 23 29.3333V17C23 14.1716 23 12.7574 23.8787 11.8787C24.7574 11 26.1716 11 29 11H32C32.9428 11 33.4142 11 33.7071 11.2929C34 11.5858 34 12.0572 34 13V24.8889C34 25.8317 34 26.3031 33.7071 26.596C33.4142 26.8889 32.9428 26.8889 32 26.8889Z" fill="#790FD6"/>
<path d="M16 17L20 17M16 22L20 22" stroke="white" stroke-width="2" stroke-linecap="round"/>
<path d="M26 17L30 17M26 22L30 22" stroke="white" stroke-width="2" stroke-linecap="round"/>
</g>
<defs>
<clipPath id="clip0_68_1251">
<rect width="45" height="36.7805" fill="white"/>
</clipPath>
</defs>
</svg>
