<svg width="45" height="47" viewBox="0 0 45 47" fill="none" xmlns="http://www.w3.org/2000/svg">
<path d="M14.1231 8.18C13.6764 8.18 13.2831 8.08667 12.9431 7.9C12.6031 7.70667 12.3364 7.42667 12.1431 7.06C11.9497 6.69333 11.8431 6.25 11.8231 5.73H12.0331V8H10.9331V0.7H12.3231V4.35L11.9531 4.92C11.9797 4.36 12.0897 3.89333 12.2831 3.52C12.4831 3.14667 12.7497 2.86667 13.0831 2.68C13.4164 2.49333 13.7931 2.4 14.2131 2.4C14.5864 2.4 14.9264 2.47 15.2331 2.61C15.5397 2.75 15.8031 2.94667 16.0231 3.2C16.2431 3.44667 16.4097 3.73667 16.5231 4.07C16.6431 4.40333 16.7031 4.76667 16.7031 5.16V5.37C16.7031 5.76333 16.6431 6.13 16.5231 6.47C16.4031 6.81 16.2297 7.11 16.0031 7.37C15.7764 7.62333 15.5031 7.82333 15.1831 7.97C14.8697 8.11 14.5164 8.18 14.1231 8.18ZM13.8131 7.01C14.1131 7.01 14.3731 6.93667 14.5931 6.79C14.8197 6.63667 14.9964 6.43 15.1231 6.17C15.2497 5.91 15.3131 5.61 15.3131 5.27C15.3131 4.92333 15.2497 4.62333 15.1231 4.37C14.9964 4.11667 14.8197 3.92 14.5931 3.78C14.3731 3.64 14.1131 3.57 13.8131 3.57C13.5397 3.57 13.2864 3.63 13.0531 3.75C12.8264 3.87 12.6397 4.04667 12.4931 4.28C12.3531 4.51333 12.2831 4.79333 12.2831 5.12V5.52C12.2831 5.83333 12.3564 6.1 12.5031 6.32C12.6497 6.54 12.8397 6.71 13.0731 6.83C13.3064 6.95 13.5531 7.01 13.8131 7.01ZM20.8067 8.19C20.3401 8.19 19.9301 8.11 19.5767 7.95C19.2301 7.79 18.9401 7.57667 18.7067 7.31C18.4801 7.03667 18.3067 6.73333 18.1867 6.4C18.0734 6.06667 18.0167 5.72667 18.0167 5.38V5.19C18.0167 4.83 18.0734 4.48333 18.1867 4.15C18.3067 3.81 18.4801 3.51 18.7067 3.25C18.9401 2.98333 19.2267 2.77333 19.5667 2.62C19.9067 2.46 20.3001 2.38 20.7467 2.38C21.3334 2.38 21.8234 2.51 22.2167 2.77C22.6167 3.02333 22.9167 3.36 23.1167 3.78C23.3167 4.19333 23.4167 4.64 23.4167 5.12V5.62H18.6067V4.77H22.5467L22.1167 5.19C22.1167 4.84333 22.0667 4.54667 21.9667 4.3C21.8667 4.05333 21.7134 3.86333 21.5067 3.73C21.3067 3.59667 21.0534 3.53 20.7467 3.53C20.4401 3.53 20.1801 3.6 19.9667 3.74C19.7534 3.88 19.5901 4.08333 19.4767 4.35C19.3701 4.61 19.3167 4.92333 19.3167 5.29C19.3167 5.63 19.3701 5.93333 19.4767 6.2C19.5834 6.46 19.7467 6.66667 19.9667 6.82C20.1867 6.96667 20.4667 7.04 20.8067 7.04C21.1467 7.04 21.4234 6.97333 21.6367 6.84C21.8501 6.7 21.9867 6.53 22.0467 6.33H23.3267C23.2467 6.70333 23.0934 7.03 22.8667 7.31C22.6401 7.59 22.3501 7.80667 21.9967 7.96C21.6501 8.11333 21.2534 8.19 20.8067 8.19ZM27.3894 8.07C26.8894 8.07 26.4761 8.00667 26.1494 7.88C25.8294 7.74667 25.5894 7.52667 25.4294 7.22C25.2694 6.90667 25.1894 6.48667 25.1894 5.96L25.1994 1.04H26.4994L26.4894 6.05C26.4894 6.31667 26.5594 6.52333 26.6994 6.67C26.8461 6.81 27.0528 6.88 27.3194 6.88H28.1694V8.07H27.3894ZM24.3294 3.59V2.57H28.1694V3.59H24.3294ZM33.058 8V6.39H32.828V4.6C32.828 4.28667 32.7514 4.05333 32.598 3.9C32.4447 3.74667 32.208 3.67 31.888 3.67C31.7214 3.67 31.5214 3.67333 31.288 3.68C31.0547 3.68667 30.818 3.69667 30.578 3.71C30.3447 3.71667 30.1347 3.72667 29.948 3.74V2.56C30.1014 2.54667 30.2747 2.53333 30.468 2.52C30.6614 2.50667 30.858 2.5 31.058 2.5C31.2647 2.49333 31.458 2.49 31.638 2.49C32.198 2.49 32.6614 2.56333 33.028 2.71C33.4014 2.85667 33.6814 3.08667 33.868 3.4C34.0614 3.71333 34.158 4.12333 34.158 4.63V8H33.058ZM31.308 8.14C30.9147 8.14 30.568 8.07 30.268 7.93C29.9747 7.79 29.7447 7.59 29.578 7.33C29.418 7.07 29.338 6.75667 29.338 6.39C29.338 5.99 29.4347 5.66333 29.628 5.41C29.828 5.15667 30.1047 4.96667 30.458 4.84C30.818 4.71333 31.238 4.65 31.718 4.65H32.978V5.48H31.698C31.378 5.48 31.1314 5.56 30.958 5.72C30.7914 5.87333 30.708 6.07333 30.708 6.32C30.708 6.56667 30.7914 6.76667 30.958 6.92C31.1314 7.07333 31.378 7.15 31.698 7.15C31.8914 7.15 32.068 7.11667 32.228 7.05C32.3947 6.97667 32.5314 6.85667 32.638 6.69C32.7514 6.51667 32.8147 6.28333 32.828 5.99L33.168 6.38C33.1347 6.76 33.0414 7.08 32.888 7.34C32.7414 7.6 32.5347 7.8 32.268 7.94C32.008 8.07333 31.688 8.14 31.308 8.14Z" fill="white"/>
<path fill-rule="evenodd" clip-rule="evenodd" d="M28.0506 28.5314C28.0506 31.2427 25.853 33.4402 23.1417 33.4402C20.4304 33.4402 18.2329 31.2427 18.2329 28.5314C18.2329 25.8201 20.4304 23.6226 23.1417 23.6226C25.853 23.6226 28.0506 25.8201 28.0506 28.5314" fill="white"/>
<path fill-rule="evenodd" clip-rule="evenodd" d="M4.7605 22.7576C4.7605 24.7066 3.11558 26.2926 1.09413 26.2926H0V30.6353H1.09413C5.60021 30.6353 9.26565 27.1013 9.26565 22.7576V18.8777C9.26565 16.9287 10.9096 15.3427 12.9311 15.3427H14.0252V11H12.9311C8.42594 11 4.7605 14.534 4.7605 18.8777V22.7576Z" fill="white"/>
<path fill-rule="evenodd" clip-rule="evenodd" d="M9.24824 38.2789V34.4449C9.24824 32.4986 8.49056 30.6687 7.11926 29.2329C5.94065 30.2966 4.45804 31.0602 2.80518 31.3781C3.94824 31.9712 4.7265 33.1237 4.7265 34.4449V38.2789C4.7265 42.571 8.40544 46.0632 12.9281 46.0632H14.0254V41.7719H12.9281C10.8992 41.7719 9.24824 40.2048 9.24824 38.2789" fill="white"/>
<path fill-rule="evenodd" clip-rule="evenodd" d="M40.1196 38.1849V34.3049C40.1196 32.3559 41.7644 30.77 43.7857 30.77H44.8807V26.4272H43.7857C39.2799 26.4272 35.6147 29.9613 35.6147 34.3049V38.1849C35.6147 40.1339 33.9708 41.7198 31.9495 41.7198H30.8555V46.0626H31.9495C36.4544 46.0626 40.1196 42.5285 40.1196 38.1849" fill="white"/>
<path fill-rule="evenodd" clip-rule="evenodd" d="M35.6326 18.7847V22.6189C35.6326 24.5644 36.3903 26.3953 37.7625 27.8303C38.9411 26.7665 40.4228 26.0037 42.0756 25.6859C40.9316 25.0927 40.1543 23.9401 40.1543 22.6189V18.7847C40.1543 14.4923 36.4754 11 31.9536 11H30.8555V15.2915H31.9536C33.9825 15.2915 35.6326 16.8587 35.6326 18.7847" fill="white"/>
</svg>
