<svg width="43" height="34" viewBox="0 0 43 34" fill="none" xmlns="http://www.w3.org/2000/svg">
<path fill-rule="evenodd" clip-rule="evenodd" d="M4.54225 11.223C4.54225 13.0834 2.97274 14.5972 1.04397 14.5972H0V18.7425H1.04397C5.34346 18.7425 8.84085 15.3692 8.84085 11.223V7.51947C8.84085 5.65912 10.4095 4.14527 12.3382 4.14527H13.3822V0H12.3382C8.03964 0 4.54225 3.37334 4.54225 7.51947V11.223Z" fill="white"/>
<path fill-rule="evenodd" clip-rule="evenodd" d="M38.2808 26.3954V22.6918C38.2808 20.8315 39.8502 19.3176 41.7788 19.3176H42.8236V15.1724H41.7788C37.4796 15.1724 33.9825 18.5457 33.9825 22.6918V26.3954C33.9825 28.2557 32.4139 29.7696 30.4853 29.7696H29.4414V33.9149H30.4853C34.7836 33.9149 38.2808 30.5415 38.2808 26.3954Z" fill="white"/>
<path fill-rule="evenodd" clip-rule="evenodd" d="M27.089 16.5113C27.089 19.2225 24.8924 21.42 22.1822 21.42C19.472 21.42 17.2754 19.2225 17.2754 16.5113C17.2754 13.8 19.472 11.6025 22.1822 11.6025C24.8924 11.6025 27.089 13.8 27.089 16.5113Z" fill="white"/>
<path fill-rule="evenodd" clip-rule="evenodd" d="M9.14768 26.4843V22.8246C9.14768 20.9668 8.42473 19.2201 7.1163 17.8496C5.99173 18.865 4.57708 19.5938 3 19.8973C4.09066 20.4634 4.83324 21.5635 4.83324 22.8246V26.4843C4.83324 30.5813 8.34351 33.9146 12.6588 33.9146H13.7058V29.8185H12.6588C10.723 29.8185 9.14768 28.3226 9.14768 26.4843Z" fill="white"/>
<path fill-rule="evenodd" clip-rule="evenodd" d="M34.3237 7.43072V11.0906C34.3237 12.9476 35.0467 14.6953 36.356 16.065C37.4806 15.0496 38.8943 14.3215 40.4714 14.0181C39.3798 13.4519 38.6382 12.3518 38.6382 11.0906V7.43072C38.6382 3.33353 35.1279 0 30.8134 0H29.7656V4.09635H30.8134C32.7493 4.09635 34.3237 5.59232 34.3237 7.43072Z" fill="white"/>
</svg>
