<svg width="46" height="36" viewBox="0 0 46 36" fill="none" xmlns="http://www.w3.org/2000/svg">
<g clip-path="url(#clip0_410_50)">
<path d="M41.2438 27.8796V23.8815C41.2447 22.9156 41.6307 21.9895 42.3172 21.3066C43.0036 20.6236 43.9343 20.2395 44.9051 20.2386H45.9964V15.7612H44.9051C42.7414 15.7639 40.6671 16.6203 39.1372 18.1425C37.6072 19.6648 36.7465 21.7287 36.7439 23.8815V27.8796C36.743 28.8455 36.3569 29.7716 35.6705 30.4546C34.9841 31.1376 34.0533 31.5217 33.0826 31.5225H31.9879V35.9999H33.0826C35.2463 35.9973 37.3206 35.1409 38.8505 33.6186C40.3805 32.0963 41.2412 30.0324 41.2438 27.8796Z" fill="#37384F"/>
<path d="M4.75595 12.1184C4.75506 13.0843 4.36903 14.0104 3.6826 14.6934C2.99617 15.3763 2.06543 15.7604 1.09468 15.7613H0V20.2387H1.09468C3.25777 20.2351 5.33119 19.3784 6.86041 17.8562C8.38963 16.334 9.24987 14.2706 9.25255 12.1184V8.12027C9.25433 7.15466 9.64064 6.2291 10.3269 5.54631C11.0131 4.86351 11.9433 4.47915 12.9138 4.47737H14.0085V0H12.9138C10.7505 0.00266217 8.67651 0.859147 7.1471 2.38151C5.61769 3.90388 4.75773 5.96776 4.75595 8.12027V12.1184Z" fill="#37384F"/>
<path d="M9.25289 27.8798V23.8817C9.25479 21.8698 8.49888 19.9304 7.13427 18.4458C5.94397 19.5787 4.45666 20.3547 2.84314 20.6845C3.42139 20.9971 3.90425 21.4591 4.24092 22.0217C4.5776 22.5843 4.75563 23.2269 4.7563 23.8817V27.8798C4.75808 30.0323 5.61803 32.0962 7.14745 33.6186C8.67686 35.1409 10.7508 35.9974 12.9142 36.0001H14.0088V31.5227H12.9142C11.9434 31.5218 11.0127 31.1377 10.3262 30.4547C9.63981 29.7718 9.25378 28.8457 9.25289 27.8798Z" fill="#37384F"/>
<path d="M36.7439 8.12027V12.1184C36.742 14.1302 37.4979 16.0697 38.8625 17.5543C40.0532 16.4226 41.5405 15.6478 43.1536 15.3189C42.5755 15.0056 42.093 14.5429 41.7569 13.9797C41.4208 13.4164 41.2436 12.7734 41.2438 12.1184V8.12027C41.2412 5.96746 40.3805 3.90358 38.8505 2.38131C37.3206 0.859038 35.2463 0.00266054 33.0826 0H31.9879V4.47737H33.0826C34.0531 4.47915 34.9833 4.86351 35.6695 5.54631C36.3558 6.2291 36.7421 7.15466 36.7439 8.12027Z" fill="#37384F"/>
</g>
<g clip-path="url(#clip1_410_50)">
<path d="M21.7455 11.0036C21.5463 10.997 21.377 11.1596 21.377 11.3655V12.7697C21.377 12.9688 21.533 13.1249 21.7322 13.1249V13.1381C26.1473 13.3074 29.696 16.8594 29.8653 21.2712H29.8786C29.8786 21.4704 30.0346 21.6264 30.2338 21.6264H31.638C31.8438 21.6264 32.0064 21.4571 31.9998 21.2579C31.8039 15.6876 27.3125 11.1962 21.7455 11.0036ZM21.7455 14.5457C21.5463 14.539 21.377 14.7083 21.377 14.9075V16.3117C21.377 16.5109 21.533 16.6669 21.7322 16.6669V16.6868C24.192 16.8495 26.1539 18.8114 26.3166 21.2712H26.3365C26.3365 21.4704 26.4925 21.6264 26.6917 21.6264H28.0959C28.2951 21.6264 28.4644 21.4571 28.4578 21.2579C28.2619 17.6429 25.3572 14.7382 21.7455 14.5457ZM15.3552 15.2461C15.156 15.2461 15 15.4021 15 15.6013V23.3958C15 25.932 17.0681 28.0001 19.6043 28.0001C22.1405 28.0001 24.2086 25.932 24.2086 23.3958C24.2086 20.8596 22.1405 18.7915 19.6043 18.7915C19.4051 18.7915 19.2491 18.9475 19.2491 19.1467V21.2712C19.2491 21.4704 19.4051 21.6264 19.6043 21.6264C20.5803 21.6264 21.377 22.4198 21.377 23.3991C21.377 24.3784 20.5836 25.1718 19.6043 25.1718C18.625 25.1718 17.8316 24.3784 17.8316 23.3991V15.6013C17.8316 15.4021 17.6756 15.2461 17.4764 15.2461H15.3552Z" fill="#790FD6"/>
</g>
<defs>
<clipPath id="clip0_410_50">
<rect width="46" height="36" fill="white"/>
</clipPath>
<clipPath id="clip1_410_50">
<rect width="20" height="20" fill="white" transform="translate(14 8)"/>
</clipPath>
</defs>
</svg>
