<svg width="46" height="36" viewBox="0 0 46 36" fill="none" xmlns="http://www.w3.org/2000/svg">
<g clip-path="url(#clip0_410_51)">
<path d="M41.2408 27.8831V23.8816C41.2426 22.916 41.6289 21.9904 42.3152 21.3076C43.0014 20.6248 43.9316 20.2404 44.9021 20.2387H45.9968V15.7646H44.9021C42.7391 15.7664 40.6651 16.6222 39.1356 18.144C37.6061 19.6658 36.746 21.7294 36.7443 23.8816V27.8831C36.7425 28.8487 36.3562 29.7742 35.6699 30.457C34.9837 31.1398 34.0535 31.5242 33.083 31.526H31.9816V36H33.0762C35.2402 35.9991 37.3154 35.1439 38.8461 33.622C40.3769 32.1002 41.2382 30.0361 41.2408 27.8831Z" fill="#37384F"/>
<path d="M4.75258 12.1184C4.75258 13.0849 4.36696 14.0118 3.68043 14.6955C2.99391 15.3792 2.06264 15.7638 1.09131 15.7647H0V20.2387H1.09131C3.25498 20.236 5.32927 19.3796 6.85922 17.8574C8.38917 16.3351 9.24988 14.2712 9.25255 12.1184V8.12027C9.25434 7.15466 9.64064 6.22911 10.3269 5.54632C11.0131 4.86352 11.9433 4.47915 12.9138 4.47738H14.0051V0H12.9138C10.7502 0.00266054 8.67586 0.859043 7.14591 2.38131C5.61596 3.90358 4.75525 5.96746 4.75258 8.12027V12.1184Z" fill="#37384F"/>
<path d="M9.25273 27.8831V23.8817C9.25464 21.8698 8.49871 19.9304 7.1341 18.4458C5.94286 19.5793 4.45431 20.3552 2.8396 20.6845C3.41785 20.9971 3.90071 21.4591 4.23738 22.0217C4.57406 22.5843 4.75209 23.2269 4.75276 23.8817V27.8831C4.75632 30.0354 5.61742 32.0984 7.14728 33.62C8.67713 35.1415 10.7509 35.9974 12.914 36.0001H14.0053V31.5261H12.914C11.9435 31.5243 11.0133 31.1399 10.3271 30.4571C9.64082 29.7743 9.25451 28.8488 9.25273 27.8831Z" fill="#37384F"/>
<path d="M36.7443 8.12027V12.1184C36.7424 14.1302 37.4983 16.0697 38.8629 17.5543C40.0536 16.4226 41.5409 15.6478 43.154 15.3189C42.5755 15.0057 42.0925 14.5432 41.7558 13.98C41.4192 13.4168 41.2413 12.7737 41.2408 12.1184V8.12027C41.2391 5.96777 40.3791 3.90388 38.8497 2.38152C37.3203 0.859152 35.2463 0.00266216 33.083 0H31.9816V4.47738H33.0762C34.0479 4.47738 34.9799 4.86097 35.6675 5.54395C36.3552 6.22694 36.7425 7.1535 36.7443 8.12027Z" fill="#37384F"/>
</g>
<path d="M29.186 15.751C27.7189 12.3391 25.361 9.74324 24.1676 10.2277C22.1412 11.0522 25.3746 15.0081 15.4229 19.0524C14.5627 19.4026 14.3451 20.8 14.7055 21.6364C15.0642 22.4711 16.2405 23.3041 17.1007 22.9539C17.2503 22.8927 17.796 22.7176 17.796 22.7176C18.4097 23.5421 19.0523 23.0542 19.2801 23.5761C19.5538 24.2051 20.1488 25.5736 20.3528 26.0377C20.5551 26.5018 21.0141 26.9336 21.3473 26.8061C21.6788 26.6786 22.811 26.2485 23.2445 26.0853C23.678 25.9204 23.78 25.5328 23.6474 25.2302C23.5046 24.9021 22.9198 24.8052 22.7515 24.4227C22.5866 24.0419 22.0409 22.8145 21.8845 22.4269C21.672 21.9016 22.1242 21.4732 22.7821 21.4052C27.3126 20.9309 28.1592 23.7308 29.7011 23.1035C30.8928 22.6173 30.6514 19.1612 29.186 15.751ZM28.676 21.2828C28.4108 21.3899 26.6275 19.9857 25.4885 17.3337C24.3495 14.6834 24.4923 12.2609 24.7575 12.1521C25.0227 12.045 26.7618 13.7416 27.9008 16.3919C29.0398 19.0422 28.9412 21.174 28.676 21.2828Z" fill="#EE4A4E"/>
<defs>
<clipPath id="clip0_410_51">
<rect width="46" height="36" fill="white"/>
</clipPath>
</defs>
</svg>
