<svg width="45" height="36" viewBox="0 0 45 36" fill="none" xmlns="http://www.w3.org/2000/svg">
<g clip-path="url(#clip0_1_1157)">
<path d="M40.3477 27.8831V23.8816C40.3494 22.9148 40.7282 21.9882 41.401 21.3053C42.0737 20.6223 42.9854 20.2387 43.9359 20.2387H45.0068V15.7646H43.9359C41.8196 15.7664 39.7904 16.6221 38.2936 18.1438C36.7968 19.6655 35.9547 21.7291 35.9521 23.8816V27.8831C35.9512 28.8489 35.5736 29.775 34.9021 30.458C34.2306 31.141 33.3201 31.5251 32.3704 31.526H31.3029V36H32.3704C34.4854 35.9956 36.5124 35.1389 38.0075 33.6175C39.5027 32.0962 40.3442 30.0341 40.3477 27.8831Z" fill="#37384F"/>
<path d="M4.65256 12.1184C4.65169 13.0846 4.27416 14.011 3.60274 14.6945C2.93133 15.3781 2.02083 15.7629 1.07088 15.7647H0V20.2387H1.07088C3.18752 20.236 5.21671 19.3796 6.7134 17.8574C8.21009 16.3351 9.05208 14.2712 9.0547 12.1184V8.12027C9.05557 7.15497 9.43274 6.22941 10.1035 5.54652C10.7743 4.86363 11.684 4.47915 12.6331 4.47738H13.7007V0H12.6331C10.5164 0.00266054 8.48725 0.859043 6.99056 2.38131C5.49387 3.90358 4.65187 5.96746 4.64926 8.12027L4.65256 12.1184Z" fill="#37384F"/>
<path d="M9.05484 27.8831V23.8817C9.0567 21.8698 8.31722 19.9304 6.98227 18.4458C5.81693 19.5793 4.36074 20.3552 2.78113 20.6845C3.34681 20.9971 3.81917 21.4591 4.14853 22.0217C4.47788 22.5843 4.65204 23.2269 4.65269 23.8817V27.8831C4.65618 30.0348 5.4981 32.0973 6.99399 33.6188C8.48987 35.1402 10.5177 35.9965 12.6332 36.0001H13.7008V31.526H12.6332C11.6841 31.5243 10.7745 31.1398 10.1037 30.4569C9.43288 29.774 9.05571 28.8485 9.05484 27.8831Z" fill="#37384F"/>
<path d="M35.9456 8.12027V12.1184C35.9402 14.1284 36.6749 16.0677 38.005 17.5543C39.1708 16.422 40.6269 15.6472 42.2062 15.3189C41.6402 15.0057 41.1677 14.5432 40.8384 13.98C40.509 13.4168 40.335 12.7737 40.3346 12.1184V8.12027C40.332 5.96746 39.49 3.90358 37.9933 2.38131C36.4966 0.859043 34.4674 0.00266054 32.3508 0H31.2832V4.47738H32.3508C32.8221 4.47606 33.2891 4.56929 33.725 4.75173C34.1608 4.93416 34.5571 5.20223 34.891 5.54059C35.2249 5.87896 35.4899 6.28097 35.6709 6.72362C35.8518 7.16627 35.9452 7.64088 35.9456 8.12027Z" fill="#37384F"/>
<g clip-path="url(#clip1_1_1157)">
<path d="M28.1806 12.8192V24.0439H19.1144C18.3991 24.0439 17.8193 23.4641 17.8193 22.7488C17.8193 22.0335 18.3991 21.4536 19.1144 21.4536H27.3171V11.0923H18.6827C17.7329 11.0923 16.9558 11.8694 16.9558 12.8192V23.1805C16.9558 24.1303 17.7329 24.9074 18.6827 24.9074H29.044V12.8192H28.1806ZM19.5461 22.3171H27.3171V23.1805H19.5461V22.3171Z" fill="#E9A24E"/>
</g>
</g>
<defs>
<clipPath id="clip0_1_1157">
<rect width="45" height="36" fill="white"/>
</clipPath>
<clipPath id="clip1_1_1157">
<rect width="18" height="18" fill="white" transform="translate(14 9)"/>
</clipPath>
</defs>
</svg>
