<svg width="154" height="25" viewBox="0 0 154 25" fill="none" xmlns="http://www.w3.org/2000/svg">
<path fill-rule="evenodd" clip-rule="evenodd" d="M43.9364 11.2442V13.7552C43.9364 14.9354 42.9696 15.8954 41.781 15.8954H41V19H41.781C44.6935 19 47.063 16.6472 47.063 13.7552V11.2442C47.063 10.0639 48.0297 9.10463 49.2183 9.10463H50V6H49.2183C46.3058 6 43.9364 8.35281 43.9364 11.2442Z" fill="#37384F"/>
<path fill-rule="evenodd" clip-rule="evenodd" d="M129.937 11.2442V13.7552C129.937 14.9354 128.97 15.8954 127.782 15.8954H127V19H127.782C130.694 19 133.064 16.6472 133.064 13.7552V11.2442C133.064 10.0639 134.03 9.10463 135.218 9.10463H136V6H135.218C132.306 6 129.937 8.35281 129.937 11.2442Z" fill="#37384F"/>
<path fill-rule="evenodd" clip-rule="evenodd" d="M52 19H59V15.8954H55.2719V9.10463H59V6H52V19Z" fill="#37384F"/>
<path fill-rule="evenodd" clip-rule="evenodd" d="M137 19H144V15.8954H140.272V9.10463H144V6H137V19Z" fill="#37384F"/>
<path fill-rule="evenodd" clip-rule="evenodd" d="M60 12.5C60 16.0843 63.14 19 67 19V15.8954C64.9834 15.8954 63.3434 14.3719 63.3434 12.5C63.3434 10.6281 64.9834 9.10463 67 9.10463V6C63.14 6 60 8.91571 60 12.5Z" fill="#37384F"/>
<path fill-rule="evenodd" clip-rule="evenodd" d="M83 12.5V19H85.9423V12.5C85.9423 10.6281 87.3855 9.10463 89.16 9.10463H90V6H89.16C85.7632 6 83 8.91571 83 12.5Z" fill="#37384F"/>
<path fill-rule="evenodd" clip-rule="evenodd" d="M153.16 6C149.763 6 147 8.91571 147 12.5V19H149.942V12.5C149.942 10.6281 151.385 9.10463 153.16 9.10463H154V6H153.16Z" fill="#37384F"/>
<path fill-rule="evenodd" clip-rule="evenodd" d="M77.9615 13.3799C77.9615 14.767 76.8572 15.8954 75.4997 15.8954C74.1422 15.8954 73.0385 14.767 73.0385 13.3799V6H70V13.3799C70 16.4788 72.4669 19 75.4997 19C78.5325 19 81 16.4788 81 13.3799V6H77.9615V13.3799Z" fill="#37384F"/>
<mask id="mask0_0_389" style="mask-type:alpha" maskUnits="userSpaceOnUse" x="0" y="0" width="154" height="25">
<path fill-rule="evenodd" clip-rule="evenodd" d="M0 25H154V0H0V25Z" fill="white"/>
</mask>
<g mask="url(#mask0_0_389)">
<path fill-rule="evenodd" clip-rule="evenodd" d="M93 19H96V6H93V19Z" fill="#37384F"/>
<path fill-rule="evenodd" clip-rule="evenodd" d="M94.5 4C95.3286 4 96 3.32859 96 2.5C96 1.67203 95.3286 1 94.5 1C93.6714 1 93 1.67203 93 2.5C93 3.32859 93.6714 4 94.5 4Z" fill="#37384F"/>
<path fill-rule="evenodd" clip-rule="evenodd" d="M121 19H124V6H121V19Z" fill="#37384F"/>
<path fill-rule="evenodd" clip-rule="evenodd" d="M122.5 4C123.329 4 124 3.32859 124 2.5C124 1.67203 123.329 1 122.5 1C121.671 1 121 1.67203 121 2.5C121 3.32859 121.671 4 122.5 4Z" fill="#37384F"/>
<path fill-rule="evenodd" clip-rule="evenodd" d="M112.719 15.2337L109.55 6.03458L109.561 6H109.537H106.462H106.438L106.45 6.03458L103.28 15.2337L100.099 6H97L101.479 19H105.082L108 10.5317L110.917 19H114.52L119 6H115.901L112.719 15.2337Z" fill="#37384F"/>
<path fill-rule="evenodd" clip-rule="evenodd" d="M20 12.5C20 14.4332 18.4332 16 16.5 16C14.5668 16 13 14.4332 13 12.5C13 10.5668 14.5668 9 16.5 9C18.4332 9 20 10.5668 20 12.5Z" fill="#2870EF"/>
<path fill-rule="evenodd" clip-rule="evenodd" d="M3.39425 8.38321C3.39425 9.77283 2.22141 10.9036 0.780118 10.9036H0V14H0.780118C3.99296 14 6.60642 11.4802 6.60642 8.38321V5.61679C6.60642 4.22716 7.77859 3.09638 9.21988 3.09638H10V0H9.21988C6.00771 0 3.39425 2.51977 3.39425 5.61679V8.38321Z" fill="#37384F"/>
<path fill-rule="evenodd" clip-rule="evenodd" d="M6.59391 19.4498V16.7162C6.59391 15.3285 6.05369 14.0237 5.07595 13C4.2356 13.7584 3.17849 14.3029 2 14.5295C2.81501 14.9524 3.3699 15.7741 3.3699 16.7162V19.4498C3.3699 22.5101 5.993 25 9.21767 25H10V21.9403H9.21767C7.77107 21.9403 6.59391 20.8229 6.59391 19.4498Z" fill="#37384F"/>
<path fill-rule="evenodd" clip-rule="evenodd" d="M28.6053 19.3832V16.6168C28.6053 15.2272 29.7781 14.0964 31.2193 14.0964H32V11H31.2193C28.0066 11 25.3934 13.5198 25.3934 16.6168V19.3832C25.3934 20.7728 24.2213 21.9036 22.7801 21.9036H22V25H22.7801C25.992 25 28.6053 22.4802 28.6053 19.3832Z" fill="#37384F"/>
<path fill-rule="evenodd" clip-rule="evenodd" d="M25.4061 5.55049V8.28427C25.4061 9.67142 25.9463 10.9769 26.9247 12C27.7651 11.2415 28.8215 10.6977 30 10.471C29.1843 10.0481 28.6301 9.22634 28.6301 8.28427V5.55049C28.6301 2.49003 26.007 0 22.783 0H22V3.05983H22.783C24.2296 3.05983 25.4061 4.17727 25.4061 5.55049Z" fill="#37384F"/>
</g>
</svg>
