<svg width="86" height="87" viewBox="0 0 86 87" fill="none" xmlns="http://www.w3.org/2000/svg">
<mask id="mask0_136_1750" style="mask-type:alpha" maskUnits="userSpaceOnUse" x="0" y="0" width="86" height="87">
<path fill-rule="evenodd" clip-rule="evenodd" d="M0.201172 0.739258H85.6714V86.1954H0.201172V0.739258Z" fill="white"/>
</mask>
<g mask="url(#mask0_136_1750)">
<path fill-rule="evenodd" clip-rule="evenodd" d="M69.8338 59.7245C66.4975 59.7245 63.783 57.0105 63.783 53.6748C63.783 50.7695 65.8442 48.3377 68.5821 47.7592V44.7186H62.0425H56.5622H52.9961C52.428 49.3116 48.7814 52.9563 44.1888 53.5255V65.3497C46.9243 65.9282 48.9867 68.3588 48.9867 71.2653C48.9867 74.5998 46.2722 77.3127 42.9359 77.3127C39.5996 77.3127 36.8851 74.5998 36.8851 71.2653C36.8851 68.3588 38.9475 65.9282 41.6842 65.3497V53.5255C37.0904 52.9563 33.445 49.3116 32.8757 44.7198H32.7264H23.113H19.7966V52.7534C22.5333 53.3319 24.5957 55.7625 24.5957 58.6678C24.5957 62.0047 21.8812 64.7187 18.5449 64.7187C15.2098 64.7187 12.4953 62.0047 12.4953 58.6678C12.4953 55.7625 14.5565 53.3319 17.2932 52.7534V42.2157H23.113V35.4148C20.3764 34.8363 18.3151 32.4057 18.3151 29.4992C18.3151 26.1635 21.0296 23.4495 24.3647 23.4495C27.701 23.4495 30.4144 26.1635 30.4144 29.4992C30.4144 32.4057 28.3531 34.8363 25.6176 35.4148V42.2157H32.7264H32.8757C33.4963 37.2121 37.767 33.3248 42.9359 33.3248C48.106 33.3248 52.3766 37.2121 52.9961 42.2157H56.5622H59.5392V32.394C56.8036 31.8144 54.7412 29.3838 54.7412 26.4784C54.7412 23.1427 57.4569 20.4287 60.792 20.4287C64.1271 20.4287 66.8428 23.1427 66.8428 26.4784C66.8428 29.3849 64.7804 31.8155 62.0425 32.394V42.2157H71.0855V47.7592C73.8222 48.3377 75.8834 50.7695 75.8834 53.6748C75.8834 57.0105 73.1689 59.7245 69.8338 59.7245ZM42.9358 7.44165C46.2721 7.44165 48.9866 10.1557 48.9866 13.4902C48.9866 16.3967 46.9242 18.8273 44.1887 19.407V33.2606H41.6841V19.407C38.9475 18.8285 36.885 16.3967 36.885 13.4902C36.885 10.1557 39.5996 7.44165 42.9358 7.44165ZM42.9358 0.73877C19.3346 0.73877 0.201172 19.87 0.201172 43.4671C0.201172 67.0641 19.3346 86.1953 42.9358 86.1953C66.5383 86.1953 85.6717 67.0641 85.6717 43.4671C85.6717 19.87 66.5383 0.73877 42.9358 0.73877Z" fill="#2970F1"/>
</g>
</svg>
