<svg width="86" height="86" viewBox="0 0 86 86" fill="none" xmlns="http://www.w3.org/2000/svg">
<path fill-rule="evenodd" clip-rule="evenodd" d="M35.6889 45.7855C35.9409 45.971 36.061 45.7074 36.1917 45.5849C36.9324 44.8956 37.4072 44.0185 37.8727 43.1333C37.2311 43.4482 36.6501 43.8308 36.1322 44.2996C35.886 44.5224 35.6457 44.7603 35.5034 45.0683C35.3728 45.3493 35.4416 45.6048 35.6889 45.7855Z" fill="#13C1C2"/>
<mask id="mask0_136_1839" style="mask-type:alpha" maskUnits="userSpaceOnUse" x="0" y="0" width="86" height="86">
<path fill-rule="evenodd" clip-rule="evenodd" d="M0.201172 0.0913086H85.6714V85.5463H0.201172V0.0913086Z" fill="white"/>
</mask>
<g mask="url(#mask0_136_1839)">
<path fill-rule="evenodd" clip-rule="evenodd" d="M59.7069 67.3135C55.5763 67.3193 51.4444 67.3158 47.3137 67.3158C40.3274 67.3158 33.341 67.3147 26.3547 67.3182C25.9184 67.3193 25.4996 67.2785 25.0995 67.0861C24.3483 66.7257 23.9131 66.1903 23.9143 65.3016C23.9236 50.5663 23.9201 35.8309 23.9248 21.0956C23.9248 20.7469 23.9493 20.3912 24.017 20.0494C24.1954 19.156 24.7752 18.6125 25.6151 18.3186H50.8833C51.3488 18.5075 51.7104 18.8318 52.0615 19.1828C55.1015 22.2328 58.1426 25.2827 61.2001 28.314C61.6994 28.8097 61.963 29.3578 61.9537 30.0506C61.9513 30.2419 61.9583 30.4332 61.9583 30.6245C61.9583 42.1069 61.9583 53.5882 61.9583 65.0706C61.9583 66.4877 61.1429 67.3112 59.7069 67.3135ZM42.9358 0.0913086C19.3346 0.0913086 0.201172 19.2225 0.201172 42.8196C0.201172 66.4166 19.3346 85.5467 42.9358 85.5467C66.5383 85.5467 85.6717 66.4166 85.6717 42.8196C85.6717 19.2225 66.5383 0.0913086 42.9358 0.0913086Z" fill="#13C1C2"/>
</g>
<path fill-rule="evenodd" clip-rule="evenodd" d="M34.9759 43.4422C35.9721 42.4509 37.1783 41.7651 38.4394 41.1807C38.8873 40.972 39.1509 40.6827 39.3469 40.2279C40.4773 37.6071 41.4117 34.9211 42.1664 32.1697C42.2434 31.8922 42.2224 31.6577 42.1092 31.3953C41.5726 30.1497 41.078 28.8912 41.015 27.5114C40.994 27.0449 41.043 26.5889 41.2157 26.1515C41.5283 25.3666 42.1862 24.9525 43.0215 25.0144C43.5044 25.0505 44.2638 25.9008 44.3746 26.5504C44.4248 26.8478 44.4388 27.1511 44.4551 27.319C44.3863 28.7477 44.1367 30.0132 43.8427 31.2693C43.789 31.4991 43.7995 31.6962 43.9104 31.9108C44.9847 33.9822 46.2306 35.9381 47.7832 37.6911C47.9792 37.9139 48.1437 38.0212 48.4657 37.9629C49.4059 37.7914 50.3566 37.6934 51.319 37.7401C51.6724 37.7564 52.0131 37.8182 52.3514 37.915C53.3604 38.2066 53.7489 39.058 53.3021 40.0028C52.7036 41.2682 51.5325 41.7651 50.2038 41.3102C49.3277 41.0093 48.6021 40.4646 47.9337 39.843C47.7016 39.6284 47.4916 39.5736 47.1696 39.6482C44.8867 40.1835 42.6645 40.9008 40.4936 41.7872C40.2206 41.898 40.062 42.0683 39.9337 42.3249C39.2933 43.6067 38.6692 44.9001 37.7383 46.0093C37.5143 46.2764 37.2775 46.5423 37.0104 46.7639C36.5029 47.185 35.9337 47.5057 35.2606 47.1896C34.535 46.8502 34.0777 46.2717 34.0252 45.4495C33.9716 44.6144 34.4218 43.9939 34.9759 43.4422ZM26.1594 51.2659C31.7436 51.2519 37.3266 51.2566 42.9096 51.2566C48.5089 51.2566 54.1083 51.2507 59.7076 51.2682C60.1812 51.2706 60.2745 51.1376 60.2734 50.6874C60.2582 44.0044 60.2629 37.3214 60.2629 30.6383C60.2629 30.5427 60.2582 30.4471 60.2629 30.3514C60.271 30.1776 60.2267 30.1193 60.0202 30.1205C56.8624 30.1403 53.7035 30.138 50.5457 30.1613C50.1596 30.1648 50.1117 30.019 50.1129 29.6878C50.1246 26.6414 50.1071 23.5949 50.1327 20.5497C50.1374 20.096 50.0161 20.0073 49.5915 20.0073C41.8702 20.019 34.1501 20.0155 26.4289 20.0167C25.7628 20.0167 25.6613 20.1111 25.6216 20.7701C25.6135 20.8972 25.617 21.0255 25.617 21.1527C25.617 31.0092 25.6205 40.867 25.6065 50.7235C25.6053 51.1714 25.7348 51.2671 26.1594 51.2659Z" fill="#13C1C2"/>
<path fill-rule="evenodd" clip-rule="evenodd" d="M46.2192 38.0554C45.9252 37.6997 45.6406 37.3346 45.3618 36.966C44.5942 35.9525 43.9281 34.8713 43.269 33.7505C42.5224 35.8615 41.791 37.9271 41.0444 40.0405C42.7324 39.3862 44.4029 38.8613 46.106 38.4484C46.4513 38.3645 46.3883 38.2595 46.2192 38.0554Z" fill="#13C1C2"/>
<path fill-rule="evenodd" clip-rule="evenodd" d="M51.9259 39.5598C52.0227 39.4001 52.0647 39.2484 51.8267 39.2169C51.1093 39.1201 50.393 39.1318 49.5566 39.2496C49.8984 39.5109 50.1306 39.7255 50.3965 39.8841C50.8982 40.1815 51.6564 40.0042 51.9259 39.5598Z" fill="#13C1C2"/>
<path fill-rule="evenodd" clip-rule="evenodd" d="M42.9107 26.7975C42.8034 26.5736 42.6996 26.5083 42.5328 26.7765C42.0673 27.523 42.1537 28.4828 42.8069 29.1838C43.1464 28.3744 43.2922 27.5965 42.9107 26.7975Z" fill="#13C1C2"/>
<path fill-rule="evenodd" clip-rule="evenodd" d="M53.4466 56.4938C52.4119 56.4623 51.3748 56.4973 50.339 56.4763C49.9983 56.4693 49.905 56.5754 49.9179 56.9067C49.9435 57.5423 49.9377 58.1814 49.9202 58.8182C49.9132 59.0947 50.0112 59.1716 50.2771 59.1681C51.1859 59.1541 52.0946 59.1786 53.0022 59.1553C53.3638 59.146 53.4944 59.2288 53.4921 59.6207C53.4898 60.0207 53.3743 60.1327 52.9788 60.1198C52.1028 60.0895 51.2255 60.1245 50.3495 60.1035C50.0228 60.0954 49.9097 60.1817 49.9179 60.5246C49.94 61.5124 49.912 62.5003 49.933 63.4882C49.94 63.8287 49.8712 63.9617 49.4932 63.9547C48.5075 63.9395 48.5064 63.9594 48.5064 62.9843C48.5064 61.8845 48.5064 60.7846 48.5064 59.686C48.5064 58.4112 48.5169 57.1352 48.4994 55.8616C48.4959 55.5327 48.5833 55.4219 48.924 55.4266C50.4381 55.4429 51.9523 55.4511 53.4664 55.4243C53.9692 55.4149 53.8269 55.7322 53.8444 55.9899C53.8631 56.2745 53.8771 56.5066 53.4466 56.4938ZM46.4183 60.5537C46.1687 61.9055 45.6333 63.0415 44.2883 63.6223C43.8287 63.8217 43.3434 63.9267 42.8488 63.936C41.8934 63.9559 40.9357 63.9325 39.9803 63.9512C39.6549 63.957 39.6222 63.7984 39.6234 63.5407C39.6304 62.2495 39.6269 60.9596 39.6269 59.6685C39.6269 58.4089 39.6374 57.1504 39.6199 55.892C39.6152 55.5514 39.6863 55.4091 40.0643 55.4243C40.8447 55.4581 41.6274 55.4173 42.4067 55.4511C45.2705 55.5736 46.9433 57.7184 46.4183 60.5537ZM35.4075 60.823C35.0587 60.8533 34.7064 60.8825 34.3576 60.865C34.0298 60.8475 33.9529 60.9816 33.9587 61.2825C33.9762 62.015 33.9424 62.7486 33.9739 63.4811C33.9902 63.8718 33.8502 63.9604 33.4839 63.9534C32.5915 63.9348 32.5915 63.9522 32.5915 63.0378V59.6438C32.5915 58.4005 32.6102 57.1584 32.581 55.9151C32.5717 55.5034 32.7023 55.4007 33.0908 55.4264C33.9948 55.4882 34.9094 55.3261 35.8053 55.5337C37.2728 55.8719 38.0742 56.9485 37.968 58.4005C37.8701 59.75 36.8703 60.6994 35.4075 60.823ZM59.7225 52.9492C54.1255 52.9632 48.5285 52.9586 42.9315 52.9586C37.3345 52.9586 31.7375 52.9621 26.1393 52.9504C25.7427 52.9492 25.6015 53.0145 25.605 53.4589C25.626 57.2541 25.6167 61.0482 25.6167 64.8434C25.6167 65.556 25.6762 65.6179 26.3715 65.6179C37.422 65.6179 48.4737 65.6179 59.5242 65.6179C60.1961 65.6179 60.2614 65.5502 60.2626 64.8749C60.2626 61.0797 60.2544 57.2856 60.2731 53.4904C60.2754 53.0472 60.1518 52.9481 59.7225 52.9492Z" fill="#13C1C2"/>
<path fill-rule="evenodd" clip-rule="evenodd" d="M52.2273 28.465C54.3469 28.4545 56.4677 28.4603 58.5873 28.4568C58.6701 28.4568 58.7833 28.5082 58.8089 28.4323C56.4828 26.1067 54.1766 23.7997 51.8424 21.4658C51.833 21.5451 51.8214 21.6069 51.8214 21.6699C51.8202 23.8055 51.8272 25.9411 51.812 28.0766C51.8109 28.4055 51.9322 28.4662 52.2273 28.465Z" fill="#13C1C2"/>
<path fill-rule="evenodd" clip-rule="evenodd" d="M43.7936 56.9195C43.0564 56.4961 42.2457 56.4973 41.4314 56.4751C41.0849 56.4658 41.0103 56.5836 41.0138 56.909C41.029 58.5803 41.0208 60.2517 41.0208 61.9231C41.0208 62.9168 41.0208 62.9168 42.0053 62.8981C42.2445 62.8981 42.4848 62.9144 42.7216 62.8958C43.7668 62.8083 44.4609 62.2765 44.7782 61.2629C45.064 60.3485 45.134 59.4213 44.9415 58.4835C44.8015 57.7931 44.4084 57.2717 43.7936 56.9195Z" fill="#13C1C2"/>
<path fill-rule="evenodd" clip-rule="evenodd" d="M34.8928 56.4844C34.7178 56.482 34.5405 56.4984 34.3679 56.4809C34.0634 56.4482 33.9362 56.5508 33.9549 56.8751C33.9806 57.3043 33.9607 57.7347 33.9607 58.1651V58.6899C33.9607 59.9356 33.9607 59.9367 35.2171 59.8469C35.7164 59.8108 36.1515 59.6545 36.4151 59.1868C37.1722 57.8467 36.4198 56.5089 34.8928 56.4844Z" fill="#13C1C2"/>
<path fill-rule="evenodd" clip-rule="evenodd" d="M60.262 64.8746C60.262 65.5499 60.1955 65.6175 59.5236 65.6175C48.473 65.6187 37.4225 65.6187 26.3708 65.6175C25.6767 65.6175 25.6172 65.5557 25.6172 64.8431C25.616 61.0479 25.6254 57.2539 25.6044 53.4598C25.602 53.0143 25.742 52.949 26.1398 52.9501C31.7368 52.9618 37.3338 52.9583 42.9308 52.9583C48.529 52.9583 54.126 52.963 59.723 52.949C60.1523 52.9478 60.276 53.047 60.2736 53.4913C60.2538 57.2854 60.2631 61.0806 60.262 64.8746ZM25.6173 21.1525C25.6173 21.0253 25.6138 20.897 25.622 20.7699C25.6616 20.1109 25.7631 20.0165 26.4292 20.0165C34.1493 20.0165 41.8705 20.02 49.5918 20.0071C50.0152 20.0071 50.1366 20.0958 50.1331 20.5495C50.1074 23.5959 50.1237 26.6424 50.1132 29.6888C50.1121 30.0189 50.1599 30.1647 50.546 30.1612C53.7038 30.1378 56.8616 30.1402 60.0194 30.1215C60.2259 30.1203 60.2714 30.1775 60.262 30.3524C60.2574 30.4469 60.262 30.5437 60.262 30.6393C60.262 37.3224 60.2574 44.0054 60.2725 50.6873C60.2737 51.1387 60.1815 51.2704 59.7079 51.2693C54.1086 51.2506 48.5093 51.2576 42.9099 51.2576C37.3269 51.2576 31.7427 51.2529 26.1597 51.2658C25.7339 51.2669 25.6056 51.1725 25.6056 50.7234C25.6196 40.8668 25.6161 31.0102 25.6173 21.1525ZM51.8209 21.6691C51.8209 21.6073 51.8338 21.5443 51.8419 21.465C54.1761 23.8 56.4824 26.1059 58.8084 28.4316C58.7827 28.5086 58.6696 28.4572 58.5868 28.4572C56.4672 28.4596 54.3476 28.4549 52.2269 28.4654C51.9318 28.4666 51.8104 28.4059 51.8128 28.0758C51.8268 25.9403 51.8198 23.8047 51.8209 21.6691ZM61.9535 30.0504C61.9628 29.3576 61.6992 28.8094 61.1999 28.3149C58.1424 25.2825 55.1013 22.2337 52.0613 19.1838C51.7113 18.8315 51.3497 18.5085 50.8843 18.3184H25.6149C24.775 18.6123 24.1952 19.1558 24.0167 20.0504C23.9491 20.3909 23.9246 20.7466 23.9246 21.0954C23.9199 35.8307 23.9234 50.5661 23.9141 65.3014C23.9129 66.1913 24.348 66.7255 25.0993 67.0871C25.4994 67.2795 25.9182 67.3192 26.3556 67.3192C33.3408 67.3145 40.3272 67.3157 47.3135 67.3157C51.4454 67.3157 55.5761 67.3203 59.7068 67.3133C61.1428 67.3122 61.9582 66.4876 61.9582 65.0705C61.9582 53.5892 61.9582 42.1067 61.9582 30.6243C61.9582 30.433 61.9512 30.2417 61.9535 30.0504Z" fill="white"/>
<path fill-rule="evenodd" clip-rule="evenodd" d="M35.5032 45.068C35.6455 44.7612 35.8859 44.5221 36.132 44.2994C36.6499 43.8305 37.2309 43.4479 37.8725 43.133C37.407 44.0183 36.9322 44.8954 36.1915 45.5847C36.0608 45.7072 35.9407 45.9708 35.6887 45.7853C35.4414 45.6045 35.3726 45.3491 35.5032 45.068ZM43.2688 33.7501C43.9279 34.8709 44.594 35.952 45.3616 36.9656C45.6416 37.3341 45.925 37.6992 46.219 38.0549C46.3882 38.259 46.4511 38.3651 46.1058 38.4479C44.4027 38.8608 42.7334 39.3868 41.0443 40.0399C41.792 37.9277 42.5223 35.8611 43.2688 33.7501ZM42.5328 26.7767C42.6985 26.5085 42.8035 26.5726 42.9108 26.7977C43.2911 27.5966 43.1464 28.3746 42.807 29.184C42.1525 28.4831 42.0662 27.5232 42.5328 26.7767ZM51.8265 39.2178C52.0645 39.2493 52.0225 39.4009 51.9257 39.5607C51.6562 40.0039 50.898 40.1824 50.3976 39.8849C50.1304 39.7263 49.8983 39.5117 49.5565 39.2505C50.3929 39.1327 51.1091 39.121 51.8265 39.2178ZM35.2607 47.1896C35.9338 47.5056 36.5031 47.1849 37.0105 46.7639C37.2776 46.5423 37.5144 46.2763 37.7384 46.0093C38.6693 44.9013 39.2934 43.6066 39.9338 42.3249C40.0621 42.0683 40.2208 41.898 40.4938 41.7872C42.6635 40.9008 44.8869 40.1835 47.1698 39.6493C47.4906 39.5735 47.7017 39.6283 47.9339 39.8441C48.6023 40.4657 49.3279 41.0093 50.2039 41.3102C51.5326 41.765 52.7026 41.2682 53.3022 40.0027C53.749 39.0592 53.3594 38.2066 52.3515 37.9162C52.0132 37.8182 51.6726 37.7564 51.3191 37.7401C50.3568 37.6934 49.406 37.7914 48.4658 37.9628C48.1439 38.0223 47.9794 37.9138 47.7834 37.6922C46.2307 35.9381 44.9849 33.9834 43.9105 31.9108C43.7997 31.6962 43.7892 31.4991 43.8429 31.2705C44.1368 30.0132 44.3865 28.7489 44.4553 27.319C44.439 27.1511 44.425 26.8478 44.3748 26.5516C44.264 25.9008 43.5046 25.0517 43.0216 25.0155C42.1864 24.9525 41.5273 25.3678 41.2158 26.1515C41.042 26.5889 40.9942 27.0449 41.0152 27.5115C41.077 28.8912 41.5728 30.1508 42.1094 31.3953C42.2225 31.6577 42.2435 31.8933 42.1666 32.1697C41.4118 34.9211 40.4774 37.6083 39.3471 40.2278C39.1499 40.6827 38.8874 40.9719 38.4383 41.1807C37.1785 41.7662 35.9723 42.4508 34.9761 43.4422C34.422 43.9939 33.9717 44.6143 34.0253 45.4494C34.0778 46.2728 34.5351 46.8502 35.2607 47.1896Z" fill="white"/>
<path fill-rule="evenodd" clip-rule="evenodd" d="M44.7776 61.2628C44.4615 62.2763 43.7662 62.8093 42.721 62.8956C42.4842 62.9155 42.2439 62.898 42.0048 62.898C41.0202 62.9166 41.0202 62.9166 41.0202 61.9241C41.0202 60.2516 41.0284 58.5803 41.0132 56.9089C41.0097 56.5835 41.0844 56.4657 41.4308 56.4751C42.2451 56.4984 43.0558 56.4972 43.793 56.9194C44.409 57.2728 44.8009 57.793 44.9421 58.4835C45.1334 59.4212 45.0634 60.3484 44.7776 61.2628ZM42.4062 55.4498C41.6269 55.4171 40.8442 55.4579 40.0638 55.4241C39.6858 55.4078 39.6147 55.5512 39.6193 55.8906C39.6368 57.1503 39.6263 58.4087 39.6263 59.6683C39.6263 60.9595 39.6298 62.2494 39.6228 63.5405C39.6217 63.7983 39.6543 63.9569 39.9798 63.9511C40.9352 63.9324 41.8929 63.9557 42.8483 63.9359C43.3429 63.9266 43.8282 63.8204 44.2878 63.6222C45.6328 63.0402 46.1682 61.9042 46.4178 60.5536C46.9428 57.7183 45.27 55.5734 42.4062 55.4498Z" fill="white"/>
<path fill-rule="evenodd" clip-rule="evenodd" d="M36.4154 59.1871C36.1517 59.6547 35.7166 59.811 35.2173 59.8472C33.961 59.937 33.961 59.9358 33.961 58.6902V58.1654C33.961 57.735 33.9808 57.3035 33.9551 56.8754C33.9353 56.55 34.0636 56.4486 34.3681 56.4801C34.5407 56.4987 34.7181 56.4812 34.893 56.4847C36.42 56.5092 37.1724 57.8458 36.4154 59.1871ZM35.8053 55.5329C34.9094 55.3265 33.9937 55.4875 33.0908 55.4268C32.7023 55.4 32.5717 55.5038 32.581 55.9155C32.609 57.1576 32.5915 58.401 32.5915 59.6443V63.0383C32.5915 63.9515 32.5915 63.9352 33.4839 63.9527C33.8502 63.9608 33.9902 63.8722 33.9727 63.4803C33.9424 62.749 33.975 62.0142 33.9587 61.2818C33.9517 60.9809 34.0287 60.8479 34.3577 60.8642C34.7064 60.8817 35.0587 60.8526 35.4075 60.8234C36.8692 60.6998 37.8701 59.7492 37.9681 58.3998C38.0742 56.9489 37.2716 55.8723 35.8053 55.5329Z" fill="white"/>
<path fill-rule="evenodd" clip-rule="evenodd" d="M53.4661 55.4235C51.9519 55.4504 50.4378 55.4434 48.9236 55.4259C48.583 55.4224 48.4955 55.532 48.5002 55.8609C48.5165 57.1357 48.5072 58.4105 48.5072 59.6853C48.5072 60.7851 48.5072 61.8838 48.5072 62.9837C48.5072 63.9587 48.5072 63.9389 49.4929 63.9552C49.8708 63.961 49.9408 63.8292 49.9327 63.4875C49.9117 62.5008 49.9397 61.5118 49.9175 60.5239C49.9093 60.1821 50.0225 60.0958 50.3491 60.1028C51.2252 60.1238 52.1036 60.0888 52.9785 60.1192C53.3739 60.1332 53.4906 60.0212 53.4929 59.6211C53.4952 59.2281 53.3634 59.1453 53.0029 59.1546C52.0942 59.1779 51.1855 59.1546 50.2768 59.1674C50.0108 59.1709 49.9128 59.094 49.9198 58.8175C49.9373 58.1807 49.9432 57.5416 49.9187 56.9059C49.9047 56.5747 49.998 56.4686 50.3386 56.4756C51.3745 56.4977 52.4115 56.4627 53.4462 56.4931C53.8767 56.5059 53.8627 56.2738 53.844 55.9892C53.8265 55.7315 53.97 55.4142 53.4661 55.4235Z" fill="white"/>
</svg>
