<svg width="46" height="46" viewBox="0 0 46 46" fill="none" xmlns="http://www.w3.org/2000/svg">
<circle cx="23" cy="23" r="23" fill="#ECECEF"/>
<path fill-rule="evenodd" clip-rule="evenodd" d="M11.076 19.6002C11.076 20.86 10.0131 21.8852 8.70697 21.8852H8V24.6924H8.70697C11.6186 24.6924 13.987 22.4079 13.987 19.6002V17.0922C13.987 15.8323 15.0493 14.8072 16.3554 14.8072H17.0624V12H16.3554C13.4444 12 11.076 14.2844 11.076 17.0922V19.6002Z" fill="white"/>
<path fill-rule="evenodd" clip-rule="evenodd" d="M34.986 29.8749V27.3668C34.986 26.107 36.0488 25.0818 37.3549 25.0818H38.0624V22.2747H37.3549C34.4435 22.2747 32.0752 24.5591 32.0752 27.3668V29.8749C32.0752 31.1347 31.013 32.1598 29.7069 32.1598H29V34.967H29.7069C32.6177 34.967 34.986 32.6826 34.986 29.8749Z" fill="white"/>
<path fill-rule="evenodd" clip-rule="evenodd" d="M26.6458 23.3242C26.6458 25.1602 25.1582 26.6484 23.3229 26.6484C21.4875 26.6484 20 25.1602 20 23.3242C20 21.4881 21.4875 20 23.3229 20C25.1582 20 26.6458 21.4881 26.6458 23.3242Z" fill="white"/>
<path fill-rule="evenodd" clip-rule="evenodd" d="M14.1944 29.935V27.4567C14.1944 26.1986 13.7049 25.0157 12.8188 24.0876C12.0572 24.7752 11.0992 25.2688 10.0312 25.4743C10.7698 25.8577 11.2727 26.6027 11.2727 27.4567V29.935C11.2727 32.7095 13.6499 34.9668 16.5722 34.9668H17.2812V32.1929H16.5722C15.2612 32.1929 14.1944 31.1799 14.1944 29.935Z" fill="white"/>
<path fill-rule="evenodd" clip-rule="evenodd" d="M32.3055 17.0321V19.5105C32.3055 20.7681 32.795 21.9516 33.6817 22.8792C34.4433 22.1915 35.4007 21.6985 36.4687 21.493C35.7295 21.1096 35.2272 20.3646 35.2272 19.5105V17.0321C35.2272 14.2575 32.85 12 29.9283 12H29.2188V14.774H29.9283C31.2393 14.774 32.3055 15.7871 32.3055 17.0321Z" fill="white"/>
</svg>
