<?xml version="1.0" encoding="utf-8"?>
<!-- Generator: Adobe Illustrator 25.4.1, SVG Export Plug-In . SVG Version: 6.00 Build 0)  -->
<svg version="1.1" id="Layer_1" xmlns="http://www.w3.org/2000/svg" xmlns:xlink="http://www.w3.org/1999/xlink" x="0px" y="0px"
	 viewBox="0 0 62 86" style="enable-background:new 0 0 62 86;" xml:space="preserve">
<style type="text/css">
	.st0{fill:#EBF1FD;}
	.st1{fill:#37384F;}
	.st2{fill:url(#SVGID_1_);}
	.st3{fill:#FFFFFF;}
	.st4{fill:url(#SVGID_00000183927774885586857040000003565785031168556418_);}
	.st5{fill:url(#SVGID_00000005256171552074063900000015551150350137683354_);}
	.st6{fill:url(#SVGID_00000138536159582875850760000000434343504944824717_);}
	.st7{fill:url(#SVGID_00000120523967156503878240000007357219937368850616_);}
	.st8{fill:url(#SVGID_00000034085962708129449770000014332626813362887820_);}
	.st9{fill:url(#SVGID_00000131335223519378388750000005832704431757619123_);}
	.st10{fill:url(#SVGID_00000013890329071518803690000003224352534381102215_);}
	.st11{fill:url(#SVGID_00000080912225847204939300000007844194308492521904_);}
	.st12{fill:url(#SVGID_00000095299456199454233510000015560580864921419428_);}
	.st13{fill:#DDE7FC;}
	.st14{fill:url(#SVGID_00000067924844757688822800000000449684462900364967_);}
	.st15{fill:url(#SVGID_00000059288022613812822620000003624856217976865955_);}
	.st16{fill:#2870EF;}
	.st17{fill:none;stroke:url(#SVGID_00000178173747890038907570000017239428912031531142_);stroke-width:0.5;stroke-miterlimit:10;}
	.st18{fill:url(#SVGID_00000155862795215327175790000005646336509481145534_);}
	.st19{fill:url(#SVGID_00000134935637295143513220000017780783022777577615_);}
	.st20{fill:url(#SVGID_00000134210329424878792330000015284140554446979766_);}
	.st21{fill:url(#SVGID_00000027572218653904799470000004819572027879864749_);}
	.st22{fill:#588DF3;}
	.st23{fill:#ABC5F9;}
	.st24{fill:none;stroke:#EBF1FD;stroke-linecap:round;stroke-linejoin:round;stroke-miterlimit:10;}
	.st25{fill:url(#SVGID_00000161596440452822766600000009101328590744538042_);}
	.st26{fill:url(#SVGID_00000094612658439490647890000001894603233570562464_);}
	.st27{opacity:0.71;}
	.st28{fill:url(#SVGID_00000028307012110828953300000003915968378731858872_);}
	.st29{fill:url(#SVGID_00000142174231243320670240000007517305595551976382_);}
	.st30{fill:url(#SVGID_00000155864254633449829810000012725518806338133430_);}
	.st31{fill:url(#SVGID_00000033328433238650813810000008476675105295131310_);}
	.st32{fill:url(#SVGID_00000153702543940274057980000015469634935844657584_);}
	.st33{fill:url(#SVGID_00000144336112625160519160000014144959662429712280_);}
	.st34{fill:#2A70F2;}
	.st35{fill:#373851;}
	.st36{fill:#14C1C1;}
	.st37{fill:url(#SVGID_00000021078041787727597720000012058573522259000973_);}
	.st38{fill:url(#SVGID_00000122685031724088876330000004969733104470881712_);}
	.st39{fill:url(#SVGID_00000155141587681050704940000002298047337885034926_);}
	.st40{fill:url(#SVGID_00000173154481198631893010000004875033544806630297_);}
	.st41{fill:url(#SVGID_00000063624173978267562420000014744944327320740496_);}
	.st42{fill:url(#SVGID_00000145037004252713168820000017877946437433947547_);}
	.st43{fill:url(#SVGID_00000023974053362136707000000015119554589747723692_);}
	.st44{fill:url(#SVGID_00000083781337722333417490000008450298307570545039_);}
	.st45{fill:url(#SVGID_00000034055026007818721480000004625442939073059515_);}
	.st46{fill:url(#SVGID_00000017514091518569562110000014162903559560234403_);}
	.st47{fill:url(#SVGID_00000116207433486500201130000001048043623420521099_);}
	.st48{fill:url(#SVGID_00000060001902652548822020000011890020799965923483_);}
	.st49{fill:url(#SVGID_00000094613190983227300920000000637774650467595145_);}
	.st50{fill:url(#SVGID_00000124156112489872646610000000690071616268477596_);}
	.st51{fill:url(#SVGID_00000114032348460121384020000017842287804633373322_);}
	.st52{fill:url(#SVGID_00000106831790594210916680000008564370499413726890_);}
	.st53{fill:url(#SVGID_00000115472845557277652550000007101728542593187461_);}
	.st54{fill:url(#SVGID_00000134959438925206881730000003267649995893351062_);}
	.st55{fill:url(#SVGID_00000097483781513474122840000007367398521194922657_);}
	
		.st56{clip-path:url(#SVGID_00000029005596193520677080000007158133983435446929_);fill:url(#SVGID_00000094592347860681923760000007212004205440283792_);}
	.st57{clip-path:url(#SVGID_00000029005596193520677080000007158133983435446929_);}
	.st58{clip-path:url(#SVGID_00000029005596193520677080000007158133983435446929_);fill:#FFFFFF;stroke:#FFFFFF;}
	
		.st59{clip-path:url(#SVGID_00000029005596193520677080000007158133983435446929_);fill:url(#SVGID_00000072997090336087855430000003435562784775144882_);}
	
		.st60{clip-path:url(#SVGID_00000029005596193520677080000007158133983435446929_);fill:url(#SVGID_00000009553566980945470880000008114029415915899289_);}
	
		.st61{clip-path:url(#SVGID_00000029005596193520677080000007158133983435446929_);fill:url(#SVGID_00000131333894901573536770000011695078780786141868_);}
	
		.st62{clip-path:url(#SVGID_00000029005596193520677080000007158133983435446929_);fill:url(#SVGID_00000086685530430178192320000013551382403074300600_);}
	
		.st63{clip-path:url(#SVGID_00000029005596193520677080000007158133983435446929_);fill:none;stroke:#EBF1FD;stroke-linecap:round;stroke-linejoin:round;stroke-miterlimit:10;}
	.st64{fill:url(#SVGID_00000037690637113832297680000015244209858721845142_);}
	.st65{fill:url(#SVGID_00000178163484704541155980000016792013087047768969_);}
	.st66{fill:url(#SVGID_00000149341241316602122520000018150325492254607282_);}
	.st67{fill:url(#SVGID_00000131352999325962101390000010220237100550368140_);}
	.st68{fill:url(#SVGID_00000011745029276198344110000007533255148178440359_);}
	.st69{fill:url(#SVGID_00000064349243002756261260000009084429242337333396_);}
	.st70{fill:url(#SVGID_00000025442125559145371900000002916014436594886273_);}
	.st71{fill:url(#SVGID_00000026874558146203398790000016641898262331559569_);}
	.st72{fill:url(#SVGID_00000143584978541996541410000003859003516989327538_);}
	.st73{fill:url(#SVGID_00000179635830091564249550000001998515005576937140_);}
	.st74{fill:url(#SVGID_00000091737915703137488570000008984074329268998589_);}
	.st75{fill:#FDBD2C;}
	.st76{fill:#13C1C2;}
	.st77{fill:#2970F1;}
	.st78{fill:#42CF5A;}
	.st79{fill:#EE4A4E;}
	.st80{fill:#F77643;}
</style>
<g>
	<g>
		<defs>
			<rect id="SVGID_00000011715991912047044940000013398928781617258376_" x="3.04" y="2.27" width="56.32" height="78.41"/>
		</defs>
		<clipPath id="SVGID_00000156587436371262926200000007488927572699351455_">
			<use xlink:href="#SVGID_00000011715991912047044940000013398928781617258376_"  style="overflow:visible;"/>
		</clipPath>
		<linearGradient id="SVGID_1_" gradientUnits="userSpaceOnUse" x1="31.2005" y1="81.2812" x2="31.2005" y2="2.2734">
			<stop  offset="0" style="stop-color:#588DF3"/>
			<stop  offset="1" style="stop-color:#2661F5"/>
		</linearGradient>
		
			<rect x="3.04" y="2.27" style="clip-path:url(#SVGID_00000156587436371262926200000007488927572699351455_);fill:url(#SVGID_1_);" width="56.32" height="79.01"/>
		<g style="clip-path:url(#SVGID_00000156587436371262926200000007488927572699351455_);">
			<path class="st3" d="M14.38,33.66c-0.24,0-0.45-0.04-0.62-0.12s-0.3-0.19-0.39-0.33c-0.09-0.14-0.14-0.3-0.14-0.48h0.39
				c0,0.09,0.02,0.18,0.07,0.26c0.05,0.09,0.12,0.16,0.24,0.22c0.11,0.06,0.26,0.09,0.45,0.09c0.17,0,0.32-0.03,0.43-0.08
				s0.19-0.12,0.25-0.2c0.05-0.08,0.08-0.17,0.08-0.27c0-0.12-0.05-0.22-0.16-0.3c-0.1-0.08-0.25-0.13-0.45-0.15l-0.32-0.03
				c-0.26-0.02-0.46-0.1-0.62-0.24c-0.15-0.14-0.23-0.32-0.23-0.55c0-0.18,0.04-0.33,0.13-0.47c0.09-0.13,0.21-0.24,0.36-0.31
				s0.33-0.11,0.54-0.11c0.2,0,0.38,0.04,0.53,0.11c0.15,0.07,0.27,0.18,0.36,0.31c0.09,0.13,0.13,0.29,0.13,0.48h-0.39
				c0-0.09-0.02-0.18-0.07-0.26c-0.04-0.08-0.11-0.15-0.21-0.2s-0.21-0.08-0.36-0.08c-0.14,0-0.26,0.03-0.36,0.08
				c-0.09,0.05-0.16,0.12-0.21,0.2c-0.05,0.08-0.07,0.17-0.07,0.26c0,0.11,0.04,0.2,0.12,0.28c0.08,0.08,0.21,0.13,0.37,0.14
				l0.32,0.03c0.2,0.02,0.37,0.06,0.52,0.13c0.14,0.07,0.26,0.16,0.33,0.27c0.08,0.11,0.12,0.25,0.12,0.4
				c0,0.18-0.05,0.34-0.14,0.47s-0.23,0.25-0.4,0.32C14.81,33.62,14.6,33.66,14.38,33.66z"/>
			<path class="st3" d="M17.03,33.66c-0.19,0-0.35-0.03-0.48-0.1s-0.25-0.15-0.33-0.25s-0.15-0.22-0.19-0.35
				c-0.04-0.13-0.06-0.26-0.06-0.4v-0.07c0-0.14,0.02-0.27,0.06-0.4c0.04-0.13,0.1-0.25,0.19-0.35s0.19-0.19,0.33-0.25
				c0.13-0.06,0.29-0.09,0.46-0.09c0.23,0,0.42,0.05,0.57,0.15c0.15,0.1,0.26,0.23,0.33,0.38c0.07,0.16,0.11,0.32,0.11,0.5v0.17
				h-1.89v-0.29h1.61l-0.09,0.16c0-0.15-0.02-0.28-0.07-0.39s-0.12-0.2-0.22-0.26c-0.09-0.06-0.22-0.09-0.36-0.09
				c-0.15,0-0.28,0.03-0.38,0.1c-0.1,0.07-0.17,0.16-0.22,0.28c-0.05,0.12-0.07,0.26-0.07,0.41c0,0.15,0.02,0.29,0.07,0.41
				c0.05,0.12,0.13,0.22,0.23,0.29s0.23,0.11,0.39,0.11c0.17,0,0.3-0.04,0.41-0.11c0.1-0.07,0.17-0.16,0.19-0.26h0.36
				c-0.03,0.15-0.09,0.27-0.18,0.38c-0.09,0.11-0.2,0.19-0.33,0.24C17.34,33.63,17.19,33.66,17.03,33.66z"/>
			<path class="st3" d="M19.47,33.66c-0.18,0-0.34-0.03-0.48-0.1c-0.13-0.06-0.25-0.15-0.33-0.26c-0.09-0.11-0.15-0.23-0.2-0.36
				c-0.04-0.13-0.07-0.26-0.07-0.39v-0.07c0-0.14,0.02-0.27,0.07-0.4c0.04-0.13,0.11-0.25,0.2-0.35c0.09-0.1,0.2-0.19,0.33-0.25
				c0.13-0.06,0.29-0.1,0.47-0.1c0.18,0,0.34,0.03,0.48,0.1c0.14,0.07,0.26,0.16,0.34,0.28c0.09,0.12,0.13,0.26,0.15,0.43h-0.37
				c-0.02-0.13-0.08-0.24-0.18-0.33c-0.1-0.09-0.24-0.13-0.42-0.13c-0.15,0-0.28,0.03-0.38,0.1c-0.1,0.07-0.18,0.16-0.23,0.28
				c-0.05,0.12-0.08,0.25-0.08,0.41c0,0.15,0.03,0.28,0.08,0.4c0.05,0.12,0.13,0.22,0.23,0.29s0.23,0.11,0.38,0.11
				c0.12,0,0.22-0.02,0.31-0.06s0.16-0.1,0.21-0.17c0.05-0.07,0.08-0.15,0.1-0.24h0.37c-0.01,0.17-0.06,0.31-0.15,0.43
				c-0.09,0.12-0.21,0.22-0.35,0.29C19.82,33.63,19.65,33.66,19.47,33.66z"/>
			<path class="st3" d="M21.71,33.65c-0.25,0-0.45-0.08-0.58-0.25c-0.14-0.17-0.2-0.4-0.2-0.71v-1.24h0.38v1.31
				c0,0.17,0.04,0.3,0.14,0.39c0.09,0.09,0.21,0.14,0.37,0.14c0.16,0,0.29-0.05,0.39-0.15c0.1-0.1,0.15-0.24,0.15-0.42v-1.27h0.38
				v2.13h-0.3v-0.91h0.05c0,0.21-0.03,0.39-0.08,0.53c-0.06,0.14-0.14,0.25-0.25,0.33s-0.25,0.11-0.42,0.11H21.71z"/>
			<path class="st3" d="M23.48,33.59v-2.13h0.3v0.88h-0.02c0-0.31,0.07-0.54,0.21-0.68c0.14-0.14,0.34-0.22,0.62-0.22h0.07v0.34
				h-0.14c-0.21,0-0.38,0.06-0.49,0.17c-0.11,0.11-0.17,0.28-0.17,0.49v1.15H23.48z"/>
			<path class="st3" d="M24.89,31.76v-0.3h0.71v0.3H24.89z M25.32,31.12c-0.08,0-0.15-0.02-0.19-0.07c-0.04-0.05-0.06-0.1-0.06-0.17
				c0-0.07,0.02-0.13,0.06-0.17c0.04-0.05,0.1-0.07,0.19-0.07s0.15,0.02,0.19,0.07c0.04,0.04,0.06,0.1,0.06,0.17
				c0,0.07-0.02,0.13-0.06,0.17C25.47,31.1,25.41,31.12,25.32,31.12z M25.21,33.59v-2.13h0.38v2.13H25.21z"/>
			<path class="st3" d="M26.03,31.75v-0.29h1.47v0.29H26.03z M27.17,33.61c-0.16,0-0.3-0.02-0.41-0.07
				c-0.12-0.04-0.21-0.12-0.27-0.23s-0.09-0.26-0.09-0.45v-2.05h0.37v2.1c0,0.11,0.03,0.2,0.09,0.26c0.06,0.06,0.15,0.09,0.26,0.09
				h0.38v0.34H27.17z"/>
			<path class="st3" d="M28.5,33.54l-0.76-2.08h0.39l0.73,2.08H28.5z M27.89,34.42v-0.34h0.31c0.09,0,0.17-0.01,0.23-0.03
				s0.11-0.06,0.16-0.11c0.04-0.05,0.08-0.12,0.1-0.21l0.67-2.26h0.38l-0.71,2.35c-0.04,0.14-0.1,0.26-0.18,0.34
				c-0.08,0.09-0.17,0.15-0.28,0.2s-0.24,0.06-0.38,0.06H27.89z M28.54,33.54v-0.32H29v0.32H28.54z"/>
			<path class="st3" d="M32.12,33.66c-0.24,0-0.45-0.04-0.62-0.12s-0.3-0.19-0.39-0.33c-0.09-0.14-0.14-0.3-0.14-0.48h0.39
				c0,0.09,0.02,0.18,0.07,0.26c0.05,0.09,0.12,0.16,0.24,0.22c0.11,0.06,0.26,0.09,0.45,0.09c0.17,0,0.32-0.03,0.43-0.08
				s0.19-0.12,0.25-0.2c0.05-0.08,0.08-0.17,0.08-0.27c0-0.12-0.05-0.22-0.16-0.3c-0.1-0.08-0.25-0.13-0.45-0.15l-0.32-0.03
				c-0.26-0.02-0.46-0.1-0.62-0.24c-0.15-0.14-0.23-0.32-0.23-0.55c0-0.18,0.04-0.33,0.13-0.47c0.09-0.13,0.21-0.24,0.36-0.31
				s0.33-0.11,0.54-0.11c0.2,0,0.38,0.04,0.53,0.11c0.15,0.07,0.27,0.18,0.36,0.31c0.09,0.13,0.13,0.29,0.13,0.48h-0.39
				c0-0.09-0.02-0.18-0.07-0.26c-0.04-0.08-0.11-0.15-0.21-0.2s-0.21-0.08-0.36-0.08c-0.14,0-0.26,0.03-0.36,0.08
				c-0.09,0.05-0.16,0.12-0.21,0.2c-0.05,0.08-0.07,0.17-0.07,0.26c0,0.11,0.04,0.2,0.12,0.28c0.08,0.08,0.21,0.13,0.37,0.14
				l0.32,0.03c0.2,0.02,0.37,0.06,0.52,0.13c0.14,0.07,0.26,0.16,0.33,0.27c0.08,0.11,0.12,0.25,0.12,0.4
				c0,0.18-0.05,0.34-0.14,0.47s-0.23,0.25-0.4,0.32C32.55,33.62,32.35,33.66,32.12,33.66z"/>
			<path class="st3" d="M34.78,33.66c-0.18,0-0.34-0.03-0.48-0.1c-0.13-0.06-0.25-0.15-0.33-0.26c-0.09-0.11-0.15-0.23-0.2-0.36
				c-0.04-0.13-0.07-0.26-0.07-0.39v-0.07c0-0.14,0.02-0.27,0.07-0.4c0.04-0.13,0.11-0.25,0.2-0.35c0.09-0.1,0.2-0.19,0.33-0.25
				c0.13-0.06,0.29-0.1,0.47-0.1c0.18,0,0.34,0.03,0.48,0.1c0.14,0.07,0.26,0.16,0.34,0.28c0.09,0.12,0.13,0.26,0.15,0.43h-0.37
				c-0.02-0.13-0.08-0.24-0.18-0.33c-0.1-0.09-0.24-0.13-0.42-0.13c-0.15,0-0.28,0.03-0.38,0.1c-0.1,0.07-0.18,0.16-0.23,0.28
				c-0.05,0.12-0.08,0.25-0.08,0.41c0,0.15,0.03,0.28,0.08,0.4c0.05,0.12,0.13,0.22,0.23,0.29s0.23,0.11,0.38,0.11
				c0.12,0,0.22-0.02,0.31-0.06s0.16-0.1,0.21-0.17c0.05-0.07,0.08-0.15,0.1-0.24h0.37c-0.01,0.17-0.06,0.31-0.15,0.43
				c-0.09,0.12-0.21,0.22-0.35,0.29C35.12,33.63,34.96,33.66,34.78,33.66z"/>
			<path class="st3" d="M37.26,33.66c-0.19,0-0.35-0.03-0.49-0.1s-0.26-0.15-0.36-0.25s-0.17-0.22-0.22-0.35
				c-0.05-0.13-0.07-0.26-0.07-0.4v-0.07c0-0.14,0.03-0.27,0.08-0.4c0.05-0.13,0.12-0.25,0.22-0.35c0.1-0.1,0.22-0.19,0.36-0.25
				c0.14-0.06,0.3-0.09,0.48-0.09s0.34,0.03,0.48,0.09s0.26,0.15,0.36,0.25s0.17,0.22,0.22,0.35c0.05,0.13,0.08,0.26,0.08,0.4v0.07
				c0,0.14-0.02,0.27-0.07,0.4c-0.05,0.13-0.12,0.25-0.22,0.35s-0.22,0.19-0.36,0.25S37.45,33.66,37.26,33.66z M37.26,33.32
				c0.16,0,0.3-0.04,0.41-0.11c0.11-0.07,0.2-0.17,0.26-0.29c0.06-0.12,0.09-0.25,0.09-0.4c0-0.15-0.03-0.29-0.09-0.41
				c-0.06-0.12-0.15-0.21-0.26-0.28c-0.11-0.07-0.25-0.1-0.4-0.1c-0.15,0-0.29,0.03-0.4,0.1c-0.11,0.07-0.2,0.16-0.26,0.28
				c-0.06,0.12-0.09,0.25-0.09,0.41c0,0.15,0.03,0.28,0.09,0.4c0.06,0.12,0.15,0.21,0.26,0.29S37.1,33.32,37.26,33.32z"/>
			<path class="st3" d="M38.98,33.59v-2.13h0.3v0.88h-0.02c0-0.31,0.07-0.54,0.21-0.68c0.14-0.14,0.34-0.22,0.62-0.22h0.07v0.34
				h-0.14c-0.21,0-0.38,0.06-0.49,0.17c-0.11,0.11-0.17,0.28-0.17,0.49v1.15H38.98z"/>
			<path class="st3" d="M41.49,33.66c-0.19,0-0.35-0.03-0.48-0.1s-0.25-0.15-0.33-0.25s-0.15-0.22-0.19-0.35
				c-0.04-0.13-0.06-0.26-0.06-0.4v-0.07c0-0.14,0.02-0.27,0.06-0.4c0.04-0.13,0.1-0.25,0.19-0.35s0.19-0.19,0.33-0.25
				c0.13-0.06,0.29-0.09,0.46-0.09c0.23,0,0.42,0.05,0.57,0.15c0.15,0.1,0.26,0.23,0.33,0.38c0.07,0.16,0.11,0.32,0.11,0.5v0.17
				H40.6v-0.29h1.61l-0.09,0.16c0-0.15-0.02-0.28-0.07-0.39s-0.12-0.2-0.22-0.26c-0.09-0.06-0.22-0.09-0.36-0.09
				c-0.15,0-0.28,0.03-0.38,0.1c-0.1,0.07-0.17,0.16-0.22,0.28c-0.05,0.12-0.07,0.26-0.07,0.41c0,0.15,0.02,0.29,0.07,0.41
				c0.05,0.12,0.13,0.22,0.23,0.29s0.23,0.11,0.39,0.11c0.17,0,0.3-0.04,0.41-0.11c0.1-0.07,0.17-0.16,0.19-0.26h0.36
				c-0.03,0.15-0.09,0.27-0.18,0.38c-0.09,0.11-0.2,0.19-0.33,0.24C41.81,33.63,41.66,33.66,41.49,33.66z"/>
			<path class="st3" d="M43.7,31.77v-0.29h1.33v0.29H43.7z M43.99,33.59v-2.24c0-0.24,0.06-0.41,0.19-0.52
				c0.12-0.11,0.31-0.17,0.55-0.17h0.26v0.32h-0.33c-0.1,0-0.17,0.03-0.23,0.08c-0.05,0.05-0.08,0.13-0.08,0.23v2.3H43.99z"/>
			<path class="st3" d="M46.41,33.66c-0.19,0-0.35-0.03-0.49-0.1s-0.26-0.15-0.36-0.25s-0.17-0.22-0.22-0.35
				c-0.05-0.13-0.07-0.26-0.07-0.4v-0.07c0-0.14,0.03-0.27,0.08-0.4c0.05-0.13,0.12-0.25,0.22-0.35c0.1-0.1,0.22-0.19,0.36-0.25
				c0.14-0.06,0.3-0.09,0.48-0.09s0.34,0.03,0.48,0.09s0.26,0.15,0.36,0.25s0.17,0.22,0.22,0.35c0.05,0.13,0.08,0.26,0.08,0.4v0.07
				c0,0.14-0.02,0.27-0.07,0.4c-0.05,0.13-0.12,0.25-0.22,0.35s-0.22,0.19-0.36,0.25S46.59,33.66,46.41,33.66z M46.41,33.32
				c0.16,0,0.3-0.04,0.41-0.11c0.11-0.07,0.2-0.17,0.26-0.29c0.06-0.12,0.09-0.25,0.09-0.4c0-0.15-0.03-0.29-0.09-0.41
				c-0.06-0.12-0.15-0.21-0.26-0.28c-0.11-0.07-0.25-0.1-0.4-0.1c-0.15,0-0.29,0.03-0.4,0.1c-0.11,0.07-0.2,0.16-0.26,0.28
				c-0.06,0.12-0.09,0.25-0.09,0.41c0,0.15,0.03,0.28,0.09,0.4c0.06,0.12,0.15,0.21,0.26,0.29S46.25,33.32,46.41,33.32z"/>
			<path class="st3" d="M48.12,33.59v-2.13h0.3v0.88h-0.02c0-0.31,0.07-0.54,0.21-0.68c0.14-0.14,0.34-0.22,0.62-0.22h0.07v0.34
				h-0.14c-0.21,0-0.38,0.06-0.49,0.17c-0.11,0.11-0.17,0.28-0.17,0.49v1.15H48.12z"/>
		</g>
		<g style="clip-path:url(#SVGID_00000156587436371262926200000007488927572699351455_);">
			<path class="st3" d="M12.03,18.92v-5.9h1.31v5.9H12.03z M13.18,18.92V17.7h1.08c0.27,0,0.52-0.04,0.73-0.12
				c0.22-0.08,0.4-0.2,0.56-0.35s0.27-0.33,0.35-0.55c0.08-0.22,0.12-0.45,0.12-0.71c0-0.27-0.04-0.51-0.12-0.73
				c-0.08-0.21-0.2-0.39-0.35-0.54s-0.34-0.26-0.56-0.34c-0.22-0.08-0.46-0.12-0.73-0.12h-1.08v-1.22h1.01
				c0.53,0,0.99,0.08,1.38,0.23c0.39,0.15,0.72,0.36,0.99,0.63s0.46,0.57,0.59,0.91c0.13,0.34,0.2,0.7,0.2,1.08v0.18
				c0,0.35-0.06,0.7-0.2,1.04c-0.13,0.34-0.33,0.65-0.59,0.92s-0.59,0.49-0.99,0.66c-0.39,0.17-0.85,0.25-1.38,0.25H13.18z"/>
			<path class="st3" d="M18.25,18.89v-5.82h1.28v5.82H18.25z M19.37,14.15v-1.08h2.49v1.08H19.37z M19.37,16.47v-1.08h2.36v1.08
				H19.37z M19.37,18.89V17.8h2.54v1.08H19.37z"/>
			<path class="st3" d="M22.51,14.21v-1.14h4.58v1.14H22.51z M24.14,18.89v-4.84h1.31v4.84H24.14z"/>
			<path class="st3" d="M26.84,18.89l1.92-5.82h2.11l1.99,5.82h-1.36l-1.61-4.92l0.41,0.17h-1.03l0.43-0.17l-1.57,4.92H26.84z
				 M28.3,17.45l0.4-1.08h2.28l0.41,1.08H28.3z"/>
			<path class="st3" d="M33.64,18.89v-5.82h1.31v5.82H33.64z"/>
			<path class="st3" d="M36.27,18.89v-5.82h1.31v5.82H36.27z M37.42,18.89v-1.15h2.44v1.15H37.42z"/>
			<path class="st3" d="M40.72,18.89v-5.82h1.28v5.82H40.72z M41.84,14.15v-1.08h2.49v1.08H41.84z M41.84,16.47v-1.08h2.36v1.08
				H41.84z M41.84,18.89V17.8h2.54v1.08H41.84z"/>
			<path class="st3" d="M45.45,18.92v-5.9h1.31v5.9H45.45z M46.6,18.92V17.7h1.08c0.27,0,0.52-0.04,0.73-0.12
				c0.22-0.08,0.4-0.2,0.56-0.35s0.27-0.33,0.35-0.55c0.08-0.22,0.12-0.45,0.12-0.71c0-0.27-0.04-0.51-0.12-0.73
				c-0.08-0.21-0.2-0.39-0.35-0.54s-0.34-0.26-0.56-0.34c-0.22-0.08-0.46-0.12-0.73-0.12H46.6v-1.22h1.01
				c0.53,0,0.99,0.08,1.38,0.23c0.39,0.15,0.72,0.36,0.99,0.63s0.46,0.57,0.59,0.91c0.13,0.34,0.2,0.7,0.2,1.08v0.18
				c0,0.35-0.06,0.7-0.2,1.04c-0.13,0.34-0.33,0.65-0.59,0.92s-0.59,0.49-0.99,0.66c-0.39,0.17-0.85,0.25-1.38,0.25H46.6z"/>
			<path class="st3" d="M15.19,26.86v-5.87h1.31v5.87H15.19z M16.14,24.99v-1.03h1.43c0.19,0,0.36-0.04,0.5-0.12
				c0.14-0.08,0.25-0.19,0.33-0.33c0.08-0.14,0.12-0.3,0.12-0.49s-0.04-0.35-0.12-0.49s-0.19-0.25-0.33-0.33
				c-0.14-0.08-0.31-0.12-0.5-0.12h-1.43v-1.11h1.33c0.48,0,0.9,0.07,1.26,0.22c0.36,0.15,0.63,0.36,0.82,0.65
				c0.19,0.29,0.29,0.65,0.29,1.08v0.13c0,0.43-0.1,0.79-0.29,1.07s-0.47,0.5-0.82,0.64c-0.35,0.14-0.77,0.21-1.26,0.21H16.14z
				 M18.72,26.86l-1.71-2.5h1.43l1.79,2.5H18.72z"/>
			<path class="st3" d="M21,26.86v-5.82h1.28v5.82H21z M22.12,22.12v-1.08h2.49v1.08H22.12z M22.12,24.44v-1.08h2.36v1.08H22.12z
				 M22.12,26.86v-1.08h2.54v1.08H22.12z"/>
			<path class="st3" d="M25.74,26.86v-5.87h1.31v5.87H25.74z M26.88,25.19v-1.13h1.04c0.2,0,0.38-0.04,0.52-0.12
				c0.15-0.08,0.26-0.19,0.34-0.34c0.08-0.15,0.12-0.31,0.12-0.51c0-0.2-0.04-0.38-0.12-0.52c-0.08-0.15-0.19-0.26-0.34-0.33
				c-0.15-0.08-0.32-0.12-0.52-0.12h-1.04v-1.13h0.98c0.49,0,0.92,0.08,1.27,0.25c0.35,0.17,0.62,0.4,0.81,0.7s0.28,0.67,0.28,1.09
				v0.13c0,0.41-0.09,0.77-0.28,1.08c-0.19,0.31-0.46,0.54-0.81,0.71c-0.35,0.16-0.78,0.25-1.27,0.25H26.88z"/>
			<path class="st3" d="M33.84,27.01c-0.53,0-0.98-0.09-1.37-0.27s-0.71-0.42-0.97-0.73s-0.45-0.63-0.57-0.98
				c-0.12-0.35-0.19-0.69-0.19-1.01v-0.18c0-0.36,0.06-0.72,0.2-1.07c0.13-0.35,0.33-0.67,0.59-0.96c0.26-0.29,0.58-0.52,0.97-0.69
				s0.84-0.26,1.35-0.26c0.51,0,0.96,0.09,1.35,0.26c0.39,0.17,0.71,0.4,0.97,0.69c0.26,0.29,0.46,0.61,0.59,0.96
				c0.13,0.35,0.2,0.71,0.2,1.07v0.18c0,0.32-0.06,0.66-0.19,1.01c-0.13,0.35-0.32,0.68-0.57,0.98s-0.58,0.54-0.97,0.73
				S34.37,27.01,33.84,27.01z M33.84,25.79c0.28,0,0.53-0.05,0.75-0.14c0.22-0.1,0.41-0.23,0.57-0.4c0.16-0.17,0.27-0.37,0.35-0.59
				s0.12-0.46,0.12-0.72c0-0.27-0.04-0.52-0.12-0.75c-0.08-0.23-0.2-0.42-0.36-0.59c-0.16-0.17-0.34-0.3-0.56-0.39
				s-0.46-0.14-0.74-0.14s-0.52,0.04-0.74,0.14s-0.4,0.22-0.56,0.39c-0.16,0.17-0.27,0.36-0.35,0.59c-0.08,0.23-0.12,0.47-0.12,0.75
				c0,0.26,0.04,0.49,0.12,0.72s0.2,0.42,0.35,0.59c0.16,0.17,0.34,0.3,0.56,0.4S33.56,25.79,33.84,25.79z"/>
			<path class="st3" d="M37.94,26.86v-5.87h1.31v5.87H37.94z M38.89,24.99v-1.03h1.43c0.19,0,0.36-0.04,0.5-0.12
				c0.14-0.08,0.25-0.19,0.33-0.33c0.08-0.14,0.12-0.3,0.12-0.49s-0.04-0.35-0.12-0.49s-0.19-0.25-0.33-0.33
				c-0.14-0.08-0.31-0.12-0.5-0.12h-1.43v-1.11h1.33c0.48,0,0.9,0.07,1.26,0.22c0.36,0.15,0.63,0.36,0.82,0.65
				c0.19,0.29,0.29,0.65,0.29,1.08v0.13c0,0.43-0.1,0.79-0.29,1.07s-0.47,0.5-0.82,0.64c-0.35,0.14-0.77,0.21-1.26,0.21H38.89z
				 M41.47,26.86l-1.71-2.5h1.43l1.79,2.5H41.47z"/>
			<path class="st3" d="M43.12,22.18v-1.14h4.58v1.14H43.12z M44.75,26.86v-4.84h1.31v4.84H44.75z"/>
		</g>
		<g style="clip-path:url(#SVGID_00000156587436371262926200000007488927572699351455_);">
			<g>
				<g>
					<path class="st3" d="M24.84,43.91c-0.38,0-0.72-0.08-1.03-0.24c-0.31-0.16-0.55-0.4-0.73-0.71c-0.18-0.31-0.27-0.7-0.27-1.17
						v-0.2h0.78v0.34c0,0.4,0.12,0.71,0.35,0.93c0.23,0.22,0.53,0.33,0.89,0.33s0.66-0.11,0.89-0.33c0.23-0.22,0.35-0.53,0.35-0.93
						v-3.44h0.78v3.3c0,0.47-0.09,0.86-0.27,1.17c-0.18,0.31-0.42,0.55-0.72,0.71C25.57,43.83,25.23,43.91,24.84,43.91z
						 M23.59,38.65v-0.7h3.28v0.7H23.59z"/>
					<path class="st3" d="M31.06,43.91c-0.45,0-0.86-0.07-1.23-0.22c-0.37-0.15-0.68-0.36-0.94-0.63c-0.26-0.27-0.47-0.59-0.61-0.96
						s-0.21-0.77-0.21-1.21v-0.18c0-0.37,0.07-0.73,0.2-1.08c0.13-0.35,0.32-0.66,0.57-0.94c0.25-0.28,0.55-0.5,0.91-0.66
						c0.36-0.16,0.76-0.24,1.2-0.24c0.48,0,0.91,0.09,1.29,0.27s0.68,0.44,0.91,0.77s0.36,0.71,0.4,1.14h-0.8
						c-0.04-0.32-0.14-0.59-0.32-0.81c-0.18-0.22-0.39-0.38-0.65-0.49c-0.26-0.11-0.54-0.16-0.83-0.16c-0.3,0-0.58,0.05-0.84,0.16
						c-0.25,0.11-0.47,0.26-0.66,0.47c-0.18,0.2-0.33,0.44-0.43,0.73c-0.1,0.28-0.15,0.6-0.15,0.95c0,0.4,0.05,0.75,0.16,1.05
						c0.11,0.3,0.26,0.55,0.46,0.75c0.2,0.2,0.43,0.35,0.7,0.45c0.27,0.1,0.56,0.15,0.88,0.15c0.45,0,0.85-0.09,1.19-0.28
						c0.34-0.18,0.6-0.42,0.78-0.71l-0.29,0.95v-1.73h0.73v1.39c-0.26,0.34-0.59,0.61-1,0.8C32.06,43.82,31.59,43.91,31.06,43.91z
						 M30.85,41.6v-0.65h3.12v0.65H30.85z"/>
					<path class="st3" d="M36.43,43.77l-2.02-5.82h0.8l1.81,5.31l-0.38-0.19h0.96l-0.41,0.19l1.67-5.31h0.78l-1.87,5.82H36.43z"/>
				</g>
			</g>
		</g>
		
			<circle style="clip-path:url(#SVGID_00000156587436371262926200000007488927572699351455_);fill:#FFFFFF;stroke:#FFFFFF;" cx="31.09" cy="80.96" r="14.86"/>
		
			<linearGradient id="SVGID_00000121970121231554620460000012350641254884867456_" gradientUnits="userSpaceOnUse" x1="6.9161" y1="69.4731" x2="17.3448" y2="79.9018">
			<stop  offset="0" style="stop-color:#ABC5F9"/>
			<stop  offset="0" style="stop-color:#FF3547"/>
			<stop  offset="1" style="stop-color:#FF6B68"/>
		</linearGradient>
		
			<path style="clip-path:url(#SVGID_00000156587436371262926200000007488927572699351455_);fill:url(#SVGID_00000121970121231554620460000012350641254884867456_);" d="
			M20.61,70.4c-2.77,2.73-4.48,6.52-4.48,10.72H5.8c0-7.02,2.84-13.37,7.44-17.97L20.61,70.4z"/>
		
			<linearGradient id="SVGID_00000103967106578952418170000007389732863658309258_" gradientUnits="userSpaceOnUse" x1="18.6993" y1="57.3816" x2="33.9863" y2="69.4193">
			<stop  offset="0" style="stop-color:#A300DF"/>
			<stop  offset="1" style="stop-color:#8300DF"/>
		</linearGradient>
		
			<path style="clip-path:url(#SVGID_00000156587436371262926200000007488927572699351455_);fill:url(#SVGID_00000103967106578952418170000007389732863658309258_);" d="
			M31.2,55.71v10.33c-4.13,0-7.87,1.66-10.59,4.35l-7.37-7.25C17.84,58.56,24.19,55.71,31.2,55.71z"/>
		
			<linearGradient id="SVGID_00000171691239717076368570000004464217171577351077_" gradientUnits="userSpaceOnUse" x1="40.6062" y1="58.2668" x2="36.5915" y2="69.3168">
			<stop  offset="0" style="stop-color:#FCB702"/>
			<stop  offset="0.8655" style="stop-color:#FDD701"/>
		</linearGradient>
		
			<path style="clip-path:url(#SVGID_00000156587436371262926200000007488927572699351455_);fill:url(#SVGID_00000171691239717076368570000004464217171577351077_);" d="
			M49.16,63.15l-7.31,7.31c-2.73-2.73-6.49-4.42-10.66-4.42V55.71C38.21,55.71,44.57,58.56,49.16,63.15z"/>
		
			<linearGradient id="SVGID_00000140015133868602126070000000682601412962368173_" gradientUnits="userSpaceOnUse" x1="41.8571" y1="72.1357" x2="56.6059" y2="72.1357">
			<stop  offset="0" style="stop-color:#189190"/>
			<stop  offset="1" style="stop-color:#00C4C2"/>
		</linearGradient>
		
			<path style="clip-path:url(#SVGID_00000156587436371262926200000007488927572699351455_);fill:url(#SVGID_00000140015133868602126070000000682601412962368173_);" d="
			M56.61,81.12H46.27c0-4.16-1.69-7.93-4.42-10.66l7.31-7.31h0C53.76,67.75,56.61,74.1,56.61,81.12z"/>
		<g style="clip-path:url(#SVGID_00000156587436371262926200000007488927572699351455_);">
			<path class="st22" d="M33.89,82.57c-0.21,0.16-0.51,0.12-0.67-0.09c-0.16-0.21-0.12-0.51,0.09-0.67
				c1.52-1.16,1.81-3.34,0.65-4.85c-1.16-1.52-3.34-1.81-4.85-0.65c-1.52,1.16-1.81,3.34-0.65,4.85c0.16,0.21,0.12,0.51-0.09,0.67
				c-0.21,0.16-0.51,0.12-0.67-0.09c-1.48-1.94-1.11-4.72,0.83-6.2c1.94-1.48,4.72-1.11,6.2,0.83
				C36.19,78.31,35.82,81.09,33.89,82.57z"/>
		</g>
		<g style="clip-path:url(#SVGID_00000156587436371262926200000007488927572699351455_);">
			<g>
				<path class="st23" d="M31.27,79.29c-0.12,0-0.23-0.04-0.32-0.13c-0.19-0.18-0.21-0.48-0.03-0.68L41.76,66.7
					c0.18-0.19,0.48-0.21,0.68-0.03c0.19,0.18,0.21,0.48,0.03,0.68L31.63,79.14C31.53,79.24,31.4,79.29,31.27,79.29z"/>
			</g>
			<g>
				<circle class="st23" cx="31.03" cy="79.25" r="1.12"/>
			</g>
		</g>
		<g style="clip-path:url(#SVGID_00000156587436371262926200000007488927572699351455_);">
			<path class="st3" d="M39.52,65.49c-0.09,0-0.18-0.02-0.26-0.07c-4.33-2.31-9.3-2.8-14-1.37c-0.3,0.09-0.61-0.08-0.7-0.37
				c-0.09-0.29,0.08-0.61,0.37-0.7c4.98-1.51,10.25-1,14.84,1.45c0.27,0.14,0.37,0.48,0.23,0.75
				C39.92,65.39,39.72,65.49,39.52,65.49z"/>
		</g>
		<g style="clip-path:url(#SVGID_00000156587436371262926200000007488927572699351455_);">
			<path class="st3" d="M37.99,61.54c-0.07,0-0.14-0.01-0.2-0.04c-2.35-0.92-4.81-1.35-7.34-1.27c-0.3-0.02-0.56-0.23-0.58-0.54
				c-0.01-0.31,0.23-0.56,0.54-0.58c2.67-0.09,5.29,0.36,7.78,1.34c0.29,0.11,0.43,0.44,0.32,0.72
				C38.43,61.41,38.22,61.54,37.99,61.54z"/>
		</g>
	</g>
	<g>
		
			<linearGradient id="SVGID_00000132066258633761029260000013539827726233997244_" gradientUnits="userSpaceOnUse" x1="31" y1="85.7361" x2="31" y2="0.2639">
			<stop  offset="0" style="stop-color:#37384F"/>
			<stop  offset="0.9204" style="stop-color:#373989"/>
		</linearGradient>
		<path style="fill:url(#SVGID_00000132066258633761029260000013539827726233997244_);" d="M58.12,0.26H3.87
			c-1.98,0-3.58,1.61-3.58,3.59v78.29c0,1.98,1.6,3.59,3.58,3.59h54.25c1.98,0,3.59-1.61,3.59-3.59V3.86
			C61.71,1.87,60.1,0.26,58.12,0.26z M58.81,80.19H3.19V5.67h55.62V80.19z"/>
		<circle class="st3" cx="31" cy="82.83" r="1.58"/>
	</g>
</g>
</svg>
