<svg width="75" height="75" viewBox="0 0 75 75" fill="none" xmlns="http://www.w3.org/2000/svg">
<path fill-rule="evenodd" clip-rule="evenodd" d="M74.6966 37.4667C74.6966 58.0277 58.0267 74.6956 37.4621 74.6956C16.8984 74.6956 0.226562 58.0277 0.226562 37.4667C0.226562 16.9067 16.8984 0.23877 37.4621 0.23877C58.0267 0.23877 74.6966 16.9067 74.6966 37.4667" fill="#F77643"/>
<g clip-path="url(#clip0_259_39)">
<path d="M11.3334 28.3333L38 15L64.6667 28.3333L38 41.6667L11.3334 28.3333Z" stroke="white" stroke-width="2" stroke-linecap="round" stroke-linejoin="round"/>
<path d="M64.6667 28.3333V41.6666" stroke="white" stroke-width="2" stroke-linecap="round" stroke-linejoin="round"/>
<path d="M21.3334 35V51.6667C21.3334 51.6667 22.8485 58.3333 38 58.3333C53.1517 58.3333 54.6667 51.6667 54.6667 51.6667V35" stroke="white" stroke-width="2" stroke-linecap="round" stroke-linejoin="round"/>
</g>
<defs>
<clipPath id="clip0_259_39">
<rect width="68" height="68" fill="white" transform="translate(4 4)"/>
</clipPath>
</defs>
</svg>
