<svg width="86" height="86" viewBox="0 0 86 86" fill="none" xmlns="http://www.w3.org/2000/svg">
<path fill-rule="evenodd" clip-rule="evenodd" d="M85.9012 43.0572C85.9012 66.6555 66.7689 85.7855 43.1665 85.7855C19.5653 85.7855 0.430664 66.6555 0.430664 43.0572C0.430664 19.4601 19.5653 0.330078 43.1665 0.330078C66.7689 0.330078 85.9012 19.4601 85.9012 43.0572Z" fill="#F77643"/>
<path fill-rule="evenodd" clip-rule="evenodd" d="M48.4824 57.4873C48.4824 48.0576 48.4754 38.6267 48.4976 29.197C48.4987 28.5648 48.3716 28.3082 47.6996 28.3899C47.1899 28.4528 46.6661 28.4225 46.1505 28.3969C45.0994 28.3432 44.5745 27.3518 45.1998 26.5074C47.5247 23.37 49.8729 20.2478 52.2375 17.1407C52.7729 16.4362 53.6583 16.4502 54.1996 17.1617C56.5467 20.2524 58.8704 23.363 61.1988 26.4678C61.5033 26.8736 61.5768 27.3157 61.3225 27.7787C61.0705 28.2359 60.6669 28.412 60.1571 28.4039C59.5668 28.3957 58.9754 28.4202 58.3863 28.3969C58.0282 28.3829 57.8952 28.5147 57.9302 28.8622C57.9488 29.057 57.9325 29.2553 57.9325 29.4512C57.9325 48.1392 57.9325 48.9778 57.9325 67.6658C57.9325 69.2065 57.6409 69.4923 56.0695 69.4923C54.1249 69.4935 52.1815 69.4935 50.2369 69.4923C48.795 69.4923 48.4824 69.1739 48.4824 67.7066C48.4824 58.3504 48.4824 66.8436 48.4824 57.4873Z" fill="white"/>
<path fill-rule="evenodd" clip-rule="evenodd" d="M36.6687 62.5147C36.6687 54.852 36.6687 47.1904 36.6687 39.5276C36.6687 38.1724 37.0082 37.8341 38.366 37.8341C40.4576 37.833 42.5492 37.8295 44.6408 37.8353C45.7024 37.8376 46.1176 38.2482 46.1176 39.306C46.12 54.8263 46.12 52.4972 46.1176 68.0186C46.1176 69.0765 45.7023 69.4882 44.642 69.4917C42.5014 69.4975 40.3608 69.4952 38.2191 69.4917C37.0607 69.4905 36.6699 69.1021 36.6699 67.9463C36.6676 60.1856 36.6687 70.2755 36.6687 62.5147Z" fill="white"/>
<path fill-rule="evenodd" clip-rule="evenodd" d="M24.8558 66.6404C24.8558 60.3539 24.8558 54.0663 24.8558 47.7798C24.8558 46.4234 25.1952 46.0863 26.5531 46.0851C28.6447 46.084 30.7363 46.0816 32.8279 46.0863C33.8895 46.0898 34.3048 46.4992 34.3048 47.557C34.3071 60.3271 34.3071 55.2477 34.3048 68.0178C34.3048 69.0768 33.8895 69.4885 32.8291 69.4909C30.6885 69.4967 28.5467 69.4955 26.4061 69.492C25.2477 69.4897 24.8569 69.1013 24.8569 67.9455C24.8546 61.561 24.8558 73.026 24.8558 66.6404Z" fill="white"/>
</svg>
