<svg width="20" height="20" viewBox="0 0 20 20" fill="none" xmlns="http://www.w3.org/2000/svg">
<path fill-rule="evenodd" clip-rule="evenodd" d="M13.6887 11.4541L19.6257 17.3925C19.9252 17.6922 19.9252 18.178 19.6256 18.4777L19.1197 18.9837L19.1197 18.9838L19.1196 18.9839L18.6137 19.4899C18.3141 19.7895 17.8281 19.7894 17.5287 19.4899L11.5918 13.5516C11.3045 13.2642 11.2935 12.8061 11.5571 12.5047L10.7189 11.6663C8.15626 13.6873 4.44561 13.4893 2.11278 11.156C-0.424505 8.61805 -0.424122 4.51057 2.11278 1.97303C4.64401 -0.558756 8.76247 -0.558679 11.2936 1.97303H11.2936C13.66 4.33998 13.8057 8.04931 11.8043 10.5816L12.642 11.4195C12.7813 11.2977 12.96 11.2294 13.1462 11.2294C13.3497 11.2294 13.5448 11.3102 13.6887 11.4541ZM3.16045 9.96604C5.07914 11.8854 8.18436 11.8851 10.1028 9.96604C12.0215 8.04672 12.0212 4.94027 10.1028 3.02126C8.18872 1.10654 5.07439 1.10665 3.16045 3.02126C1.24172 4.94061 1.24206 8.04706 3.16045 9.96604Z" fill="black"/>
</svg>
