<svg width="75" height="75" viewBox="0 0 75 75" fill="none" xmlns="http://www.w3.org/2000/svg">
<path fill-rule="evenodd" clip-rule="evenodd" d="M74.6966 37.4667C74.6966 58.0277 58.0267 74.6956 37.4621 74.6956C16.8984 74.6956 0.226562 58.0277 0.226562 37.4667C0.226562 16.9067 16.8984 0.23877 37.4621 0.23877C58.0267 0.23877 74.6966 16.9067 74.6966 37.4667" fill="#13C1C2"/>
<circle cx="37.5" cy="31.5833" r="8.875" stroke="white" stroke-width="2" stroke-linecap="round"/>
<circle cx="37.5" cy="37.5" r="26.625" stroke="white" stroke-width="2"/>
<path d="M55.25 57.3383C54.203 54.1931 51.896 51.4139 48.6867 49.4317C45.4774 47.4494 41.5452 46.375 37.5 46.375C33.4548 46.375 29.5226 47.4494 26.3133 49.4316C23.104 51.4139 20.797 54.1931 19.75 57.3383" stroke="white" stroke-width="2" stroke-linecap="round"/>
</svg>
