<svg width="179" height="97" viewBox="0 0 179 97" fill="none" xmlns="http://www.w3.org/2000/svg">
<path d="M52.4842 51.4928C42.7526 61.2077 36.9136 74.4199 36.9136 88.7979H0.711914C0.711914 64.3164 10.8328 42.1665 26.7927 26.2341L52.4842 51.4928Z" fill="url(#paint0_linear_31_417)"/>
<path d="M89.4642 0.198242V36.3376C75.0614 36.3376 61.8264 42.1665 52.484 51.4928L26.7925 26.2341C42.7524 10.3017 64.9405 0.198242 89.4642 0.198242Z" fill="url(#paint1_linear_31_417)"/>
<path d="M152.136 26.2341L126.445 51.8814C117.102 42.5551 103.867 36.3376 89.0752 36.3376V0.198242C113.988 0.198242 136.176 10.3017 152.136 26.2341Z" fill="url(#paint2_linear_31_417)"/>
<path d="M178.217 88.7978H142.015C142.015 74.4198 136.176 61.2076 126.444 51.4927L152.136 25.8455C168.096 42.1664 178.217 64.3164 178.217 88.7978Z" fill="url(#paint3_linear_31_417)"/>
<path d="M89.4641 96.9585C88.6855 96.9585 87.907 96.1813 87.907 95.4041C87.907 94.6269 88.6855 93.8498 89.4641 93.8498C96.0816 93.8498 101.531 88.4094 101.531 81.8033C101.531 75.1972 96.0816 69.7569 89.4641 69.7569C82.8466 69.7569 77.3968 75.1972 77.3968 81.8033C77.3968 82.5805 76.6183 83.3577 75.8398 83.3577C75.0612 83.3577 74.2827 82.5805 74.2827 81.8033C74.2827 73.2542 81.2895 66.2595 89.8533 66.2595C98.4172 66.2595 105.424 73.2542 105.424 81.8033C105.035 89.9638 98.0279 96.9585 89.4641 96.9585Z" fill="#588DF3"/>
<path d="M89.8537 82.5803C89.4645 82.5803 89.0752 82.5803 88.6859 82.1917C87.9074 81.4145 87.9074 80.6373 88.6859 79.8601L126.445 38.6691C127.223 37.8919 128.002 37.8919 128.78 38.6691C129.559 39.4463 129.559 40.2235 128.78 41.0006L91.0215 82.1917C90.6323 82.1917 90.243 82.5803 89.8537 82.5803Z" fill="#ABC5F9"/>
<ellipse cx="88.6861" cy="82.1916" rx="3.89265" ry="3.88595" fill="#ABC5F9"/>
<path d="M118.659 34.3945C118.27 34.3945 117.881 34.3945 117.881 34.0059C102.699 25.8454 85.5716 24.291 68.8332 29.3427C67.6654 29.7313 66.8868 28.9541 66.4976 28.1769C66.1083 27.0112 66.8868 26.234 67.6654 25.8454C85.1823 20.405 103.478 22.348 119.438 30.8971C120.216 31.2857 120.605 32.4515 120.216 33.6173C119.827 34.0059 119.048 34.3945 118.659 34.3945Z" fill="white"/>
<path d="M113.21 20.4053C112.821 20.4053 112.821 20.4053 112.431 20.4053C104.257 17.2965 95.6929 15.7422 86.7398 16.1308C85.572 16.1308 84.7935 15.3536 84.7935 14.1878C84.7935 13.022 85.572 12.2448 86.7398 12.2448C96.0821 11.8562 105.035 13.4106 113.988 16.908C115.156 17.2965 115.545 18.4623 115.156 19.2395C114.767 20.0167 113.988 20.4053 113.21 20.4053Z" fill="white"/>
<defs>
<linearGradient id="paint0_linear_31_417" x1="-10.4627" y1="70.2008" x2="31.3084" y2="98.7557" gradientUnits="userSpaceOnUse">
<stop stop-color="#ABC5F9"/>
<stop stop-color="#FF3547"/>
<stop offset="1" stop-color="#FF6B68"/>
</linearGradient>
<linearGradient id="paint1_linear_31_417" x1="20.1011" y1="27.8764" x2="63.2906" y2="78.5584" gradientUnits="userSpaceOnUse">
<stop stop-color="#A300DF"/>
<stop offset="1" stop-color="#8300DF"/>
</linearGradient>
<linearGradient id="paint2_linear_31_417" x1="98.7647" y1="3.36246" x2="89.0849" y2="42.9592" gradientUnits="userSpaceOnUse">
<stop stop-color="#FCB702"/>
<stop offset="0.8655" stop-color="#FDD701"/>
</linearGradient>
<linearGradient id="paint3_linear_31_417" x1="126.643" y1="88.798" x2="178.165" y2="88.798" gradientUnits="userSpaceOnUse">
<stop stop-color="#189190"/>
<stop offset="1" stop-color="#00C4C2"/>
</linearGradient>
</defs>
</svg>
