<svg width="66" height="9" viewBox="0 0 66 9" fill="none" xmlns="http://www.w3.org/2000/svg">
<path fill-rule="evenodd" clip-rule="evenodd" d="M60.9986 0L62.545 2.96438L66 3.43836L63.5007 5.74521L64.0886 9L60.9986 7.46301L57.9085 9L58.4993 5.74521L56 3.43836L59.4521 2.96438L60.9986 0Z" fill="white"/>
<path fill-rule="evenodd" clip-rule="evenodd" d="M47 0L48.546 2.96438L52 3.43836L49.4986 5.74521L50.0892 9L47 7.46301L43.9108 9L44.5014 5.74521L42 3.43836L45.454 2.96438L47 0Z" fill="white"/>
<path fill-rule="evenodd" clip-rule="evenodd" d="M33.0014 0L34.5479 2.96438L38 3.43836L35.5007 5.74521L36.0886 9L33.0014 7.46301L29.9114 9L30.4993 5.74521L28 3.43836L31.455 2.96438L33.0014 0Z" fill="white"/>
<path fill-rule="evenodd" clip-rule="evenodd" d="M18.9986 0L20.545 2.96438L24 3.43836L21.5007 5.74521L22.0886 9L18.9986 7.46301L15.9085 9L16.4993 5.74521L14 3.43836L17.4521 2.96438L18.9986 0Z" fill="white"/>
<path fill-rule="evenodd" clip-rule="evenodd" d="M5 0L6.54603 2.96438L10 3.43836L7.49855 5.74521L8.08917 9L5 7.46301L1.91083 9L2.50145 5.74521L0 3.43836L3.45397 2.96438L5 0Z" fill="white"/>
</svg>
