<svg width="91" height="19" viewBox="0 0 91 19" fill="none" xmlns="http://www.w3.org/2000/svg">
<path fill-rule="evenodd" clip-rule="evenodd" d="M0 0.999939H17.0625V17.9909H0V0.999939ZM18.4844 0.999939H35.5469V17.9909H18.4844V0.999939ZM54.0312 0.999939H36.9688V17.9909H54.0312V0.999939ZM55.4531 0.999939H72.5156V17.9909H55.4531V0.999939ZM91 0.999939H73.9375V17.9909H91V0.999939Z" fill="#00B67A"/>
<path fill-rule="evenodd" clip-rule="evenodd" d="M10.3862 8.18547H14.9603L11.2761 10.7798L8.99793 12.371L5.29594 14.9653L6.70199 10.7798L3 8.18547H7.57409L8.98013 3.99994L10.3862 8.18547ZM11.5786 11.7484L8.98013 12.3883L12.6643 14.9999L11.5786 11.7484ZM27.4901 12.3883L30.0886 11.7484L31.1743 14.9999L27.4901 12.3883ZM28.8961 8.18547H33.4702L29.786 10.7798L27.5079 12.371L23.8059 14.9653L25.2119 10.7798L21.5099 8.18547H26.084L27.4901 3.99994L28.8961 8.18547ZM46 12.3883L48.5985 11.7484L49.6842 14.9999L46 12.3883ZM47.406 8.18547H51.9801L48.2959 10.7798L46.0178 12.371L42.3158 14.9653L43.7219 10.7798L40.0199 8.18547H44.594L46 3.99994L47.406 8.18547ZM64.5099 12.3883L67.1084 11.7484L68.1941 14.9999L64.5099 12.3883ZM65.916 8.18547H70.4901L66.8059 10.7798L64.5277 12.371L60.8257 14.9653L62.2318 10.7798L58.5298 8.18547H63.1039L64.5099 3.99994L65.916 8.18547ZM83.0199 12.3883L85.6184 11.7484L86.7041 14.9999L83.0199 12.3883ZM84.4259 8.18547H89L85.3158 10.7798L83.0377 12.371L79.3357 14.9653L80.7417 10.7798L77.0397 8.18547H81.6138L83.0199 3.99994L84.4259 8.18547Z" fill="white"/>
</svg>
