<svg width="193" height="31" viewBox="0 0 193 31" fill="none" xmlns="http://www.w3.org/2000/svg">
<mask id="mask0_194_3683" style="mask-type:alpha" maskUnits="userSpaceOnUse" x="0" y="8" width="16" height="23">
<path fill-rule="evenodd" clip-rule="evenodd" d="M0.493164 8.43457H15.7239V30.5798H0.493164V8.43457Z" fill="white"/>
</mask>
<g mask="url(#mask0_194_3683)">
<path fill-rule="evenodd" clip-rule="evenodd" d="M5.46292 17.3679V21.6452C5.46292 23.6553 3.82717 25.2916 1.81572 25.2916H0.493164V30.5798H1.81572C6.7442 30.5798 10.7538 26.5724 10.7538 21.6452V17.3679C10.7538 15.3572 12.3901 13.7227 14.401 13.7227H15.7241V8.43457H14.401C9.47308 8.43457 5.46292 12.4419 5.46292 17.3679Z" fill="white"/>
</g>
<path fill-rule="evenodd" clip-rule="evenodd" d="M150.257 17.3679V21.6452C150.257 23.6553 148.622 25.2916 146.61 25.2916H145.287V30.5798H146.61C151.539 30.5798 155.548 26.5724 155.548 21.6452V17.3679C155.548 15.3572 157.184 13.7227 159.195 13.7227H160.517V8.43457H159.195C154.266 8.43457 150.257 12.4419 150.257 17.3679Z" fill="white"/>
<path fill-rule="evenodd" clip-rule="evenodd" d="M19.002 30.58H30.321V25.2912H24.2927V13.7229H30.321V8.43408H19.002V30.58Z" fill="white"/>
<path fill-rule="evenodd" clip-rule="evenodd" d="M164.476 30.58H175.795V25.2912H169.766V13.7229H175.795V8.43408H164.476V30.58Z" fill="white"/>
<mask id="mask1_194_3683" style="mask-type:alpha" maskUnits="userSpaceOnUse" x="32" y="8" width="12" height="23">
<path fill-rule="evenodd" clip-rule="evenodd" d="M32.5889 8.43457H43.6658V30.5801H32.5889V8.43457Z" fill="white"/>
</mask>
<g mask="url(#mask1_194_3683)">
<path fill-rule="evenodd" clip-rule="evenodd" d="M32.5889 19.5072C32.5889 25.6132 37.5574 30.5804 43.6658 30.5804V25.2916C40.4751 25.2916 37.8797 22.6961 37.8797 19.5072C37.8797 16.3183 40.4751 13.7227 43.6658 13.7227V8.43457C37.5574 8.43457 32.5889 13.4012 32.5889 19.5072Z" fill="white"/>
</g>
<mask id="mask2_194_3683" style="mask-type:alpha" maskUnits="userSpaceOnUse" x="71" y="8" width="14" height="23">
<path fill-rule="evenodd" clip-rule="evenodd" d="M71.8369 8.43457H84.4245V30.5801H71.8369V8.43457Z" fill="white"/>
</mask>
<g mask="url(#mask2_194_3683)">
<path fill-rule="evenodd" clip-rule="evenodd" d="M71.8369 19.5072V30.5804H77.1271V19.5072C77.1271 16.3183 79.723 13.7227 82.9138 13.7227H84.4245V8.43457H82.9138C76.8054 8.43457 71.8369 13.4012 71.8369 19.5072Z" fill="white"/>
</g>
<mask id="mask3_194_3683" style="mask-type:alpha" maskUnits="userSpaceOnUse" x="179" y="8" width="14" height="23">
<path fill-rule="evenodd" clip-rule="evenodd" d="M179.687 8.43457H192.275V30.5803H179.687V8.43457Z" fill="white"/>
</mask>
<g mask="url(#mask3_194_3683)">
<path fill-rule="evenodd" clip-rule="evenodd" d="M190.763 8.43457C184.655 8.43457 179.687 13.4018 179.687 19.5072V30.5804H184.977V19.5072C184.977 16.3183 187.573 13.7233 190.763 13.7233H192.275V8.43457H190.763Z" fill="white"/>
</g>
<mask id="mask4_194_3683" style="mask-type:alpha" maskUnits="userSpaceOnUse" x="48" y="8" width="20" height="23">
<path fill-rule="evenodd" clip-rule="evenodd" d="M48.5928 8.43457H67.7468V30.5803H48.5928V8.43457Z" fill="white"/>
</mask>
<g mask="url(#mask4_194_3683)">
<path fill-rule="evenodd" clip-rule="evenodd" d="M62.4561 21.0064C62.4561 23.369 60.5333 25.2917 58.1692 25.2917C55.8057 25.2917 53.8829 23.369 53.8829 21.0064V8.43457H48.5928V21.0064C48.5928 26.2861 52.8887 30.5804 58.1692 30.5804C63.4502 30.5804 67.7468 26.2861 67.7468 21.0064V8.43457H62.4561V21.0064Z" fill="white"/>
</g>
<mask id="mask5_194_3683" style="mask-type:alpha" maskUnits="userSpaceOnUse" x="0" y="0" width="193" height="31">
<path fill-rule="evenodd" clip-rule="evenodd" d="M0.493164 30.5801H192.275V0.03125H0.493164V30.5801Z" fill="white"/>
</mask>
<g mask="url(#mask5_194_3683)">
<path fill-rule="evenodd" clip-rule="evenodd" d="M87.957 30.58H93.2479V8.43408H87.957V30.58Z" fill="white"/>
<path fill-rule="evenodd" clip-rule="evenodd" d="M90.6012 5.31955C92.0621 5.31955 93.2469 4.13584 93.2469 2.67546C93.2469 1.21508 92.0621 0.0307617 90.6012 0.0307617C89.1402 0.0307617 87.9561 1.21508 87.9561 2.67546C87.9561 4.13584 89.1402 5.31955 90.6012 5.31955Z" fill="white"/>
<path fill-rule="evenodd" clip-rule="evenodd" d="M136.646 30.58H141.936V8.43408H136.646V30.58Z" fill="white"/>
<path fill-rule="evenodd" clip-rule="evenodd" d="M139.292 5.31955C140.753 5.31955 141.937 4.13584 141.937 2.67546C141.937 1.21508 140.753 0.0307617 139.292 0.0307617C137.831 0.0307617 136.646 1.21508 136.646 2.67546C136.646 4.13584 137.831 5.31955 139.292 5.31955Z" fill="white"/>
<path fill-rule="evenodd" clip-rule="evenodd" d="M123.156 24.1638L117.767 8.49342L117.787 8.43457H117.747H112.518H112.478L112.498 8.49342L107.108 24.1638L101.699 8.43457H96.4297L104.046 30.5798H110.171L115.132 16.1539L120.094 30.5798H126.219L133.835 8.43457H128.565L123.156 24.1638Z" fill="white"/>
</g>
</svg>
