<svg width="88" height="71" viewBox="0 0 88 71" fill="none" xmlns="http://www.w3.org/2000/svg">
<path fill-rule="evenodd" clip-rule="evenodd" d="M53.6995 33.4594C53.6995 38.7524 49.4071 43.0443 44.111 43.0443C38.8159 43.0443 34.5225 38.7524 34.5225 33.4594C34.5225 28.1663 38.8159 23.8745 44.111 23.8745C49.4071 23.8745 53.6995 28.1663 53.6995 33.4594Z" fill="#2970F1"/>
<path fill-rule="evenodd" clip-rule="evenodd" d="M9.10875 23.4024C9.10875 27.2089 6.11053 30.304 2.42535 30.304H0.429688V38.7843H2.42535C10.6386 38.7843 17.321 31.8837 17.321 23.4024V15.8267C17.321 12.0202 20.3193 8.92513 24.0044 8.92513H25.9991V0.444824H24.0044C15.7912 0.444824 9.10875 7.3444 9.10875 15.8267V23.4024Z" fill="white"/>
<path fill-rule="evenodd" clip-rule="evenodd" d="M16.9269 54.2444V46.481C16.9269 42.5403 15.4886 38.8335 12.8837 35.9277C10.6452 38.0816 7.83179 39.6265 4.69141 40.2714C6.86369 41.4723 8.34152 43.8052 8.34152 46.481V54.2444C8.34152 62.9358 15.3276 70.0072 23.914 70.0072H25.9994V61.3169H23.914C20.0614 61.3169 16.9269 58.1451 16.9269 54.2444Z" fill="white"/>
<mask id="mask0_194_3714" style="mask-type:alpha" maskUnits="userSpaceOnUse" x="60" y="30" width="28" height="39">
<path fill-rule="evenodd" clip-rule="evenodd" d="M60.8818 30.9424H87.6527V68.6032H60.8818V30.9424Z" fill="white"/>
</mask>
<g mask="url(#mask0_194_3714)">
<path fill-rule="evenodd" clip-rule="evenodd" d="M78.5654 53.4936V46.052C78.5654 42.3129 81.7045 39.2726 85.5627 39.2726H87.6531V30.9424H85.5627C76.9638 30.9424 69.9675 37.7198 69.9675 46.052V53.4936C69.9675 57.2327 66.8285 60.273 62.9702 60.273H60.8818V68.6032H62.9702C71.5702 68.6032 78.5654 61.8248 78.5654 53.4936Z" fill="white"/>
</g>
<path fill-rule="evenodd" clip-rule="evenodd" d="M69.1647 16.2081V23.9718C69.1647 27.9116 70.604 31.6185 73.2091 34.5243C75.4467 32.3714 78.2612 30.8265 81.3998 30.1815C79.2284 28.9806 77.7505 26.6477 77.7505 23.9718V16.2081C77.7505 7.51652 70.7651 0.444824 62.1782 0.444824H60.0918V9.13544H62.1782C66.031 9.13544 69.1647 12.3073 69.1647 16.2081Z" fill="white"/>
</svg>
