<svg width="86" height="86" viewBox="0 0 86 86" fill="none" xmlns="http://www.w3.org/2000/svg">
<g clip-path="url(#clip0_738_456)">
<path fill-rule="evenodd" clip-rule="evenodd" d="M35.6889 45.7855C35.9409 45.971 36.061 45.7074 36.1917 45.5849C36.9324 44.8956 37.4072 44.0185 37.8727 43.1333C37.2311 43.4482 36.6501 43.8308 36.1322 44.2996C35.886 44.5224 35.6457 44.7603 35.5034 45.0683C35.3728 45.3493 35.4416 45.6048 35.6889 45.7855Z" fill="#13C1C2"/>
<mask id="mask0_738_456" style="mask-type:alpha" maskUnits="userSpaceOnUse" x="0" y="0" width="86" height="86">
<path fill-rule="evenodd" clip-rule="evenodd" d="M0.201172 0.0913086H85.6714V85.5463H0.201172V0.0913086Z" fill="white"/>
</mask>
<g mask="url(#mask0_738_456)">
<path fill-rule="evenodd" clip-rule="evenodd" d="M59.7069 67.3135C55.5763 67.3193 51.4444 67.3158 47.3137 67.3158C40.3274 67.3158 33.341 67.3147 26.3547 67.3182C25.9184 67.3193 25.4996 67.2785 25.0995 67.0861C24.3483 66.7257 23.9131 66.1903 23.9143 65.3016C23.9236 50.5663 23.9201 35.8309 23.9248 21.0956C23.9248 20.7469 23.9493 20.3912 24.017 20.0494C24.1954 19.156 24.7752 18.6125 25.6151 18.3186H50.8833C51.3488 18.5075 51.7104 18.8318 52.0615 19.1828C55.1015 22.2328 58.1426 25.2827 61.2001 28.314C61.6994 28.8097 61.963 29.3578 61.9537 30.0506C61.9513 30.2419 61.9583 30.4332 61.9583 30.6245C61.9583 42.1069 61.9583 53.5882 61.9583 65.0706C61.9583 66.4877 61.1429 67.3112 59.7069 67.3135ZM42.9358 0.0913086C19.3346 0.0913086 0.201172 19.2225 0.201172 42.8196C0.201172 66.4166 19.3346 85.5467 42.9358 85.5467C66.5383 85.5467 85.6717 66.4166 85.6717 42.8196C85.6717 19.2225 66.5383 0.0913086 42.9358 0.0913086Z" fill="#13C1C2"/>
</g>
<path fill-rule="evenodd" clip-rule="evenodd" d="M34.9759 43.4422C35.9721 42.4509 37.1783 41.7651 38.4394 41.1807C38.8873 40.972 39.1509 40.6827 39.3469 40.2279C40.4773 37.6071 41.4117 34.9211 42.1664 32.1697C42.2434 31.8922 42.2224 31.6577 42.1092 31.3953C41.5726 30.1497 41.078 28.8912 41.015 27.5114C40.994 27.0449 41.043 26.5889 41.2157 26.1515C41.5283 25.3666 42.1862 24.9525 43.0215 25.0144C43.5044 25.0505 44.2638 25.9008 44.3746 26.5504C44.4248 26.8478 44.4388 27.1511 44.4551 27.319C44.3863 28.7477 44.1367 30.0132 43.8427 31.2693C43.789 31.4991 43.7995 31.6962 43.9104 31.9108C44.9847 33.9822 46.2306 35.9381 47.7832 37.6911C47.9792 37.9139 48.1437 38.0212 48.4657 37.9629C49.4059 37.7914 50.3566 37.6934 51.319 37.7401C51.6724 37.7564 52.0131 37.8182 52.3514 37.915C53.3604 38.2066 53.7489 39.058 53.3021 40.0028C52.7036 41.2682 51.5325 41.7651 50.2038 41.3102C49.3277 41.0093 48.6021 40.4646 47.9337 39.843C47.7016 39.6284 47.4916 39.5736 47.1696 39.6482C44.8867 40.1835 42.6645 40.9008 40.4936 41.7872C40.2206 41.898 40.062 42.0683 39.9337 42.3249C39.2933 43.6067 38.6692 44.9001 37.7383 46.0093C37.5143 46.2764 37.2775 46.5423 37.0104 46.7639C36.5029 47.185 35.9337 47.5057 35.2606 47.1896C34.535 46.8502 34.0777 46.2717 34.0252 45.4495C33.9716 44.6144 34.4218 43.9939 34.9759 43.4422ZM26.1594 51.2659C31.7436 51.2519 37.3266 51.2566 42.9096 51.2566C48.5089 51.2566 54.1083 51.2507 59.7076 51.2682C60.1812 51.2706 60.2745 51.1376 60.2734 50.6874C60.2582 44.0044 60.2629 37.3214 60.2629 30.6383C60.2629 30.5427 60.2582 30.4471 60.2629 30.3514C60.271 30.1776 60.2267 30.1193 60.0202 30.1205C56.8624 30.1403 53.7035 30.138 50.5457 30.1613C50.1596 30.1648 50.1117 30.019 50.1129 29.6878C50.1246 26.6414 50.1071 23.5949 50.1327 20.5497C50.1374 20.096 50.0161 20.0073 49.5915 20.0073C41.8702 20.019 34.1501 20.0155 26.4289 20.0167C25.7628 20.0167 25.6613 20.1111 25.6216 20.7701C25.6135 20.8972 25.617 21.0255 25.617 21.1527C25.617 31.0092 25.6205 40.867 25.6065 50.7235C25.6053 51.1714 25.7348 51.2671 26.1594 51.2659Z" fill="#13C1C2"/>
<path fill-rule="evenodd" clip-rule="evenodd" d="M51.9259 39.5597C52.0227 39.4 52.0647 39.2483 51.8267 39.2168C51.1093 39.12 50.393 39.1317 49.5566 39.2495C49.8984 39.5108 50.1306 39.7254 50.3965 39.884C50.8982 40.1814 51.6564 40.0041 51.9259 39.5597Z" fill="#13C1C2"/>
<path fill-rule="evenodd" clip-rule="evenodd" d="M42.9108 26.7975C42.8035 26.5736 42.6997 26.5083 42.5329 26.7765C42.0674 27.523 42.1538 28.4828 42.807 29.1838C43.1465 28.3744 43.2923 27.5965 42.9108 26.7975Z" fill="#13C1C2"/>
<path fill-rule="evenodd" clip-rule="evenodd" d="M52.2273 28.465C54.3469 28.4545 56.4677 28.4603 58.5873 28.4568C58.6701 28.4568 58.7833 28.5082 58.8089 28.4323C56.4828 26.1067 54.1766 23.7997 51.8424 21.4658C51.833 21.5451 51.8214 21.6069 51.8214 21.6699C51.8202 23.8055 51.8272 25.9411 51.812 28.0766C51.8109 28.4055 51.9322 28.4662 52.2273 28.465Z" fill="#13C1C2"/>
<path fill-rule="evenodd" clip-rule="evenodd" d="M43.7936 56.9195C43.0564 56.4961 42.2457 56.4973 41.4314 56.4751C41.0849 56.4658 41.0103 56.5836 41.0138 56.909C41.029 58.5803 41.0208 60.2517 41.0208 61.9231C41.0208 62.9168 41.0208 62.9168 42.0053 62.8981C42.2445 62.8981 42.4848 62.9144 42.7216 62.8958C43.7668 62.8083 44.4609 62.2765 44.7782 61.2629C45.064 60.3485 45.134 59.4213 44.9415 58.4835C44.8015 57.7931 44.4084 57.2717 43.7936 56.9195Z" fill="#13C1C2"/>
<path fill-rule="evenodd" clip-rule="evenodd" d="M34.8928 56.4844C34.7178 56.482 34.5405 56.4984 34.3679 56.4809C34.0634 56.4482 33.9362 56.5508 33.9549 56.8751C33.9806 57.3043 33.9607 57.7347 33.9607 58.1651V58.6899C33.9607 59.9356 33.9607 59.9367 35.2171 59.8469C35.7164 59.8108 36.1515 59.6545 36.4151 59.1868C37.1722 57.8467 36.4198 56.5089 34.8928 56.4844Z" fill="#13C1C2"/>
<path fill-rule="evenodd" clip-rule="evenodd" d="M44.7776 61.2628C44.4615 62.2763 43.7662 62.8093 42.721 62.8956C42.4842 62.9155 42.2439 62.898 42.0048 62.898C41.0202 62.9166 41.0202 62.9166 41.0202 61.9241C41.0202 60.2516 41.0284 58.5803 41.0132 56.9089C41.0097 56.5835 41.0844 56.4657 41.4308 56.4751C42.2451 56.4984 43.0558 56.4972 43.793 56.9194C44.409 57.2728 44.8009 57.793 44.9421 58.4835C45.1334 59.4212 45.0634 60.3484 44.7776 61.2628ZM42.4062 55.4498C41.6269 55.4171 40.8442 55.4579 40.0638 55.4241C39.6858 55.4078 39.6147 55.5512 39.6193 55.8906C39.6368 57.1503 39.6263 58.4087 39.6263 59.6683C39.6263 60.9595 39.6298 62.2494 39.6228 63.5405C39.6217 63.7983 39.6543 63.9569 39.9798 63.9511C40.9352 63.9324 41.8929 63.9557 42.8483 63.9359C43.3429 63.9266 43.8282 63.8204 44.2878 63.6222C45.6328 63.0402 46.1682 61.9042 46.4178 60.5536C46.9428 57.7183 45.27 55.5734 42.4062 55.4498Z" fill="white"/>
<path fill-rule="evenodd" clip-rule="evenodd" d="M36.4154 59.1871C36.1517 59.6547 35.7166 59.811 35.2173 59.8472C33.961 59.937 33.961 59.9358 33.961 58.6902V58.1654C33.961 57.735 33.9808 57.3035 33.9551 56.8754C33.9353 56.55 34.0636 56.4486 34.3681 56.4801C34.5407 56.4987 34.7181 56.4812 34.893 56.4847C36.42 56.5092 37.1724 57.8458 36.4154 59.1871ZM35.8053 55.5329C34.9094 55.3265 33.9937 55.4875 33.0908 55.4268C32.7023 55.4 32.5717 55.5038 32.581 55.9155C32.609 57.1576 32.5915 58.401 32.5915 59.6443V63.0383C32.5915 63.9515 32.5915 63.9352 33.4839 63.9527C33.8502 63.9608 33.9902 63.8722 33.9727 63.4803C33.9424 62.749 33.975 62.0142 33.9587 61.2818C33.9517 60.9809 34.0287 60.8479 34.3577 60.8642C34.7064 60.8817 35.0587 60.8526 35.4075 60.8234C36.8692 60.6998 37.8701 59.7492 37.9681 58.3998C38.0742 56.9489 37.2716 55.8723 35.8053 55.5329Z" fill="white"/>
<path fill-rule="evenodd" clip-rule="evenodd" d="M53.4661 55.4235C51.9519 55.4504 50.4378 55.4434 48.9236 55.4259C48.583 55.4224 48.4955 55.532 48.5002 55.8609C48.5165 57.1357 48.5072 58.4105 48.5072 59.6853C48.5072 60.7851 48.5072 61.8838 48.5072 62.9837C48.5072 63.9587 48.5072 63.9389 49.4929 63.9552C49.8708 63.961 49.9408 63.8292 49.9327 63.4875C49.9117 62.5008 49.9397 61.5118 49.9175 60.5239C49.9093 60.1821 50.0225 60.0958 50.3491 60.1028C51.2252 60.1238 52.1036 60.0888 52.9785 60.1192C53.3739 60.1332 53.4906 60.0212 53.4929 59.6211C53.4952 59.2281 53.3634 59.1453 53.0029 59.1546C52.0942 59.1779 51.1855 59.1546 50.2768 59.1674C50.0108 59.1709 49.9128 59.094 49.9198 58.8175C49.9373 58.1807 49.9432 57.5416 49.9187 56.9059C49.9047 56.5747 49.998 56.4686 50.3386 56.4756C51.3745 56.4977 52.4115 56.4627 53.4462 56.4931C53.8767 56.5059 53.8627 56.2738 53.844 55.9892C53.8265 55.7315 53.97 55.4142 53.4661 55.4235Z" fill="white"/>
<rect x="20" y="14" width="44" height="56" fill="#13C1C2"/>
<path d="M48.3468 18.9676L47.5011 19.0522L47.5011 19.0522L48.3468 18.9676ZM48.8719 24.2185L48.0262 24.3031L48.0262 24.3031L48.8719 24.2185ZM49.6698 26.8978L49.9951 26.1125L49.9951 26.1125L49.6698 26.8978ZM52.1285 25.5674L52.6667 26.2253L52.6667 26.2253L52.1285 25.5674ZM56.2127 22.2258L55.6744 21.5679L55.6744 21.5679L56.2127 22.2258ZM57.5961 21.4279L57.6385 20.579L57.6385 20.579L57.5961 21.4279ZM58.8934 22.3595L59.4944 21.7585L59.4944 21.7585L58.8934 22.3595ZM63.6404 27.1066L63.0394 27.7076L63.0394 27.7076L63.6404 27.1066ZM64.572 28.4038L63.7231 28.4461L63.7231 28.4461L64.572 28.4038ZM63.7741 29.7873L64.432 30.3255L63.7741 29.7873ZM60.4325 33.8715L61.0903 34.4098L61.0903 34.4098L60.4325 33.8715ZM59.1021 36.3302L59.8874 36.005L59.8874 36.005L59.1021 36.3302ZM61.7814 37.1281L61.6968 37.9739L61.6968 37.9739L61.7814 37.1281ZM67.0324 37.6532L67.117 36.8074L67.117 36.8074L67.0324 37.6532ZM67.0324 48.3467L67.117 49.1925L67.117 49.1925L67.0324 48.3467ZM61.7824 48.8717L61.8669 49.7175L61.8669 49.7175L61.7824 48.8717ZM59.1031 49.6696L59.8884 49.9949L59.8884 49.9949L59.1031 49.6696ZM60.4334 52.1283L61.0913 51.59L61.0913 51.59L60.4334 52.1283ZM63.7743 56.2115L63.1164 56.7498L63.1164 56.7498L63.7743 56.2115ZM64.5721 57.595L65.4211 57.6373L65.4211 57.6373L64.5721 57.595ZM57.5963 64.5708L57.6386 65.4198L57.6386 65.4198L57.5963 64.5708ZM56.2128 63.773L55.6745 64.4308L55.6745 64.4308L56.2128 63.773ZM52.1286 60.4314L51.5276 61.0324L51.5575 61.0624L51.5903 61.0892L52.1286 60.4314ZM52.1286 60.4313L52.7296 59.8303L52.6996 59.8003L52.6668 59.7735L52.1286 60.4313ZM49.6699 59.101L49.9952 59.8863L49.9952 59.8863L49.6699 59.101ZM48.8721 61.7803L49.7178 61.8648L49.7178 61.8648L48.8721 61.7803ZM48.3468 67.0323L47.5011 66.9477L47.5011 66.9477L48.3468 67.0323ZM47.9328 68.5747L47.3624 67.9445L47.3624 67.9445L47.9328 68.5747ZM38.0674 68.5747L38.6378 67.9445L38.6378 67.9445L38.0674 68.5747ZM37.6533 67.0323L36.8075 67.1169L36.8075 67.1169L37.6533 67.0323ZM37.1282 61.7813L36.2824 61.8659L36.2824 61.8659L37.1282 61.7813ZM36.3304 59.102L36.6557 58.3167L36.6556 58.3167L36.3304 59.102ZM33.8717 60.4324L34.4099 61.0902L34.4099 61.0902L33.8717 60.4324ZM29.7873 63.7741L29.249 63.1163L29.249 63.1163L29.7873 63.7741ZM28.4038 64.572L28.3615 65.421L28.3615 65.421L28.4038 64.572ZM27.1066 63.6404L26.5055 64.2415L26.5055 64.2415L27.1066 63.6404ZM22.3595 58.8934L22.9606 58.2923L22.9605 58.2923L22.3595 58.8934ZM21.4279 57.5961L20.579 57.6385L20.579 57.6385L21.4279 57.5961ZM22.2258 56.2127L21.5679 55.6744L21.5679 55.6744L22.2258 56.2127ZM25.5675 52.1284L24.9097 51.5901L24.9097 51.5901L25.5675 52.1284ZM26.8979 49.6697L27.6832 49.3444L27.6832 49.3444L26.8979 49.6697ZM24.2186 48.8718L24.3032 48.026L24.3032 48.026L24.2186 48.8718ZM18.9677 48.3467L19.0523 47.5009L19.0101 47.4967H18.9677V48.3467ZM18.9677 48.3467L18.8831 49.1925L18.9253 49.1967H18.9677V48.3467ZM17.4253 47.9326L18.0555 47.3623L18.0555 47.3623L17.4253 47.9326ZM17.4253 38.0673L18.0555 38.6376L18.0555 38.6376L17.4253 38.0673ZM18.9677 37.6532V36.8032H18.9253L18.8831 36.8074L18.9677 37.6532ZM18.9677 37.6532V38.5032H19.0101L19.0523 38.499L18.9677 37.6532ZM24.2196 37.128L24.135 36.2822L24.135 36.2822L24.2196 37.128ZM25.5685 33.8715L26.2264 33.3332L26.2264 33.3332L25.5685 33.8715ZM22.2259 29.7861L22.8838 29.2479L22.8838 29.2479L22.2259 29.7861ZM21.4281 28.4026L20.5791 28.3603L20.5791 28.3603L21.4281 28.4026ZM22.3596 27.1054L21.7586 26.5044L21.7586 26.5044L22.3596 27.1054ZM27.1067 22.3583L27.7078 22.9594L27.7078 22.9594L27.1067 22.3583ZM28.4039 21.4268L28.3616 20.5778L28.3616 20.5778L28.4039 21.4268ZM29.7874 22.2246L29.2491 22.8825L29.2491 22.8825L29.7874 22.2246ZM33.8718 25.5664L34.41 24.9085L34.41 24.9085L33.8718 25.5664ZM36.3305 26.8968L36.0052 26.1115L36.0052 26.1115L36.3305 26.8968ZM37.1283 24.2175L36.2826 24.1329L36.2826 24.1329L37.1283 24.2175ZM37.6533 18.9676L36.8075 18.883L36.8075 18.883L37.6533 18.9676ZM38.0674 17.4252L37.497 16.7949L37.497 16.7949L38.0674 17.4252ZM49.1926 18.883C49.1521 18.4777 49.1152 18.0924 49.0429 17.7804C48.965 17.4447 48.8241 17.0854 48.5031 16.7949L47.3624 18.0554C47.3271 18.0234 47.3504 18.0074 47.3868 18.1644C47.4287 18.3449 47.456 18.6016 47.5011 19.0522L49.1926 18.883ZM49.7177 24.1339L49.1926 18.883L47.5011 19.0522L48.0262 24.3031L49.7177 24.1339ZM49.9951 26.1125C50.1014 26.1565 50.0398 26.2377 49.9491 25.8775C49.8582 25.5161 49.8023 24.9794 49.7177 24.1339L48.0262 24.3031C48.105 25.0911 48.1715 25.7796 48.3005 26.2922C48.4298 26.806 48.6853 27.4101 49.3445 27.6831L49.9951 26.1125ZM51.5902 24.9095C50.9326 25.4476 50.5136 25.7875 50.1937 25.9788C49.8749 26.1694 49.8887 26.0684 49.9951 26.1125L49.3445 27.6831C50.0037 27.9561 50.6115 27.7097 51.0662 27.4378C51.5199 27.1666 52.0538 26.7268 52.6667 26.2253L51.5902 24.9095ZM55.6744 21.5679L51.5902 24.9095L52.6667 26.2253L56.7509 22.8837L55.6744 21.5679ZM57.6385 20.579C57.2061 20.5574 56.8524 20.7118 56.56 20.8941C56.2882 21.0636 55.9897 21.31 55.6744 21.5679L56.7509 22.8837C57.1014 22.5969 57.3022 22.4348 57.4595 22.3367C57.5962 22.2514 57.6014 22.2793 57.5538 22.2769L57.6385 20.579ZM59.4944 21.7585C59.2063 21.4704 58.9338 21.1956 58.6803 20.9999C58.4075 20.7894 58.0709 20.6006 57.6385 20.579L57.5538 22.2769C57.5062 22.2745 57.5141 22.2473 57.6417 22.3458C57.7884 22.459 57.9721 22.6404 58.2923 22.9606L59.4944 21.7585ZM64.2415 26.5055L59.4944 21.7585L58.2923 22.9605L63.0394 27.7076L64.2415 26.5055ZM65.421 28.3615C65.3994 27.9291 65.2106 27.5925 65.0001 27.3197C64.8044 27.0661 64.5295 26.7936 64.2415 26.5055L63.0394 27.7076C63.3596 28.0278 63.5409 28.2115 63.6542 28.3583C63.7526 28.4858 63.7254 28.4937 63.7231 28.4461L65.421 28.3615ZM64.432 30.3255C64.69 30.0102 64.9363 29.7117 65.1058 29.4399C65.2881 29.1476 65.4425 28.7939 65.421 28.3615L63.7231 28.4461C63.7207 28.3986 63.7485 28.4037 63.6633 28.5404C63.5652 28.6977 63.403 28.8986 63.1163 29.249L64.432 30.3255ZM61.0903 34.4098L64.432 30.3255L63.1163 29.249L59.7746 33.3333L61.0903 34.4098ZM59.8874 36.005C59.9314 36.1113 59.8305 36.1251 60.0211 35.8063C60.2124 35.4864 60.5523 35.0674 61.0903 34.4098L59.7746 33.3333C59.2731 33.9462 58.8333 34.4802 58.5621 34.9338C58.2901 35.3885 58.0438 35.9964 58.3168 36.6555L59.8874 36.005ZM61.866 36.2823C61.0205 36.1978 60.4838 36.1418 60.1224 36.0509C59.7622 35.9603 59.8433 35.8986 59.8874 36.005L58.3168 36.6555C58.5898 37.3147 59.1939 37.5703 59.7077 37.6995C60.2202 37.8285 60.9088 37.8951 61.6968 37.9739L61.866 36.2823ZM67.117 36.8074L61.866 36.2823L61.6968 37.9739L66.9479 38.499L67.117 36.8074ZM69.2051 37.4969C68.9146 37.1759 68.5553 37.035 68.2197 36.9572C67.9076 36.8848 67.5224 36.8479 67.117 36.8074L66.9478 38.499C67.3984 38.544 67.6551 38.5714 67.8357 38.6132C67.9926 38.6496 67.9766 38.6729 67.9446 38.6376L69.2051 37.4969ZM69.6834 39.6433C69.6834 39.2359 69.6851 38.8489 69.6441 38.5312C69.6001 38.1894 69.4956 37.8179 69.2051 37.4969L67.9446 38.6376C67.9127 38.6023 67.9375 38.5887 67.9581 38.7485C67.9818 38.9323 67.9834 39.1904 67.9834 39.6433H69.6834ZM69.6834 46.3567V39.6433H67.9834V46.3567H69.6834ZM69.2051 48.503C69.4956 48.182 69.6001 47.8105 69.6441 47.4687C69.6851 47.1511 69.6834 46.764 69.6834 46.3567H67.9834C67.9834 46.8095 67.9818 47.0676 67.9581 47.2514C67.9375 47.4112 67.9127 47.3976 67.9446 47.3623L69.2051 48.503ZM67.117 49.1925C67.5224 49.152 67.9076 49.1151 68.2197 49.0428C68.5553 48.9649 68.9146 48.824 69.2051 48.503L67.9446 47.3623C67.9766 47.327 67.9926 47.3503 67.8357 47.3867C67.6551 47.4286 67.3984 47.4559 66.9478 47.5009L67.117 49.1925ZM61.8669 49.7175L67.117 49.1925L66.9478 47.5009L61.6978 48.0259L61.8669 49.7175ZM59.8884 49.9949C59.8443 50.1012 59.7632 50.0395 60.1234 49.9489C60.4848 49.858 61.0214 49.8021 61.8669 49.7175L61.6978 48.0259C60.9097 48.1048 60.2212 48.1713 59.7086 48.3003C59.1948 48.4295 58.5908 48.6851 58.3178 49.3443L59.8884 49.9949ZM61.0913 51.59C60.5532 50.9324 60.2133 50.5134 60.0221 50.1935C59.8314 49.8747 59.9324 49.8885 59.8884 49.9949L58.3178 49.3443C58.0447 50.0034 58.2911 50.6113 58.563 51.066C58.8343 51.5196 59.2741 52.0536 59.7756 52.6665L61.0913 51.59ZM64.4321 55.6732L61.0913 51.59L59.7756 52.6665L63.1164 56.7498L64.4321 55.6732ZM65.4211 57.6373C65.4426 57.2049 65.2883 56.8512 65.1059 56.5588C64.9365 56.287 64.6901 55.9885 64.4321 55.6732L63.1164 56.7498C63.4031 57.1002 63.5653 57.301 63.6634 57.4583C63.7486 57.595 63.7208 57.6002 63.7232 57.5526L65.4211 57.6373ZM64.2416 59.4932C64.5297 59.2052 64.8045 58.9327 65.0002 58.6791C65.2107 58.4063 65.3995 58.0697 65.4211 57.6373L63.7232 57.5526C63.7256 57.5051 63.7527 57.513 63.6543 57.6405C63.5411 57.7873 63.3597 57.971 63.0395 58.2911L64.2416 59.4932ZM59.4945 64.2403L64.2416 59.4932L63.0395 58.2911L58.2924 63.0382L59.4945 64.2403ZM57.6386 65.4198C58.071 65.3982 58.4076 65.2094 58.6804 64.9989C58.934 64.8032 59.2065 64.5284 59.4945 64.2403L58.2924 63.0382C57.9722 63.3584 57.7886 63.5398 57.6418 63.653C57.5143 63.7514 57.5064 63.7243 57.5539 63.7219L57.6386 65.4198ZM55.6745 64.4308C55.9898 64.6888 56.2883 64.9352 56.5601 65.1046C56.8525 65.287 57.2062 65.4414 57.6386 65.4198L57.5539 63.7219C57.6015 63.7195 57.5963 63.7473 57.4596 63.6621C57.3023 63.564 57.1015 63.4019 56.7511 63.1151L55.6745 64.4308ZM51.5903 61.0892L55.6745 64.4308L56.7511 63.1151L52.6669 59.7735L51.5903 61.0892ZM51.5275 61.0324L51.5276 61.0324L52.7296 59.8303L52.7296 59.8303L51.5275 61.0324ZM49.9952 59.8863C49.8888 59.9303 49.875 59.8293 50.1938 60.02C50.5137 60.2112 50.9327 60.5511 51.5903 61.0892L52.6668 59.7735C52.0539 59.272 51.52 58.8322 51.0663 58.5609C50.6116 58.289 50.0038 58.0426 49.3446 58.3157L49.9952 59.8863ZM49.7178 61.8648C49.8024 61.0193 49.8583 60.4827 49.9492 60.1213C50.0399 59.7611 50.1015 59.8422 49.9952 59.8863L49.3446 58.3157C48.6855 58.5887 48.4299 59.1927 48.3006 59.7065C48.1717 60.2191 48.1051 60.9076 48.0263 61.6957L49.7178 61.8648ZM49.1926 67.1169L49.7178 61.8648L48.0263 61.6957L47.5011 66.9477L49.1926 67.1169ZM48.5031 69.205C48.8241 68.9145 48.965 68.5552 49.0429 68.2195C49.1152 67.9075 49.1521 67.5222 49.1926 67.1169L47.5011 66.9477C47.456 67.3983 47.4287 67.655 47.3868 67.8356C47.3504 67.9925 47.3271 67.9765 47.3624 67.9445L48.5031 69.205ZM46.3568 69.6833C46.7642 69.6833 47.1512 69.6849 47.4689 69.644C47.8106 69.6 48.1821 69.4955 48.5031 69.205L47.3624 67.9445C47.3977 67.9126 47.4113 67.9374 47.2516 67.958C47.0677 67.9816 46.8096 67.9833 46.3568 67.9833V69.6833ZM39.6434 69.6833H46.3568V67.9833H39.6434V69.6833ZM37.497 69.205C37.8181 69.4955 38.1896 69.6 38.5313 69.644C38.849 69.6849 39.236 69.6833 39.6434 69.6833V67.9833C39.1906 67.9833 38.9325 67.9816 38.7486 67.958C38.5888 67.9374 38.6024 67.9126 38.6378 67.9445L37.497 69.205ZM36.8075 67.1169C36.8481 67.5222 36.8849 67.9075 36.9573 68.2195C37.0351 68.5552 37.176 68.9145 37.497 69.205L38.6378 67.9445C38.6731 67.9765 38.6497 67.9925 38.6134 67.8356C38.5715 67.655 38.5442 67.3983 38.4991 66.9477L36.8075 67.1169ZM36.2824 61.8659L36.8075 67.1169L38.4991 66.9477L37.974 61.6967L36.2824 61.8659ZM36.0051 59.8873C35.8987 59.8432 35.9604 59.7621 36.051 60.1223C36.142 60.4837 36.1979 61.0204 36.2824 61.8659L37.974 61.6967C37.8952 60.9087 37.8286 60.2201 37.6997 59.7075C37.5704 59.1938 37.3148 58.5897 36.6557 58.3167L36.0051 59.8873ZM34.4099 61.0902C35.0676 60.5522 35.4866 60.2123 35.8064 60.021C36.1252 59.8304 36.1114 59.9313 36.0051 59.8873L36.6556 58.3167C35.9965 58.0437 35.3887 58.29 34.9339 58.562C34.4803 58.8332 33.9464 59.273 33.3334 59.7745L34.4099 61.0902ZM30.3255 64.432L34.4099 61.0902L33.3334 59.7745L29.249 63.1163L30.3255 64.432ZM28.3615 65.421C28.7939 65.4425 29.1476 65.2881 29.4399 65.1058C29.7117 64.9363 30.0102 64.69 30.3255 64.432L29.249 63.1163C28.8986 63.403 28.6977 63.5652 28.5405 63.6633C28.4037 63.7485 28.3986 63.7207 28.4461 63.7231L28.3615 65.421ZM26.5055 64.2415C26.7936 64.5295 27.0661 64.8044 27.3197 65.0001C27.5925 65.2106 27.9291 65.3994 28.3615 65.421L28.4462 63.7231C28.4937 63.7254 28.4858 63.7526 28.3583 63.6542C28.2115 63.5409 28.0278 63.3596 27.7076 63.0394L26.5055 64.2415ZM21.7585 59.4944L26.5055 64.2415L27.7076 63.0394L22.9606 58.2923L21.7585 59.4944ZM20.579 57.6385C20.6006 58.0709 20.7894 58.4075 20.9999 58.6803C21.1956 58.9338 21.4704 59.2063 21.7585 59.4944L22.9605 58.2923C22.6404 57.9721 22.459 57.7884 22.3458 57.6417C22.2473 57.5141 22.2745 57.5062 22.2769 57.5538L20.579 57.6385ZM21.5679 55.6744C21.31 55.9897 21.0636 56.2882 20.8941 56.56C20.7118 56.8524 20.5574 57.2061 20.579 57.6385L22.2769 57.5538C22.2793 57.6014 22.2514 57.5962 22.3367 57.4595C22.4348 57.3022 22.5969 57.1014 22.8837 56.7509L21.5679 55.6744ZM24.9097 51.5901L21.5679 55.6744L22.8837 56.7509L26.2254 52.6666L24.9097 51.5901ZM26.1126 49.9949C26.0686 49.8886 26.1695 49.8748 25.9789 50.1936C25.7876 50.5135 25.4477 50.9325 24.9097 51.5901L26.2254 52.6666C26.7269 52.0537 27.1667 51.5197 27.4379 51.0661C27.7098 50.6114 27.9562 50.0035 27.6832 49.3444L26.1126 49.9949ZM24.134 49.7176C24.9795 49.8021 25.5162 49.8581 25.8776 49.949C26.2378 50.0396 26.1567 50.1013 26.1126 49.9949L27.6832 49.3444C27.4102 48.6852 26.8061 48.4296 26.2923 48.3004C25.7798 48.1714 25.0912 48.1048 24.3032 48.026L24.134 49.7176ZM18.8832 49.1925L24.134 49.7176L24.3032 48.026L19.0523 47.5009L18.8832 49.1925ZM18.9677 49.1967H18.9677V47.4967H18.9677V49.1967ZM16.7951 48.503C17.0856 48.824 17.4448 48.9649 17.7805 49.0427C18.0925 49.1151 18.4778 49.152 18.8831 49.1925L19.0523 47.5009C18.6017 47.4559 18.3451 47.4286 18.1645 47.3867C18.0076 47.3503 18.0236 47.327 18.0555 47.3623L16.7951 48.503ZM16.3167 46.3566C16.3167 46.764 16.3151 47.1511 16.356 47.4687C16.4001 47.8105 16.5046 48.182 16.7951 48.503L18.0555 47.3623C18.0875 47.3976 18.0627 47.4112 18.0421 47.2514C18.0184 47.0676 18.0167 46.8095 18.0167 46.3566H16.3167ZM16.3167 39.6433V46.3566H18.0167V39.6433H16.3167ZM16.7951 37.4969C16.5046 37.8179 16.4001 38.1894 16.356 38.5312C16.3151 38.8489 16.3167 39.2359 16.3167 39.6433H18.0167C18.0167 39.1904 18.0184 38.9323 18.0421 38.7485C18.0627 38.5887 18.0875 38.6023 18.0555 38.6376L16.7951 37.4969ZM18.8831 36.8074C18.4778 36.8479 18.0925 36.8848 17.7805 36.9572C17.4448 37.035 17.0856 37.1759 16.7951 37.4969L18.0555 38.6376C18.0236 38.6729 18.0076 38.6496 18.1645 38.6132C18.3451 38.5714 18.6017 38.544 19.0523 38.499L18.8831 36.8074ZM18.9677 36.8032H18.9677V38.5032H18.9677V36.8032ZM24.135 36.2822L18.8832 36.8074L19.0523 38.499L24.3042 37.9738L24.135 36.2822ZM26.1136 36.0049C26.1576 35.8985 26.2388 35.9602 25.8786 36.0508C25.5171 36.1417 24.9805 36.1977 24.135 36.2822L24.3042 37.9738C25.0922 37.895 25.7807 37.8284 26.2933 37.6994C26.8071 37.5702 27.4111 37.3146 27.6842 36.6554L26.1136 36.0049ZM24.9106 34.4097C25.4487 35.0674 25.7886 35.4864 25.9799 35.8062C26.1705 36.125 26.0695 36.1112 26.1136 36.0049L27.6842 36.6554C27.9572 35.9963 27.7108 35.3884 27.4389 34.9337C27.1676 34.4801 26.7279 33.9462 26.2264 33.3332L24.9106 34.4097ZM21.5681 30.3244L24.9106 34.4097L26.2264 33.3332L22.8838 29.2479L21.5681 30.3244ZM20.5791 28.3603C20.5575 28.7927 20.7119 29.1464 20.8943 29.4388C21.0637 29.7106 21.3101 30.0091 21.5681 30.3244L22.8838 29.2479C22.5971 28.8974 22.4349 28.6966 22.3368 28.5393C22.2516 28.4026 22.2794 28.3974 22.277 28.445L20.5791 28.3603ZM21.7586 26.5044C21.4705 26.7924 21.1957 27.0649 21 27.3185C20.7895 27.5913 20.6007 27.9279 20.5791 28.3603L22.277 28.445C22.2746 28.4925 22.2475 28.4846 22.3459 28.3571C22.4591 28.2103 22.6405 28.0267 22.9607 27.7065L21.7586 26.5044ZM26.5057 21.7573L21.7586 26.5044L22.9607 27.7065L27.7078 22.9594L26.5057 21.7573ZM28.3616 20.5778C27.9292 20.5994 27.5926 20.7882 27.3198 20.9987C27.0662 21.1944 26.7937 21.4692 26.5057 21.7573L27.7078 22.9594C28.028 22.6392 28.2116 22.4578 28.3584 22.3446C28.4859 22.2462 28.4938 22.2733 28.4463 22.2757L28.3616 20.5778ZM30.3257 21.5668C30.0104 21.3088 29.7119 21.0624 29.4401 20.893C29.1477 20.7107 28.794 20.5563 28.3616 20.5778L28.4463 22.2757C28.3987 22.2781 28.4039 22.2503 28.5406 22.3355C28.6979 22.4336 28.8987 22.5958 29.2491 22.8825L30.3257 21.5668ZM34.41 24.9085L30.3257 21.5668L29.2491 22.8825L33.3335 26.2243L34.41 24.9085ZM36.0052 26.1115C36.1115 26.0674 36.1253 26.1684 35.8065 25.9778C35.4867 25.7865 35.0677 25.4466 34.41 24.9085L33.3335 26.2243C33.9465 26.7258 34.4804 27.1655 34.9341 27.4368C35.3888 27.7087 35.9966 27.9551 36.6558 27.6821L36.0052 26.1115ZM36.2826 24.1329C36.198 24.9784 36.1421 25.515 36.0511 25.8765C35.9605 26.2367 35.8989 26.1555 36.0052 26.1115L36.6558 27.6821C37.3149 27.409 37.5705 26.805 37.6998 26.2912C37.8287 25.7786 37.8953 25.0901 37.9741 24.3021L36.2826 24.1329ZM36.8075 18.883L36.2826 24.1329L37.9741 24.3021L38.4991 19.0522L36.8075 18.883ZM37.497 16.7949C37.176 17.0854 37.0351 17.4447 36.9573 17.7804C36.8849 18.0924 36.8481 18.4777 36.8075 18.883L38.4991 19.0522C38.5442 18.6016 38.5715 18.345 38.6134 18.1644C38.6497 18.0074 38.6731 18.0234 38.6378 18.0554L37.497 16.7949ZM39.6434 16.3166C39.236 16.3166 38.849 16.315 38.5313 16.3559C38.1896 16.4 37.8181 16.5044 37.497 16.7949L38.6378 18.0554C38.6024 18.0874 38.5888 18.0626 38.7486 18.042C38.9325 18.0183 39.1906 18.0166 39.6434 18.0166V16.3166ZM46.3568 16.3166H39.6434V18.0166H46.3568V16.3166ZM48.5031 16.7949C48.1821 16.5044 47.8106 16.4 47.4689 16.3559C47.1512 16.315 46.7642 16.3166 46.3568 16.3166V18.0166C46.8096 18.0166 47.0677 18.0183 47.2516 18.042C47.4113 18.0626 47.3977 18.0874 47.3624 18.0554L48.5031 16.7949ZM52.4834 43C52.4834 48.2375 48.2376 52.4833 43.0001 52.4833V54.1833C49.1765 54.1833 54.1834 49.1763 54.1834 43H52.4834ZM43.0001 33.5166C48.2376 33.5166 52.4834 37.7625 52.4834 43H54.1834C54.1834 36.8236 49.1765 31.8166 43.0001 31.8166V33.5166ZM33.5168 43C33.5168 37.7625 37.7626 33.5166 43.0001 33.5166V31.8166C36.8237 31.8166 31.8168 36.8236 31.8168 43H33.5168ZM43.0001 52.4833C37.7626 52.4833 33.5168 48.2375 33.5168 43H31.8168C31.8168 49.1763 36.8237 54.1833 43.0001 54.1833V52.4833Z" fill="white"/>
</g>
<defs>
<clipPath id="clip0_738_456">
<rect width="86" height="86" fill="white"/>
</clipPath>
</defs>
</svg>
