<?xml version="1.0" encoding="utf-8"?>
<!-- Generator: Adobe Illustrator 25.4.1, SVG Export Plug-In . SVG Version: 6.00 Build 0)  -->
<svg version="1.1" id="Layer_1" xmlns="http://www.w3.org/2000/svg" xmlns:xlink="http://www.w3.org/1999/xlink" x="0px" y="0px"
	 viewBox="0 0 45 36" style="enable-background:new 0 0 45 36;" xml:space="preserve">
<style type="text/css">
	.st0{clip-path:url(#SVGID_00000096777507864990059850000016228757027570846121_);}
	.st1{fill:#37384F;}
	.st2{fill:#790FD6;}
</style>
<g>
	<g>
		<defs>
			<rect id="SVGID_1_" width="45" height="36"/>
		</defs>
		<clipPath id="SVGID_00000049936413717557449510000001328602675261190539_">
			<use xlink:href="#SVGID_1_"  style="overflow:visible;"/>
		</clipPath>
		<g style="clip-path:url(#SVGID_00000049936413717557449510000001328602675261190539_);">
			<path class="st1" d="M40.3,27.9v-4c0-1,0.4-1.9,1.1-2.6c0.7-0.7,1.6-1.1,2.5-1.1H45v-4.5h-1.1c-2.1,0-4.1,0.9-5.6,2.4
				S36,21.7,36,23.8v4c0,1-0.4,1.9-1,2.6s-1.6,1.1-2.5,1.1h-1.1V36h1.1c2.1,0,4.1-0.9,5.6-2.4C39.5,32.1,40.3,30,40.3,27.9z"/>
			<path class="st1" d="M4.7,12.1c0,1-0.4,1.9-1,2.6c-0.7,0.7-1.6,1.1-2.5,1.1H0v4.5h1.1c2.1,0,4.1-0.9,5.6-2.4S9,14.3,9,12.2v-4
				c0-1,0.4-1.9,1-2.6c0.7-0.7,1.6-1.1,2.5-1.1h1.1V0h-1.1c-2,0-4,0.9-5.5,2.4S4.7,6,4.6,8.1L4.7,12.1z"/>
			<path class="st1" d="M9.1,27.9v-4c0-2-0.7-4-2.1-5.4c-1.2,1.1-2.6,1.9-4.2,2.2c0.6,0.3,1,0.8,1.4,1.3c0.3,0.6,0.5,1.2,0.5,1.9v4
				c0,2.2,0.8,4.2,2.3,5.7s3.5,2.4,5.6,2.4h1.1v-4.5h-1.1c-0.9,0-1.9-0.4-2.5-1.1C9.4,29.8,9.1,28.8,9.1,27.9z"/>
			<path class="st1" d="M35.9,8.1v4c0,2,0.7,3.9,2.1,5.4c1.2-1.1,2.6-1.9,4.2-2.2c-0.6-0.3-1-0.8-1.4-1.3c-0.3-0.6-0.5-1.2-0.5-1.9
				v-4c0-2.2-0.8-4.2-2.3-5.7S34.5,0,32.4,0h-1.1v4.5h1.1c0.5,0,0.9,0.1,1.4,0.3C34.2,5,34.6,5.3,35,5.6c0.3,0.3,0.6,0.7,0.8,1.2
				C35.9,7.2,35.9,7.6,35.9,8.1z"/>
		</g>
	</g>
</g>
<g>
	<path class="st2" d="M18.2,8.8c-0.4,0-0.8,0.3-0.8,0.8V11c0,0.4,0.3,0.8,0.8,0.8c0.4,0,0.8-0.3,0.8-0.8V9.6
		C19,9.2,18.6,8.8,18.2,8.8z M21.2,8.8c-0.4,0-0.8,0.3-0.8,0.8V11c0,0.4,0.3,0.8,0.8,0.8c0.4,0,0.8-0.3,0.8-0.8V9.6
		C21.9,9.2,21.6,8.8,21.2,8.8z M24.1,8.8c-0.4,0-0.8,0.3-0.8,0.8V11c0,0.4,0.3,0.8,0.8,0.8s0.8-0.3,0.8-0.8V9.6
		C24.9,9.2,24.6,8.8,24.1,8.8z M27.1,8.8c-0.4,0-0.7,0.3-0.7,0.8V11c0,0.4,0.3,0.8,0.7,0.8s0.7-0.3,0.7-0.8V9.6
		C27.8,9.2,27.5,8.8,27.1,8.8z M18.2,12.5c-0.8,0-1.5,0.7-1.5,1.5v8.9c0,0.8,0.7,1.5,1.5,1.5h8.9c0.8,0,1.5-0.7,1.5-1.5V14
		c0-0.8-0.7-1.5-1.5-1.5H18.2L18.2,12.5z M13.7,13.2c-0.4,0-0.8,0.3-0.8,0.7s0.3,0.7,0.8,0.7h1.5c0.4,0,0.8-0.3,0.8-0.7
		s-0.3-0.7-0.8-0.7H13.7z M30.1,13.2c-0.4,0-0.8,0.3-0.8,0.7s0.3,0.7,0.8,0.7h1.5c0.4,0,0.8-0.3,0.8-0.7s-0.3-0.7-0.8-0.7H30.1z
		 M30.1,16.2c-0.4,0-0.8,0.3-0.8,0.8c0,0.4,0.3,0.8,0.8,0.8h1.5c0.4,0,0.8-0.3,0.8-0.8c0-0.4-0.3-0.8-0.8-0.8H30.1z M13.7,16.2
		c-0.4,0-0.8,0.3-0.8,0.8c0,0.4,0.3,0.8,0.8,0.8h1.5c0.4,0,0.8-0.3,0.8-0.8c0-0.4-0.3-0.8-0.8-0.8H13.7z M30.1,19.1
		c-0.4,0-0.8,0.3-0.8,0.8c0,0.4,0.3,0.8,0.8,0.8h1.5c0.4,0,0.8-0.3,0.8-0.8c0-0.4-0.3-0.8-0.8-0.8H30.1z M13.7,19.2
		c-0.4,0-0.8,0.3-0.8,0.8c0,0.4,0.3,0.8,0.8,0.8h1.5c0.4,0,0.8-0.3,0.8-0.8c0-0.4-0.3-0.8-0.8-0.8H13.7z M13.7,22.1
		c-0.4,0-0.8,0.3-0.8,0.8c0,0.4,0.3,0.8,0.8,0.8h1.5c0.4,0,0.8-0.3,0.8-0.8c0-0.4-0.3-0.8-0.8-0.8H13.7z M30.1,22.1
		c-0.4,0-0.8,0.3-0.8,0.8c0,0.4,0.3,0.8,0.8,0.8h1.5c0.4,0,0.8-0.3,0.8-0.8c0-0.4-0.3-0.8-0.8-0.8H30.1z M18.2,25.1
		c-0.4,0-0.7,0.3-0.7,0.8v1.5c0,0.4,0.3,0.8,0.7,0.8s0.7-0.3,0.7-0.8v-1.5C18.9,25.4,18.6,25.1,18.2,25.1z M21.1,25.1
		c-0.4,0-0.8,0.3-0.8,0.8v1.5c0,0.4,0.3,0.8,0.8,0.8c0.4,0,0.8-0.3,0.8-0.8v-1.5C21.9,25.4,21.6,25.1,21.1,25.1z M24.1,25.1
		c-0.4,0-0.7,0.3-0.7,0.8v1.5c0,0.4,0.3,0.8,0.7,0.8s0.7-0.3,0.7-0.8v-1.5C24.8,25.4,24.5,25.1,24.1,25.1z M27.1,25.1
		c-0.4,0-0.7,0.3-0.7,0.8v1.5c0,0.4,0.3,0.8,0.7,0.8s0.7-0.3,0.7-0.8v-1.5C27.8,25.4,27.5,25.1,27.1,25.1z"/>
</g>
</svg>
