<svg width="87" height="86" viewBox="0 0 87 86" fill="none" xmlns="http://www.w3.org/2000/svg">
<path fill-rule="evenodd" clip-rule="evenodd" d="M86.1316 43.0584C86.1316 66.6555 66.9982 85.7855 43.3958 85.7855C19.7945 85.7855 0.661133 66.6555 0.661133 43.0584C0.661133 19.4613 19.7945 0.330078 43.3958 0.330078C66.9982 0.330078 86.1316 19.4613 86.1316 43.0584Z" fill="#2970F1"/>
<path fill-rule="evenodd" clip-rule="evenodd" d="M43.7751 10.5356C44.552 10.9054 44.8436 11.5119 44.8168 12.3738C44.769 13.8958 44.8226 15.419 44.7923 16.9423C44.783 17.4193 44.9136 17.5919 45.4047 17.6362C53.7314 18.3978 60.2022 22.312 64.8298 29.2376C67.1978 32.7821 68.5043 36.7289 68.8158 40.9884C68.852 41.4829 68.9791 41.6777 69.5169 41.6648C71.0392 41.6275 72.5639 41.687 74.085 41.638C74.9482 41.61 75.5548 41.8993 75.9235 42.6784V43.44C75.5525 44.2179 74.9471 44.5083 74.0827 44.4803C72.5592 44.4313 71.0334 44.4862 69.5099 44.4547C69.0223 44.4442 68.8566 44.59 68.8205 45.0752C68.4938 49.562 67.0672 53.6838 64.502 57.3729C60.1672 63.6069 54.2307 67.2971 46.6891 68.3573C46.2703 68.4156 45.848 68.4763 45.4269 68.4821C44.9545 68.4891 44.7806 68.6489 44.79 69.1562C44.8238 70.8276 44.8133 72.5001 44.7946 74.1726C44.7865 74.9202 44.2685 75.4765 43.5686 75.5687C42.9084 75.6562 42.2364 75.2316 42.051 74.5796C41.9891 74.3604 41.988 74.1201 41.9868 73.8892C41.9821 72.3018 41.9635 70.7133 41.9973 69.1271C42.0066 68.6454 41.8375 68.5229 41.3954 68.4844C33.9074 67.8301 27.8333 64.5213 23.1987 58.6313C20.0992 54.6915 18.3646 50.179 17.9761 45.172C17.9318 44.6028 17.7533 44.4372 17.1841 44.4523C15.6186 44.4932 14.0508 44.4698 12.4841 44.4652C11.5042 44.4617 10.8731 43.9065 10.8696 43.0644C10.8661 42.2212 11.4984 41.6567 12.4736 41.6532C14.0613 41.6473 15.6501 41.6217 17.2366 41.6683C17.814 41.6846 17.919 41.4712 17.9726 40.9592C18.956 31.4875 23.7131 24.5723 32.1285 20.1497C32.1845 20.1205 32.2405 20.0902 32.2988 20.0645C33.1084 19.7064 33.8934 19.949 34.2551 20.6687C34.6155 21.3883 34.3542 22.1884 33.5598 22.5908C32.006 23.3757 30.5128 24.2574 29.1818 25.3818C23.0085 30.6011 20.0934 37.2573 20.8283 45.3107C21.7732 55.6665 29.8444 64.0174 40.0912 65.5185C52.3083 67.3076 63.7461 58.9626 65.7735 46.7792C67.8301 34.4208 59.4637 22.7296 47.0997 20.6745C45.9262 20.4797 44.7456 20.4144 43.5628 20.3596C42.4639 20.3071 41.9891 19.8196 41.9868 18.7256C41.9798 16.6087 42.0125 14.4906 41.9705 12.3749C41.9541 11.513 42.2329 10.9042 43.0122 10.5356H43.7751Z" fill="white"/>
<path fill-rule="evenodd" clip-rule="evenodd" d="M39.0669 43.0525C39.0646 45.4446 40.9858 47.3784 43.3714 47.3854C45.7697 47.3924 47.7073 45.4808 47.7201 43.0956C47.7341 40.6697 45.8059 38.7289 43.383 38.7324C40.9928 38.7359 39.0692 40.6615 39.0669 43.0525Z" fill="white"/>
</svg>
