<svg width="114" height="29" viewBox="0 0 114 29" fill="none" xmlns="http://www.w3.org/2000/svg">
<path fill-rule="evenodd" clip-rule="evenodd" d="M30.019 10.6062H41.5443V12.745H37.0063V24.8018H34.519V12.745H30L30.019 10.6062ZM41.0506 14.5242H43.1772V16.5116H43.2152C43.2911 16.2277 43.4241 15.9627 43.6139 15.6977C43.8038 15.4327 44.0316 15.1866 44.3165 14.9784C44.5823 14.7513 44.8861 14.581 45.2278 14.4485C45.5506 14.316 45.8924 14.2403 46.2342 14.2403C46.4006 14.2403 46.5372 14.2477 46.6394 14.2532C46.7005 14.2565 46.7493 14.2592 46.7848 14.2592C46.8797 14.2781 46.9937 14.2971 47.0886 14.2971V16.4737C46.9367 16.4359 46.7658 16.4169 46.5949 16.398L46.5484 16.3928C46.396 16.3758 46.2565 16.3601 46.1013 16.3601C45.7215 16.3601 45.3608 16.4359 45.019 16.5873C44.6772 16.7387 44.3924 16.9658 44.1266 17.2497C43.8797 17.5526 43.6709 17.9122 43.519 18.3475C43.3671 18.7829 43.2911 19.2939 43.2911 19.8617V24.745H41.0127L41.0506 14.5242ZM55.2911 24.8018H57.5316H57.5506V14.5242H55.2722V20.4863C55.2722 20.8838 55.2342 21.2624 55.1392 21.603C55.0443 21.9437 54.9114 22.2466 54.7025 22.4926C54.5127 22.7387 54.2468 22.928 53.924 23.0794C53.6013 23.2308 53.2025 23.3065 52.7278 23.3065C52.1013 23.3065 51.6076 23.1172 51.2658 22.7387C50.9051 22.3791 50.7342 21.7355 50.7342 20.827V14.5242H48.4557V21.0542C48.4557 22.398 48.7595 23.4201 49.3671 24.0825C49.9747 24.7639 50.962 25.0857 52.3101 25.0857C52.8797 25.0857 53.4494 24.9343 54 24.6125C54.5506 24.2907 54.9684 23.8933 55.2532 23.3633H55.2911V24.8018ZM61.4051 21.5084C61.481 22.1709 61.7278 22.6251 62.1646 22.909C62.6013 23.174 63.1329 23.3065 63.7405 23.3065C63.9494 23.3065 64.1962 23.2876 64.462 23.2497C64.7278 23.2119 64.9937 23.1551 65.2215 23.0605C65.4684 22.9658 65.6582 22.8333 65.8101 22.6441C65.962 22.4548 66.038 22.2277 66.019 21.9437C66 21.6598 65.9051 21.4138 65.6962 21.2245C65.4873 21.0352 65.2405 20.9027 64.9367 20.7702C64.6329 20.6567 64.2722 20.562 63.8734 20.4863C63.549 20.4247 63.2247 20.3506 62.8901 20.2742L62.6582 20.2213C62.2405 20.1267 61.8228 20.0131 61.4241 19.8806C61.0253 19.7482 60.6835 19.5778 60.3608 19.3318C60.057 19.1046 59.7911 18.8207 59.6203 18.4611C59.4304 18.1015 59.3354 17.6851 59.3354 17.1551C59.3354 16.5873 59.4684 16.133 59.7532 15.7545C60.019 15.3759 60.3797 15.0731 60.7975 14.8459C61.2152 14.6188 61.6899 14.4485 62.2025 14.3538C62.7152 14.2592 63.2089 14.2213 63.6646 14.2213C64.1962 14.2213 64.7089 14.2781 65.1835 14.3917C65.6582 14.5053 66.1139 14.6756 66.4937 14.9406C66.8924 15.1866 67.2152 15.5273 67.462 15.9248C67.7278 16.3223 67.8797 16.8144 67.9557 17.3822H65.5823C65.4684 16.8333 65.2215 16.4737 64.8418 16.2844C64.443 16.0952 64.0063 16.0005 63.4937 16.0005C63.3418 16.0005 63.1329 16.0195 62.924 16.0384C62.6962 16.0762 62.5063 16.1141 62.2975 16.1898C62.1076 16.2655 61.9367 16.3791 61.8038 16.5116C61.6709 16.6441 61.5949 16.8333 61.5949 17.0605C61.5949 17.3444 61.6899 17.5526 61.8797 17.7229C62.0696 17.8933 62.3165 18.0258 62.6392 18.1583C62.943 18.2718 63.3038 18.3665 63.7025 18.4422C64.1012 18.5179 64.5189 18.6125 64.9366 18.7071L64.9367 18.7071C65.3544 18.8018 65.7532 18.9153 66.1519 19.0478C66.5506 19.1803 66.9114 19.3507 67.2152 19.5967C67.519 19.8239 67.7848 20.1078 67.9747 20.4485C68.1646 20.7892 68.2595 21.2245 68.2595 21.7166C68.2595 22.3223 68.1266 22.8333 67.8418 23.2687C67.557 23.6851 67.1962 24.0447 66.7595 24.3097C66.3228 24.5747 65.8101 24.7639 65.2785 24.8964C64.7278 25.01 64.1962 25.0857 63.6646 25.0857C63.019 25.0857 62.4114 25.01 61.8608 24.8586C61.3101 24.7071 60.8165 24.48 60.4177 24.1961C60.019 23.8933 59.6962 23.5336 59.4684 23.0794C59.2405 22.6441 59.1076 22.1141 59.0886 21.4895H61.3861V21.5084H61.4051ZM70.6329 14.5242H68.9051V16.2087H70.6329V22.2655C70.6519 22.6819 70.6899 23.0794 70.7658 23.4012C70.8418 23.7229 70.9747 23.9879 71.1835 24.215C71.3924 24.4232 71.6772 24.5936 72.038 24.7071C72.3987 24.8207 72.8734 24.8775 73.481 24.8775C73.7468 24.8775 73.9747 24.8775 74.2215 24.8396C74.4684 24.8207 74.7152 24.8018 74.962 24.7639V23.0037C74.8252 23.0378 74.6729 23.0565 74.533 23.0737L74.4873 23.0794C74.3354 23.0983 74.1646 23.0983 74.0127 23.0983C73.7468 23.0983 73.557 23.0605 73.4051 23.0037C73.2722 22.9469 73.1582 22.8523 73.0823 22.7387C73.0253 22.6251 72.9684 22.4737 72.9494 22.3034L72.9494 22.3033C72.9304 22.114 72.9114 21.9248 72.9114 21.6788V16.1898H74.962V14.5053H72.9114V11.4201H70.6329V14.5242ZM76.5759 14.5242H78.7025V15.9248H78.7405C79.0633 15.3191 79.5 14.9027 80.0696 14.6377C80.6392 14.3728 81.2468 14.2403 81.9304 14.2403C82.7468 14.2403 83.4494 14.3728 84.057 14.6756C84.6646 14.9595 85.1582 15.3381 85.557 15.8491C85.9557 16.3412 86.2595 16.928 86.4494 17.5904C86.6392 18.2529 86.7532 18.9721 86.7532 19.7103C86.7532 20.4106 86.6582 21.0731 86.4873 21.7166C86.2975 22.3601 86.0316 22.9469 85.6709 23.439C85.3101 23.9311 84.8544 24.3286 84.2848 24.6314C83.7152 24.9343 83.0696 25.0857 82.3101 25.0857C81.9873 25.0857 81.6456 25.0478 81.3228 24.9911C81 24.9343 80.6772 24.8396 80.3734 24.7071C80.0696 24.5747 79.7848 24.4043 79.538 24.1961C79.2722 23.9879 79.0633 23.7418 78.8924 23.4769H78.8544V28.6062H76.5759V14.5242ZM84.3228 18.3286C84.4557 18.7639 84.5127 19.2182 84.5127 19.6724C84.5127 20.1267 84.4557 20.562 84.3608 21.0163C84.2658 21.4516 84.0949 21.8302 83.8671 22.1709C83.6203 22.4926 83.3354 22.7765 82.9747 22.9848C82.6139 23.193 82.1962 23.3065 81.6646 23.3065C81.1899 23.3065 80.7911 23.2119 80.4304 23.0226C80.0696 22.8333 79.7658 22.5873 79.519 22.2655C79.2532 21.9437 79.0823 21.5652 78.9494 21.1299C78.8165 20.6945 78.7595 20.2213 78.7595 19.6914C78.7595 18.5936 79.0063 17.704 79.481 17.0415C79.9747 16.3791 80.6962 16.0573 81.6456 16.0573C82.1013 16.0573 82.519 16.1519 82.8797 16.3601C83.2215 16.5683 83.5253 16.8333 83.7722 17.174C84.019 17.5147 84.2089 17.8933 84.3228 18.3286ZM88.519 10.6062H90.7975V12.745H88.519V10.6062ZM90.7975 14.5242H88.519V24.8018H90.7975V14.5242ZM92.8291 10.6062H95.1076V24.8018H92.8291V10.6062ZM99.8544 24.6693C100.5 24.9532 101.241 25.0857 102.057 25.0857C102.892 25.0857 103.614 24.9343 104.259 24.6693C104.905 24.4043 105.456 24.0258 105.892 23.5526C106.329 23.0605 106.652 22.4926 106.899 21.8302C107.146 21.1677 107.259 20.4485 107.259 19.6535C107.259 18.8775 107.127 18.1583 106.899 17.4958C106.671 16.8333 106.329 16.2466 105.892 15.7734C105.437 15.3002 104.905 14.9217 104.259 14.6567C103.614 14.3728 102.873 14.2403 102.057 14.2403C101.241 14.2403 100.5 14.3917 99.8544 14.6567C99.2089 14.9217 98.6582 15.3002 98.2215 15.7734C97.7848 16.2655 97.443 16.8333 97.2152 17.4958C96.9684 18.1583 96.8544 18.8775 96.8544 19.6535C96.8544 20.4295 96.9873 21.1677 97.2152 21.8302C97.443 22.4926 97.7848 23.0794 98.2215 23.5526C98.6772 24.0258 99.2089 24.3854 99.8544 24.6693ZM102.057 23.2876C102.551 23.2876 103.006 23.174 103.367 22.9658C103.747 22.7576 104.032 22.4737 104.278 22.133C104.525 21.7923 104.696 21.3948 104.81 20.9784C104.924 20.5431 104.981 20.1078 104.981 19.6535C104.981 19.2182 104.924 18.7829 104.81 18.3475C104.696 17.9122 104.525 17.5336 104.278 17.193C104.032 16.8523 103.728 16.5873 103.367 16.3791C102.987 16.1709 102.551 16.0573 102.057 16.0573C101.563 16.0573 101.108 16.1709 100.747 16.3791C100.367 16.5873 100.082 16.8712 99.8354 17.193C99.5886 17.5336 99.4177 17.9122 99.3038 18.3475C99.1899 18.7829 99.1329 19.2182 99.1329 19.6535C99.1329 20.1078 99.1899 20.5431 99.3038 20.9784C99.4177 21.4138 99.5886 21.7923 99.8354 22.133C100.082 22.4737 100.386 22.7576 100.747 22.9658C101.127 23.193 101.563 23.2876 102.057 23.2876ZM109.671 14.5242H107.943V16.2087H109.671V22.2655C109.69 22.6819 109.728 23.0794 109.804 23.4012C109.88 23.7229 110.013 23.9879 110.222 24.215C110.43 24.4232 110.715 24.5936 111.076 24.7071C111.437 24.8207 111.911 24.8775 112.519 24.8775C112.785 24.8775 113.013 24.8775 113.259 24.8396C113.506 24.8207 113.753 24.8018 114 24.7639V23.0037C113.863 23.0378 113.711 23.0565 113.571 23.0737C113.556 23.0756 113.54 23.0775 113.525 23.0794C113.373 23.0983 113.203 23.0983 113.051 23.0983C112.785 23.0983 112.595 23.0605 112.443 23.0037C112.31 22.9469 112.196 22.8523 112.12 22.7387C112.063 22.6251 112.006 22.4737 111.987 22.3034C111.968 22.1141 111.949 21.9248 111.949 21.6788V16.1898H114V14.5053H111.949V11.4201H109.671V14.5242Z" fill="white"/>
<path d="M27 10.5418H16.6848L13.5094 0.606201L10.3152 10.5418L0 10.5227L8.34238 16.6706L5.14823 26.6062L13.4906 20.4583L21.833 26.6062L18.6576 16.6706L27 10.5418Z" fill="#00B67A"/>
<path d="M20 19.9781L19.2692 17.6062L14 21.6062L20 19.9781Z" fill="#005128"/>
</svg>
