<svg width="122" height="32" viewBox="0 0 122 32" fill="none" xmlns="http://www.w3.org/2000/svg">
<path fill-rule="evenodd" clip-rule="evenodd" d="M32.0203 11.9999H44.3689V14.2576H39.5068V26.9842H36.8418V14.2576H32L32.0203 11.9999ZM43.84 16.1356H46.1184V18.2334H46.1591C46.2405 17.9337 46.3829 17.654 46.5863 17.3743C46.7898 17.0946 47.0339 16.8348 47.3391 16.6151C47.6239 16.3753 47.9494 16.1955 48.3156 16.0557C48.6614 15.9158 49.0276 15.8359 49.3938 15.8359C49.572 15.8359 49.7184 15.8437 49.8279 15.8496C49.8934 15.8531 49.9457 15.8559 49.9837 15.8559C50.0854 15.8759 50.2075 15.8958 50.3092 15.8958V18.1934C50.1465 18.1535 49.9634 18.1335 49.7803 18.1135L49.7304 18.108C49.5672 18.09 49.4177 18.0735 49.2514 18.0735C48.8445 18.0735 48.458 18.1535 48.0918 18.3133C47.7256 18.4731 47.4204 18.7129 47.1356 19.0126C46.8712 19.3322 46.6474 19.7118 46.4846 20.1713C46.3219 20.6309 46.2405 21.1703 46.2405 21.7697V26.9242H43.7993L43.84 16.1356ZM59.0976 26.9842H61.4982H61.5185V16.1356H59.0773V22.429C59.0773 22.8485 59.0366 23.2481 58.9349 23.6077C58.8332 23.9673 58.6908 24.287 58.467 24.5467C58.2636 24.8065 57.9788 25.0062 57.6329 25.1661C57.2871 25.3259 56.8599 25.4058 56.3513 25.4058C55.6799 25.4058 55.151 25.206 54.7848 24.8065C54.3983 24.4269 54.2152 23.7476 54.2152 22.7886V16.1356H51.774V23.0283C51.774 24.4468 52.0995 25.5257 52.7505 26.225C53.4014 26.9442 54.4593 27.2839 55.9037 27.2839C56.514 27.2839 57.1243 27.124 57.7143 26.7844C58.3042 26.4447 58.7518 26.0252 59.057 25.4658H59.0976V26.9842ZM65.6483 23.5078C65.7297 24.2071 65.9941 24.6866 66.462 24.9863C66.9299 25.266 67.4995 25.4058 68.1505 25.4058C68.3743 25.4058 68.6388 25.3858 68.9236 25.3459C69.2084 25.3059 69.4932 25.246 69.7373 25.1461C70.0018 25.0462 70.2052 24.9064 70.368 24.7066C70.5307 24.5068 70.6121 24.267 70.5918 23.9673C70.5714 23.6677 70.4697 23.4079 70.2459 23.2081C70.0222 23.0084 69.7577 22.8685 69.4322 22.7286C69.1067 22.6088 68.7202 22.5089 68.2929 22.429C67.9454 22.3639 67.5978 22.2857 67.2393 22.205L67.2393 22.205L67.2392 22.205L67.2392 22.205L67.2391 22.205C67.157 22.1865 67.0743 22.1679 66.991 22.1493C66.5434 22.0494 66.0958 21.9295 65.6686 21.7896C65.2414 21.6498 64.8752 21.47 64.5294 21.2102C64.2039 20.9705 63.9191 20.6708 63.736 20.2912C63.5325 19.9116 63.4308 19.4721 63.4308 18.9127C63.4308 18.3133 63.5732 17.8338 63.8784 17.4342C64.1632 17.0346 64.5497 16.715 64.9973 16.4752C65.4448 16.2355 65.9534 16.0557 66.5027 15.9558C67.052 15.8559 67.5809 15.8159 68.0692 15.8159C68.6388 15.8159 69.1881 15.8759 69.6967 15.9957C70.2052 16.1156 70.6935 16.2954 71.1004 16.5751C71.5276 16.8348 71.8734 17.1945 72.1379 17.614C72.4227 18.0336 72.5854 18.553 72.6668 19.1524H70.1239C70.0018 18.573 69.7373 18.1934 69.3305 17.9936C68.9033 17.7938 68.4354 17.6939 67.8861 17.6939C67.7233 17.6939 67.4995 17.7139 67.2758 17.7339C67.0316 17.7739 66.8282 17.8138 66.6044 17.8937C66.401 17.9737 66.2179 18.0935 66.0755 18.2334C65.9331 18.3732 65.8517 18.573 65.8517 18.8128C65.8517 19.1125 65.9534 19.3322 66.1569 19.512C66.3603 19.6918 66.6248 19.8317 66.9706 19.9715C67.2961 20.0914 67.6826 20.1913 68.1099 20.2712C68.5371 20.3511 68.9846 20.451 69.4322 20.5509C69.8797 20.6508 70.307 20.7707 70.7342 20.9106C71.1614 21.0504 71.5479 21.2302 71.8734 21.4899C72.1989 21.7297 72.4837 22.0294 72.6872 22.389C72.8906 22.7486 72.9923 23.2081 72.9923 23.7276C72.9923 24.3669 72.8499 24.9064 72.5448 25.3659C72.2396 25.8054 71.8531 26.185 71.3852 26.4647C70.9173 26.7444 70.368 26.9442 69.7984 27.0841C69.2084 27.2039 68.6388 27.2839 68.0692 27.2839C67.3775 27.2839 66.7265 27.2039 66.1365 27.0441C65.5466 26.8843 65.0176 26.6445 64.5904 26.3448C64.1632 26.0252 63.8174 25.6456 63.5732 25.1661C63.3291 24.7066 63.1867 24.1472 63.1664 23.4878H65.6279V23.5078H65.6483ZM75.5353 16.1356H73.684V17.9137H75.5353V24.307C75.5556 24.7465 75.5963 25.1661 75.6777 25.5057C75.759 25.8454 75.9014 26.1251 76.1252 26.3648C76.349 26.5846 76.6542 26.7644 77.0407 26.8843C77.4272 27.0041 77.9358 27.0641 78.5868 27.0641C78.8716 27.0641 79.1157 27.0641 79.3802 27.0241C79.6447 27.0041 79.9091 26.9842 80.1736 26.9442V25.0862C80.027 25.1222 79.8638 25.1419 79.7139 25.1601L79.665 25.1661C79.5023 25.1861 79.3192 25.1861 79.1564 25.1861C78.8716 25.1861 78.6682 25.1461 78.5054 25.0862C78.363 25.0262 78.241 24.9263 78.1596 24.8065C78.0986 24.6866 78.0375 24.5268 78.0172 24.3469C77.9968 24.1472 77.9765 23.9474 77.9765 23.6876V17.8937H80.1736V16.1156H77.9765V12.859H75.5353V16.1356ZM81.9028 16.1356H84.1813V17.614H84.222C84.5678 16.9747 85.0357 16.5352 85.646 16.2555C86.2563 15.9758 86.9073 15.8359 87.6397 15.8359C88.5145 15.8359 89.2672 15.9758 89.9182 16.2954C90.5692 16.5951 91.0981 16.9947 91.5253 17.5341C91.9525 18.0536 92.278 18.6729 92.4815 19.3722C92.6849 20.0714 92.807 20.8306 92.807 21.6098C92.807 22.349 92.7052 23.0483 92.5221 23.7276C92.3187 24.4069 92.0339 25.0262 91.6474 25.5457C91.2608 26.0651 90.7726 26.4847 90.1623 26.8044C89.552 27.124 88.8603 27.2839 88.0466 27.2839C87.7007 27.2839 87.3345 27.2439 86.9887 27.184C86.6429 27.124 86.297 27.0241 85.9715 26.8843C85.646 26.7444 85.3409 26.5646 85.0764 26.3448C84.7916 26.1251 84.5678 25.8653 84.3847 25.5856H84.344V30.9999H81.9028V16.1356ZM90.203 20.1514C90.3454 20.6109 90.4064 21.0904 90.4064 21.5699C90.4064 22.0494 90.3454 22.5089 90.2437 22.9884C90.142 23.4479 89.9589 23.8475 89.7147 24.2071C89.4503 24.5467 89.1451 24.8464 88.7586 25.0662C88.3721 25.286 87.9245 25.4058 87.3549 25.4058C86.8463 25.4058 86.4191 25.3059 86.0325 25.1061C85.646 24.9064 85.3205 24.6466 85.0561 24.307C84.7712 23.9673 84.5882 23.5678 84.4457 23.1082C84.3033 22.6487 84.2423 22.1493 84.2423 21.5898C84.2423 20.4311 84.5068 19.4921 85.0154 18.7928C85.5443 18.0935 86.3174 17.7539 87.3345 17.7539C87.8228 17.7539 88.2703 17.8538 88.6569 18.0735C89.0231 18.2933 89.3486 18.573 89.613 18.9326C89.8775 19.2923 90.0809 19.6918 90.203 20.1514ZM94.6989 11.9999H97.1401V14.2576H94.6989V11.9999ZM97.1401 16.1356H94.6989V26.9842H97.1401V16.1356ZM99.3169 11.9999H101.758V26.9842H99.3169V11.9999ZM106.844 26.8443C107.536 27.144 108.329 27.2839 109.204 27.2839C110.099 27.2839 110.872 27.124 111.564 26.8443C112.255 26.5646 112.845 26.165 113.313 25.6656C113.781 25.1461 114.127 24.5467 114.392 23.8475C114.656 23.1482 114.778 22.389 114.778 21.5499C114.778 20.7307 114.636 19.9715 114.392 19.2723C114.147 18.573 113.781 17.9537 113.313 17.4542C112.825 16.9547 112.255 16.5551 111.564 16.2754C110.872 15.9758 110.079 15.8359 109.204 15.8359C108.329 15.8359 107.536 15.9957 106.844 16.2754C106.152 16.5551 105.562 16.9547 105.094 17.4542C104.627 17.9737 104.26 18.573 104.016 19.2723C103.752 19.9715 103.63 20.7307 103.63 21.5499C103.63 22.369 103.772 23.1482 104.016 23.8475C104.26 24.5467 104.627 25.1661 105.094 25.6656C105.583 26.165 106.152 26.5446 106.844 26.8443ZM109.204 25.3858C109.733 25.3858 110.221 25.266 110.608 25.0462C111.014 24.8264 111.32 24.5268 111.584 24.1671C111.849 23.8075 112.032 23.388 112.154 22.9484C112.276 22.4889 112.337 22.0294 112.337 21.5499C112.337 21.0904 112.276 20.6309 112.154 20.1713C112.032 19.7118 111.849 19.3122 111.584 18.9526C111.32 18.593 110.994 18.3133 110.608 18.0935C110.201 17.8738 109.733 17.7539 109.204 17.7539C108.675 17.7539 108.187 17.8738 107.8 18.0935C107.393 18.3133 107.088 18.613 106.824 18.9526C106.559 19.3122 106.376 19.7118 106.254 20.1713C106.132 20.6309 106.071 21.0904 106.071 21.5499C106.071 22.0294 106.132 22.4889 106.254 22.9484C106.376 23.4079 106.559 23.8075 106.824 24.1671C107.088 24.5268 107.414 24.8264 107.8 25.0462C108.207 25.286 108.675 25.3858 109.204 25.3858ZM117.362 16.1356H115.51V17.9137H117.362V24.307C117.382 24.7465 117.423 25.1661 117.504 25.5057C117.585 25.8454 117.728 26.1251 117.952 26.3648C118.175 26.5846 118.481 26.7644 118.867 26.8843C119.254 27.0041 119.762 27.0641 120.413 27.0641C120.698 27.0641 120.942 27.0641 121.207 27.0241C121.471 27.0041 121.736 26.9842 122 26.9442V25.0862C121.853 25.1222 121.69 25.142 121.54 25.1601C121.524 25.1621 121.508 25.1641 121.491 25.1661C121.329 25.1861 121.146 25.1861 120.983 25.1861C120.698 25.1861 120.495 25.1461 120.332 25.0862C120.189 25.0262 120.067 24.9263 119.986 24.8065C119.925 24.6866 119.864 24.5268 119.844 24.3469C119.823 24.1472 119.803 23.9474 119.803 23.6876V17.8937H122V16.1156H119.803V12.859H117.362V16.1356Z" fill="black"/>
<path d="M29 11.6998H17.9207L14.5101 0.999939L11.0793 11.6998L0 11.6793L8.96033 18.3001L5.52958 28.9999L14.4899 22.3791L23.4502 28.9999L20.0397 18.3001L29 11.6998Z" fill="#00B67A"/>
<path d="M21 21.3718L20.2692 18.9999L15 22.9999L21 21.3718Z" fill="#005128"/>
</svg>
