<svg width="225" height="30" viewBox="0 0 225 30" fill="none" xmlns="http://www.w3.org/2000/svg">
<path fill-rule="evenodd" clip-rule="evenodd" d="M93.1465 10.8199H95.5477V13.0406H93.1465V10.8199ZM31.4956 10.82H43.6417V13.0406H38.8593V25.5586H36.238V13.0406H31.4756L31.4956 10.82ZM43.1215 14.8879H45.3626V16.9513H45.4026C45.4827 16.6566 45.6228 16.3815 45.8229 16.1063C46.023 15.8312 46.2631 15.5757 46.5632 15.3596C46.8434 15.1238 47.1635 14.9469 47.5237 14.8093C47.8639 14.6718 48.2241 14.5932 48.5842 14.5932C48.7596 14.5932 48.9036 14.6009 49.0113 14.6066C49.0757 14.6101 49.1271 14.6128 49.1645 14.6128C49.2646 14.6325 49.3846 14.6521 49.4847 14.6521V16.912C49.3246 16.8727 49.1445 16.8531 48.9644 16.8334L48.9154 16.8281C48.7548 16.8104 48.6077 16.7941 48.4442 16.7941C48.044 16.7941 47.6638 16.8727 47.3036 17.03C46.9434 17.1872 46.6433 17.423 46.3631 17.7178C46.103 18.0322 45.8829 18.4056 45.7228 18.8575C45.5627 19.3095 45.4827 19.8401 45.4827 20.4296V25.4997H43.0815L43.1215 14.8879ZM58.129 25.5585H60.4902H60.5102V14.8878H58.109V21.078C58.109 21.4907 58.0689 21.8837 57.9689 22.2374C57.8688 22.5912 57.7288 22.9056 57.5087 23.161C57.3086 23.4165 57.0284 23.613 56.6882 23.7702C56.3481 23.9275 55.9279 24.0061 55.4276 24.0061C54.7673 24.0061 54.247 23.8095 53.8868 23.4165C53.5066 23.0431 53.3266 22.375 53.3266 21.4317V14.8878H50.9253V21.6675C50.9253 23.0628 51.2455 24.124 51.8858 24.8118C52.5261 25.5192 53.5667 25.8533 54.9874 25.8533C55.5877 25.8533 56.188 25.6961 56.7683 25.362C57.3486 25.0279 57.7888 24.6153 58.0889 24.065H58.129V25.5585ZM64.5722 22.1392C64.6522 22.827 64.9123 23.2986 65.3726 23.5934C65.8328 23.8685 66.3931 24.0061 67.0334 24.0061C67.2535 24.0061 67.5136 23.9864 67.7938 23.9471C68.0739 23.9078 68.3541 23.8489 68.5942 23.7506C68.8543 23.6524 69.0544 23.5148 69.2145 23.3183C69.3746 23.1218 69.4546 22.886 69.4346 22.5912C69.4146 22.2964 69.3145 22.0409 69.0944 21.8444C68.8743 21.6479 68.6142 21.5104 68.294 21.3728C67.9739 21.2549 67.5937 21.1566 67.1735 21.078C66.8316 21.0141 66.4898 20.9371 66.1372 20.8578L66.1372 20.8578C66.0563 20.8396 65.9749 20.8212 65.8928 20.8029C65.4526 20.7046 65.0124 20.5867 64.5922 20.4492C64.172 20.3116 63.8118 20.1348 63.4716 19.8793C63.1514 19.6435 62.8713 19.3487 62.6912 18.9753C62.4911 18.6019 62.3911 18.1696 62.3911 17.6194C62.3911 17.0298 62.5311 16.5582 62.8313 16.1652C63.1114 15.7721 63.4916 15.4577 63.9318 15.2219C64.3721 14.9861 64.8723 14.8092 65.4126 14.711C65.9528 14.6127 66.4731 14.5734 66.9534 14.5734C67.5136 14.5734 68.0539 14.6324 68.5542 14.7503C69.0544 14.8682 69.5346 15.045 69.9348 15.3202C70.3551 15.5756 70.6952 15.9294 70.9554 16.342C71.2355 16.7547 71.3956 17.2656 71.4756 17.8552H68.9744C68.8543 17.2853 68.5942 16.9119 68.194 16.7154C67.7738 16.5189 67.3135 16.4206 66.7733 16.4206C66.6132 16.4206 66.3931 16.4403 66.173 16.4599C65.9328 16.4992 65.7327 16.5385 65.5126 16.6172C65.3125 16.6958 65.1324 16.8137 64.9924 16.9512C64.8523 17.0888 64.7723 17.2853 64.7723 17.5211C64.7723 17.8159 64.8723 18.0321 65.0724 18.2089C65.2725 18.3858 65.5326 18.5233 65.8728 18.6609C66.193 18.7788 66.5732 18.8771 66.9934 18.9557C67.4136 19.0343 67.8538 19.1325 68.294 19.2308C68.7342 19.329 69.1545 19.447 69.5747 19.5845C69.9949 19.7221 70.3751 19.8989 70.6952 20.1544C71.0154 20.3902 71.2955 20.685 71.4956 21.0387C71.6957 21.3924 71.7958 21.8444 71.7958 22.3554C71.7958 22.9842 71.6557 23.5148 71.3556 23.9668C71.0554 24.3991 70.6752 24.7725 70.215 25.0476C69.7548 25.3227 69.2145 25.5192 68.6542 25.6568C68.0739 25.7747 67.5136 25.8533 66.9534 25.8533C66.273 25.8533 65.6327 25.7747 65.0524 25.6175C64.4721 25.4603 63.9518 25.2245 63.5316 24.9297C63.1114 24.6153 62.7712 24.2419 62.5311 23.7703C62.291 23.3183 62.1509 22.768 62.1309 22.1195H64.5521V22.1392H64.5722ZM74.2972 14.8877H72.4763V16.6367H74.2972V22.9251C74.3172 23.3575 74.3572 23.7701 74.4373 24.1042C74.5173 24.4383 74.6574 24.7134 74.8775 24.9492C75.0976 25.1654 75.3978 25.3423 75.778 25.4602C76.1582 25.5781 76.6584 25.637 77.2987 25.637C77.5789 25.637 77.819 25.637 78.0791 25.5977C78.3392 25.5781 78.5994 25.5584 78.8595 25.5191V23.6915C78.7153 23.7269 78.5548 23.7464 78.4074 23.7643L78.3593 23.7701C78.1992 23.7898 78.0191 23.7898 77.859 23.7898C77.5789 23.7898 77.3788 23.7505 77.2187 23.6915C77.0786 23.6326 76.9586 23.5343 76.8785 23.4164C76.8185 23.2985 76.7585 23.1413 76.7384 22.9644C76.7184 22.7679 76.6984 22.5714 76.6984 22.3159V16.617H78.8595V14.868H76.6984V11.6649H74.2972V14.8877ZM80.5604 14.8879H82.8015V16.3422H82.8415C83.1817 15.7133 83.6419 15.281 84.2422 15.0059C84.8425 14.7307 85.4828 14.5932 86.2032 14.5932C87.0636 14.5932 87.804 14.7307 88.4443 15.0452C89.0847 15.3399 89.6049 15.733 90.0251 16.2635C90.4453 16.7745 90.7655 17.3837 90.9656 18.0715C91.1657 18.7593 91.2858 19.506 91.2858 20.2724C91.2858 20.9995 91.1857 21.6873 91.0056 22.3555C90.8055 23.0236 90.5254 23.6328 90.1452 24.1438C89.765 24.6547 89.2848 25.0674 88.6845 25.3818C88.0842 25.6962 87.4038 25.8534 86.6034 25.8534C86.2632 25.8534 85.9031 25.8141 85.5629 25.7552C85.2227 25.6962 84.8825 25.598 84.5624 25.4604C84.2422 25.3229 83.9421 25.146 83.6819 24.9298C83.4018 24.7137 83.1817 24.4582 83.0016 24.1831H82.9616V29.5086H80.5604V14.8879ZM88.7243 18.8376C88.8644 19.2896 88.9244 19.7612 88.9244 20.2329C88.9244 20.7045 88.8644 21.1565 88.7644 21.6281C88.6643 22.0801 88.4842 22.4731 88.2441 22.8269C87.984 23.1609 87.6838 23.4557 87.3036 23.6719C86.9234 23.888 86.4832 24.0059 85.9229 24.0059C85.4227 24.0059 85.0025 23.9077 84.6223 23.7112C84.2421 23.5147 83.9219 23.2592 83.6618 22.9251C83.3817 22.591 83.2016 22.198 83.0615 21.746C82.9214 21.294 82.8614 20.8028 82.8614 20.2525C82.8614 19.1127 83.1215 18.1891 83.6218 17.5013C84.142 16.8135 84.9024 16.4795 85.9029 16.4795C86.3832 16.4795 86.8234 16.5777 87.2036 16.7939C87.5638 17.01 87.8839 17.2852 88.1441 17.6389C88.4042 17.9926 88.6043 18.3856 88.7243 18.8376ZM95.5477 14.8878H93.1465V25.5585H95.5477V14.8878ZM97.6889 10.8199H100.09V25.5585H97.6889V10.8199ZM105.093 25.4211C105.773 25.7159 106.553 25.8534 107.414 25.8534C108.294 25.8534 109.055 25.6962 109.735 25.4211C110.415 25.146 110.996 24.753 111.456 24.2617C111.916 23.7507 112.256 23.1612 112.516 22.4734C112.776 21.7856 112.897 21.0388 112.897 20.2135C112.897 19.4078 112.756 18.661 112.516 17.9732C112.276 17.2854 111.916 16.6762 111.456 16.1849C110.976 15.6937 110.415 15.3006 109.735 15.0255C109.055 14.7307 108.274 14.5932 107.414 14.5932C106.553 14.5932 105.773 14.7504 105.093 15.0255C104.412 15.3006 103.832 15.6937 103.372 16.1849C102.912 16.6959 102.551 17.2854 102.311 17.9732C102.051 18.661 101.931 19.4078 101.931 20.2135C101.931 21.0192 102.071 21.7856 102.311 22.4734C102.551 23.1612 102.912 23.7704 103.372 24.2617C103.852 24.753 104.412 25.1263 105.093 25.4211ZM107.414 23.9863C107.934 23.9863 108.414 23.8684 108.794 23.6522C109.195 23.4361 109.495 23.1413 109.755 22.7876C110.015 22.4338 110.195 22.0212 110.315 21.5888C110.435 21.1368 110.495 20.6849 110.495 20.2132C110.495 19.7612 110.435 19.3093 110.315 18.8573C110.195 18.4053 110.015 18.0123 109.755 17.6585C109.495 17.3048 109.175 17.0297 108.794 16.8135C108.394 16.5974 107.934 16.4795 107.414 16.4795C106.894 16.4795 106.413 16.5974 106.033 16.8135C105.633 17.0297 105.333 17.3245 105.073 17.6585C104.812 18.0123 104.632 18.4053 104.512 18.8573C104.392 19.3093 104.332 19.7612 104.332 20.2132C104.332 20.6849 104.392 21.1368 104.512 21.5888C104.632 22.0408 104.812 22.4338 105.073 22.7876C105.333 23.1413 105.653 23.4361 106.033 23.6522C106.433 23.888 106.894 23.9863 107.414 23.9863ZM115.438 14.8877H113.617V16.6367H115.438V22.9251C115.458 23.3575 115.498 23.7701 115.578 24.1042C115.658 24.4383 115.798 24.7134 116.018 24.9492C116.238 25.1654 116.538 25.3423 116.918 25.4602C117.299 25.5781 117.799 25.637 118.439 25.637C118.719 25.637 118.959 25.637 119.22 25.5977C119.48 25.5781 119.74 25.5584 120 25.5191V23.6915C119.856 23.7269 119.695 23.7464 119.548 23.7643C119.532 23.7662 119.516 23.7682 119.5 23.7701C119.34 23.7898 119.16 23.7898 118.999 23.7898C118.719 23.7898 118.519 23.7505 118.359 23.6915C118.219 23.6326 118.099 23.5343 118.019 23.4164C117.959 23.2985 117.899 23.1413 117.879 22.9644L117.879 22.9643C117.859 22.7678 117.839 22.5713 117.839 22.3159V16.617H120V14.868H117.839V11.6649H115.438V14.8877Z" fill="black"/>
<path d="M28.5245 10.5244H17.6269L14.2722 0L10.8977 10.5244L0 10.5043L8.81343 17.0165L5.43892 27.5409L14.2523 21.0287L23.0658 27.5409L19.7111 17.0165L28.5245 10.5244Z" fill="#00B67A"/>
<path d="M20.6555 20.0379L19.9367 17.7049L14.7539 21.6393L20.6555 20.0379Z" fill="#005128"/>
<path fill-rule="evenodd" clip-rule="evenodd" d="M153.181 11H169.964V27.7124H153.181V11ZM135 11.0001H151.783V27.7125H135V11.0001ZM188.146 11H171.363V27.7124H188.146V11ZM189.544 11H206.327V27.7124H189.544V11ZM224.508 11H207.725V27.7124H224.508V11Z" fill="#00B67A"/>
<path fill-rule="evenodd" clip-rule="evenodd" d="M163.423 18.0678H167.922L164.298 20.6196L162.057 22.1847L158.416 24.7365L159.799 20.6196L156.158 18.0678H160.657L162.04 13.9509L163.423 18.0678ZM145.216 18.0679H149.715L146.092 20.6197L143.851 22.1848L140.209 24.7366L141.592 20.6197L137.951 18.0679H142.45L143.833 13.951L145.216 18.0679ZM146.389 21.5727L143.833 22.2021L147.457 24.7709L146.389 21.5727ZM162.04 22.2021L164.595 21.5727L165.663 24.7709L162.04 22.2021ZM180.246 22.2021L182.802 21.5727L183.87 24.7709L180.246 22.2021ZM181.629 18.0678H186.128L182.504 20.6196L180.263 22.1847L176.622 24.7365L178.005 20.6196L174.364 18.0678H178.863L180.246 13.9509L181.629 18.0678ZM198.453 22.2021L201.009 21.5727L202.076 24.7709L198.453 22.2021ZM199.836 18.0678H204.335L200.711 20.6196L198.47 22.1847L194.829 24.7365L196.212 20.6196L192.571 18.0678H197.07L198.453 13.9509L199.836 18.0678ZM216.659 22.2021L219.215 21.5727L220.283 24.7709L216.659 22.2021ZM218.042 18.0678H222.541L218.917 20.6196L216.677 22.1847L213.035 24.7365L214.418 20.6196L210.777 18.0678H215.276L216.659 13.9509L218.042 18.0678Z" fill="white"/>
</svg>
