<svg width="517" height="43" viewBox="0 0 517 43" fill="none" xmlns="http://www.w3.org/2000/svg">
<path d="M342.672 30.5235V29.4975H344.319C344.619 29.4975 344.847 29.4165 345.003 29.2545C345.159 29.0865 345.237 28.8585 345.237 28.5705C345.237 28.2825 345.159 28.0605 345.003 27.9045C344.847 27.7425 344.619 27.6615 344.319 27.6615H342.672V26.8785H344.229C344.667 26.8785 345.057 26.9325 345.399 27.0405C345.747 27.1425 346.017 27.3165 346.209 27.5625C346.407 27.8085 346.506 28.1385 346.506 28.5525V28.6785C346.506 29.0685 346.419 29.4015 346.245 29.6775C346.077 29.9475 345.822 30.1575 345.48 30.3075C345.144 30.4515 344.727 30.5235 344.229 30.5235H342.672ZM341.601 30.5235V23.8635H342.852V30.5235H341.601ZM342.672 27.4545V26.6715H344.076C344.382 26.6715 344.607 26.5905 344.751 26.4285C344.895 26.2665 344.967 26.0505 344.967 25.7805C344.967 25.5105 344.895 25.2945 344.751 25.1325C344.607 24.9705 344.382 24.8895 344.076 24.8895H342.672V23.8635H343.959C344.703 23.8635 345.267 24.0195 345.651 24.3315C346.041 24.6435 346.236 25.0905 346.236 25.6725V25.7985C346.236 26.2065 346.137 26.5335 345.939 26.7795C345.747 27.0195 345.48 27.1935 345.138 27.3015C344.796 27.4035 344.403 27.4545 343.959 27.4545H342.672ZM351.028 30.4785V29.0295H350.821V27.4185C350.821 27.1365 350.752 26.9265 350.614 26.7885C350.476 26.6505 350.263 26.5815 349.975 26.5815C349.825 26.5815 349.645 26.5845 349.435 26.5905C349.225 26.5965 349.012 26.6055 348.796 26.6175C348.586 26.6235 348.397 26.6325 348.229 26.6445V25.5825C348.367 25.5705 348.523 25.5585 348.697 25.5465C348.871 25.5345 349.048 25.5285 349.228 25.5285C349.414 25.5225 349.588 25.5195 349.75 25.5195C350.254 25.5195 350.671 25.5855 351.001 25.7175C351.337 25.8495 351.589 26.0565 351.757 26.3385C351.931 26.6205 352.018 26.9895 352.018 27.4455V30.4785H351.028ZM349.453 30.6045C349.099 30.6045 348.787 30.5415 348.517 30.4155C348.253 30.2895 348.046 30.1095 347.896 29.8755C347.752 29.6415 347.68 29.3595 347.68 29.0295C347.68 28.6695 347.767 28.3755 347.941 28.1475C348.121 27.9195 348.37 27.7485 348.688 27.6345C349.012 27.5205 349.39 27.4635 349.822 27.4635H350.956V28.2105H349.804C349.516 28.2105 349.294 28.2825 349.138 28.4265C348.988 28.5645 348.913 28.7445 348.913 28.9665C348.913 29.1885 348.988 29.3685 349.138 29.5065C349.294 29.6445 349.516 29.7135 349.804 29.7135C349.978 29.7135 350.137 29.6835 350.281 29.6235C350.431 29.5575 350.554 29.4495 350.65 29.2995C350.752 29.1435 350.809 28.9335 350.821 28.6695L351.127 29.0205C351.097 29.3625 351.013 29.6505 350.875 29.8845C350.743 30.1185 350.557 30.2985 350.317 30.4245C350.083 30.5445 349.795 30.6045 349.453 30.6045ZM355.501 30.6315C354.829 30.6315 354.301 30.4905 353.917 30.2085C353.539 29.9205 353.341 29.5245 353.323 29.0205H354.448C354.466 29.1885 354.559 29.3415 354.727 29.4795C354.895 29.6175 355.159 29.6865 355.519 29.6865C355.819 29.6865 356.056 29.6325 356.23 29.5245C356.41 29.4165 356.5 29.2695 356.5 29.0835C356.5 28.9215 356.431 28.7925 356.293 28.6965C356.161 28.6005 355.933 28.5375 355.609 28.5075L355.177 28.4625C354.631 28.4025 354.211 28.2465 353.917 27.9945C353.623 27.7425 353.476 27.4065 353.476 26.9865C353.476 26.6505 353.56 26.3685 353.728 26.1405C353.896 25.9125 354.127 25.7415 354.421 25.6275C354.721 25.5075 355.063 25.4475 355.447 25.4475C356.047 25.4475 356.533 25.5795 356.905 25.8435C357.277 26.1075 357.472 26.4945 357.49 27.0045H356.365C356.353 26.8365 356.269 26.6925 356.113 26.5725C355.957 26.4525 355.732 26.3925 355.438 26.3925C355.174 26.3925 354.97 26.4435 354.826 26.5455C354.682 26.6475 354.61 26.7795 354.61 26.9415C354.61 27.0975 354.667 27.2175 354.781 27.3015C354.901 27.3855 355.093 27.4425 355.357 27.4725L355.789 27.5175C356.365 27.5775 356.815 27.7365 357.139 27.9945C357.469 28.2525 357.634 28.6005 357.634 29.0385C357.634 29.3625 357.544 29.6445 357.364 29.8845C357.19 30.1185 356.944 30.3015 356.626 30.4335C356.308 30.5655 355.933 30.6315 355.501 30.6315ZM361.224 30.6495C360.804 30.6495 360.435 30.5775 360.117 30.4335C359.805 30.2895 359.544 30.0975 359.334 29.8575C359.13 29.6115 358.974 29.3385 358.866 29.0385C358.764 28.7385 358.713 28.4325 358.713 28.1205V27.9495C358.713 27.6255 358.764 27.3135 358.866 27.0135C358.974 26.7075 359.13 26.4375 359.334 26.2035C359.544 25.9635 359.802 25.7745 360.108 25.6365C360.414 25.4925 360.768 25.4205 361.17 25.4205C361.698 25.4205 362.139 25.5375 362.493 25.7715C362.853 25.9995 363.123 26.3025 363.303 26.6805C363.483 27.0525 363.573 27.4545 363.573 27.8865V28.3365H359.244V27.5715H362.79L362.403 27.9495C362.403 27.6375 362.358 27.3705 362.268 27.1485C362.178 26.9265 362.04 26.7555 361.854 26.6355C361.674 26.5155 361.446 26.4555 361.17 26.4555C360.894 26.4555 360.66 26.5185 360.468 26.6445C360.276 26.7705 360.129 26.9535 360.027 27.1935C359.931 27.4275 359.883 27.7095 359.883 28.0395C359.883 28.3455 359.931 28.6185 360.027 28.8585C360.123 29.0925 360.27 29.2785 360.468 29.4165C360.666 29.5485 360.918 29.6145 361.224 29.6145C361.53 29.6145 361.779 29.5545 361.971 29.4345C362.163 29.3085 362.286 29.1555 362.34 28.9755H363.492C363.42 29.3115 363.282 29.6055 363.078 29.8575C362.874 30.1095 362.613 30.3045 362.295 30.4425C361.983 30.5805 361.626 30.6495 361.224 30.6495ZM367.012 30.6405C366.67 30.6405 366.355 30.5775 366.067 30.4515C365.779 30.3255 365.53 30.1485 365.32 29.9205C365.11 29.6925 364.948 29.4285 364.834 29.1285C364.72 28.8225 364.663 28.4925 364.663 28.1385V27.9495C364.663 27.6015 364.717 27.2745 364.825 26.9685C364.939 26.6625 365.095 26.3955 365.293 26.1675C365.497 25.9395 365.74 25.7625 366.022 25.6365C366.31 25.5045 366.628 25.4385 366.976 25.4385C367.36 25.4385 367.696 25.5225 367.984 25.6905C368.278 25.8525 368.512 26.0985 368.686 26.4285C368.86 26.7585 368.956 27.1725 368.974 27.6705L368.605 27.2385V23.9085H369.856V30.4785H368.866V28.3995H369.082C369.064 28.8975 368.962 29.3145 368.776 29.6505C368.59 29.9805 368.344 30.2295 368.038 30.3975C367.738 30.5595 367.396 30.6405 367.012 30.6405ZM367.291 29.5875C367.537 29.5875 367.762 29.5335 367.966 29.4255C368.17 29.3115 368.332 29.1495 368.452 28.9395C368.578 28.7235 368.641 28.4715 368.641 28.1835V27.8235C368.641 27.5355 368.578 27.2955 368.452 27.1035C368.326 26.9055 368.161 26.7555 367.957 26.6535C367.753 26.5455 367.531 26.4915 367.291 26.4915C367.021 26.4915 366.781 26.5575 366.571 26.6895C366.367 26.8155 366.205 26.9955 366.085 27.2295C365.971 27.4635 365.914 27.7365 365.914 28.0485C365.914 28.3605 365.974 28.6335 366.094 28.8675C366.214 29.0955 366.376 29.2725 366.58 29.3985C366.79 29.5245 367.027 29.5875 367.291 29.5875ZM376.31 30.6495C375.878 30.6495 375.497 30.5805 375.167 30.4425C374.837 30.3045 374.558 30.1185 374.33 29.8845C374.102 29.6445 373.928 29.3745 373.808 29.0745C373.694 28.7745 373.637 28.4625 373.637 28.1385V27.9495C373.637 27.6135 373.697 27.2955 373.817 26.9955C373.943 26.6895 374.12 26.4195 374.348 26.1855C374.582 25.9455 374.864 25.7595 375.194 25.6275C375.524 25.4895 375.896 25.4205 376.31 25.4205C376.724 25.4205 377.096 25.4895 377.426 25.6275C377.756 25.7595 378.035 25.9455 378.263 26.1855C378.497 26.4195 378.674 26.6895 378.794 26.9955C378.914 27.2955 378.974 27.6135 378.974 27.9495V28.1385C378.974 28.4625 378.914 28.7745 378.794 29.0745C378.68 29.3745 378.509 29.6445 378.281 29.8845C378.053 30.1185 377.774 30.3045 377.444 30.4425C377.114 30.5805 376.736 30.6495 376.31 30.6495ZM376.31 29.5785C376.616 29.5785 376.874 29.5125 377.084 29.3805C377.294 29.2425 377.453 29.0595 377.561 28.8315C377.669 28.5975 377.723 28.3335 377.723 28.0395C377.723 27.7395 377.666 27.4755 377.552 27.2475C377.444 27.0135 377.282 26.8305 377.066 26.6985C376.856 26.5605 376.604 26.4915 376.31 26.4915C376.016 26.4915 375.761 26.5605 375.545 26.6985C375.335 26.8305 375.173 27.0135 375.059 27.2475C374.945 27.4755 374.888 27.7395 374.888 28.0395C374.888 28.3335 374.942 28.5975 375.05 28.8315C375.164 29.0595 375.326 29.2425 375.536 29.3805C375.746 29.5125 376.004 29.5785 376.31 29.5785ZM380.439 30.4785V25.5915H381.429V27.6885H381.339C381.339 27.1905 381.405 26.7765 381.537 26.4465C381.669 26.1105 381.864 25.8585 382.122 25.6905C382.386 25.5225 382.713 25.4385 383.103 25.4385H383.157C383.739 25.4385 384.18 25.6275 384.48 26.0055C384.78 26.3775 384.93 26.9355 384.93 27.6795V30.4785H383.679V27.5715C383.679 27.2715 383.592 27.0285 383.418 26.8425C383.25 26.6565 383.016 26.5635 382.716 26.5635C382.41 26.5635 382.161 26.6595 381.969 26.8515C381.783 27.0375 381.69 27.2895 381.69 27.6075V30.4785H380.439ZM388.83 30.4785V29.2185C388.83 28.9425 388.872 28.7025 388.956 28.4985C389.046 28.2945 389.19 28.1145 389.388 27.9585C389.592 27.7965 389.859 27.6435 390.189 27.4995L391.305 27.0045C391.581 26.8785 391.791 26.7255 391.935 26.5455C392.085 26.3595 392.16 26.1225 392.16 25.8345C392.16 25.5165 392.064 25.2645 391.872 25.0785C391.686 24.8865 391.419 24.7905 391.071 24.7905C390.723 24.7905 390.453 24.8865 390.261 25.0785C390.075 25.2705 389.982 25.5375 389.982 25.8795H388.749C388.749 25.4715 388.836 25.1055 389.01 24.7815C389.184 24.4515 389.442 24.1935 389.784 24.0075C390.126 23.8155 390.555 23.7195 391.071 23.7195C391.587 23.7195 392.016 23.8125 392.358 23.9985C392.7 24.1845 392.958 24.4335 393.132 24.7455C393.306 25.0515 393.393 25.3935 393.393 25.7715V25.8885C393.393 26.3805 393.255 26.7915 392.979 27.1215C392.703 27.4455 392.298 27.7275 391.764 27.9675L390.648 28.4625C390.438 28.5525 390.291 28.6485 390.207 28.7505C390.123 28.8465 390.081 28.9785 390.081 29.1465V29.7225L389.775 29.3895H393.42V30.4785H388.83ZM397.668 30.6495C397.152 30.6495 396.714 30.5655 396.354 30.3975C395.994 30.2235 395.7 29.9895 395.472 29.6955C395.244 29.3955 395.076 29.0535 394.968 28.6695C394.866 28.2795 394.815 27.8715 394.815 27.4455V26.9415C394.815 26.3355 394.917 25.7895 395.121 25.3035C395.325 24.8175 395.637 24.4335 396.057 24.1515C396.477 23.8635 397.014 23.7195 397.668 23.7195C398.316 23.7195 398.85 23.8635 399.27 24.1515C399.69 24.4335 399.999 24.8175 400.197 25.3035C400.401 25.7895 400.503 26.3355 400.503 26.9415V27.4455C400.503 27.8715 400.449 28.2795 400.341 28.6695C400.239 29.0535 400.074 29.3955 399.846 29.6955C399.624 29.9895 399.333 30.2235 398.973 30.3975C398.613 30.5655 398.178 30.6495 397.668 30.6495ZM397.668 29.4795C398.202 29.4795 398.595 29.2965 398.847 28.9305C399.099 28.5585 399.225 27.9825 399.225 27.2025C399.225 26.3745 399.096 25.7835 398.838 25.4295C398.58 25.0695 398.19 24.8895 397.668 24.8895C397.14 24.8895 396.744 25.0695 396.48 25.4295C396.222 25.7835 396.093 26.3685 396.093 27.1845C396.093 27.9705 396.222 28.5495 396.48 28.9215C396.738 29.2935 397.134 29.4795 397.668 29.4795ZM404.84 30.6495C404.324 30.6495 403.886 30.5655 403.526 30.3975C403.166 30.2235 402.872 29.9895 402.644 29.6955C402.416 29.3955 402.248 29.0535 402.14 28.6695C402.038 28.2795 401.987 27.8715 401.987 27.4455V26.9415C401.987 26.3355 402.089 25.7895 402.293 25.3035C402.497 24.8175 402.809 24.4335 403.229 24.1515C403.649 23.8635 404.186 23.7195 404.84 23.7195C405.488 23.7195 406.022 23.8635 406.442 24.1515C406.862 24.4335 407.171 24.8175 407.369 25.3035C407.573 25.7895 407.675 26.3355 407.675 26.9415V27.4455C407.675 27.8715 407.621 28.2795 407.513 28.6695C407.411 29.0535 407.246 29.3955 407.018 29.6955C406.796 29.9895 406.505 30.2235 406.145 30.3975C405.785 30.5655 405.35 30.6495 404.84 30.6495ZM404.84 29.4795C405.374 29.4795 405.767 29.2965 406.019 28.9305C406.271 28.5585 406.397 27.9825 406.397 27.2025C406.397 26.3745 406.268 25.7835 406.01 25.4295C405.752 25.0695 405.362 24.8895 404.84 24.8895C404.312 24.8895 403.916 25.0695 403.652 25.4295C403.394 25.7835 403.265 26.3685 403.265 27.1845C403.265 27.9705 403.394 28.5495 403.652 28.9215C403.91 29.2935 404.306 29.4795 404.84 29.4795ZM410.726 29.6055V25.1595H411.824V29.6055H410.726ZM409.097 27.8865V26.8785H413.453V27.8865H409.097ZM417.337 30.4785V25.5915H418.327V27.6615H418.3C418.3 26.9595 418.45 26.4285 418.75 26.0685C419.05 25.7085 419.491 25.5285 420.073 25.5285H420.253V26.6175H419.911C419.491 26.6175 419.164 26.7315 418.93 26.9595C418.702 27.1815 418.588 27.5055 418.588 27.9315V30.4785H417.337ZM423.612 30.6495C423.192 30.6495 422.823 30.5775 422.505 30.4335C422.193 30.2895 421.932 30.0975 421.722 29.8575C421.518 29.6115 421.362 29.3385 421.254 29.0385C421.152 28.7385 421.101 28.4325 421.101 28.1205V27.9495C421.101 27.6255 421.152 27.3135 421.254 27.0135C421.362 26.7075 421.518 26.4375 421.722 26.2035C421.932 25.9635 422.19 25.7745 422.496 25.6365C422.802 25.4925 423.156 25.4205 423.558 25.4205C424.086 25.4205 424.527 25.5375 424.881 25.7715C425.241 25.9995 425.511 26.3025 425.691 26.6805C425.871 27.0525 425.961 27.4545 425.961 27.8865V28.3365H421.632V27.5715H425.178L424.791 27.9495C424.791 27.6375 424.746 27.3705 424.656 27.1485C424.566 26.9265 424.428 26.7555 424.242 26.6355C424.062 26.5155 423.834 26.4555 423.558 26.4555C423.282 26.4555 423.048 26.5185 422.856 26.6445C422.664 26.7705 422.517 26.9535 422.415 27.1935C422.319 27.4275 422.271 27.7095 422.271 28.0395C422.271 28.3455 422.319 28.6185 422.415 28.8585C422.511 29.0925 422.658 29.2785 422.856 29.4165C423.054 29.5485 423.306 29.6145 423.612 29.6145C423.918 29.6145 424.167 29.5545 424.359 29.4345C424.551 29.3085 424.674 29.1555 424.728 28.9755H425.88C425.808 29.3115 425.67 29.6055 425.466 29.8575C425.262 30.1095 425.001 30.3045 424.683 30.4425C424.371 30.5805 424.014 30.6495 423.612 30.6495ZM428.312 30.4785L426.782 25.5915H428.069L429.536 30.4785H428.312ZM428.681 30.4785V29.4525H430.004V30.4785H428.681ZM429.176 30.4785L430.436 25.5915H431.642L430.319 30.4785H429.176ZM433.19 30.4785V25.5915H434.441V30.4785H433.19ZM432.506 26.5275V25.5915H434.441V26.5275H432.506ZM433.649 25.0065C433.403 25.0065 433.22 24.9435 433.1 24.8175C432.986 24.6855 432.929 24.5235 432.929 24.3315C432.929 24.1275 432.986 23.9625 433.1 23.8365C433.22 23.7105 433.403 23.6475 433.649 23.6475C433.895 23.6475 434.075 23.7105 434.189 23.8365C434.303 23.9625 434.36 24.1275 434.36 24.3315C434.36 24.5235 434.303 24.6855 434.189 24.8175C434.075 24.9435 433.895 25.0065 433.649 25.0065ZM438.44 30.6495C438.02 30.6495 437.651 30.5775 437.333 30.4335C437.021 30.2895 436.76 30.0975 436.55 29.8575C436.346 29.6115 436.19 29.3385 436.082 29.0385C435.98 28.7385 435.929 28.4325 435.929 28.1205V27.9495C435.929 27.6255 435.98 27.3135 436.082 27.0135C436.19 26.7075 436.346 26.4375 436.55 26.2035C436.76 25.9635 437.018 25.7745 437.324 25.6365C437.63 25.4925 437.984 25.4205 438.386 25.4205C438.914 25.4205 439.355 25.5375 439.709 25.7715C440.069 25.9995 440.339 26.3025 440.519 26.6805C440.699 27.0525 440.789 27.4545 440.789 27.8865V28.3365H436.46V27.5715H440.006L439.619 27.9495C439.619 27.6375 439.574 27.3705 439.484 27.1485C439.394 26.9265 439.256 26.7555 439.07 26.6355C438.89 26.5155 438.662 26.4555 438.386 26.4555C438.11 26.4555 437.876 26.5185 437.684 26.6445C437.492 26.7705 437.345 26.9535 437.243 27.1935C437.147 27.4275 437.099 27.7095 437.099 28.0395C437.099 28.3455 437.147 28.6185 437.243 28.8585C437.339 29.0925 437.486 29.2785 437.684 29.4165C437.882 29.5485 438.134 29.6145 438.44 29.6145C438.746 29.6145 438.995 29.5545 439.187 29.4345C439.379 29.3085 439.502 29.1555 439.556 28.9755H440.708C440.636 29.3115 440.498 29.6055 440.294 29.8575C440.09 30.1095 439.829 30.3045 439.511 30.4425C439.199 30.5805 438.842 30.6495 438.44 30.6495ZM443.833 30.4785L444.76 25.7535H446.2L447.271 30.4785H446.281L445.192 25.7805H445.714L444.751 30.4785H443.833ZM443.464 30.4785L443.455 29.4525H444.454V30.4785H443.464ZM442.96 30.4785L441.628 25.5915H442.843L444.112 30.4785H442.96ZM446.596 30.4785V29.4525H447.595L447.586 30.4785H446.596ZM446.992 30.4785L448.117 25.5915H449.251L448.072 30.4785H446.992ZM452.335 30.6315C451.663 30.6315 451.135 30.4905 450.751 30.2085C450.373 29.9205 450.175 29.5245 450.157 29.0205H451.282C451.3 29.1885 451.393 29.3415 451.561 29.4795C451.729 29.6175 451.993 29.6865 452.353 29.6865C452.653 29.6865 452.89 29.6325 453.064 29.5245C453.244 29.4165 453.334 29.2695 453.334 29.0835C453.334 28.9215 453.265 28.7925 453.127 28.6965C452.995 28.6005 452.767 28.5375 452.443 28.5075L452.011 28.4625C451.465 28.4025 451.045 28.2465 450.751 27.9945C450.457 27.7425 450.31 27.4065 450.31 26.9865C450.31 26.6505 450.394 26.3685 450.562 26.1405C450.73 25.9125 450.961 25.7415 451.255 25.6275C451.555 25.5075 451.897 25.4475 452.281 25.4475C452.881 25.4475 453.367 25.5795 453.739 25.8435C454.111 26.1075 454.306 26.4945 454.324 27.0045H453.199C453.187 26.8365 453.103 26.6925 452.947 26.5725C452.791 26.4525 452.566 26.3925 452.272 26.3925C452.008 26.3925 451.804 26.4435 451.66 26.5455C451.516 26.6475 451.444 26.7795 451.444 26.9415C451.444 27.0975 451.501 27.2175 451.615 27.3015C451.735 27.3855 451.927 27.4425 452.191 27.4725L452.623 27.5175C453.199 27.5775 453.649 27.7365 453.973 27.9945C454.303 28.2525 454.468 28.6005 454.468 29.0385C454.468 29.3625 454.378 29.6445 454.198 29.8845C454.024 30.1185 453.778 30.3015 453.46 30.4335C453.142 30.5655 452.767 30.6315 452.335 30.6315Z" fill="#37384F"/>
<path fill-rule="evenodd" clip-rule="evenodd" d="M132.817 15.4281H136.241V18.5945H132.817V15.4281ZM44.9091 15.4282H62.2283V18.5946H55.409V36.4439H51.6713V18.5946H44.8806L44.9091 15.4282ZM61.4865 21.2287H64.6821V24.1709H64.7392C64.8533 23.7506 65.053 23.3583 65.3383 22.966C65.6237 22.5737 65.9661 22.2094 66.394 21.9012C66.7935 21.5649 67.25 21.3127 67.7636 21.1166C68.2486 20.9204 68.7622 20.8084 69.2758 20.8084C69.5258 20.8084 69.7312 20.8193 69.8848 20.8276C69.9766 20.8325 70.0499 20.8364 70.1032 20.8364C70.2459 20.8644 70.4171 20.8924 70.5598 20.8924V24.1148C70.3315 24.0588 70.0747 24.0308 69.8179 24.0028L69.748 23.9951C69.519 23.9698 69.3093 23.9467 69.0761 23.9467C68.5054 23.9467 67.9633 24.0588 67.4497 24.283C66.9362 24.5071 66.5082 24.8434 66.1087 25.2637C65.7378 25.712 65.4239 26.2444 65.1957 26.8889C64.9674 27.5334 64.8533 28.29 64.8533 29.1306V36.36H61.4294L61.4865 21.2287ZM82.8856 36.4438H86.2524H86.281V21.2284H82.8571V30.055C82.8571 30.6435 82.8 31.2039 82.6574 31.7083C82.5147 32.2126 82.315 32.661 82.0011 33.0253C81.7158 33.3895 81.3163 33.6697 80.8313 33.8939C80.3462 34.1181 79.7471 34.2302 79.0338 34.2302C78.0922 34.2302 77.3503 33.9499 76.8368 33.3895C76.2946 32.8571 76.0379 31.9044 76.0379 30.5594V21.2284H72.614V30.8957C72.614 32.8851 73.0705 34.3983 73.9835 35.379C74.8966 36.3878 76.3802 36.8641 78.406 36.8641C79.262 36.8641 80.118 36.64 80.9454 36.1636C81.7729 35.6872 82.4006 35.0988 82.8285 34.3142H82.8856V36.4438ZM92.0729 31.5682C92.1871 32.549 92.558 33.2215 93.2142 33.6418C93.8705 34.0341 94.6694 34.2302 95.5824 34.2302C95.8963 34.2302 96.2672 34.2022 96.6666 34.1462C97.0661 34.0901 97.4655 34.006 97.8079 33.8659C98.1788 33.7258 98.4642 33.5297 98.6924 33.2495C98.9207 32.9693 99.0348 32.633 99.0063 32.2127C98.9778 31.7924 98.8351 31.4281 98.5212 31.1479C98.2074 30.8677 97.8365 30.6716 97.3799 30.4754C96.9234 30.3073 96.3813 30.1672 95.7821 30.0551C95.2947 29.9639 94.8072 29.8542 94.3044 29.741L94.3042 29.741L94.3041 29.7409C94.1889 29.715 94.073 29.6889 93.9561 29.6628C93.3284 29.5227 92.7006 29.3546 92.1015 29.1584C91.5023 28.9623 90.9887 28.7101 90.5037 28.3458C90.0471 28.0096 89.6477 27.5893 89.3909 27.0569C89.1056 26.5245 88.9629 25.908 88.9629 25.1234C88.9629 24.2828 89.1626 23.6103 89.5906 23.0499C89.9901 22.4894 90.5322 22.0411 91.1599 21.7049C91.7876 21.3686 92.5009 21.1164 93.2713 20.9763C94.0417 20.8362 94.7835 20.7802 95.4683 20.7802C96.2672 20.7802 97.0376 20.8642 97.7509 21.0324C98.4642 21.2005 99.1489 21.4527 99.7196 21.845C100.319 22.2092 100.804 22.7136 101.175 23.302C101.574 23.8905 101.802 24.619 101.917 25.4597H98.35C98.1788 24.6471 97.8079 24.1147 97.2373 23.8344C96.6381 23.5542 95.9819 23.4141 95.2115 23.4141C94.9832 23.4141 94.6694 23.4422 94.3556 23.4702L94.3555 23.4702C94.0131 23.5262 93.7278 23.5823 93.414 23.6943C93.1286 23.8064 92.8718 23.9746 92.6721 24.1707C92.4724 24.3668 92.3583 24.6471 92.3583 24.9833C92.3583 25.4036 92.5009 25.7118 92.7862 25.964C93.0716 26.2162 93.4425 26.4124 93.9275 26.6085C94.3841 26.7766 94.9262 26.9167 95.5253 27.0288C96.1245 27.1409 96.7522 27.281 97.3799 27.4211C98.0077 27.5612 98.6068 27.7294 99.206 27.9255C99.8052 28.1216 100.347 28.3738 100.804 28.7381C101.26 29.0744 101.66 29.4947 101.945 29.9991C102.23 30.5034 102.373 31.1479 102.373 31.8765C102.373 32.7731 102.173 33.5297 101.745 34.1742C101.317 34.7906 100.775 35.323 100.119 35.7153C99.4628 36.1076 98.6924 36.3878 97.8935 36.584C97.0661 36.7521 96.2672 36.8642 95.4683 36.8642C94.4982 36.8642 93.5851 36.7521 92.7577 36.5279C91.9303 36.3038 91.1884 35.9675 90.5893 35.5472C89.9901 35.0989 89.505 34.5665 89.1626 33.894C88.8203 33.2495 88.6205 32.4649 88.592 31.5402H92.0444V31.5682H92.0729ZM105.94 21.2283H103.343V23.7222H105.94V32.6889C105.968 33.3054 106.025 33.8938 106.14 34.3701C106.254 34.8465 106.453 35.2388 106.767 35.5751C107.081 35.8833 107.509 36.1355 108.051 36.3036C108.593 36.4717 109.307 36.5558 110.22 36.5558C110.619 36.5558 110.962 36.5558 111.332 36.4997C111.703 36.4717 112.074 36.4437 112.445 36.3877V33.7817C112.24 33.8322 112.011 33.8599 111.801 33.8854L111.732 33.8938C111.504 33.9218 111.247 33.9218 111.019 33.9218C110.619 33.9218 110.334 33.8658 110.106 33.7817C109.906 33.6976 109.735 33.5575 109.621 33.3894C109.535 33.2213 109.449 32.9971 109.421 32.7449C109.392 32.4647 109.364 32.1845 109.364 31.8202V23.6942H112.445V21.2003H109.364V16.6329H105.94V21.2283ZM114.87 21.2287H118.066V23.3022H118.123C118.608 22.4056 119.264 21.7891 120.12 21.3968C120.976 21.0045 121.889 20.8084 122.917 20.8084C124.143 20.8084 125.199 21.0045 126.112 21.4528C127.025 21.8732 127.767 22.4336 128.366 23.1901C128.965 23.9187 129.422 24.7873 129.707 25.7681C129.993 26.7488 130.164 27.8136 130.164 28.9064C130.164 29.9432 130.021 30.9239 129.764 31.8766C129.479 32.8293 129.08 33.698 128.537 34.4265C127.995 35.1551 127.311 35.7435 126.455 36.1919C125.599 36.6402 124.629 36.8644 123.487 36.8644C123.002 36.8644 122.489 36.8083 122.004 36.7243C121.518 36.6402 121.033 36.5001 120.577 36.3039C120.12 36.1078 119.692 35.8556 119.322 35.5474C118.922 35.2391 118.608 34.8749 118.351 34.4826H118.294V42.0763H114.87V21.2287ZM126.512 26.8605C126.711 27.505 126.797 28.1775 126.797 28.85C126.797 29.5225 126.711 30.167 126.569 30.8395C126.426 31.484 126.169 32.0444 125.827 32.5488C125.456 33.0251 125.028 33.4454 124.486 33.7537C123.944 34.0619 123.316 34.23 122.517 34.23C121.804 34.23 121.205 34.0899 120.663 33.8097C120.121 33.5295 119.664 33.1652 119.293 32.6889C118.894 32.2125 118.637 31.6521 118.437 31.0076C118.237 30.3631 118.152 29.6626 118.152 28.878C118.152 27.2528 118.523 25.9358 119.236 24.9551C119.978 23.9744 121.062 23.498 122.489 23.498C123.173 23.498 123.801 23.6381 124.343 23.9463C124.857 24.2546 125.313 24.6469 125.684 25.1512C126.055 25.6556 126.341 26.216 126.512 26.8605ZM136.241 21.2284H132.817V36.4438H136.241V21.2284ZM139.294 15.4281H142.718V36.4438H139.294V15.4281ZM149.851 36.2479C150.821 36.6682 151.934 36.8644 153.161 36.8644C154.416 36.8644 155.5 36.6402 156.47 36.2479C157.441 35.8556 158.268 35.2952 158.924 34.5947C159.58 33.8661 160.065 33.0255 160.436 32.0448C160.807 31.064 160.979 29.9992 160.979 28.8224C160.979 27.6735 160.779 26.6087 160.436 25.628C160.094 24.6472 159.58 23.7786 158.924 23.0781C158.239 22.3775 157.441 21.8171 156.47 21.4248C155.5 21.0045 154.388 20.8084 153.161 20.8084C151.934 20.8084 150.821 21.0325 149.851 21.4248C148.881 21.8171 148.053 22.3775 147.397 23.0781C146.741 23.8066 146.227 24.6472 145.885 25.628C145.514 26.6087 145.343 27.6735 145.343 28.8224C145.343 29.9712 145.543 31.064 145.885 32.0448C146.227 33.0255 146.741 33.8941 147.397 34.5947C148.082 35.2952 148.881 35.8276 149.851 36.2479ZM153.161 34.202C153.903 34.202 154.588 34.0339 155.13 33.7256C155.7 33.4174 156.128 32.9971 156.499 32.4927C156.87 31.9883 157.127 31.3999 157.298 30.7834C157.469 30.139 157.555 29.4945 157.555 28.822C157.555 28.1775 157.469 27.533 157.298 26.8885C157.127 26.2441 156.87 25.6836 156.499 25.1793C156.128 24.6749 155.672 24.2826 155.13 23.9744C154.559 23.6661 153.903 23.498 153.161 23.498C152.419 23.498 151.734 23.6661 151.192 23.9744C150.622 24.2826 150.194 24.7029 149.823 25.1793C149.452 25.6836 149.195 26.2441 149.024 26.8885C148.853 27.533 148.767 28.1775 148.767 28.822C148.767 29.4945 148.853 30.139 149.024 30.7834C149.195 31.4279 149.452 31.9883 149.823 32.4927C150.194 32.9971 150.65 33.4174 151.192 33.7256C151.763 34.0619 152.419 34.202 153.161 34.202ZM164.602 21.2283H162.006V23.7222H164.602V32.6889C164.631 33.3054 164.688 33.8938 164.802 34.3701C164.916 34.8465 165.116 35.2388 165.43 35.5751C165.744 35.8833 166.172 36.1355 166.714 36.3036C167.256 36.4717 167.969 36.5558 168.882 36.5558C169.282 36.5558 169.624 36.5558 169.995 36.4997C170.366 36.4717 170.737 36.4437 171.108 36.3877V33.7817C170.902 33.8322 170.673 33.8599 170.463 33.8854C170.44 33.8882 170.417 33.891 170.394 33.8938C170.166 33.9218 169.909 33.9218 169.681 33.9218C169.282 33.9218 168.996 33.8658 168.768 33.7817C168.568 33.6976 168.397 33.5575 168.283 33.3894C168.197 33.2213 168.112 32.9971 168.083 32.7449C168.055 32.4647 168.026 32.1845 168.026 31.8202V23.6942H171.108V21.2003H168.026V16.6329H164.602V21.2283Z" fill="black"/>
<path d="M40.6731 15.0068H25.1341L20.3507 0L15.539 15.0068L0 14.978L12.5671 24.2638L7.75535 39.2706L20.3224 29.9848L32.8895 39.2706L28.1061 24.2638L40.6731 15.0068Z" fill="#00B67A"/>
<path d="M29.4527 28.5719L28.4278 25.2454L21.0376 30.8554L29.4527 28.5719Z" fill="#005128"/>
<path fill-rule="evenodd" clip-rule="evenodd" d="M220.875 14.025H244.806V37.8552H220.875V14.025ZM194.95 14.0252H218.881V37.8554H194.95V14.0252ZM270.73 14.025H246.8V37.8552H270.73V14.025ZM272.725 14.025H296.655V37.8552H272.725V14.025ZM322.58 14.025H298.649V37.8552H322.58V14.025Z" fill="#00B67A"/>
<path fill-rule="evenodd" clip-rule="evenodd" d="M235.478 24.103H241.893L236.726 27.7416L233.531 29.9733L228.339 33.6119L230.311 27.7416L225.119 24.103H231.534L233.506 18.2327L235.478 24.103ZM209.517 24.103H215.932L210.765 27.7416L207.57 29.9733L202.378 33.612L204.35 27.7416L199.158 24.103H205.573L207.545 18.2327L209.517 24.103ZM211.19 29.1006L207.545 29.9981L212.713 33.661L211.19 29.1006ZM233.506 29.9981L237.15 29.1006L238.673 33.661L233.506 29.9981ZM259.466 29.9981L263.111 29.1006L264.634 33.661L259.466 29.9981ZM261.438 24.103H267.854L262.686 27.7416L259.491 29.9733L254.299 33.6119L256.271 27.7416L251.079 24.103H257.494L259.466 18.2327L261.438 24.103ZM285.427 29.9981L289.072 29.1006L290.594 33.661L285.427 29.9981ZM287.399 24.103H293.814L288.647 27.7416L285.452 29.9733L280.26 33.6119L282.232 27.7416L277.04 24.103H283.455L285.427 18.2327L287.399 24.103ZM311.387 29.9981L315.032 29.1006L316.555 33.661L311.387 29.9981ZM313.36 24.103H319.775L314.608 27.7416L311.413 29.9733L306.22 33.6119L308.192 27.7416L303 24.103H309.416L311.388 18.2327L313.36 24.103Z" fill="white"/>
</svg>
