<svg width="26" height="25" viewBox="0 0 26 25" fill="none" xmlns="http://www.w3.org/2000/svg">
<path fill-rule="evenodd" clip-rule="evenodd" d="M16.0223 19.782C15.5071 19.782 12.6552 19.7145 11.9273 19.7145C11.1989 19.7145 7.40336 18.5307 7.40336 14.3549C7.40336 13.6112 7.40285 12.8635 7.40082 12.1188C7.39777 11.4248 7.38305 10.7319 7.38102 10.0425C7.38051 9.84152 7.3795 9.63999 7.37848 9.43896C7.37341 8.38714 7.28457 7.20334 7.62265 6.19264C7.88154 5.42256 8.49374 5.11391 9.24756 5.11391C11.072 5.11391 11.1938 6.9744 11.1989 8.84198H16.4716C17.3066 8.84198 17.93 9.68872 17.93 10.9847C17.93 12.2797 16.5792 12.5701 15.8715 12.5701H11.1405C11.1166 13.363 11.0912 14.0087 11.0912 14.4011C11.0912 15.226 11.4131 16.1194 13.4278 16.1194H16.2594C16.966 16.1194 18.0158 16.655 18.0158 18.151C18.0158 19.645 16.537 19.782 16.0223 19.782ZM12.6624 0C5.75816 0 0.162109 5.5982 0.162109 12.5005C0.162109 19.4043 5.75816 25 12.6624 25C19.5661 25 25.1621 19.4043 25.1621 12.5005C25.1621 5.5982 19.5661 0 12.6624 0Z" fill="#231F20"/>
</svg>
