<svg width="24" height="25" viewBox="0 0 24 25" fill="none" xmlns="http://www.w3.org/2000/svg">
<path fill-rule="evenodd" clip-rule="evenodd" d="M17.7744 9.91702C17.7802 10.0452 17.7826 10.1733 17.7826 10.3025C17.7826 14.2389 14.7864 18.7778 9.30768 18.7778C7.62576 18.7778 6.05952 18.2849 4.74144 17.4396C4.97424 17.4669 5.21136 17.4809 5.45184 17.4809C6.84768 17.4809 8.13216 17.0047 9.1512 16.206C7.848 16.1815 6.74784 15.3204 6.36912 14.1372C6.55056 14.1722 6.7368 14.1905 6.92928 14.1905C7.20144 14.1905 7.46448 14.1545 7.71456 14.0863C6.35136 13.8122 5.32464 12.6084 5.32464 11.166C5.32464 11.1525 5.32464 11.1405 5.32512 11.1281C5.7264 11.3508 6.18576 11.4852 6.67392 11.501C5.87472 10.9658 5.34864 10.0548 5.34864 9.02135C5.34864 8.4751 5.49552 7.96342 5.75232 7.52374C7.22112 9.32614 9.41616 10.5113 11.892 10.6356C11.8411 10.4177 11.8152 10.1901 11.8152 9.95686C11.8152 8.3119 13.1486 6.97846 14.7936 6.97846C15.6504 6.97846 16.4246 7.34038 16.9675 7.91878C17.6467 7.78582 18.2842 7.53718 18.8597 7.1959C18.637 7.8919 18.1646 8.47558 17.5493 8.84422C18.1526 8.77174 18.7262 8.61142 19.2605 8.37478C18.8616 8.9719 18.3562 9.49702 17.7744 9.91702ZM11.82 0.480225C5.292 0.480225 0 5.77318 0 12.3002C0 18.8277 5.292 24.1193 11.82 24.1193C18.3475 24.1193 23.639 18.8277 23.639 12.3002C23.639 5.77318 18.3475 0.480225 11.82 0.480225Z" fill="#FEFEFE"/>
</svg>
