<svg width="22" height="22" viewBox="0 0 22 22" fill="none" xmlns="http://www.w3.org/2000/svg">
<path d="M2.99998 -9.68575e-07C2.7441 -9.68575e-07 2.48794 0.0974677 2.29294 0.292968L0.292945 2.29297C-0.0980552 2.68397 -0.0980552 3.31703 0.292945 3.70703L7.58591 11L0.292945 18.293C-0.0980552 18.684 -0.0980552 19.317 0.292945 19.707L2.29294 21.707C2.68394 22.098 3.31701 22.098 3.70701 21.707L11 14.4141L18.2929 21.707C18.6829 22.098 19.317 22.098 19.707 21.707L21.707 19.707C22.098 19.316 22.098 18.683 21.707 18.293L14.414 11L21.707 3.70703C22.098 3.31703 22.098 2.68297 21.707 2.29297L19.707 0.292968C19.316 -0.0980323 18.6829 -0.0980323 18.2929 0.292968L11 7.58594L3.70701 0.292968C3.51151 0.0974677 3.25585 -9.68575e-07 2.99998 -9.68575e-07Z" fill="#555A5A"/>
</svg>
