<svg width="45" height="36" viewBox="0 0 45 36" fill="none" xmlns="http://www.w3.org/2000/svg">
<g clip-path="url(#clip0_782_417)">
<mask id="mask0_782_417" style="mask-type:luminance" maskUnits="userSpaceOnUse" x="0" y="0" width="45" height="36">
<path d="M45 0H0V36H45V0Z" fill="white"/>
</mask>
<g mask="url(#mask0_782_417)">
<path d="M40.2999 27.9V23.9C40.2999 22.9 40.6999 22 41.3999 21.3C42.0999 20.6 42.9999 20.2 43.8999 20.2H44.9999V15.7H43.8999C41.7999 15.7 39.7999 16.6 38.2999 18.1C36.7999 19.6 35.9999 21.7 35.9999 23.8V27.8C35.9999 28.8 35.5999 29.7 34.9999 30.4C34.3999 31.1 33.3999 31.5 32.4999 31.5H31.3999V36H32.4999C34.5999 36 36.5999 35.0999 38.0999 33.5999C39.4999 32.0999 40.2999 30 40.2999 27.9Z" fill="#37384F"/>
<path d="M4.7 12.1C4.7 13.1 4.3 14 3.7 14.7C3 15.4 2.1 15.8 1.2 15.8H0V20.3H1.1C3.2 20.3 5.2 19.4 6.7 17.9C8.2 16.4 9 14.3 9 12.2V8.2C9 7.2 9.4 6.3 10 5.6C10.7 4.9 11.6 4.5 12.5 4.5H13.6V0H12.5C10.5 0 8.5 0.9 7 2.4C5.5 3.9 4.7 6 4.6 8.1L4.7 12.1Z" fill="#37384F"/>
<path d="M9.10005 27.9V23.9C9.10005 21.9 8.40005 19.9 7.00005 18.5C5.80005 19.6 4.40005 20.4 2.80005 20.7C3.40005 21 3.80005 21.5 4.20005 22C4.50005 22.6 4.70005 23.2 4.70005 23.9V27.9C4.70005 30.1 5.50005 32.1 7.00005 33.6C8.50005 35.1 10.5 36 12.6 36H13.7V31.5H12.6C11.7 31.5 10.7 31.1 10.1 30.4C9.40005 29.8 9.10005 28.8 9.10005 27.9Z" fill="#37384F"/>
<path d="M35.9001 8.1V12.1C35.9001 14.1 36.6 16 38 17.5C39.2 16.4 40.6001 15.6 42.2001 15.3C41.6001 15 41.2 14.5 40.8 14C40.5 13.4 40.3 12.8 40.3 12.1V8.1C40.3 5.9 39.5 3.9 38 2.4C36.5 0.9 34.5001 0 32.4001 0H31.3V4.5H32.4001C32.9001 4.5 33.3 4.6 33.8 4.8C34.2 5 34.6 5.3 35 5.6C35.3 5.9 35.6 6.3 35.8 6.8C35.9 7.2 35.9001 7.6 35.9001 8.1Z" fill="#37384F"/>
</g>
<path fill-rule="evenodd" clip-rule="evenodd" d="M31 18C31 22.9706 26.9706 27 22 27C17.0294 27 13 22.9706 13 18C13 13.0294 17.0294 9 22 9C26.9706 9 31 13.0294 31 18ZM23 23C23 23.5523 22.5523 24 22 24C21.4477 24 21 23.5523 21 23C21 22.4477 21.4477 22 22 22C22.5523 22 23 22.4477 23 23ZM21.7 11.15C19.7394 11.15 18.15 12.7394 18.15 14.7H19.85C19.85 13.6783 20.6783 12.85 21.7 12.85H22.4198C23.3753 12.85 24.15 13.6247 24.15 14.5802V14.934C24.15 15.4881 23.7865 15.9766 23.2558 16.1358C22.0059 16.5108 21.15 17.6612 21.15 18.966V21H22.85V18.966C22.85 18.4119 23.2135 17.9234 23.7442 17.7642C24.9941 17.3892 25.85 16.2388 25.85 14.934V14.5802C25.85 12.6858 24.3142 11.15 22.4198 11.15H21.7Z" fill="#13C1C2"/>
</g>
<defs>
<clipPath id="clip0_782_417">
<rect width="45" height="36" fill="white"/>
</clipPath>
</defs>
</svg>
